<?xml version="1.0" encoding="utf-8"?>
<!-- Generator: Adobe Illustrator 19.0.0, SVG Export Plug-In . SVG Version: 6.00 Build 0)  -->
<svg version="1.1" xmlns="http://www.w3.org/2000/svg" xmlns:xlink="http://www.w3.org/1999/xlink" x="0px" y="0px"
	 viewBox="0 0 500 500" style="enable-background:new 0 0 500 500;" xml:space="preserve">
<style type="text/css">
	.st0{fill:#FFFFFF;}
	.st1{fill-rule:evenodd;clip-rule:evenodd;fill:#00639C;}
	.st2{fill-rule:evenodd;clip-rule:evenodd;fill:#548E11;}
	.st3{fill-rule:evenodd;clip-rule:evenodd;fill:#FFEBCF;}
	.st4{fill:#FF9A1A;}
	.st5{fill:#FFEBCF;}
	.st6{fill:#548E11;}
	.st7{fill:#00639C;}
	.st8{fill-rule:evenodd;clip-rule:evenodd;fill:#FF9A1A;}
	.st9{font-family:'JustAnotherHand-Regular';}
	.st10{font-size:42.7302px;}
	.st11{fill:none;}
</style>
<g id="BACKGROUND">
	<rect class="st0" width="500" height="500"/>
</g>
<g id="OBJECTS">
	<g>
		<g>
			<path class="st1" d="M260.5,94.7c-0.3-0.7-0.3-1.6-0.2-2.4c0.1-0.9,0.3-1.7,0.6-2.6c0.6-2.1,2.5-4.2,4.4-5.2
				c0.6-0.3,1.4-0.7,2.1-0.6c1.6,0.2,1.9,2.2,1.5,3.5c-0.3,0.9-1,1.6-1.7,2.3c-1,1-2.3,1.7-3.4,2.5c-0.8,0.6-1.6,1.2-2.4,1.8
				C261.2,94.2,260.6,95,260.5,94.7z"/>
			<path class="st1" d="M247.5,94.9c-2.6-2.5-6.6-4-8.1-7.5c-0.6-1.4-0.8-3.3,0.5-4.4c0.3-0.3,1-0.3,1.4-0.3c1.1,0,2,0.5,2.8,1.1
				c2.4,1.8,3.8,5.1,4,8c0,0.8,0.3,1.9-0.1,2.6C247.8,94.6,247.7,95.1,247.5,94.9z"/>
			<path class="st2" d="M253.6,201.7c-0.7-0.6-1.4-1.1-2.2-1.6c-2.1-1.2-5.5-2.4-7.7-1c-1.7,1.1,0.7,2.8,1.6,3.2
				c2.7,1.4-1.5-0.7,0.6,0.3c0.9,0.4-0.3,0,0.9,0.4c0.6,0.2,1.2,0.4,1.8,0.6c0.2,0.1,0.4,0.1,0.6,0.1c0.1,0,0.4,0,0.3,0.1
				c0,0-0.5,0.1-0.5,0.1c-0.7,0.1-1.5,0.4-2.2,0.7c-3.1,1.3-6.4,4-7.2,7.4c-0.1,0.5-0.1,1.1-0.1,1.7c0,0.1,0,0.8,0.1,1
				c1,3.2,5.1,0.9,6.9-0.3c0.5-0.3,1-0.7,1.4-1.1c0.5-0.5,1.2-1,1.6-1.5c0,0-0.1,0.2-0.2,0.3c-0.5,1.3-1,2.8-1.1,4.2
				c-0.2,2.3,0,4.6,1.3,6.5c0.5,0.7,1.1,1.3,1.7,1.9c0.8,0.8,1.6,1.4,2.7,1.5c0.6,0,1.2-0.2,1.7-0.4c4.1-1.4,4.3-7.3,3.6-10.9
				c-0.2-1-0.5-2.1-1-3c0-0.1-0.3-0.9-0.3-0.9c0,0,0.2,0.5,0.2,0.5c0.2,0.3,0.4,0.6,0.6,0.8c0.7,0.9,1.5,1.6,2.4,2.2
				c1.9,1.4,4.7,2.8,6.7,0.9c0.3-0.3,0.5-0.6,0.6-0.9c0.4-1.3,0-2.3-0.4-3.5c-0.8-2.1-2-3.8-3.8-5.1c-0.8-0.6-1.9-0.9-2.8-1.2
				c-1-0.4-2.1-0.7-3.2-1c-0.1,0-0.2-0.1-0.1-0.2c0.5-0.2,1-0.3,1.5-0.4c1.7-0.4,3.3-1.1,4.7-2.3c0.3-0.3,1.2-1,0.7-1.5
				c-0.6-0.6-1.7-0.5-2.5-0.5c-2.1,0.1-4.5,0.8-6.3,2c-0.6,0.4-1.2,0.9-1.7,1.4C254.2,202.2,253.8,201.8,253.6,201.7z"/>
			<path class="st3" d="M251.9,214.1c-1.1,2-1.1,5.2-0.1,7.3c0.3,0.7,1.3,1.9,2.2,1.8c1.4-0.1,2.4-1.8,2.7-3
				c0.8-2.9,0.4-5.6-1.3-8.1c-0.3-0.4-1-0.7-1.4-0.6C252.9,212,252.2,213.7,251.9,214.1z"/>
			<g>
				<path class="st4" d="M211.6,136.1l16-0.4l3.8-3.6l-1.6-3.5C229.8,128.6,215.5,125.3,211.6,136.1z"/>
				<path class="st4" d="M280.6,135.4l15.5,0.4c0,0-1.7-9.8-17.4-7.8L280.6,135.4z"/>
				<path class="st4" d="M278.1,129.4c0,0,13.1,0.3,16.3-7.2c0,0-10.6-6.2-18.7-0.7L278.1,129.4z"/>
				<path class="st4" d="M274.7,122.2c0,0,13.5-3.8,12.2-13.9c0,0-11.5-2.9-18,6.5L274.7,122.2z"/>
				<path class="st4" d="M268.3,115.8c0,0,10.6-9.4,6.5-18.4c0,0-12.2,1.3-13.9,13.7L268.3,115.8z"/>
				<path class="st4" d="M258.2,110.9c0,0,4.1-9.3-2.9-17.6c0,0-10.1,7.7-3.7,17L258.2,110.9z"/>
				<path class="st4" d="M248.7,110.9c0,0-3.3-13.6-12.9-15.1c0,0-4.6,11.6,5.5,17.5L248.7,110.9z"/>
				<path class="st4" d="M239.7,115c0,0-6.3-8.6-16.5-6.8c0,0-0.7,10.8,11.2,12.9L239.7,115z"/>
				<path class="st4" d="M233.8,122.4c0,0-8.3-6.3-17.7-2.6c0,0,2.8,9.8,14.3,8.3L233.8,122.4z"/>
				<path class="st5" d="M231.9,126.8c0,0-7.7-0.7-10.5-4.2c0,0,5.7-2.8,12.1,1.5L231.9,126.8z"/>
				<path class="st5" d="M235.7,120.3c0,0-6.8-2.8-7.9-7.6c0,0,5.8-0.6,10.4,4.9L235.7,120.3z"/>
				<path class="st5" d="M243.4,113.4c0,0-5.3-4.6-4.9-10.4c0,0,5.7,2.3,8.2,8.8L243.4,113.4z"/>
				<path class="st5" d="M253.1,111.1c0,0-2.7-7.9,0.9-11.7c0,0,4.3,3.8,2,11.9L253.1,111.1z"/>
				<path class="st5" d="M262.6,112.7c0,0,1.9-8.2,7.9-9.4c0,0,0.5,7.7-5,11.4L262.6,112.7z"/>
				<path class="st5" d="M270.5,117.8c0,0,3.6-7.1,10.6-6.4c0,0-2.1,7.5-8.8,9.4L270.5,117.8z"/>
				<path class="st5" d="M275.9,124.9c0,0,6-5.5,12.2-1.7c0,0-4.4,5.7-11.6,4.5L275.9,124.9z"/>
				<path class="st5" d="M216.3,136l11.3-0.3l2.1-1.9C227.5,132.7,221.5,130.6,216.3,136z"/>
				<path class="st5" d="M291.7,135.7c-3-4.2-9.2-3.4-11.7-2.9l0.6,2.5L291.7,135.7z"/>
				<path class="st6" d="M253.3,112.8c16-0.5,22.3,15,23.9,22.6l3.8,0c0,0-1.2-25.2-26-25.9c-24.9-0.7-27.3,26.2-27.3,26.2l3.8,0
					C232.3,131.9,237.4,113.3,253.3,112.8z"/>
				<path class="st5" d="M239.3,128.4c0,0,7.2-0.2,12.7,7.1l0.6,0c-0.9-3-2.2-9.4,1.2-16c0,0,4.9,4.7,3,16l0.8,0
					c1.7-2.6,5.2-6.9,10.6-7.1c0,0,0.4,3.7-2.7,7.1l11.8-0.1c-1.6-7.5-7.9-23-23.9-22.6c-16,0.5-21,19.1-21.9,22.8l12.4-0.1
					C242,134,239.6,131.5,239.3,128.4z"/>
				<path class="st7" d="M239.3,128.4c0.3,3.1,2.6,5.6,4.6,7.2l8.2,0C246.6,128.2,239.3,128.4,239.3,128.4z"/>
				<path class="st7" d="M268.2,128.4c-5.4,0.3-8.9,4.5-10.6,7.1l7.9,0C268.5,132.1,268.2,128.4,268.2,128.4z"/>
				<path class="st7" d="M253.8,119.5c-3.4,6.6-2.1,13-1.2,16l4.2,0C258.7,124.2,253.8,119.5,253.8,119.5z"/>
			</g>
			<g>
				<path class="st2" d="M229.8,103.9c-1.7-1.1-3.7-1.5-5.8-1.8c-1.5-0.2-3-0.2-4.5-0.7c-1.1-0.4-2.8-1.7-2.2-3.1
					c0.5-1,2.1-1.3,3.1-1.4c2.7-0.2,5.4,0.9,7.4,2.6c0.8,0.8,1.6,1.6,2,2.7c0.1,0.4,0.2,0.9,0.3,1.4
					C230.1,103.8,230.1,104.1,229.8,103.9z"/>
				<path class="st1" d="M218.8,112.8c-0.2-1.1-0.9-2.2-2-2.5c-1.8-0.5-2.6,0.2-3.2,1.1c-0.6,0.9-0.5,2.3-0.5,2.5
					c0.1,1.4,1.4,2.3,2.7,2.4c0.4,0,0.8-0.1,1.2-0.2c0.7-0.1,1.5-0.8,1.7-1.5C218.8,114.1,218.9,113.5,218.8,112.8z"/>
				<path class="st2" d="M207.9,127c-0.9,0.2-1.8-0.5-2.7-0.9c-0.8-0.4-1.6-0.9-2.1-1.5c-0.4-0.5-0.8-1.1-1.1-1.7
					c-1.4-2.9-2.4-7.6,0.9-9.6c1.5-0.9,3.1,0.5,3.7,1.8c0.4,1.1,0.7,2.3,0.7,3.5c0,1.7-0.5,3.4-0.5,5.2c0,0.9,0.2,1.7,0.7,2.5
					C207.6,126.3,208.1,126.9,207.9,127z"/>
				<path class="st8" d="M203.2,152.9c-0.1-1.3-0.3-2.7-0.9-3.9c-0.6-1.4-1.7-2.5-2.8-3.6c-1.1-1.1-2.2-2.2-3.5-3.1
					c-2.2-1.5-4.4-3-5.9-5.2c-0.7-1.1-1.3-2.5-1.2-3.8c0.1-2.5,2.1-4.7,4.3-5.7c3.2-1.3,6.8,0.5,8.9,2.9c3.6,4.2,5.2,10.6,4.3,16
					c-0.3,1.9-0.9,3.9-1.7,5.6c-0.2,0.5-0.6,1.1-1,1.5c-0.1,0.1-0.2,0.3-0.3,0.3C203.3,154,203.2,152.9,203.2,152.9z"/>
				<path class="st2" d="M189.5,144.8c-1,0-2.5,0.3-3.7,1.6c-1.2,1.3-1.4,2.8-0.8,4.4c0.2,0.5,0.7,1.2,1.1,1.6
					c1.2,1.2,3.1,1.2,4.6,0.7c0.8-0.3,1.4-0.7,2-1.3C194.8,149.3,192.6,145,189.5,144.8z"/>
				<path class="st1" d="M205.1,178.4c0.3-0.3-0.6-0.5-0.9-0.8c-0.4-0.4-0.8-1-1.1-1.5c-0.9-1.6-1.4-3.3-1.7-5.1c-0.2-1.5,0-3,0-4.5
					c0-1.7-0.2-3.4-0.5-5c-0.2-0.9-0.3-1.8-0.7-2.7c-1.2-2.5-3.4-4.3-6.3-4.4c-1.4-0.1-3.2,0.6-4.4,1.2c-2.3,1.3-4,4.2-5,6.6
					c-0.5,1.2-0.6,2.5-0.6,3.8c0,1.2-0.1,2.4,0.2,3.5c1.7,5.7,6.9,9.8,12.6,10.6C199.7,180.5,203,180.5,205.1,178.4z"/>
				<path class="st2" d="M200.9,183.6c-1.8-0.2-3.5,0.4-5.3,0.1c-1.2-0.2-2.3-0.8-3.5-1.1c-1.5-0.4-3-0.7-4.6-0.7
					c-0.8,0-1.6,0.1-2.4,0.4c-2.5,1.2-3.1,4.5-1.5,6.7c1.1,1.5,3.3,2.7,5.1,2.8c0.6,0.1,1.1-0.1,1.7-0.1c3.3,0,6.1-1.4,8.4-3.7
					c0.8-0.9,1.7-1.9,2.3-3.1C201.2,184.6,201.3,183.7,200.9,183.6z"/>
				<path class="st1" d="M192.6,195.8c-1,0.8-1.2,1.5-1.4,2.1c-0.2,0.8-0.4,1.9,0,2.7c0.6,1.3,2.2,2.2,3.6,2.2
					c2.2-0.1,4.3-2.9,3.8-5c-0.2-1-1.3-2-2.3-2.2c-0.4-0.1-0.7-0.2-1.1-0.2C195.2,195.1,193.6,195,192.6,195.8z"/>
				<path class="st8" d="M207.7,186.5c-0.9-0.6-2.3,1-3,1.7c-2,2.1-3.4,4.7-2.2,7.6c0.7,1.6,2.5,2.7,4.1,3c0.5,0.1,1.1,0,1.6,0
					c0.1,0,0.8-0.2,0.8-0.2c0,0-0.4,0.1-0.4,0.2c-0.2,0.2-0.4,0.5-0.6,0.7c-0.5,0.8-0.9,1.5-1.3,2.4c-1.2,2.7-1,6.4,0.8,8.8
					c1.9,2.5,5.5,3.6,8.4,2.4c1.1-0.5,2.1-1.2,3.1-1.9c0.4-0.3,0.7-0.5,1.1-0.8c0.2-0.1,0.5-0.3,0.5-0.3s-0.1,0.4-0.1,0.6
					c0,0.5,0.1,1,0.3,1.5c0.6,1.7,1.1,3.4,2.6,4.6c2.2,1.7,5.4,0.6,7.4-0.9c1.7-1.3,2.7-3,3.7-4.9c0.2-0.5,0.4-1,0.6-1.5
					c0.1-0.2,0.3-0.3,0.2-0.5c0-0.1-0.2,0.1-0.4,0.1c-0.2,0-0.4,0-0.7,0c-1.3,0.1-2.6,0.2-3.8,0.2c-2.8-0.2-5.5-1.1-7.9-2.4
					c-2.4-1.3-4.7-3.2-6.3-5.4c-0.9-1.1-1.9-2.1-2.6-3.3c-0.7-1.1-1.3-2.3-1.9-3.4c-0.9-1.5-1.9-3.1-2.6-4.8
					C208.5,188.7,208.7,187.2,207.7,186.5z"/>
				<path class="st5" d="M206.8,190.5c-1.6,1.2-2.3,3.5-0.9,5.1c0.3,0.3,0.7,0.5,1.1,0.7c0.4,0.2,0.8,0.4,1.3,0.4
					c1.3,0.1,2.5-0.5,3.5-1.1c0.1,0,0.2-0.1,0.3-0.1c-0.2-0.3-0.4-0.6-0.6-0.9c-0.9-1.5-1.9-3.1-2.6-4.8c0-0.1-0.1-0.2-0.1-0.3
					c-0.2,0.1-0.5,0.1-0.6,0.2C207.7,189.8,207.3,190.1,206.8,190.5z"/>
				<path class="st5" d="M211.8,201.9c-1.1,2.3-0.4,6.7,2.8,6.7c2.2,0,3.7-1.9,5.1-3.4c0.1-0.1,0.1-0.2,0.2-0.2
					c-1.4-1.1-2.8-2.4-3.8-3.7c-0.7-0.9-1.4-1.7-2.1-2.5c-0.2,0.1-0.3,0.2-0.5,0.4C212.8,199.9,212.2,201,211.8,201.9z"/>
				<path class="st5" d="M225.5,209.9c0.4,2.1,2.2,3.8,4.4,2.7c0.6-0.3,1.1-0.9,1.5-1.5c0.3-0.4,0.4-0.8,0.6-1.3
					c0-0.1,0.1-0.3,0.2-0.6c-0.6,0-1.2,0.1-1.9,0c-1.7-0.1-3.3-0.5-4.8-1C225.4,208.7,225.4,209.3,225.5,209.9z"/>
			</g>
			<g>
				<path class="st2" d="M277.4,103.6c0-0.4,0.1-0.9,0.3-1.4c0.4-1.1,1.1-2,2-2.7c2-1.8,4.7-2.8,7.4-2.6c1,0.1,2.6,0.4,3.1,1.4
					c0.7,1.3-1.1,2.7-2.2,3.1c-1.4,0.5-3,0.5-4.5,0.7c-2,0.3-4,0.7-5.8,1.8C277.4,104.1,277.4,103.8,277.4,103.6z"/>
				<path class="st1" d="M288.7,112.8c0.2-1.1,0.9-2.2,2-2.5c1.8-0.5,2.6,0.2,3.2,1.1c0.6,0.9,0.5,2.3,0.5,2.5
					c-0.1,1.4-1.4,2.3-2.7,2.4c-0.4,0-0.8-0.1-1.2-0.2c-0.7-0.1-1.5-0.8-1.7-1.5C288.7,114.1,288.6,113.5,288.7,112.8z"/>
				<path class="st2" d="M300,126.1c0.5-0.8,0.7-1.6,0.7-2.5c0-1.7-0.4-3.4-0.5-5.2c0-1.2,0.3-2.4,0.7-3.5c0.5-1.3,2.2-2.7,3.7-1.8
					c3.3,2,2.2,6.7,0.9,9.6c-0.3,0.6-0.7,1.2-1.1,1.7c-0.6,0.7-1.4,1.1-2.1,1.5c-0.8,0.4-1.7,1.2-2.7,0.9
					C299.4,126.9,299.9,126.3,300,126.1z"/>
				<path class="st8" d="M304,153.9c-0.1,0-0.2-0.2-0.3-0.3c-0.4-0.4-0.7-1-1-1.5c-0.8-1.7-1.4-3.7-1.7-5.6
					c-0.9-5.4,0.7-11.9,4.3-16c2.1-2.4,5.8-4.2,8.9-2.9c2.2,0.9,4.2,3.2,4.3,5.7c0.1,1.3-0.5,2.7-1.2,3.8c-1.5,2.2-3.8,3.7-5.9,5.2
					c-1.3,0.9-2.4,2-3.5,3.1c-1.1,1.1-2.2,2.2-2.8,3.6c-0.5,1.2-0.8,2.6-0.9,3.9C304.2,152.9,304.2,154,304,153.9z"/>
				<path class="st2" d="M318,144.8c1,0,2.5,0.3,3.7,1.6c1.2,1.3,1.4,2.8,0.8,4.4c-0.2,0.5-0.7,1.2-1.1,1.6
					c-1.2,1.2-3.1,1.2-4.6,0.7c-0.8-0.3-1.4-0.7-2-1.3C312.7,149.3,314.9,145,318,144.8z"/>
				<path class="st1" d="M310.7,180.1c5.8-0.8,10.9-4.9,12.6-10.6c0.3-1.1,0.2-2.3,0.2-3.5c0-1.3-0.1-2.6-0.6-3.8
					c-1-2.4-2.7-5.3-5-6.6c-1.2-0.7-3-1.3-4.4-1.2c-2.8,0.1-5.1,1.9-6.3,4.4c-0.4,0.8-0.5,1.8-0.7,2.7c-0.3,1.6-0.5,3.4-0.5,5
					c0,1.5,0.3,3,0,4.5c-0.3,1.8-0.8,3.6-1.7,5.1c-0.3,0.5-0.7,1-1.1,1.5c-0.3,0.3-1.2,0.5-0.9,0.8
					C304.5,180.5,307.8,180.5,310.7,180.1z"/>
				<path class="st2" d="M306.5,185c0.5,1.1,1.4,2.2,2.3,3.1c2.2,2.4,5.1,3.7,8.4,3.7c0.6,0,1.1,0.2,1.7,0.1c1.8-0.2,4-1.4,5.1-2.8
					c1.6-2.2,1.1-5.5-1.5-6.7c-0.7-0.3-1.6-0.4-2.4-0.4c-1.6-0.1-3.1,0.3-4.6,0.7c-1.2,0.3-2.3,0.9-3.5,1.1
					c-1.8,0.3-3.6-0.3-5.3-0.1C306.2,183.7,306.3,184.6,306.5,185z"/>
				<path class="st1" d="M312.3,195.1c-0.4,0-0.7,0.1-1.1,0.2c-1,0.2-2.1,1.3-2.3,2.2c-0.5,2.1,1.6,4.9,3.8,5c1.4,0.1,3-0.9,3.6-2.2
					c0.4-0.8,0.2-1.8,0-2.7c-0.1-0.6-0.3-1.3-1.4-2.1C313.9,195,312.3,195.1,312.3,195.1z"/>
				<path class="st8" d="M298.5,189.8c-0.7,1.6-1.6,3.3-2.6,4.8c-0.7,1.1-1.3,2.3-1.9,3.4c-0.7,1.2-1.8,2.2-2.6,3.3
					c-1.6,2.2-4,4.1-6.3,5.4c-2.4,1.3-5.1,2.2-7.9,2.4c-1.3,0.1-2.6-0.1-3.8-0.2c-0.2,0-0.5,0-0.7,0c-0.1,0-0.3-0.2-0.4-0.1
					c-0.1,0.2,0.2,0.3,0.2,0.5c0.2,0.5,0.4,1,0.6,1.5c0.9,1.9,2,3.6,3.7,4.9c2,1.5,5.1,2.6,7.4,0.9c1.5-1.2,2-2.9,2.6-4.6
					c0.2-0.5,0.2-1,0.3-1.5c0-0.2-0.1-0.6-0.1-0.6s0.3,0.2,0.5,0.3c0.4,0.2,0.7,0.5,1.1,0.8c1,0.7,2,1.5,3.1,1.9
					c2.9,1.2,6.5,0,8.4-2.4c1.8-2.4,2-6.2,0.8-8.8c-0.4-0.9-0.8-1.6-1.3-2.4c-0.2-0.2-0.4-0.5-0.6-0.7c0,0-0.5-0.1-0.5-0.2
					c0,0,0.8,0.1,0.8,0.2c0.5,0.1,1.1,0.1,1.6,0c1.7-0.3,3.4-1.3,4.1-3c1.2-2.9-0.2-5.6-2.2-7.6c-0.7-0.7-2.1-2.3-3-1.7
					C298.8,187.2,299,188.7,298.5,189.8z"/>
				<path class="st5" d="M300.7,190.5c1.6,1.2,2.3,3.5,0.9,5.1c-0.3,0.3-0.7,0.5-1.1,0.7c-0.4,0.2-0.8,0.4-1.3,0.4
					c-1.3,0.1-2.5-0.5-3.5-1.1c-0.1,0-0.2-0.1-0.3-0.1c0.2-0.3,0.4-0.6,0.6-0.9c0.9-1.5,1.9-3.1,2.6-4.8c0-0.1,0.1-0.2,0.1-0.3
					c0.2,0.1,0.5,0.1,0.6,0.2C299.8,189.8,300.2,190.1,300.7,190.5z"/>
				<path class="st5" d="M295.7,201.9c1.1,2.3,0.4,6.7-2.8,6.7c-2.2,0-3.7-1.9-5.1-3.4c-0.1-0.1-0.1-0.2-0.2-0.2
					c1.4-1.1,2.8-2.4,3.8-3.7c0.7-0.9,1.4-1.7,2.1-2.5c0.2,0.1,0.3,0.2,0.5,0.4C294.6,199.9,295.3,201,295.7,201.9z"/>
				<path class="st5" d="M282,209.9c-0.4,2.1-2.2,3.8-4.4,2.7c-0.6-0.3-1.1-0.9-1.5-1.5c-0.3-0.4-0.4-0.8-0.6-1.3
					c0-0.1-0.1-0.3-0.2-0.6c0.6,0,1.2,0.1,1.9,0c1.7-0.1,3.3-0.5,4.8-1C282.1,208.7,282.1,209.3,282,209.9z"/>
			</g>
		</g>
		<text transform="matrix(1 0 0 1 201.895 173.5772)" class="st7 st9 st10">India</text>
		<g>
			<path id="SVGID_x5F_1_x5F_" class="st11" d="M191.3,196.7c0,0,21.1-8,60-8s65,11.5,65,11.5"/>
			<text>			<textPath  xlink:href="#SVGID_x5F_1_x5F_" startOffset="1.367%">
<tspan  class="st6" style="font-family:'IntroHeadR-Base'; font-size:12.809px;">Independence day</tspan>			</textPath>
</text>
		</g>
	</g>
</g>
<g id="DESIGNED_BY_FREEPIK">
</g>
</svg>
