<svg width="441" height="299" viewBox="0 0 441 299" fill="none" xmlns="http://www.w3.org/2000/svg">
<g id="blind-svg">
<path id="XMLID_584_" d="M64.2002 296.287C76.2855 284.439 82.3666 277.837 89.9103 258.934C97.377 240.032 106.537 225.38 106.537 225.38L83.9831 227.913L40.0297 268.34L22.0942 289.323L64.2002 296.287Z" fill="#D6CBBA"/>
<path id="XMLID_583_" d="M330.461 226.466C338.082 231.711 341.315 247.539 348.55 264.994C355.786 282.359 365.408 294.116 365.408 294.116L402.742 290.77C402.742 290.77 369.411 240.123 359.712 230.445C350.013 220.858 330.461 226.466 330.461 226.466Z" fill="#D6CBBA"/>
<path id="XMLID_582_" d="M349.474 206.478H74.0532V238.495H349.474V206.478Z" fill="#D6CBBA"/>
<g id="XMLID_22_">
<g id="XMLID_577_">
<path id="XMLID_580_" d="M328.152 227.008H64.7389C59.7354 227.008 56.8103 219.683 58.5808 216.789L99.6091 156.645C100.456 155.288 103.92 154.113 107.307 154.113H285.507C288.894 154.113 292.358 155.198 293.204 156.645L334.387 217.06C336.234 219.864 333.155 227.008 328.152 227.008Z" fill="#4E4C4D"/>
<path id="XMLID_579_" d="M328.152 221.311H64.7389C59.7354 221.311 57.1182 218.959 58.8887 216.065L99.6091 150.947C100.456 149.59 103.92 148.415 107.307 148.415H285.507C288.894 148.415 292.358 149.5 293.204 150.947L333.925 216.065C335.772 218.959 333.155 221.311 328.152 221.311Z" fill="#F6F6F6"/>
<path id="XMLID_578_" opacity="0.5" d="M63.2764 215.794L102.226 151.58C102.688 150.857 104.459 150.224 106.306 150.224H287.046C288.817 150.224 290.664 150.766 291.126 151.58L330.23 215.794C331.154 217.241 329.845 217.693 327.074 217.693H66.2785C63.7382 217.331 62.3527 217.241 63.2764 215.794Z" stroke="#DFDFDF" stroke-miterlimit="10"/>
</g>
<g id="XMLID_572_">
<path id="XMLID_576_" d="M107.307 0H285.507C288.894 0 291.665 3.2559 291.665 7.23533V138.014C291.665 141.993 288.894 145.249 285.507 145.249H107.307C103.92 145.249 101.149 141.993 101.149 138.014V7.14488C101.149 3.16545 103.92 0 107.307 0Z" fill="#818488"/>
<path id="XMLID_575_" d="M107.307 3.25592H285.507C288.894 3.25592 291.665 6.51182 291.665 10.4912V141.27C291.665 145.249 288.894 148.505 285.507 148.505H107.307C103.92 148.505 101.149 145.249 101.149 141.27V10.4008C101.149 6.42139 103.92 3.25592 107.307 3.25592Z" fill="#4E4C4D"/>
<path id="XMLID_574_" opacity="0.5" d="M282.659 12.7523H109.847V137.743H282.659V12.7523Z" fill="#B8C5E2"/>
<path id="XMLID_573_" opacity="0.5" d="M279.426 15.1038H113.003V135.482H279.426V15.1038Z" fill="#B8C5E2"/>
</g>
<g id="XMLID_440_">
<path id="XMLID_571_" d="M111.695 157.188H105.383C104.767 157.188 104.382 157.007 104.536 156.735L105.306 155.379C105.46 155.107 106.075 154.927 106.691 154.927H112.849C113.465 154.927 113.85 155.107 113.696 155.379L113.003 156.735C112.926 157.007 112.311 157.188 111.695 157.188Z" fill="#C4D1CF"/>
<path id="XMLID_570_" d="M122.779 157.188H116.467C115.851 157.188 115.466 157.007 115.543 156.735L116.236 155.379C116.39 155.107 117.006 154.927 117.622 154.927H123.78C124.395 154.927 124.78 155.107 124.703 155.379L124.088 156.735C124.011 157.007 123.395 157.188 122.779 157.188Z" fill="#C4D1CF"/>
<path id="XMLID_569_" d="M133.864 157.188H127.552C126.936 157.188 126.551 157.007 126.628 156.735L127.244 155.379C127.321 155.107 127.937 154.927 128.552 154.927H134.71C135.326 154.927 135.711 155.107 135.634 155.379L135.095 156.735C135.095 157.007 134.479 157.188 133.864 157.188Z" fill="#C4D1CF"/>
<path id="XMLID_560_" d="M144.948 157.188H138.636C138.02 157.188 137.559 157.007 137.712 156.735L138.174 155.379C138.251 155.107 138.867 154.927 139.483 154.927H145.641C146.257 154.927 146.719 155.107 146.642 155.379L146.18 156.735C146.18 157.007 145.564 157.188 144.948 157.188Z" fill="#C4D1CF"/>
<path id="XMLID_559_" d="M156.033 157.188H149.721C149.105 157.188 148.643 157.007 148.72 156.735L149.105 155.379C149.182 155.107 149.721 154.927 150.337 154.927H156.495C157.11 154.927 157.572 155.107 157.495 155.379L157.187 156.735C157.264 157.007 156.649 157.188 156.033 157.188Z" fill="#C4D1CF"/>
<path id="XMLID_558_" d="M167.118 157.188H160.806C160.19 157.188 159.728 157.007 159.805 156.735L160.113 155.379C160.19 155.107 160.729 154.927 161.345 154.927H167.503C168.118 154.927 168.58 155.107 168.503 155.379L168.272 156.735C168.272 157.007 167.734 157.188 167.118 157.188Z" fill="#C4D1CF"/>
<path id="XMLID_557_" d="M178.202 157.188H171.89C171.274 157.188 170.812 157.007 170.812 156.735L171.043 155.379C171.12 155.107 171.582 154.927 172.198 154.927H178.356C178.972 154.927 179.434 155.107 179.434 155.379L179.28 156.735C179.357 157.007 178.818 157.188 178.202 157.188Z" fill="#C4D1CF"/>
<path id="XMLID_556_" d="M189.286 157.188H182.974C182.359 157.188 181.897 157.007 181.897 156.735L182.051 155.379C182.051 155.107 182.59 154.927 183.205 154.927H189.363C189.979 154.927 190.441 155.107 190.441 155.379L190.364 156.735C190.441 157.007 189.902 157.188 189.286 157.188Z" fill="#C4D1CF"/>
<path id="XMLID_555_" d="M200.371 157.188H194.059C193.443 157.188 192.905 157.007 192.905 156.735V155.379C192.905 155.107 193.443 154.927 194.059 154.927H200.217C200.833 154.927 201.372 155.107 201.372 155.379L201.449 156.735C201.526 157.007 200.987 157.188 200.371 157.188Z" fill="#C4D1CF"/>
<path id="XMLID_554_" d="M211.456 157.188H205.144C204.528 157.188 203.989 157.007 203.989 156.735L203.912 155.379C203.912 155.107 204.374 154.927 204.99 154.927H211.148C211.764 154.927 212.303 155.107 212.303 155.379L212.457 156.735C212.534 157.007 212.072 157.188 211.456 157.188Z" fill="#C4D1CF"/>
<path id="XMLID_553_" d="M222.541 157.188H216.229C215.613 157.188 215.074 157.007 215.074 156.735L214.92 155.379C214.92 155.107 215.382 154.927 215.998 154.927H222.156C222.771 154.927 223.31 155.107 223.31 155.379L223.541 156.735C223.618 157.007 223.156 157.188 222.541 157.188Z" fill="#C4D1CF"/>
<path id="XMLID_552_" d="M233.625 157.188H227.313C226.697 157.188 226.158 157.007 226.081 156.735L225.85 155.379C225.773 155.107 226.235 154.927 226.851 154.927H233.009C233.625 154.927 234.164 155.107 234.241 155.379L234.549 156.735C234.703 157.007 234.241 157.188 233.625 157.188Z" fill="#C4D1CF"/>
<path id="XMLID_551_" d="M244.709 157.188H238.397C237.781 157.188 237.243 157.007 237.166 156.735L236.858 155.379C236.781 155.107 237.243 154.927 237.858 154.927H244.017C244.632 154.927 245.171 155.107 245.248 155.379L245.633 156.735C245.787 157.007 245.325 157.188 244.709 157.188Z" fill="#C4D1CF"/>
<path id="XMLID_550_" d="M255.794 157.188H249.482C248.866 157.188 248.25 157.007 248.173 156.735L247.712 155.379C247.635 155.107 248.096 154.927 248.712 154.927H254.87C255.486 154.927 256.025 155.107 256.179 155.379L256.718 156.735C256.795 157.007 256.41 157.188 255.794 157.188Z" fill="#C4D1CF"/>
<path id="XMLID_549_" d="M266.879 157.188H260.567C259.951 157.188 259.335 157.007 259.258 156.735L258.719 155.379C258.642 155.107 259.027 154.927 259.643 154.927H265.801C266.417 154.927 267.033 155.107 267.11 155.379L267.725 156.735C267.879 157.007 267.495 157.188 266.879 157.188Z" fill="#C4D1CF"/>
<path id="XMLID_548_" d="M277.963 157.188H271.651C271.036 157.188 270.42 157.007 270.266 156.735L269.65 155.379C269.496 155.107 269.958 154.927 270.574 154.927H276.732C277.348 154.927 277.963 155.107 278.117 155.379L278.81 156.735C278.964 157.007 278.579 157.188 277.963 157.188Z" fill="#C4D1CF"/>
<path id="XMLID_547_" d="M289.048 157.188H282.736C282.12 157.188 281.504 157.007 281.35 156.735L280.657 155.379C280.504 155.107 280.888 154.927 281.504 154.927H287.662C288.278 154.927 288.894 155.107 289.048 155.379L289.818 156.735C290.049 157.007 289.664 157.188 289.048 157.188Z" fill="#C4D1CF"/>
<path id="XMLID_546_" d="M110.694 162.433H102.457C101.842 162.433 101.457 162.252 101.611 161.981L103.535 158.635C103.689 158.363 104.305 158.182 104.921 158.182H113.003C113.619 158.182 114.004 158.363 113.85 158.635L112.156 161.981C111.925 162.252 111.31 162.433 110.694 162.433Z" fill="#C4D1CF"/>
<path id="XMLID_545_" d="M123.087 162.433H114.851C114.235 162.433 113.85 162.252 114.004 161.981L115.697 158.635C115.851 158.363 116.39 158.182 117.006 158.182H125.088C125.704 158.182 126.089 158.363 126.012 158.635L124.55 161.981C124.319 162.252 123.703 162.433 123.087 162.433Z" fill="#C4D1CF"/>
<path id="XMLID_544_" d="M135.48 162.433H127.244C126.628 162.433 126.243 162.252 126.32 161.981L127.706 158.635C127.783 158.363 128.398 158.182 129.014 158.182H137.097C137.713 158.182 138.097 158.363 138.02 158.635L136.789 161.981C136.635 162.252 136.096 162.433 135.48 162.433Z" fill="#C4D1CF"/>
<path id="XMLID_543_" d="M147.873 162.433H139.637C139.021 162.433 138.559 162.252 138.713 161.981L139.868 158.635C139.945 158.363 140.483 158.182 141.099 158.182H149.182C149.798 158.182 150.182 158.363 150.182 158.635L149.259 161.981C149.028 162.252 148.489 162.433 147.873 162.433Z" fill="#C4D1CF"/>
<path id="XMLID_542_" d="M160.267 162.433H152.03C151.414 162.433 150.952 162.252 151.029 161.981L151.953 158.635C152.03 158.363 152.569 158.182 153.185 158.182H161.267C161.883 158.182 162.345 158.363 162.268 158.635L161.575 161.981C161.421 162.252 160.882 162.433 160.267 162.433Z" fill="#C4D1CF"/>
<path id="XMLID_541_" d="M172.66 162.433H164.423C163.807 162.433 163.345 162.252 163.422 161.981L164.115 158.635C164.192 158.363 164.731 158.182 165.27 158.182H173.352C173.968 158.182 174.43 158.363 174.353 158.635L173.891 161.981C173.814 162.252 173.275 162.433 172.66 162.433Z" fill="#C4D1CF"/>
<path id="XMLID_539_" d="M185.053 162.433H176.817C176.201 162.433 175.739 162.252 175.739 161.981L176.124 158.635C176.124 158.363 176.663 158.182 177.279 158.182H185.361C185.977 158.182 186.439 158.363 186.439 158.635L186.208 161.981C186.208 162.252 185.669 162.433 185.053 162.433Z" fill="#C4D1CF"/>
<path id="XMLID_502_" d="M197.446 162.433H189.21C188.594 162.433 188.132 162.252 188.132 161.981L188.286 158.635C188.286 158.363 188.825 158.182 189.441 158.182H197.446C198.062 158.182 198.524 158.363 198.524 158.635L198.601 161.981C198.524 162.252 198.062 162.433 197.446 162.433Z" fill="#C4D1CF"/>
<path id="XMLID_501_" d="M209.839 162.433H201.603C200.987 162.433 200.448 162.252 200.448 161.981L200.371 158.635C200.371 158.363 200.833 158.182 201.449 158.182H209.531C210.147 158.182 210.609 158.363 210.686 158.635L210.994 161.981C210.917 162.252 210.455 162.433 209.839 162.433Z" fill="#C4D1CF"/>
<path id="XMLID_500_" d="M222.232 162.433H213.996C213.38 162.433 212.841 162.252 212.841 161.981L212.533 158.635C212.533 158.363 212.995 158.182 213.611 158.182H221.694C222.309 158.182 222.848 158.363 222.848 158.635L223.387 161.981C223.31 162.252 222.848 162.433 222.232 162.433Z" fill="#C4D1CF"/>
<path id="XMLID_499_" d="M234.626 162.433H226.389C225.773 162.433 225.235 162.252 225.158 161.981L224.542 158.635C224.465 158.363 224.927 158.182 225.543 158.182H233.625C234.241 158.182 234.78 158.363 234.857 158.635L235.626 161.981C235.703 162.252 235.242 162.433 234.626 162.433Z" fill="#C4D1CF"/>
<path id="XMLID_498_" d="M247.019 162.433H238.782C238.167 162.433 237.628 162.252 237.551 161.981L236.704 158.635C236.627 158.363 237.089 158.182 237.705 158.182H245.787C246.403 158.182 246.942 158.363 247.019 158.635L248.019 161.981C248.096 162.252 247.635 162.433 247.019 162.433Z" fill="#C4D1CF"/>
<path id="XMLID_497_" d="M259.412 162.433H251.176C250.56 162.433 249.944 162.252 249.867 161.981L248.79 158.635C248.713 158.363 249.097 158.182 249.713 158.182H257.796C258.412 158.182 258.95 158.363 259.104 158.635L260.413 161.981C260.413 162.252 260.028 162.433 259.412 162.433Z" fill="#C4D1CF"/>
<path id="XMLID_496_" d="M271.805 162.433H263.569C262.953 162.433 262.337 162.252 262.26 161.981L260.951 158.635C260.874 158.363 261.259 158.182 261.875 158.182H269.958C270.573 158.182 271.112 158.363 271.266 158.635L272.806 161.981C272.806 162.252 272.421 162.433 271.805 162.433Z" fill="#C4D1CF"/>
<path id="XMLID_495_" d="M292.127 162.433H275.962C275.346 162.433 274.73 162.252 274.576 161.981L273.037 158.635C272.883 158.363 273.344 158.182 273.883 158.182H289.663C290.279 158.182 290.895 158.363 291.049 158.635L292.973 161.981C293.127 162.252 292.743 162.433 292.127 162.433Z" fill="#C4D1CF"/>
<path id="XMLID_494_" d="M111.156 168.312H99.2242C98.5315 168.312 98.1466 168.041 98.3005 167.769L100.302 164.242C100.456 163.971 101.149 163.699 101.841 163.699H113.465C114.158 163.699 114.543 163.971 114.389 164.242L112.695 167.769C112.541 168.041 111.848 168.312 111.156 168.312Z" fill="#C4D1CF"/>
<path id="XMLID_493_" d="M123.934 168.312H115.543C114.851 168.312 114.389 168.041 114.543 167.769L116.236 164.242C116.39 163.971 117.006 163.699 117.699 163.699H125.858C126.551 163.699 127.013 163.971 126.859 164.242L125.396 167.769C125.319 168.041 124.626 168.312 123.934 168.312Z" fill="#C4D1CF"/>
<path id="XMLID_492_" d="M136.789 168.312H128.399C127.706 168.312 127.244 168.041 127.398 167.769L128.783 164.242C128.937 163.971 129.553 163.699 130.246 163.699H138.405C139.098 163.699 139.56 163.971 139.406 164.242L138.251 167.769C138.175 168.041 137.482 168.312 136.789 168.312Z" fill="#C4D1CF"/>
<path id="XMLID_491_" d="M149.644 168.312H141.254C140.561 168.312 140.099 168.041 140.176 167.769L141.33 164.242C141.407 163.971 142.023 163.699 142.716 163.699H150.876C151.568 163.699 152.03 163.971 151.953 164.242L151.029 167.769C150.953 168.041 150.337 168.312 149.644 168.312Z" fill="#C4D1CF"/>
<path id="XMLID_490_" d="M162.422 168.312H154.031C153.339 168.312 152.877 168.041 152.954 167.769L153.8 164.242C153.877 163.971 154.493 163.699 155.186 163.699H163.345C164.038 163.699 164.5 163.971 164.5 164.242L163.807 167.769C163.73 168.041 163.115 168.312 162.422 168.312Z" fill="#C4D1CF"/>
<path id="XMLID_489_" d="M175.277 168.312H166.887C166.194 168.312 165.655 168.041 165.732 167.769L166.348 164.242C166.425 163.971 166.964 163.699 167.656 163.699H175.816C176.509 163.699 176.97 163.971 176.97 164.242L176.586 167.769C176.586 168.041 175.97 168.312 175.277 168.312Z" fill="#C4D1CF"/>
<path id="XMLID_488_" d="M188.132 168.312H179.742C179.049 168.312 178.51 168.041 178.51 167.769L178.895 164.242C178.895 163.971 179.511 163.699 180.203 163.699H188.363C189.056 163.699 189.595 163.971 189.595 164.242L189.441 167.769C189.364 168.041 188.825 168.312 188.132 168.312Z" fill="#C4D1CF"/>
<path id="XMLID_487_" d="M200.91 168.312H192.52C191.827 168.312 191.288 168.041 191.288 167.769L191.365 164.242C191.365 163.971 191.904 163.699 192.597 163.699H200.756C201.449 163.699 201.988 163.971 201.988 164.242L202.142 167.769C202.219 168.041 201.603 168.312 200.91 168.312Z" fill="#C4D1CF"/>
<path id="XMLID_486_" d="M213.765 168.312H205.375C204.682 168.312 204.143 168.041 204.066 167.769L203.912 164.242C203.912 163.971 204.451 163.699 205.144 163.699H213.303C213.996 163.699 214.535 163.971 214.612 164.242L214.997 167.769C214.997 168.041 214.458 168.312 213.765 168.312Z" fill="#C4D1CF"/>
<path id="XMLID_485_" d="M226.62 168.312H218.23C217.537 168.312 216.921 168.041 216.921 167.769L216.536 164.242C216.536 163.971 216.998 163.699 217.691 163.699H225.85C226.543 163.699 227.082 163.971 227.159 164.242L227.775 167.769C227.852 168.041 227.313 168.312 226.62 168.312Z" fill="#C4D1CF"/>
<path id="XMLID_484_" d="M239.475 168.312H231.084C230.392 168.312 229.776 168.041 229.699 167.769L229.006 164.242C228.929 163.971 229.468 163.699 230.161 163.699H238.32C239.013 163.699 239.629 163.971 239.706 164.242L240.63 167.769C240.63 168.041 240.091 168.312 239.475 168.312Z" fill="#C4D1CF"/>
<path id="XMLID_483_" d="M252.253 168.312H243.863C243.17 168.312 242.554 168.041 242.477 167.769L241.554 164.242C241.477 163.971 241.938 163.699 242.631 163.699H250.791C251.483 163.699 252.099 163.971 252.176 164.242L253.331 167.769C253.408 168.041 252.946 168.312 252.253 168.312Z" fill="#C4D1CF"/>
<path id="XMLID_482_" d="M265.108 168.312H256.718C256.025 168.312 255.409 168.041 255.255 167.769L254.024 164.242C253.947 163.971 254.409 163.699 255.024 163.699H263.184C263.877 163.699 264.493 163.971 264.647 164.242L266.032 167.769C266.263 168.041 265.801 168.312 265.108 168.312Z" fill="#C4D1CF"/>
<path id="XMLID_481_" d="M277.963 168.312H269.573C268.88 168.312 268.187 168.041 268.11 167.769L266.648 164.242C266.494 163.971 266.956 163.699 267.648 163.699H275.808C276.501 163.699 277.116 163.971 277.27 164.242L278.964 167.769C279.041 168.041 278.656 168.312 277.963 168.312Z" fill="#C4D1CF"/>
<path id="XMLID_480_" d="M295.36 168.312H282.351C281.658 168.312 280.966 168.041 280.812 167.769L279.118 164.242C278.964 163.971 279.426 163.699 280.042 163.699H292.666C293.359 163.699 294.052 163.971 294.206 164.242L296.207 167.769C296.515 168.041 296.053 168.312 295.36 168.312Z" fill="#C4D1CF"/>
<path id="XMLID_479_" d="M113.003 174.552H95.9914C95.0677 174.552 94.5288 174.191 94.8367 173.829L96.8381 170.392C97.069 170.03 97.9927 169.669 98.8395 169.669H115.389C116.236 169.669 116.852 170.03 116.621 170.392L115.005 173.829C114.851 174.191 113.927 174.552 113.003 174.552Z" fill="#C4D1CF"/>
<path id="XMLID_478_" d="M126.32 174.552H118.315C117.391 174.552 116.852 174.191 117.006 173.829L118.546 170.392C118.7 170.03 119.546 169.669 120.47 169.669H128.245C129.091 169.669 129.707 170.03 129.553 170.392L128.245 173.829C128.091 174.191 127.244 174.552 126.32 174.552Z" fill="#C4D1CF"/>
<path id="XMLID_477_" d="M139.637 174.552H131.631C130.708 174.552 130.169 174.191 130.323 173.829L131.631 170.392C131.785 170.03 132.632 169.669 133.479 169.669H141.253C142.1 169.669 142.716 170.03 142.639 170.392L141.561 173.829C141.33 174.191 140.484 174.552 139.637 174.552Z" fill="#C4D1CF"/>
<path id="XMLID_476_" d="M152.877 174.552H144.871C143.948 174.552 143.332 174.191 143.486 173.829L144.486 170.392C144.64 170.03 145.41 169.669 146.257 169.669H154.032C154.878 169.669 155.571 170.03 155.417 170.392L154.57 173.829C154.647 174.191 153.801 174.552 152.877 174.552Z" fill="#C4D1CF"/>
<path id="XMLID_475_" d="M166.194 174.552H158.188C157.264 174.552 156.649 174.191 156.725 173.829L157.495 170.392C157.572 170.03 158.342 169.669 159.266 169.669H167.04C167.887 169.669 168.58 170.03 168.503 170.392L167.964 173.829C167.887 174.191 167.117 174.552 166.194 174.552Z" fill="#C4D1CF"/>
<path id="XMLID_474_" d="M179.511 174.552H171.505C170.581 174.552 169.966 174.191 169.966 173.829L170.504 170.392C170.581 170.03 171.351 169.669 172.198 169.669H179.972C180.819 169.669 181.512 170.03 181.512 170.392L181.204 173.829C181.127 174.191 180.357 174.552 179.511 174.552Z" fill="#C4D1CF"/>
<path id="XMLID_473_" d="M192.75 174.552H184.745C183.821 174.552 183.128 174.191 183.205 173.829L183.436 170.392C183.436 170.03 184.206 169.669 185.053 169.669H192.827C193.674 169.669 194.367 170.03 194.367 170.392L194.29 173.829C194.444 174.191 193.674 174.552 192.75 174.552Z" fill="#C4D1CF"/>
<path id="XMLID_472_" d="M206.067 174.552H198.062C197.138 174.552 196.445 174.191 196.445 173.829V170.392C196.445 170.03 197.138 169.669 198.062 169.669H205.836C206.683 169.669 207.453 170.03 207.453 170.392L207.684 173.829C207.684 174.191 206.991 174.552 206.067 174.552Z" fill="#C4D1CF"/>
<path id="XMLID_471_" d="M219.384 174.552H211.379C210.455 174.552 209.762 174.191 209.685 173.829L209.454 170.392C209.454 170.03 210.07 169.669 210.994 169.669H218.768C219.615 169.669 220.385 170.03 220.462 170.392L220.924 173.829C220.924 174.191 220.231 174.552 219.384 174.552Z" fill="#C4D1CF"/>
<path id="XMLID_470_" d="M232.701 174.552H224.696C223.772 174.552 223.002 174.191 222.925 173.829L222.386 170.392C222.309 170.03 223.002 169.669 223.849 169.669H231.624C232.47 169.669 233.24 170.03 233.317 170.392L234.087 173.829C234.241 174.191 233.548 174.552 232.701 174.552Z" fill="#C4D1CF"/>
<path id="XMLID_469_" d="M245.941 174.552H237.936C237.012 174.552 236.242 174.191 236.165 173.829L235.395 170.392C235.318 170.03 235.934 169.669 236.781 169.669H244.556C245.402 169.669 246.249 170.03 246.326 170.392L247.327 173.829C247.481 174.191 246.865 174.552 245.941 174.552Z" fill="#C4D1CF"/>
<path id="XMLID_468_" d="M259.258 174.552H251.253C250.329 174.552 249.559 174.191 249.405 173.829L248.404 170.392C248.25 170.03 248.866 169.669 249.79 169.669H257.488C258.334 169.669 259.181 170.03 259.335 170.392L260.567 173.829C260.721 174.191 260.182 174.552 259.258 174.552Z" fill="#C4D1CF"/>
<path id="XMLID_467_" d="M272.575 174.552H264.569C263.646 174.552 262.799 174.191 262.645 173.829L261.336 170.392C261.182 170.03 261.798 169.669 262.645 169.669H270.42C271.266 169.669 272.113 170.03 272.344 170.392L273.883 173.829C274.037 174.191 273.422 174.552 272.575 174.552Z" fill="#C4D1CF"/>
<path id="XMLID_466_" d="M298.593 174.552H278.117C277.193 174.552 276.347 174.191 276.193 173.829L274.653 170.392C274.499 170.03 275.038 169.669 275.885 169.669H295.745C296.591 169.669 297.515 170.03 297.746 170.392L299.747 173.829C300.055 174.191 299.517 174.552 298.593 174.552Z" fill="#C4D1CF"/>
<path id="XMLID_465_" d="M102.226 181.245H92.7584C91.5268 181.245 90.834 180.793 91.1419 180.16L92.9893 176.994C93.2973 176.452 94.5289 175.999 95.7605 175.999H104.998C106.229 175.999 106.922 176.452 106.691 176.994L105.075 180.16C104.69 180.793 103.458 181.245 102.226 181.245Z" fill="#C4D1CF"/>
<path id="XMLID_464_" d="M116.005 181.245H108.77C107.538 181.245 106.768 180.793 107.076 180.16L108.616 176.994C108.924 176.452 110.078 175.999 111.31 175.999H118.315C119.546 175.999 120.316 176.452 120.085 176.994L118.7 180.16C118.469 180.793 117.314 181.245 116.005 181.245Z" fill="#C4D1CF"/>
<path id="XMLID_463_" d="M129.861 181.245H122.625C121.393 181.245 120.546 180.793 120.854 180.16L122.163 176.994C122.394 176.452 123.548 175.999 124.78 175.999H131.785C133.017 175.999 133.786 176.452 133.632 176.994L132.555 180.16C132.247 180.793 131.092 181.245 129.861 181.245Z" fill="#C4D1CF"/>
<path id="XMLID_462_" d="M143.64 181.245H136.404C135.172 181.245 134.325 180.793 134.556 180.16L135.634 176.994C135.788 176.452 136.943 175.999 138.174 175.999H145.179C146.411 175.999 147.257 176.452 147.103 176.994L146.257 180.16C146.026 180.793 144.871 181.245 143.64 181.245Z" fill="#C4D1CF"/>
<path id="XMLID_461_" d="M157.418 181.245H150.183C148.951 181.245 148.104 180.793 148.258 180.16L149.105 176.994C149.259 176.452 150.337 175.999 151.568 175.999H158.573C159.805 175.999 160.651 176.452 160.574 176.994L159.959 180.16C159.728 180.793 158.65 181.245 157.418 181.245Z" fill="#C4D1CF"/>
<path id="XMLID_460_" d="M171.197 181.245H163.962C162.73 181.245 161.806 180.793 161.96 180.16L162.576 176.994C162.653 176.452 163.731 175.999 164.962 175.999H171.967C173.199 175.999 174.122 176.452 174.045 176.994L173.584 180.16C173.507 180.793 172.429 181.245 171.197 181.245Z" fill="#C4D1CF"/>
<path id="XMLID_459_" d="M185.053 181.245H177.817C176.586 181.245 175.662 180.793 175.662 180.16L176.047 176.994C176.124 176.452 177.124 175.999 178.356 175.999H185.361C186.592 175.999 187.516 176.452 187.516 176.994L187.362 180.16C187.285 180.793 186.285 181.245 185.053 181.245Z" fill="#C4D1CF"/>
<path id="XMLID_458_" d="M198.831 181.245H191.596C190.364 181.245 189.363 180.793 189.363 180.16L189.517 176.994C189.517 176.452 190.518 175.999 191.75 175.999H198.754C199.986 175.999 200.91 176.452 200.987 176.994L201.064 180.16C201.064 180.793 200.063 181.245 198.831 181.245Z" fill="#C4D1CF"/>
<path id="XMLID_457_" d="M212.61 181.245H205.375C204.143 181.245 203.142 180.793 203.065 180.16L202.911 176.994C202.911 176.452 203.835 175.999 205.067 175.999H212.072C213.303 175.999 214.304 176.452 214.381 176.994L214.689 180.16C214.843 180.793 213.842 181.245 212.61 181.245Z" fill="#C4D1CF"/>
<path id="XMLID_456_" d="M226.389 181.245H219.154C217.922 181.245 216.844 180.793 216.767 180.16L216.382 176.994C216.305 176.452 217.229 175.999 218.461 175.999H225.466C226.697 175.999 227.698 176.452 227.852 176.994L228.391 180.16C228.545 180.793 227.621 181.245 226.389 181.245Z" fill="#C4D1CF"/>
<path id="XMLID_455_" d="M240.168 181.245H232.932C231.701 181.245 230.623 180.793 230.469 180.16L229.853 176.994C229.776 176.452 230.623 175.999 231.855 175.999H238.859C240.091 175.999 241.169 176.452 241.323 176.994L242.092 180.16C242.323 180.793 241.477 181.245 240.168 181.245Z" fill="#C4D1CF"/>
<path id="XMLID_454_" d="M254.024 181.245H246.788C245.556 181.245 244.402 180.793 244.248 180.16L243.401 176.994C243.247 176.452 244.094 175.999 245.326 175.999H252.33C253.562 175.999 254.64 176.452 254.871 176.994L255.871 180.16C256.102 180.793 255.255 181.245 254.024 181.245Z" fill="#C4D1CF"/>
<path id="XMLID_453_" d="M109.385 188.842H87.5238C86.831 188.842 86.4461 188.571 86.6001 188.209L89.1403 183.687C89.2943 183.325 90.064 183.054 90.7568 183.054H112.002C112.695 183.054 113.157 183.325 113.003 183.687L111.002 188.209C110.771 188.571 110.078 188.842 109.385 188.842Z" fill="#C4D1CF"/>
<path id="XMLID_452_" d="M123.703 188.842H114.081C113.388 188.842 112.926 188.571 113.08 188.209L115.005 183.687C115.159 183.325 115.851 183.054 116.467 183.054H125.781C126.474 183.054 126.936 183.325 126.782 183.687L125.089 188.209C125.089 188.571 124.473 188.842 123.703 188.842Z" fill="#C4D1CF"/>
<path id="XMLID_451_" d="M138.097 188.842H128.475C127.783 188.842 127.321 188.571 127.398 188.209L129.014 183.687C129.168 183.325 129.784 183.054 130.477 183.054H139.791C140.484 183.054 140.946 183.325 140.869 183.687L139.56 188.209C139.483 188.571 138.79 188.842 138.097 188.842Z" fill="#C4D1CF"/>
<path id="XMLID_450_" d="M152.415 188.842H142.793C142.1 188.842 141.561 188.571 141.715 188.209L143.024 183.687C143.101 183.325 143.717 183.054 144.409 183.054H153.723C154.416 183.054 154.878 183.325 154.801 183.687L153.8 188.209C153.8 188.571 153.185 188.842 152.415 188.842Z" fill="#C4D1CF"/>
<path id="XMLID_449_" d="M224.234 188.842H157.11C156.418 188.842 155.879 188.571 155.956 188.209L156.88 183.687C156.956 183.325 157.572 183.054 158.265 183.054H223.387C224.08 183.054 224.696 183.325 224.696 183.687L225.388 188.209C225.465 188.571 224.927 188.842 224.234 188.842Z" fill="#C4D1CF"/>
<path id="XMLID_448_" d="M238.629 188.842H229.007C228.314 188.842 227.698 188.571 227.621 188.209L226.928 183.687C226.851 183.325 227.39 183.054 228.083 183.054H237.397C238.09 183.054 238.706 183.325 238.783 183.687L239.783 188.209C239.783 188.571 239.321 188.842 238.629 188.842Z" fill="#C4D1CF"/>
<path id="XMLID_447_" d="M253.023 188.842H243.401C242.708 188.842 242.093 188.571 241.939 188.209L240.861 183.687C240.784 183.325 241.246 183.054 241.939 183.054H251.33C252.022 183.054 252.638 183.325 252.715 183.687L254.101 188.209C254.255 188.571 253.716 188.842 253.023 188.842Z" fill="#C4D1CF"/>
<path id="XMLID_446_" d="M267.803 181.245H260.567C259.335 181.245 258.181 180.793 257.95 180.16L256.872 176.994C256.718 176.452 257.488 175.999 258.719 175.999H265.724C266.956 175.999 268.111 176.452 268.342 176.994L269.573 180.16C269.881 180.793 269.034 181.245 267.803 181.245Z" fill="#C4D1CF"/>
<path id="XMLID_445_" d="M301.903 181.245H274.73C273.499 181.245 272.267 180.793 272.036 180.16L270.728 176.994C270.497 176.452 271.266 175.999 272.498 175.999H298.901C300.133 175.999 301.364 176.452 301.672 176.994L303.519 180.16C303.904 180.793 303.135 181.245 301.903 181.245Z" fill="#C4D1CF"/>
<path id="XMLID_444_" d="M288.355 185.496H275.808C275.115 185.496 274.422 185.224 274.268 184.863L273.807 183.687C273.653 183.325 274.114 183.054 274.807 183.054H287.2C287.893 183.054 288.586 183.325 288.74 183.687L289.279 184.863C289.433 185.134 289.048 185.496 288.355 185.496Z" fill="#C4D1CF"/>
<path id="XMLID_443_" d="M289.972 188.842H277.193C276.501 188.842 275.808 188.571 275.654 188.209L275.192 187.033C275.038 186.672 275.5 186.4 276.193 186.4H288.74C289.433 186.4 290.125 186.672 290.279 187.033L290.895 188.209C291.126 188.571 290.664 188.842 289.972 188.842Z" fill="#C4D1CF"/>
<path id="XMLID_442_" d="M307.291 188.842H294.513C293.821 188.842 293.128 188.571 292.897 188.209L292.281 187.033C292.127 186.672 292.512 186.4 293.205 186.4H305.752C306.445 186.4 307.137 186.672 307.368 187.033L308.061 188.209C308.369 188.571 307.984 188.842 307.291 188.842Z" fill="#C4D1CF"/>
<path id="XMLID_441_" d="M272.729 188.842H259.951C259.258 188.842 258.565 188.571 258.488 188.209L258.103 187.033C258.026 186.672 258.488 186.4 259.181 186.4H271.728C272.421 186.4 273.114 186.672 273.268 187.033L273.73 188.209C273.883 188.571 273.422 188.842 272.729 188.842Z" fill="#C4D1CF"/>
</g>
<path id="XMLID_439_" d="M293.436 151.218L293.282 150.947C292.435 149.59 288.971 148.505 285.584 148.505H107.307C103.92 148.505 100.456 149.59 99.6093 150.947L99.4553 151.218H293.436Z" fill="#D3CCD2"/>
<g id="XMLID_36_">
<path id="XMLID_438_" d="M112.003 156.645H105.768C105.152 156.645 104.767 156.464 104.921 156.193L105.691 154.836C105.845 154.565 106.46 154.384 107.076 154.384H113.234C113.85 154.384 114.235 154.565 114.081 154.836L113.388 156.193C113.234 156.464 112.619 156.645 112.003 156.645Z" fill="#4E4C4D"/>
<path id="XMLID_437_" d="M123.087 156.645H116.852C116.236 156.645 115.851 156.464 115.928 156.193L116.621 154.836C116.775 154.565 117.314 154.384 117.93 154.384H124.088C124.704 154.384 125.088 154.565 125.011 154.836L124.396 156.193C124.242 156.464 123.703 156.645 123.087 156.645Z" fill="#4E4C4D"/>
<path id="XMLID_436_" d="M134.095 156.645H127.86C127.244 156.645 126.859 156.464 126.936 156.193L127.552 154.836C127.629 154.565 128.244 154.384 128.86 154.384H135.018C135.634 154.384 136.019 154.565 135.942 154.836L135.403 156.193C135.326 156.464 134.71 156.645 134.095 156.645Z" fill="#4E4C4D"/>
<path id="XMLID_435_" d="M145.102 156.645H138.867C138.251 156.645 137.789 156.464 137.943 156.193L138.405 154.836C138.482 154.565 139.098 154.384 139.714 154.384H145.872C146.488 154.384 146.95 154.565 146.873 154.836L146.488 156.193C146.334 156.464 145.795 156.645 145.102 156.645Z" fill="#4E4C4D"/>
<path id="XMLID_434_" d="M156.187 156.645H149.952C149.336 156.645 148.874 156.464 148.951 156.193L149.336 154.836C149.413 154.565 149.952 154.384 150.568 154.384H156.726C157.341 154.384 157.803 154.565 157.726 154.836L157.418 156.193C157.341 156.464 156.803 156.645 156.187 156.645Z" fill="#4E4C4D"/>
<path id="XMLID_433_" d="M167.195 156.645H160.96C160.344 156.645 159.882 156.464 159.959 156.193L160.267 154.836C160.344 154.565 160.883 154.384 161.498 154.384H167.656C168.272 154.384 168.734 154.565 168.657 154.836L168.426 156.193C168.426 156.464 167.81 156.645 167.195 156.645Z" fill="#4E4C4D"/>
<path id="XMLID_432_" d="M178.279 156.645H172.044C171.428 156.645 170.967 156.464 170.967 156.193L171.197 154.836C171.274 154.565 171.736 154.384 172.352 154.384H178.51C179.126 154.384 179.588 154.565 179.588 154.836L179.434 156.193C179.434 156.464 178.895 156.645 178.279 156.645Z" fill="#4E4C4D"/>
<path id="XMLID_431_" d="M189.287 156.645H183.052C182.436 156.645 181.974 156.464 181.974 156.193L182.128 154.836C182.128 154.565 182.667 154.384 183.282 154.384H189.441C190.056 154.384 190.518 154.565 190.518 154.836L190.441 156.193C190.441 156.464 189.902 156.645 189.287 156.645Z" fill="#4E4C4D"/>
<path id="XMLID_430_" d="M200.371 156.645H194.136C193.52 156.645 192.981 156.464 192.981 156.193V154.836C192.981 154.565 193.52 154.384 194.136 154.384H200.294C200.91 154.384 201.449 154.565 201.449 154.836L201.526 156.193C201.449 156.464 200.987 156.645 200.371 156.645Z" fill="#4E4C4D"/>
<path id="XMLID_429_" d="M211.379 156.645H205.144C204.528 156.645 203.989 156.464 203.989 156.193L203.912 154.836C203.912 154.565 204.374 154.384 204.99 154.384H211.148C211.764 154.384 212.303 154.565 212.303 154.836L212.457 156.193C212.534 156.464 211.995 156.645 211.379 156.645Z" fill="#4E4C4D"/>
<path id="XMLID_428_" d="M222.463 156.645H216.228C215.612 156.645 215.074 156.464 215.074 156.193L214.92 154.836C214.92 154.565 215.382 154.384 215.997 154.384H222.155C222.771 154.384 223.31 154.565 223.31 154.836L223.541 156.193C223.541 156.464 223.079 156.645 222.463 156.645Z" fill="#4E4C4D"/>
<path id="XMLID_427_" d="M233.471 156.645H227.236C226.62 156.645 226.081 156.464 226.004 156.193L225.773 154.836C225.696 154.565 226.158 154.384 226.774 154.384H232.932C233.548 154.384 234.087 154.565 234.163 154.836L234.471 156.193C234.548 156.464 234.086 156.645 233.471 156.645Z" fill="#4E4C4D"/>
<path id="XMLID_426_" d="M244.556 156.645H238.243C237.628 156.645 237.089 156.464 237.012 156.193L236.704 154.836C236.627 154.565 237.089 154.384 237.705 154.384H243.863C244.479 154.384 245.017 154.565 245.094 154.836L245.479 156.193C245.633 156.464 245.171 156.645 244.556 156.645Z" fill="#4E4C4D"/>
<path id="XMLID_425_" d="M255.563 156.645H249.328C248.712 156.645 248.097 156.464 248.02 156.193L247.558 154.836C247.481 154.565 247.943 154.384 248.481 154.384H254.64C255.255 154.384 255.794 154.565 255.948 154.836L256.487 156.193C256.641 156.464 256.179 156.645 255.563 156.645Z" fill="#4E4C4D"/>
<path id="XMLID_424_" d="M266.648 156.645H260.413C259.797 156.645 259.181 156.464 259.104 156.193L258.565 154.836C258.488 154.565 258.873 154.384 259.489 154.384H265.647C266.263 154.384 266.879 154.565 266.956 154.836L267.572 156.193C267.649 156.464 267.264 156.645 266.648 156.645Z" fill="#4E4C4D"/>
<path id="XMLID_423_" d="M277.655 156.645H271.42C270.805 156.645 270.189 156.464 270.112 156.193L269.496 154.836C269.342 154.565 269.804 154.384 270.42 154.384H276.578C277.194 154.384 277.809 154.565 277.963 154.836L278.656 156.193C278.656 156.464 278.271 156.645 277.655 156.645Z" fill="#4E4C4D"/>
<path id="XMLID_422_" d="M288.74 156.645H282.505C281.889 156.645 281.273 156.464 281.119 156.193L280.426 154.836C280.272 154.565 280.657 154.384 281.273 154.384H287.431C288.047 154.384 288.663 154.565 288.817 154.836L289.586 156.193C289.74 156.464 289.355 156.645 288.74 156.645Z" fill="#4E4C4D"/>
<path id="XMLID_421_" d="M111.002 161.89H102.765C102.15 161.89 101.765 161.71 101.919 161.438L103.843 158.092C103.997 157.821 104.613 157.64 105.229 157.64H113.234C113.85 157.64 114.235 157.821 114.081 158.092L112.387 161.438C112.234 161.71 111.618 161.89 111.002 161.89Z" fill="#4E4C4D"/>
<path id="XMLID_420_" d="M123.318 161.89H115.082C114.466 161.89 114.081 161.71 114.235 161.438L115.851 158.092C116.005 157.821 116.544 157.64 117.16 157.64H125.166C125.781 157.64 126.166 157.821 126.089 158.092L124.627 161.438C124.55 161.71 123.934 161.89 123.318 161.89Z" fill="#4E4C4D"/>
<path id="XMLID_419_" d="M135.711 161.89H127.475C126.859 161.89 126.474 161.71 126.551 161.438L127.937 158.092C128.014 157.821 128.629 157.64 129.245 157.64H137.251C137.867 157.64 138.251 157.821 138.174 158.092L137.02 161.438C136.866 161.71 136.327 161.89 135.711 161.89Z" fill="#4E4C4D"/>
<path id="XMLID_418_" d="M148.027 161.89H139.791C139.175 161.89 138.713 161.71 138.867 161.438L140.022 158.092C140.099 157.821 140.637 157.64 141.253 157.64H149.259C149.875 157.64 150.259 157.821 150.183 158.092L149.259 161.438C149.182 161.71 148.643 161.89 148.027 161.89Z" fill="#4E4C4D"/>
<path id="XMLID_417_" d="M160.344 161.89H152.107C151.491 161.89 151.03 161.71 151.107 161.438L152.03 158.092C152.107 157.821 152.646 157.64 153.262 157.64H161.267C161.883 157.64 162.345 157.821 162.268 158.092L161.575 161.438C161.575 161.71 160.959 161.89 160.344 161.89Z" fill="#4E4C4D"/>
<path id="XMLID_416_" d="M172.737 161.89H164.5C163.884 161.89 163.423 161.71 163.5 161.438L164.192 158.092C164.269 157.821 164.808 157.64 165.347 157.64H173.353C173.968 157.64 174.43 157.821 174.353 158.092L173.891 161.438C173.891 161.71 173.353 161.89 172.737 161.89Z" fill="#4E4C4D"/>
<path id="XMLID_415_" d="M185.053 161.89H176.816C176.201 161.89 175.739 161.71 175.739 161.438L176.124 158.092C176.124 157.821 176.662 157.64 177.278 157.64H185.284C185.9 157.64 186.361 157.821 186.361 158.092L186.131 161.438C186.208 161.71 185.669 161.89 185.053 161.89Z" fill="#4E4C4D"/>
<path id="XMLID_414_" d="M197.446 161.89H189.209C188.594 161.89 188.132 161.71 188.132 161.438L188.286 158.092C188.286 157.821 188.825 157.64 189.363 157.64H197.446C198.062 157.64 198.524 157.821 198.524 158.092L198.601 161.438C198.524 161.71 198.062 161.89 197.446 161.89Z" fill="#4E4C4D"/>
<path id="XMLID_413_" d="M209.762 161.89H201.526C200.91 161.89 200.371 161.71 200.371 161.438L200.294 158.092C200.294 157.821 200.756 157.64 201.372 157.64H209.377C209.993 157.64 210.455 157.821 210.532 158.092L210.84 161.438C210.917 161.71 210.378 161.89 209.762 161.89Z" fill="#4E4C4D"/>
<path id="XMLID_412_" d="M222.156 161.89H213.919C213.303 161.89 212.764 161.71 212.764 161.438L212.457 158.092C212.457 157.821 212.918 157.64 213.534 157.64H221.54C222.156 157.64 222.694 157.821 222.694 158.092L223.233 161.438C223.233 161.71 222.771 161.89 222.156 161.89Z" fill="#4E4C4D"/>
<path id="XMLID_411_" d="M234.472 161.89H226.235C225.619 161.89 225.08 161.71 225.004 161.438L224.465 158.092C224.388 157.821 224.85 157.64 225.465 157.64H233.471C234.087 157.64 234.626 157.821 234.702 158.092L235.472 161.438C235.549 161.71 235.087 161.89 234.472 161.89Z" fill="#4E4C4D"/>
<path id="XMLID_410_" d="M246.865 161.89H238.628C238.012 161.89 237.474 161.71 237.397 161.438L236.55 158.092C236.473 157.821 236.935 157.64 237.551 157.64H245.556C246.172 157.64 246.711 157.821 246.788 158.092L247.788 161.438C247.865 161.71 247.481 161.89 246.865 161.89Z" fill="#4E4C4D"/>
<path id="XMLID_409_" d="M259.181 161.89H250.945C250.329 161.89 249.79 161.71 249.636 161.438L248.558 158.092C248.481 157.821 248.866 157.64 249.482 157.64H257.488C258.103 157.64 258.642 157.821 258.796 158.092L260.105 161.438C260.259 161.71 259.797 161.89 259.181 161.89Z" fill="#4E4C4D"/>
<path id="XMLID_408_" d="M271.574 161.89H263.338C262.722 161.89 262.106 161.71 262.029 161.438L260.72 158.092C260.643 157.821 261.028 157.64 261.644 157.64H269.65C270.266 157.64 270.804 157.821 270.958 158.092L272.498 161.438C272.575 161.71 272.19 161.89 271.574 161.89Z" fill="#4E4C4D"/>
<path id="XMLID_407_" d="M291.742 161.89H275.654C275.038 161.89 274.422 161.71 274.269 161.438L272.729 158.092C272.575 157.821 273.037 157.64 273.576 157.64H289.279C289.895 157.64 290.511 157.821 290.664 158.092L292.589 161.438C292.743 161.71 292.358 161.89 291.742 161.89Z" fill="#4E4C4D"/>
<path id="XMLID_87_" d="M111.464 167.679H99.5323C98.8396 167.679 98.4547 167.407 98.6086 167.136L100.61 163.699C100.764 163.428 101.457 163.157 102.15 163.157H113.696C114.389 163.157 114.774 163.428 114.62 163.699L112.926 167.136C112.849 167.407 112.156 167.679 111.464 167.679Z" fill="#4E4C4D"/>
<path id="XMLID_86_" d="M124.242 167.679H115.851C115.158 167.679 114.697 167.407 114.85 167.136L116.467 163.699C116.621 163.428 117.237 163.157 117.93 163.157H126.012C126.705 163.157 127.167 163.428 127.013 163.699L125.55 167.136C125.55 167.407 124.934 167.679 124.242 167.679Z" fill="#4E4C4D"/>
<path id="XMLID_85_" d="M137.019 167.679H128.706C128.013 167.679 127.551 167.407 127.705 167.136L129.091 163.699C129.245 163.428 129.861 163.157 130.553 163.157H138.636C139.329 163.157 139.79 163.428 139.637 163.699L138.482 167.136C138.328 167.407 137.712 167.679 137.019 167.679Z" fill="#4E4C4D"/>
<path id="XMLID_84_" d="M149.798 167.679H141.484C140.792 167.679 140.33 167.407 140.407 167.136L141.561 163.699C141.638 163.428 142.254 163.157 142.947 163.157H151.03C151.722 163.157 152.184 163.428 152.107 163.699L151.183 167.136C151.106 167.407 150.491 167.679 149.798 167.679Z" fill="#4E4C4D"/>
<path id="XMLID_83_" d="M162.576 167.679H154.262C153.57 167.679 153.108 167.407 153.185 167.136L154.031 163.699C154.108 163.428 154.724 163.157 155.417 163.157H163.499C164.192 163.157 164.654 163.428 164.577 163.699L163.884 167.136C163.884 167.407 163.269 167.679 162.576 167.679Z" fill="#4E4C4D"/>
<path id="XMLID_401_" d="M175.354 167.679H167.041C166.348 167.679 165.809 167.407 165.886 167.136L166.502 163.699C166.579 163.428 167.118 163.157 167.81 163.157H175.893C176.586 163.157 177.048 163.428 177.048 163.699L176.663 167.136C176.663 167.407 176.047 167.679 175.354 167.679Z" fill="#4E4C4D"/>
<path id="XMLID_400_" d="M188.132 167.679H179.818C179.126 167.679 178.587 167.407 178.664 167.136L179.049 163.699C179.049 163.428 179.665 163.157 180.357 163.157H188.44C189.133 163.157 189.671 163.428 189.671 163.699L189.517 167.136C189.441 167.407 188.825 167.679 188.132 167.679Z" fill="#4E4C4D"/>
<path id="XMLID_399_" d="M200.91 167.679H192.596C191.904 167.679 191.365 167.407 191.365 167.136L191.442 163.699C191.442 163.428 191.981 163.157 192.673 163.157H200.756C201.449 163.157 201.987 163.428 201.987 163.699L202.141 167.136C202.141 167.407 201.603 167.679 200.91 167.679Z" fill="#4E4C4D"/>
<path id="XMLID_82_" d="M213.688 167.679H205.375C204.682 167.679 204.143 167.407 204.066 167.136L203.912 163.699C203.912 163.428 204.451 163.157 205.067 163.157H213.149C213.842 163.157 214.381 163.428 214.458 163.699L214.843 167.136C214.92 167.407 214.381 167.679 213.688 167.679Z" fill="#4E4C4D"/>
<path id="XMLID_81_" d="M226.466 167.679H218.153C217.46 167.679 216.844 167.407 216.844 167.136L216.459 163.699C216.459 163.428 216.921 163.157 217.614 163.157H225.696C226.389 163.157 226.928 163.428 227.005 163.699L227.621 167.136C227.698 167.407 227.159 167.679 226.466 167.679Z" fill="#4E4C4D"/>
<path id="XMLID_80_" d="M239.321 167.679H231.008C230.315 167.679 229.699 167.407 229.622 167.136L228.929 163.699C228.852 163.428 229.391 163.157 230.007 163.157H238.089C238.782 163.157 239.398 163.428 239.475 163.699L240.399 167.136C240.476 167.407 239.937 167.679 239.321 167.679Z" fill="#4E4C4D"/>
<path id="XMLID_79_" d="M252.099 167.679H243.786C243.093 167.679 242.477 167.407 242.4 167.136L241.477 163.699C241.4 163.428 241.862 163.157 242.554 163.157H250.56C251.253 163.157 251.868 163.428 251.945 163.699L253.1 167.136C253.254 167.407 252.792 167.679 252.099 167.679Z" fill="#4E4C4D"/>
<path id="XMLID_78_" d="M264.877 167.679H256.564C255.871 167.679 255.255 167.407 255.102 167.136L253.947 163.699C253.87 163.428 254.332 163.157 254.948 163.157H263.03C263.723 163.157 264.339 163.428 264.493 163.699L265.878 167.136C266.032 167.407 265.57 167.679 264.877 167.679Z" fill="#4E4C4D"/>
<path id="XMLID_77_" d="M277.655 167.679H269.342C268.649 167.679 267.956 167.407 267.879 167.136L266.417 163.699C266.263 163.428 266.725 163.157 267.418 163.157H275.5C276.193 163.157 276.809 163.428 276.963 163.699L278.656 167.136C278.733 167.407 278.348 167.679 277.655 167.679Z" fill="#4E4C4D"/>
<path id="XMLID_76_" d="M295.052 167.679H282.12C281.427 167.679 280.734 167.407 280.58 167.136L278.887 163.699C278.733 163.428 279.195 163.157 279.81 163.157H292.435C293.127 163.157 293.82 163.428 293.974 163.699L295.976 167.136C296.129 167.407 295.745 167.679 295.052 167.679Z" fill="#4E4C4D"/>
<path id="XMLID_75_" d="M113.311 173.829H96.3764C95.4527 173.829 94.9138 173.467 95.2217 173.105L97.1462 169.668C97.3771 169.307 98.2238 168.945 99.1475 168.945H115.62C116.467 168.945 117.083 169.307 116.852 169.668L115.313 173.105C115.082 173.557 114.235 173.829 113.311 173.829Z" fill="#4E4C4D"/>
<path id="XMLID_74_" d="M126.551 173.829H118.545C117.621 173.829 117.083 173.467 117.237 173.105L118.776 169.668C118.93 169.307 119.777 168.945 120.7 168.945H128.475C129.322 168.945 129.938 169.307 129.784 169.668L128.475 173.105C128.321 173.557 127.474 173.829 126.551 173.829Z" fill="#4E4C4D"/>
<path id="XMLID_73_" d="M139.868 173.829H131.863C130.939 173.829 130.4 173.467 130.554 173.105L131.863 169.668C132.016 169.307 132.863 168.945 133.71 168.945H141.485C142.331 168.945 142.947 169.307 142.87 169.668L141.792 173.105C141.562 173.557 140.715 173.829 139.868 173.829Z" fill="#4E4C4D"/>
<path id="XMLID_72_" d="M153.108 173.829H145.102C144.179 173.829 143.563 173.467 143.717 173.105L144.717 169.668C144.871 169.307 145.641 168.945 146.488 168.945H154.262C155.109 168.945 155.725 169.307 155.648 169.668L154.878 173.105C154.801 173.557 153.955 173.829 153.108 173.829Z" fill="#4E4C4D"/>
<path id="XMLID_71_" d="M166.348 173.829H158.342C157.418 173.829 156.803 173.467 156.88 173.105L157.649 169.668C157.726 169.307 158.496 168.945 159.42 168.945H167.194C168.041 168.945 168.734 169.307 168.657 169.668L168.118 173.105C167.964 173.557 167.194 173.829 166.348 173.829Z" fill="#4E4C4D"/>
<path id="XMLID_70_" d="M179.588 173.829H171.582C170.659 173.829 170.043 173.467 170.043 173.105L170.582 169.668C170.659 169.307 171.428 168.945 172.275 168.945H180.05C180.896 168.945 181.589 169.307 181.589 169.668L181.281 173.105C181.204 173.557 180.435 173.829 179.588 173.829Z" fill="#4E4C4D"/>
<path id="XMLID_69_" d="M192.827 173.829H184.822C183.898 173.829 183.205 173.467 183.282 173.105L183.513 169.668C183.513 169.307 184.283 168.945 185.13 168.945H192.904C193.751 168.945 194.444 169.307 194.444 169.668L194.367 173.105C194.444 173.557 193.674 173.829 192.827 173.829Z" fill="#4E4C4D"/>
<path id="XMLID_68_" d="M206.067 173.829H198.062C197.138 173.829 196.445 173.467 196.445 173.105V169.668C196.445 169.307 197.138 168.945 197.985 168.945H205.759C206.606 168.945 207.376 169.307 207.376 169.668L207.607 173.105C207.607 173.557 206.914 173.829 206.067 173.829Z" fill="#4E4C4D"/>
<path id="XMLID_67_" d="M219.308 173.829H211.302C210.378 173.829 209.686 173.467 209.609 173.105L209.378 169.668C209.378 169.307 209.993 168.945 210.917 168.945H218.692C219.539 168.945 220.308 169.307 220.385 169.668L220.847 173.105C220.847 173.557 220.154 173.829 219.308 173.829Z" fill="#4E4C4D"/>
<path id="XMLID_66_" d="M232.547 173.829H224.542C223.618 173.829 222.848 173.467 222.848 173.105L222.31 169.668C222.233 169.307 222.925 168.945 223.772 168.945H231.547C232.393 168.945 233.163 169.307 233.24 169.668L233.933 173.105C234.087 173.557 233.394 173.829 232.547 173.829Z" fill="#4E4C4D"/>
<path id="XMLID_65_" d="M245.787 173.829H237.782C236.858 173.829 236.088 173.467 236.011 173.105L235.242 169.668C235.165 169.307 235.78 168.945 236.627 168.945H244.402C245.249 168.945 246.095 169.307 246.172 169.668L247.173 173.105C247.327 173.557 246.634 173.829 245.787 173.829Z" fill="#4E4C4D"/>
<path id="XMLID_64_" d="M259.027 173.829H251.022C250.098 173.829 249.328 173.467 249.174 173.105L248.174 169.668C248.02 169.307 248.636 168.945 249.559 168.945H257.334C258.181 168.945 259.027 169.307 259.181 169.668L260.413 173.105C260.49 173.557 259.874 173.829 259.027 173.829Z" fill="#4E4C4D"/>
<path id="XMLID_63_" d="M272.267 173.829H264.262C263.338 173.829 262.491 173.467 262.337 173.105L261.029 169.668C260.875 169.307 261.49 168.945 262.337 168.945H270.112C270.958 168.945 271.805 169.307 271.959 169.668L273.422 173.105C273.73 173.557 273.191 173.829 272.267 173.829Z" fill="#4E4C4D"/>
<path id="XMLID_62_" d="M298.208 173.829H277.809C276.886 173.829 276.039 173.467 275.885 173.105L274.346 169.668C274.192 169.307 274.73 168.945 275.577 168.945H295.437C296.284 168.945 297.208 169.307 297.438 169.668L299.44 173.105C299.671 173.557 299.132 173.829 298.208 173.829Z" fill="#4E4C4D"/>
<path id="XMLID_61_" d="M102.612 180.612H93.1434C91.9118 180.612 91.219 180.16 91.5269 179.527L93.3744 176.361C93.6823 175.819 94.9139 175.366 96.1455 175.366H105.306C106.537 175.366 107.23 175.819 106.999 176.361L105.46 179.527C105.075 180.069 103.843 180.612 102.612 180.612Z" fill="#4E4C4D"/>
<path id="XMLID_60_" d="M116.313 180.612H109.154C107.923 180.612 107.153 180.16 107.461 179.527L109 176.361C109.308 175.819 110.463 175.366 111.694 175.366H118.699C119.931 175.366 120.701 175.819 120.47 176.361L119.161 179.527C118.776 180.069 117.545 180.612 116.313 180.612Z" fill="#4E4C4D"/>
<path id="XMLID_59_" d="M130.092 180.612H122.933C121.702 180.612 120.932 180.16 121.163 179.527L122.471 176.361C122.702 175.819 123.857 175.366 125.088 175.366H132.093C133.325 175.366 134.095 175.819 133.941 176.361L132.863 179.527C132.478 180.069 131.324 180.612 130.092 180.612Z" fill="#4E4C4D"/>
<path id="XMLID_58_" d="M143.87 180.612H136.635C135.403 180.612 134.556 180.16 134.787 179.527L135.865 176.361C136.019 175.819 137.174 175.366 138.405 175.366H145.41C146.642 175.366 147.488 175.819 147.334 176.361L146.488 179.527C146.18 180.069 145.102 180.612 143.87 180.612Z" fill="#4E4C4D"/>
<path id="XMLID_57_" d="M157.572 180.612H150.414C149.182 180.612 148.335 180.16 148.489 179.527L149.336 176.361C149.49 175.819 150.568 175.366 151.799 175.366H158.804C160.036 175.366 160.882 175.819 160.805 176.361L160.19 179.527C159.882 180.069 158.804 180.612 157.572 180.612Z" fill="#4E4C4D"/>
<path id="XMLID_56_" d="M171.351 180.612H164.192C162.961 180.612 162.037 180.16 162.191 179.527L162.807 176.361C162.884 175.819 163.961 175.366 165.193 175.366H172.198C173.429 175.366 174.276 175.819 174.276 176.361L173.891 179.527C173.583 180.069 172.583 180.612 171.351 180.612Z" fill="#4E4C4D"/>
<path id="XMLID_55_" d="M185.053 180.612H177.894C176.663 180.612 175.739 180.16 175.816 179.527L176.201 176.361C176.278 175.819 177.279 175.366 178.51 175.366H185.515C186.747 175.366 187.67 175.819 187.593 176.361L187.439 179.527C187.285 180.069 186.285 180.612 185.053 180.612Z" fill="#4E4C4D"/>
<path id="XMLID_54_" d="M198.831 180.612H191.673C190.441 180.612 189.44 180.16 189.517 179.527L189.671 176.361C189.671 175.819 190.672 175.366 191.904 175.366H198.908C200.14 175.366 201.064 175.819 201.064 176.361L201.141 179.527C201.064 180.069 200.063 180.612 198.831 180.612Z" fill="#4E4C4D"/>
<path id="XMLID_53_" d="M212.533 180.612H205.374C204.143 180.612 203.142 180.16 203.142 179.527L203.065 176.361C203.065 175.819 203.989 175.366 205.221 175.366H212.225C213.457 175.366 214.458 175.819 214.458 176.361L214.766 179.527C214.766 180.069 213.765 180.612 212.533 180.612Z" fill="#4E4C4D"/>
<path id="XMLID_52_" d="M226.312 180.612H219.154C217.922 180.612 216.844 180.16 216.767 179.527L216.382 176.361C216.305 175.819 217.229 175.366 218.461 175.366H225.466C226.697 175.366 227.698 175.819 227.775 176.361L228.314 179.527C228.468 180.069 227.544 180.612 226.312 180.612Z" fill="#4E4C4D"/>
<path id="XMLID_51_" d="M240.014 180.612H232.855C231.623 180.612 230.546 180.16 230.392 179.527L229.776 176.361C229.699 175.819 230.546 175.366 231.777 175.366H238.782C240.014 175.366 241.091 175.819 241.168 176.361L241.938 179.527C242.169 180.069 241.245 180.612 240.014 180.612Z" fill="#4E4C4D"/>
<path id="XMLID_50_" d="M253.793 180.612H246.634C245.402 180.612 244.248 180.16 244.094 179.527L243.247 176.361C243.093 175.819 243.94 175.366 245.171 175.366H252.176C253.408 175.366 254.485 175.819 254.639 176.361L255.64 179.527C255.871 180.069 255.024 180.612 253.793 180.612Z" fill="#4E4C4D"/>
<path id="XMLID_49_" d="M109.693 188.028H87.9088C87.216 188.028 86.8312 187.757 86.9851 187.395L89.5253 182.963C89.6793 182.602 90.449 182.33 91.0648 182.33H112.233C112.926 182.33 113.311 182.602 113.234 182.963L111.233 187.395C111.156 187.757 110.463 188.028 109.693 188.028Z" fill="#4E4C4D"/>
<path id="XMLID_48_" d="M124.011 188.028H114.389C113.696 188.028 113.234 187.757 113.388 187.395L115.312 182.963C115.466 182.602 116.159 182.33 116.775 182.33H126.089C126.782 182.33 127.244 182.602 127.09 182.963L125.473 187.395C125.396 187.757 124.703 188.028 124.011 188.028Z" fill="#4E4C4D"/>
<path id="XMLID_47_" d="M138.328 188.028H128.706C128.013 188.028 127.552 187.757 127.628 187.395L129.245 182.963C129.399 182.602 130.015 182.33 130.708 182.33H140.022C140.714 182.33 141.176 182.602 141.099 182.963L139.791 187.395C139.714 187.757 139.021 188.028 138.328 188.028Z" fill="#4E4C4D"/>
<path id="XMLID_46_" d="M152.646 188.028H143.024C142.331 188.028 141.869 187.757 141.946 187.395L143.178 182.963C143.255 182.602 143.871 182.33 144.564 182.33H153.878C154.57 182.33 155.032 182.602 154.955 182.963L153.955 187.395C153.955 187.757 153.339 188.028 152.646 188.028Z" fill="#4E4C4D"/>
<path id="XMLID_45_" d="M224.157 188.028H157.265C156.572 188.028 156.033 187.757 156.11 187.395L157.034 182.963C157.111 182.602 157.726 182.33 158.419 182.33H223.31C224.003 182.33 224.619 182.602 224.619 182.963L225.312 187.395C225.389 187.757 224.85 188.028 224.157 188.028Z" fill="#4E4C4D"/>
<path id="XMLID_44_" d="M238.397 188.028H228.775C228.083 188.028 227.467 187.757 227.39 187.395L226.697 182.963C226.62 182.602 227.159 182.33 227.852 182.33H237.166C237.859 182.33 238.474 182.602 238.551 182.963L239.552 187.395C239.629 187.757 239.167 188.028 238.397 188.028Z" fill="#4E4C4D"/>
<path id="XMLID_43_" d="M252.792 188.028H243.17C242.477 188.028 241.861 187.757 241.785 187.395L240.707 182.963C240.63 182.602 241.092 182.33 241.785 182.33H251.099C251.791 182.33 252.407 182.602 252.484 182.963L253.793 187.395C254.024 187.757 253.485 188.028 252.792 188.028Z" fill="#4E4C4D"/>
<path id="XMLID_42_" d="M267.494 180.612H260.335C259.104 180.612 257.949 180.16 257.718 179.527L256.641 176.361C256.487 175.819 257.256 175.366 258.488 175.366H265.493C266.724 175.366 267.879 175.819 268.033 176.361L269.265 179.527C269.573 180.069 268.726 180.612 267.494 180.612Z" fill="#4E4C4D"/>
<path id="XMLID_41_" d="M301.518 180.612H274.422C273.191 180.612 271.959 180.16 271.728 179.527L270.419 176.361C270.189 175.819 270.958 175.366 272.19 175.366H298.516C299.747 175.366 300.979 175.819 301.287 176.361L303.134 179.527C303.442 180.069 302.75 180.612 301.518 180.612Z" fill="#4E4C4D"/>
<path id="XMLID_40_" d="M287.97 184.682H275.5C274.807 184.682 274.114 184.41 273.961 184.049L273.499 182.963C273.345 182.602 273.807 182.33 274.499 182.33H286.816C287.508 182.33 288.201 182.602 288.355 182.963L288.894 184.049C289.125 184.41 288.663 184.682 287.97 184.682Z" fill="#4E4C4D"/>
<path id="XMLID_39_" d="M289.587 188.028H276.886C276.193 188.028 275.5 187.757 275.346 187.395L274.884 186.219C274.73 185.858 275.192 185.586 275.885 185.586H288.432C289.125 185.586 289.818 185.858 289.971 186.219L290.51 187.395C290.741 187.757 290.356 188.028 289.587 188.028Z" fill="#4E4C4D"/>
<path id="XMLID_38_" d="M306.83 188.028H294.129C293.436 188.028 292.743 187.757 292.512 187.395L291.896 186.219C291.742 185.858 292.127 185.586 292.82 185.586H305.367C306.06 185.586 306.753 185.858 306.984 186.219L307.676 187.395C307.984 187.757 307.522 188.028 306.83 188.028Z" fill="#4E4C4D"/>
<path id="XMLID_37_" d="M272.421 188.028H259.72C259.027 188.028 258.334 187.757 258.257 187.395L257.872 186.219C257.795 185.858 258.257 185.586 258.95 185.586H271.497C272.19 185.586 272.883 185.858 273.036 186.219L273.498 187.395C273.575 187.757 273.113 188.028 272.421 188.028Z" fill="#4E4C4D"/>
</g>
<path id="XMLID_35_" d="M226.697 213.894H168.272C165.347 213.894 163.191 212.538 163.422 210.91L166.039 193.816C166.27 192.46 168.503 191.374 171.197 191.374H223.541C226.158 191.374 228.467 192.46 228.698 193.816L231.469 210.91C231.777 212.538 229.622 213.894 226.697 213.894Z" fill="#EDEDED"/>
<path id="XMLID_23_" d="M228.852 95.5063L227.544 105.274L230.084 102.742L232.393 109.253L235.549 107.535L232.778 101.204L235.934 100.571L228.852 95.5063Z" fill="#4E4C4D"/>
</g>
<g id="right-hand">
<path id="XMLID_21_" d="M279.426 169.94C277.04 171.477 275.808 172.924 279.965 175.095C284.044 177.175 288.432 178.441 290.741 181.155C293.051 183.868 285.353 183.235 282.274 186.31C279.195 189.294 284.352 197.163 288.663 201.685C293.051 206.207 299.209 208.016 300.979 214.347C302.75 220.678 304.828 221.582 304.828 221.582C304.828 221.582 325.843 223.662 328.922 225.2C332.001 226.737 333.386 220.858 334.387 217.15C335.388 213.442 333.848 195.083 329.23 188.39C324.611 181.697 308.831 180.974 303.289 177.808C297.746 174.643 281.735 168.402 279.426 169.94Z" fill="#D3CCD2"/>
<g id="XMLID_16_">
<path id="XMLID_20_" d="M372.567 213.533C370.258 211.181 357.942 193.274 355.171 189.837C351.784 185.496 342.777 170.392 340.314 165.78C337.851 161.167 334.695 160.353 332.693 160.353C330.692 160.353 330.076 161.529 327.767 161.348C325.458 161.167 322.994 157.73 319.223 157.73C315.451 157.73 315.913 160.082 313.141 159.81C310.37 159.629 307.445 157.459 304.751 159.629C302.134 161.71 302.442 163.518 301.133 163.066C299.825 162.705 286.893 162.705 283.737 163.428C280.657 164.242 276.886 166.141 276.655 168.855C276.501 171.568 278.117 172.291 282.736 171.568C287.354 170.754 296.207 172.11 298.593 172.11C298.593 172.11 296.592 178.441 296.822 180.612C296.976 182.692 299.286 183.687 301.749 183.144C304.212 182.602 305.367 181.969 305.367 181.969C305.367 181.969 305.829 184.32 308.677 184.049C311.448 183.868 313.603 185.767 313.603 188.119C313.603 190.47 311.294 189.294 308.523 189.294C305.752 189.294 301.672 191.194 299.055 189.656C296.438 188.119 288.894 183.868 286.123 183.506C283.352 183.144 278.733 186.943 283.66 193.364C288.586 199.695 296.13 201.233 300.209 205.122C304.289 209.011 310.37 217.783 319.838 219.14C329.306 220.497 334.926 219.321 339.467 224.567C341.007 226.375 346.087 232.073 352.091 238.947C352.091 238.947 364.485 257.759 374.569 271.054C384.652 284.439 404.82 299 404.82 299L440.999 284.62C441.153 284.62 421.216 262.009 372.567 213.533Z" fill="#F5C5B3"/>
<path id="XMLID_19_" d="M298.824 172.11C301.441 172.201 307.83 174.01 309.6 174.191C311.371 174.371 313.834 181.335 313.757 184.682C313.68 188.028 314.45 187.847 313.064 188.299C311.756 188.752 299.363 185.315 297.438 184.501C295.437 183.687 293.82 180.974 293.82 180.974L292.589 175.185L298.824 172.11Z" fill="#F0A694"/>
<path id="XMLID_18_" d="M282.274 188.571L285.584 183.958C285.584 183.958 290.048 186.129 290.356 188.661C290.664 191.103 289.432 192.188 286.892 191.827C284.352 191.465 282.274 188.571 282.274 188.571Z" fill="#F6F6F6"/>
</g>
</g>
<g id="left-hand">
<path id="XMLID_15_" d="M106.152 222.125C114.158 217.603 124.165 220.858 132.632 219.321C141.099 217.783 147.873 205.122 152.877 200.6C157.88 196.077 166.502 189.927 167.04 185.496C167.579 180.974 164.269 179.346 160.036 180.521C155.802 181.607 152.877 179.255 156.879 175.638C160.882 172.02 166.732 166.051 160.42 167.227C154.108 168.312 149.259 169.668 149.259 169.668C149.259 169.668 134.248 171.206 126.012 178.441C117.776 185.677 96.2222 217.603 96.2222 217.603L106.152 222.125Z" fill="#D3CCD2"/>
<g id="XMLID_10_">
<path id="XMLID_14_" d="M72.6675 207.021C75.1307 204.579 88.2167 185.496 91.1418 181.878C94.7596 177.266 104.305 161.257 106.922 156.283C109.539 151.399 112.926 150.585 115.004 150.585C117.083 150.585 117.776 151.851 120.239 151.58C122.702 151.399 125.319 147.691 129.322 147.691C133.325 147.691 132.786 150.133 135.788 149.952C138.713 149.771 141.869 147.51 144.64 149.771C147.411 152.032 147.104 153.841 148.489 153.479C149.875 153.118 155.263 154.022 158.573 154.836C161.883 155.65 167.579 160.624 167.733 163.518C167.887 166.413 166.502 168.131 161.652 167.317C156.803 166.503 153.723 163.066 151.106 163.066C151.106 163.066 153.185 169.849 153.031 172.11C152.877 174.371 150.413 175.366 147.796 174.733C145.179 174.1 143.947 173.467 143.947 173.467C143.947 173.467 143.409 175.909 140.484 175.728C137.558 175.547 135.249 177.537 135.249 180.069C135.249 182.511 137.712 181.335 140.638 181.335C143.563 181.335 147.95 183.416 150.721 181.788C153.493 180.16 161.498 175.638 164.5 175.276C167.425 174.824 172.352 178.984 167.117 185.677C161.883 192.46 153.877 194.088 149.567 198.158C145.256 202.227 138.79 211.633 128.706 213.08C118.622 214.528 112.695 213.261 107.846 218.778C106.152 220.678 100.764 226.828 94.4518 234.063C94.4518 234.063 81.2118 254.05 70.5891 268.159C59.8894 282.359 38.49 297.915 38.49 297.915L0.00186759 282.63C-0.229061 282.63 20.9394 258.573 72.6675 207.021Z" fill="#F5C5B3"/>
<path id="XMLID_13_" d="M151.03 163.066C148.258 163.157 141.484 165.146 139.56 165.327C137.636 165.508 135.018 172.924 135.095 176.452C135.172 180.069 134.403 179.798 135.788 180.341C137.174 180.883 150.337 177.175 152.415 176.361C154.493 175.547 156.264 172.563 156.264 172.563L157.573 166.413L151.03 163.066Z" fill="#F0A694"/>
<path id="XMLID_12_" d="M168.657 180.521L165.116 175.638C165.116 175.638 160.42 177.989 160.113 180.612C159.805 183.235 161.113 184.32 163.807 183.958C166.425 183.596 168.657 180.521 168.657 180.521Z" fill="#F6F6F6"/>
</g>
<g id="XMLID_1_">
<path id="XMLID_7_" d="M72.7446 206.478C72.7446 206.478 83.6753 213.08 84.599 213.261C85.5227 213.533 87.4471 211.724 87.4471 211.724C87.4471 211.724 91.8347 212.447 96.5303 219.05C96.5303 219.05 99.9172 215.522 96.5303 210.458C93.1433 205.393 88.2169 201.052 88.2169 201.052L72.7446 206.478Z" fill="#F0A694"/>
<path id="XMLID_6_" d="M71.6668 206.569L83.829 211.814C84.5988 212.176 85.4455 211.905 85.9843 211.181L94.0669 200.6C94.7596 199.695 94.9136 198.429 94.4517 197.434L93.7589 195.625L80.0572 192.822L70.3582 201.866L70.5891 204.85C70.5891 205.574 71.051 206.297 71.6668 206.569Z" fill="#3A3839"/>
<path id="XMLID_5_" d="M71.5127 204.127L83.9058 209.282C84.5986 209.553 85.3684 209.372 85.8303 208.649L93.6049 198.429C94.4516 197.253 94.0667 195.444 92.8351 194.992L81.7505 190.289C80.5189 189.747 79.1333 190.199 78.2096 191.284L70.6659 200.6C69.8962 201.685 70.281 203.584 71.5127 204.127Z" fill="#4E4C4D"/>
<path id="XMLID_4_" opacity="0.5" d="M74.7459 202.408L83.2133 205.845C83.8291 206.116 84.4449 205.936 84.9067 205.302L90.603 197.886C90.9109 197.524 90.7569 196.891 90.372 196.71L81.6737 193.093C81.1349 192.822 80.4421 193.002 80.0572 193.545L74.5149 200.419C73.8991 201.142 74.0531 202.137 74.7459 202.408Z" fill="#B8C5E2"/>
<path id="XMLID_3_" d="M105.844 223.21L98.2236 230.445C98.2236 229.903 98.2236 224.024 95.6064 218.778C94.1439 215.884 91.7576 213.442 89.8332 211.724C88.1397 210.186 86.7542 209.282 86.7542 209.282L93.605 201.052C93.605 201.052 94.0669 201.413 94.7597 202.047C96.6841 203.765 100.456 207.563 102.534 211.814C104.767 216.336 105.767 220.497 106.152 222.034C106.306 222.486 106.152 222.939 105.844 223.21Z" fill="#4E4C4D"/>
<path id="XMLID_2_" d="M94.8366 202.137L89.9101 211.814C88.2166 210.277 86.8311 209.372 86.8311 209.372L93.682 201.142C93.682 201.052 94.0669 201.413 94.8366 202.137Z" fill="#3A3839"/>
</g>
</g>
</g>
</svg>
