<svg width="600" height="400" viewBox="0 0 600 400" fill="none" xmlns="http://www.w3.org/2000/svg">
<g id="cicada 1" clip-path="url(#clip0_1_2)">
<g id="Group">
<g id="Group_2">
<path id="Vector" d="M148.2 196.1C148.2 195.9 148.3 195.7 148.6 195.7L155.3 195.9C156 195.9 156.5 196 157 196.2C157.5 196.4 157.8 196.6 158.1 196.9C158.4 197.2 158.6 197.6 158.7 198C158.8 198.4 158.9 198.9 158.9 199.5L158.8 201.3C158.8 201.8 158.7 202.3 158.6 202.8C158.5 203.2 158.2 203.6 157.9 203.9C157.6 204.2 157.2 204.4 156.7 204.6C156.2 204.8 155.7 204.8 155 204.8L151.4 204.7L150.7 202.6H150.6L150.5 204.7L148 204.6L148.2 196.1ZM150.6 202.4L154.9 202.5C155.4 202.5 155.7 202.4 155.9 202.2C156.1 202 156.2 201.6 156.2 201.1V199.6C156.2 199 156.1 198.7 155.9 198.5C155.7 198.3 155.4 198.2 154.9 198.2L150.8 198.1C150.7 198.1 150.7 198.1 150.7 198.2L150.6 198.3V202.4Z" fill="#F1F1F4"/>
<path id="Vector_2" d="M162.4 199.9L162.2 202.6C162.2 202.7 162.3 202.8 162.4 202.8L169.9 203L169.8 205.3L160 205C159.8 205 159.6 204.9 159.7 204.6L159.9 196.4C159.9 196.2 160 196 160.3 196L169.9 196.3C170.1 196.3 170.3 196.4 170.3 196.7L170.2 199L167.8 199.8H167.7V198.6C167.7 198.5 167.7 198.5 167.6 198.5L162.5 198.3C162.4 198.3 162.4 198.3 162.4 198.4V198.5V199.6L166.6 199.7L166.5 201.5L163 201.4L162.4 199.9Z" fill="#F1F1F4"/>
<path id="Vector_3" d="M179.2 199.8L179.1 198.8C179.1 198.7 179.1 198.7 179 198.6L174.3 198.5C174.1 198.5 174 198.5 173.9 198.6C173.8 198.7 173.8 198.8 173.8 198.9V199.1C173.8 199.3 173.8 199.4 173.9 199.4C174 199.5 174.1 199.5 174.2 199.5L179.7 200.4C180.1 200.5 180.3 200.5 180.6 200.7C180.8 200.8 181 201 181.2 201.1C181.4 201.3 181.5 201.5 181.5 201.7C181.6 201.9 181.6 202.2 181.6 202.6V203.3C181.6 203.7 181.5 204 181.4 204.3C181.3 204.6 181.1 204.8 180.9 205C180.7 205.2 180.4 205.3 180.1 205.4C179.8 205.5 179.3 205.5 178.9 205.5L170.9 205.3L171 203L178.1 203.2C178.3 203.2 178.5 203.2 178.5 203.1C178.6 203 178.6 202.9 178.6 202.7V202.5C178.6 202.3 178.6 202.2 178.5 202.2C178.4 202.1 178.3 202.1 178.2 202.1L172.9 201.3C172.5 201.2 172.2 201.2 172 201.1C171.7 201 171.5 200.9 171.4 200.7C171.2 200.5 171.1 200.3 171.1 200.1C171 199.9 171 199.6 171 199.2V198.6C171 198 171.2 197.5 171.6 197.1C172 196.8 172.5 196.6 173.3 196.6L181.2 196.8C181.5 196.8 181.6 196.9 181.6 197.2L181.5 199L179.2 199.8Z" fill="#F1F1F4"/>
<path id="Vector_4" d="M182.6 205.7L182.9 196.8L185.4 196.9L185.1 205.8L182.6 205.7Z" fill="#F1F1F4"/>
<path id="Vector_5" d="M194.5 202.2C194.5 202.1 194.5 201.9 194.5 201.8C194.5 201.7 194.5 201.5 194.5 201.4V201.3L197 201.4L196.9 205.8C196.9 206 196.8 206.1 196.6 206.1L189.9 205.9C189.2 205.9 188.7 205.8 188.2 205.6C187.7 205.4 187.4 205.2 187.1 204.9C186.8 204.6 186.6 204.2 186.5 203.8C186.4 203.4 186.3 202.9 186.3 202.3L186.4 200.5C186.4 200 186.5 199.5 186.6 199C186.7 198.6 187 198.2 187.3 197.9C187.6 197.6 188 197.4 188.5 197.2C189 197 189.5 197 190.2 197L196.9 197.2C197.1 197.2 197.3 197.3 197.2 197.6L197.1 199.5L194.7 200.3H194.6V199.4C194.6 199.3 194.6 199.3 194.5 199.3L190.2 199.2C190 199.2 189.7 199.2 189.6 199.2C189.4 199.2 189.3 199.3 189.2 199.4C189.1 199.5 189 199.7 189 199.8C188.9 200 188.9 200.2 188.9 200.5V202.1C188.9 202.6 189 203 189.2 203.2C189.4 203.4 189.7 203.5 190.2 203.6L194.4 203.7C194.5 203.7 194.5 203.7 194.5 203.6V202.2Z" fill="#F1F1F4"/>
<path id="Vector_6" d="M202.3 197.4C202.5 197.4 202.6 197.4 202.7 197.5C202.8 197.6 202.8 197.7 202.9 197.8L206.1 204.3C206.2 204.4 206.2 204.5 206.3 204.5H206.4C206.5 204.5 206.6 204.4 206.6 204.3L206.8 197.6L209.1 197.7L208.8 206.3C208.8 206.5 208.7 206.7 208.4 206.6L204.8 206.5C204.6 206.5 204.5 206.5 204.4 206.4C204.3 206.3 204.2 206.3 204.2 206.1L200.9 199.6C200.9 199.5 200.8 199.4 200.7 199.4H200.6C200.5 199.4 200.4 199.5 200.4 199.6L200.2 206.3L197.9 206.2L198.2 197.6C198.2 197.4 198.3 197.2 198.6 197.2L202.3 197.4Z" fill="#F1F1F4"/>
</g>
<path id="Vector_7" d="M269 350.5C354.604 350.5 424 281.104 424 195.5C424 109.896 354.604 40.5 269 40.5C183.396 40.5 114 109.896 114 195.5C114 281.104 183.396 350.5 269 350.5Z" fill="#E0F3FF"/>
<g id="Group_3">
<g id="Group_4">
<path id="Vector_8" d="M346.2 400H299.2C294.3 372.7 282.8 337.1 282.8 337.1C280 335.5 274.6 337.5 274.6 337.5L257.5 400H214.6C212.3 361.4 233.4 317.7 233.4 317.7C233.3 317.6 232.7 316.2 232.8 315.3C232.9 314.9 233.6 314.2 234.4 313.4C235.6 312.3 236.9 311.3 236.9 311.3L317 310.8C317 310.8 317.8 311.2 318.8 311.8C320.6 312.9 322.9 314.5 322.9 315.7C322.9 317.3 322.2 318.4 322.1 318.7V318.8C339.3 351.1 346.2 400 346.2 400Z" fill="url(#paint0_linear_1_2)"/>
<path id="Vector_9" opacity="0.5" d="M254.3 371.9C248.6 396.8 236.1 415.2 226.4 413C216.7 410.8 213.6 388.8 219.3 363.8C225 338.9 237.5 320.5 247.2 322.7C256.9 325 260.1 347 254.3 371.9Z" fill="url(#paint1_radial_1_2)"/>
<path id="Vector_10" opacity="0.5" d="M337.3 362.6C344.2 387.2 342.1 409.4 332.5 412C323 414.7 309.6 396.9 302.7 372.2C295.8 347.6 297.9 325.4 307.5 322.8C317.1 320.2 330.4 338 337.3 362.6Z" fill="url(#paint2_radial_1_2)"/>
<g id="Group_5">
<path id="Vector_11" d="M251.9 400L251.4 399.9C256.9 367.7 270.7 340.7 270.9 340.4L271 340.3L274.5 337.2L274.8 337.6L271.3 340.7C270.7 342 257.3 368.5 251.9 400Z" fill="url(#paint3_linear_1_2)"/>
</g>
<g id="Group_6">
<path id="Vector_12" d="M305.6 400C300.2 368.4 286.4 341.7 285.8 340.5L282.7 337.7L283 337.3L286.2 340.2C286.3 340.5 300.6 367.7 306 399.9L305.6 400Z" fill="url(#paint4_linear_1_2)"/>
</g>
<path id="Vector_13" opacity="0.76" d="M323 315.7C323 317.3 322.3 318.4 322.2 318.7V318.8C305.5 322.6 292.8 338.1 292.8 338.1C301.9 355.5 317 400 317 400H299.2C294.3 372.7 282.8 337.1 282.8 337.1C280 335.5 274.6 337.5 274.6 337.5L257.5 400H246.4C250.4 373.8 262.1 341.9 262.1 341.9C250.5 328.5 233.4 317.7 233.4 317.7L231.4 316.4L232.9 315.3C240.3 322.4 264.3 331.7 265 332L234.5 313.4C235.7 312.3 237 311.3 237 311.3L317.1 310.8C317.1 310.8 317.9 311.2 318.9 311.8L297 323.8L323 315.7Z" fill="url(#paint5_linear_1_2)"/>
<path id="Vector_14" opacity="0.76" d="M282.9 337.1L292.2 331.1L290 337.1L288.4 355.4L282.9 337.1Z" fill="url(#paint6_linear_1_2)"/>
<path id="Vector_15" opacity="0.76" d="M274.7 337.5L264.9 332L244.1 322.6L270.6 340.2L272.2 346.4L274.7 337.5Z" fill="url(#paint7_linear_1_2)"/>
</g>
<path id="Vector_16" d="M301.5 149.6C301.6 150 301.6 150.3 301.6 150.3C301.1 152.3 300.5 154.2 299.9 156C297.9 161.6 295.5 165.6 293.7 168.1C292.1 170.3 291 171.3 291 171.3C276.4 166.7 269.2 152.4 266.5 145.4V145.3C266 144 265.6 142.9 265.4 142.2C265.2 141.6 265.1 141.3 265.1 141.3C265.2 141.2 265.2 141 265.3 140.9V140.8C265.5 140.3 265.8 139.8 266 139.3C267.9 135.1 269.2 131.2 270 128.1C270.7 125.5 271.1 123.5 271.3 122.4C271.4 121.8 271.4 121.5 271.4 121.5L278.2 125.1L301.6 137.5C301.2 139.6 301.1 141.7 301.1 143.4C301.1 144.7 301.1 145.8 301.2 146.7C301.3 147.9 301.4 148.8 301.5 149.4C301.4 149.6 301.5 149.6 301.5 149.6Z" fill="#FE9083"/>
<path id="Vector_17" d="M295 172.8C293.6 174.1 292.1 175.3 290.2 176.3C290.2 176.3 290.1 176.3 290.1 176.4C290.1 176.4 290.1 176.4 290 176.3C289.5 176 287.7 174.9 285.4 173.2C279.3 168.6 269.1 159.3 266.1 146.7C266.1 146.7 266.1 146.7 266.1 146.6C265.8 145.1 265.5 143.6 265.4 142C265.4 141.6 265.3 141.2 265.3 140.8C265.3 140.8 267.3 145.6 270.9 150.7C275 156.8 281.2 163.4 288.7 163.4C295.1 163.4 298.4 159 300.1 155C300.8 153.3 301.2 151.6 301.5 150.4C301.6 150 301.6 149.7 301.7 149.5C301.7 149.4 301.7 149.2 301.7 149.1C301.8 148.7 301.8 148.4 301.8 148.4C301.8 148.4 304 163.8 295 172.8Z" fill="url(#paint8_linear_1_2)"/>
<path id="Vector_18" opacity="0.5" d="M295 172.8C293.6 174.1 292.1 175.3 290.2 176.3H290H289.9C289.4 176 287.6 174.9 285.3 173.2C279.2 168.6 269 159.3 266 146.7C266 146.7 266 146.7 266 146.6C265.7 145.1 265.4 143.6 265.3 142C265.3 141.6 265.2 141.2 265.2 140.8C265.2 140.8 267.2 145.6 270.8 150.7C270.8 150.7 274.8 161.8 283.6 167.3C288 170.1 291.3 169.7 293.7 168C296.1 166.4 297.7 163.6 298.7 161.5C299.6 159.4 299.9 157.4 300 155.9C300 155.6 300 155.3 300 155C300.7 153.3 301.1 151.6 301.4 150.4C301.5 150 301.5 149.7 301.6 149.5C301.6 149.4 301.6 149.2 301.6 149.1C301.7 148.7 301.7 148.4 301.7 148.4C301.7 148.4 304 163.8 295 172.8Z" fill="url(#paint9_linear_1_2)"/>
<path id="Vector_19" d="M351.1 263.5C351 263.5 350.9 263.6 350.9 263.6C350.1 263.7 347.5 263.1 344.2 260.3C341.4 257.9 338 253.8 334.7 247.1C328 233.7 326.1 224.8 325.8 223.2V223L321.9 229.2C319.3 237.2 314.2 270.1 314.3 271.6C314.4 273 318.7 279.9 318.7 280.8C318.6 281.7 316.6 283.6 316.1 285.6C315.7 287 318.4 291.3 320.2 294.5C321.2 296.2 321.9 297.6 321.9 298.1C321.9 299.6 317.2 307 317.2 307V311L317.1 311.1L316.9 311.3L316.7 311.4C314.9 312.8 307.3 317.5 283.4 318.8C255.2 320.3 236.3 311.2 236.3 311.2L237.7 307.3C237.7 307.3 236.4 306.2 236.3 305.6C236.2 305 237.3 303.7 237.3 303.7C237.3 303.7 234.5 302.2 234.5 300.3C234.5 298.4 240.2 292.5 240 287.5C239.8 282.5 235.5 278 234.9 275.2C234.3 272.4 242.3 265.3 242.3 265.3C235.5 243.7 234.2 214.7 234.2 214.7L232.9 213.2C232.9 213.2 224.8 231.8 217.4 240.9C216.5 242 215.6 243.1 214.6 244.1C212.5 246.3 210.3 248.4 208.2 250.2C203.1 254.7 198.4 257.6 197.3 257.4C195.4 257 187.8 242 188.2 226.7C188.4 219.4 192.8 211.2 197.3 204.7C197.8 204 198.3 203.3 198.8 202.6C202 198.2 205.2 194.7 206.6 193.2C207.2 192.6 207.5 192.3 207.5 192.3C207.5 192.3 206.5 188.9 205.7 186C205.7 185.9 205.7 185.9 205.6 185.8V185.7C205.6 185.6 205.6 185.6 205.6 185.6C205.2 183.8 204.9 182.3 205.2 181.9C205.8 180.9 209.5 179.7 210.1 179C210.7 178.2 213.4 165.5 215.4 164.1C217.3 162.8 220.8 161.8 232.1 157.3C232.7 157.1 233.2 156.9 233.8 156.6C246.6 151.6 259.1 145.4 259.1 145.4L263.9 139.5H266L265.3 141V141.1C265.6 142.6 266 144.1 266.5 145.5V145.6C273.1 166.4 290.1 173.1 290.1 173.1C301.9 164.4 301.7 150.6 301.7 150.6V148.7L303.9 149.4L305.4 153C305.4 153 308 157 318.1 161.4C319.9 162.2 321.7 163.1 323.7 164.3C333 169.6 343.3 177.7 344.1 179.4C344.2 179.6 344.3 179.9 344.4 180.3C345.5 184.6 347.7 200.6 349.8 206.3C351.1 209.9 353.2 211.8 354.7 212.9C355.8 213.7 356.6 213.9 356.6 213.9C356.8 214.8 356.9 215.7 357 216.5C361.3 243.6 353 262.2 351.1 263.5Z" fill="url(#paint10_linear_1_2)"/>
<path id="Vector_20" opacity="0.5" d="M242.3 211.8L234.1 214.6L232.8 213.1C232.8 213.1 224.7 231.7 217.3 240.8C216.4 241.9 215.5 243 214.5 244C212.4 246.2 210.2 248.3 208.1 250.1L201.8 223L198.6 202.4C201.8 198 205 194.5 206.4 193C207 192.4 207.3 192.1 207.3 192.1C207.3 192.1 206.3 188.7 205.5 185.8C205.5 185.7 205.5 185.7 205.4 185.6V185.5C205.4 185.4 205.4 185.4 205.4 185.4C205 183.6 204.7 182.1 205 181.7C205.6 180.7 209.3 179.5 209.9 178.8C210.5 178 213.2 165.3 215.2 163.9C215.2 163.9 213.9 176.2 220.9 191.7L224.3 196.5L234.3 204.5C234.4 204.4 238.2 209.5 242.3 211.8Z" fill="url(#paint11_linear_1_2)"/>
<path id="Vector_21" d="M218.4 233.9C216.6 247 197.1 257.1 197.1 257.1C192.7 257.1 187.9 249.5 183.5 240.2C179.1 230.8 178.8 204 178.6 202.3C178.4 200.6 175.9 197.3 175.8 195.9C175.7 194.5 179.8 191.5 179.8 191.5V191.4V191.3C179.4 190.4 176.9 185.2 177.1 184.2C177.3 183.2 181.9 180.9 181.9 180.9L182.2 186C182.2 186 193 184 196.6 175.6L197.2 173L199 174.2V185.2C199 185.2 199.4 186.9 199.9 186.9C200.5 186.9 204.7 184.8 205.5 185.1C206.4 185.4 207.3 191.3 208.4 192C209.6 192.8 212.7 194.9 213.2 196C213.4 196.5 213.4 198.2 213.5 200.1C213.5 202.5 213.5 205.4 213.9 207C214.5 210.3 220.2 220.8 218.4 233.9Z" fill="url(#paint12_linear_1_2)"/>
<path id="Vector_22" d="M397.4 222.7C396.5 224.1 392.1 227 391 228.1C389.9 229.2 391 233 391 233C372.4 252.7 353.1 262.6 351.1 263.5C351 263.5 350.9 263.6 350.9 263.6C339.2 255.8 340.2 242.9 344.1 232C347.8 221.6 354.1 213 354.4 212.6C354.6 212.5 357.9 211.1 360.3 211C361.1 210.9 361.8 211.3 362.5 211.7C363.9 212.6 365.1 214 366.3 213.4C368 212.5 371.8 203.5 374.4 203.3C376.2 203.1 378.7 205 380.4 206C381.1 206.5 381.7 206.8 382 206.7C383 206.4 386.2 202.6 386.4 202.5C386.7 202.4 388.1 203.5 388.1 203.5L387.1 204.8C388.7 213.9 393.9 220 393.9 220L397.4 214.9C397.4 214.8 398.3 221.3 397.4 222.7Z" fill="url(#paint13_linear_1_2)"/>
<path id="Vector_23" d="M301.5 149.3C301.5 149.4 301.5 149.6 301.4 149.7C301.4 150 301.3 150.2 301.2 150.5C300 154.9 295.2 159.4 289.1 157.3C282.5 154.9 269.8 128.2 269.8 128.2L271.1 122.5L301.1 146.9L301.4 149.2L301.5 149.3Z" fill="#CB4D7A"/>
<g id="Group_7">
<path id="Vector_24" d="M201.8 144.4C201.8 144.4 200 134.3 200.8 126.8C201.6 119.3 200.6 110.9 200.6 110.9C200.6 110.9 198.8 110.1 197.5 110.9C196.2 111.7 193.1 119.4 194.5 125.6C195.9 131.8 194.8 146.6 194.8 146.6H192.7L188.2 140.3L186 139.7C186 139.7 173.3 151.7 173.5 158.8L175.2 165.1L190.9 164.6L201.1 152.9L201.8 144.4Z" fill="#EE8183"/>
<path id="Vector_25" d="M185.9 139.7C185.9 139.7 186.2 147.7 188 154.5C188 154.5 187.7 157.3 184.4 157.5L183.6 156.6C183.6 156.6 183 159.8 180.1 160L177.4 157.3L178.1 159.6C178.1 159.6 177.1 162 174.5 161.9C174.5 161.9 170.1 158.5 169.9 154L174.2 150.4V147.6L179.3 144L179.4 142C179.4 141.9 182.4 139.6 185.9 139.7Z" fill="url(#paint14_linear_1_2)"/>
<path id="Vector_26" opacity="0.6" d="M201 124.7C201 124.7 200.2 126.6 199.1 127.4C198 128.2 194.9 128.7 194.9 128.7L194.8 146.6H192.7L188.2 140.3C188.2 140.3 190.5 143.9 190.6 146.6L188.8 147.5L187.2 142.1L186.5 146L187.2 150.8C187.2 150.8 189.9 148.5 194.8 148.4L195.5 149.7C195.5 149.7 186.7 157 184.6 161.3C184.6 161.3 189 155.8 198.9 149.6L199.8 146.7L201.1 139.7C201.1 139.7 199.9 129.6 201 124.7Z" fill="url(#paint15_linear_1_2)"/>
<path id="Vector_27" d="M208.4 155.8C207.6 158.3 199 168.5 198 170.7C197 172.9 196.5 175.8 196.5 175.8C192.3 184.9 182.1 186.2 182.1 186.2L181.6 178C181.6 178 176.1 174.8 175.2 173.1L175.1 172.8C174.8 171.2 175.1 165.2 175.1 165.2L184.7 161.3C188.9 155.9 199 149.7 199 149.7L199.5 146.9C192.2 143.3 193.4 132.5 194.7 131.2C195.9 129.9 198.2 129.9 198.2 129.9C198.2 129.9 200.9 138.6 202.6 142.7C204.1 146.6 209.2 153.3 208.4 155.8Z" fill="url(#paint16_linear_1_2)"/>
<path id="Vector_28" d="M179.4 141.9C179.4 141.9 180.5 151.8 183.6 156.6C183.6 156.6 179.6 151.6 179.3 144L179.4 141.9Z" fill="#E28183"/>
<path id="Vector_29" d="M174.2 147.5C174.2 147.5 175.2 155.5 180.2 160C180.2 160 175.8 157.8 174.2 150.3V147.5Z" fill="#E28183"/>
<path id="Vector_30" opacity="0.91" d="M199.3 168.6C199.3 168.6 188.5 179.1 181.5 178L182 186.2C182 186.2 193.4 185.2 197.1 173.2C197.1 173.3 198.4 169.8 199.3 168.6Z" fill="url(#paint17_linear_1_2)"/>
</g>
<g id="Group_8">
<path id="Vector_31" d="M428.4 182.9C428.4 182.9 418.5 201.1 406.8 206.7H402.8L393.6 220.6C393.6 220.6 387.7 216.9 387.2 204.6C387.2 204.6 389.3 202.4 389.8 200C389.8 200 386.5 197.4 385.6 195.5C384.7 193.6 384.4 187.9 383.8 185.6C383.2 183.3 377.8 178.4 376.6 177.8C375.4 177.2 370 176.9 370 176.9C370 176.9 369.2 174.9 370 174C370.8 173.1 379.2 169.8 383.8 172.9C383.8 172.9 384.1 175.3 384.6 176.6C385.1 177.9 389.2 182.3 389.8 182.3C390.4 182.3 393.2 180 394.4 178.3C395.5 176.6 401.7 163.4 403.1 159V158.9C403.1 158.8 403.1 158.8 403.2 158.7C403.2 158.6 403.2 158.6 403.2 158.6C403.2 158.6 403.2 158.6 403.2 158.5C404.3 154.6 411 147.3 414.5 145.2C414.5 145.2 416 144.8 416.8 146.7C416.8 146.7 414 154.8 411 159.6C410.5 160.4 410 161.4 409.4 162.4C406.9 167.1 404 173.1 403.6 174V174.1L405.2 174.9L409.5 170.8L413.9 166.7L424 177.3L423 178.6L419.9 182.6L421.5 182.9L425.2 178.8L428.4 182.9Z" fill="url(#paint18_linear_1_2)"/>
<path id="Vector_32" opacity="0.6" d="M426 186.8L422.8 191.5C422.8 191.5 405.3 178 401.6 176.9C397.8 175.8 396.4 176.5 396.4 176.5L392.5 181.5C392.5 181.5 399.7 187.9 400.3 196.5C400.3 196.5 397.9 185.6 389.7 182.3C390.3 182.3 393.1 180 394.3 178.3C395.4 176.6 401.6 163.4 403 159C402.8 159.8 402.5 161.2 403.2 162.4C404.1 164 409.1 162.5 409.4 162.4L403.6 174V174.1L405.2 174.9L409.5 170.8L407.4 175.8L423 178.6L419.9 182.6L421.5 182.9L426 186.8Z" fill="url(#paint19_linear_1_2)"/>
<path id="Vector_33" d="M413.9 166.7C413.9 166.7 416.9 166.3 418.9 170.2L418.5 171.5C418.5 171.5 421.5 172.1 424.3 176.9C424.3 176.9 421.8 181.5 415.5 183.6C415.5 183.6 412.6 182.8 412.1 180.3L412.7 178.7L410.4 180.4C410.4 180.4 407.7 181.2 406.5 177.2L413.9 166.7Z" fill="url(#paint20_linear_1_2)"/>
<path id="Vector_34" d="M429.3 181.6C429.3 181.6 429.9 178.7 426.8 176.8L420.8 183.4C420.8 183.4 421 185.5 423.6 186C423.6 186.1 427.7 184.7 429.3 181.6Z" fill="url(#paint21_linear_1_2)"/>
<path id="Vector_35" opacity="0.91" d="M385.6 195.5C385.6 195.5 392.6 203.3 402.7 206.6L398.3 213.3L389.1 201.7L389.7 200C389.8 200 386.1 197.2 385.6 195.5Z" fill="url(#paint22_linear_1_2)"/>
<path id="Vector_36" d="M418.4 171.4C418.4 171.4 415.5 176.2 412.6 178.6L412 180.2C412 180.2 417.6 176.4 419.7 172C419.7 172 419.1 171.5 418.4 171.4Z" fill="#E28183"/>
</g>
<path id="Vector_37" opacity="0.5" d="M397.4 222.7C396.5 224.1 392.1 227 391 228.1C389.9 229.2 391 233 391 233C372.4 252.7 353.1 262.6 351.1 263.5C351 263.5 350.9 263.6 350.9 263.6C349.4 263.8 342 261.7 334.6 246.9C327.9 233.5 326 224.6 325.7 223V222.8L327.3 220.6L329.7 193.3L331.4 198.8C337.8 191 343.9 179.1 343.9 179.1L344.2 180C345.3 184.3 347.5 200.3 349.6 206C350.9 209.6 353 211.5 354.5 212.6C348.6 218 345.6 225.8 344.2 232C342.9 237.7 342.8 242 342.8 242C342.8 242 344.4 234.3 349.6 225C351.5 221.6 354.2 218.6 356.9 216.1C358.9 214.2 361 212.7 362.6 211.5C364 212.4 365.2 213.8 366.4 213.2C358.6 224.9 358.8 248.1 366.1 243.7C373.4 239.3 375.1 229.9 375.1 229.9C373.4 218.5 373.9 205.6 375.3 203.1C377 203.2 381.8 206.6 382.1 206.5C381.6 220 388 229 388 229L392.2 222.6C386.1 212.4 386.6 202.4 386.6 202.4C386.9 202.3 388.3 203.4 388.3 203.4L387.3 204.7C388.9 213.8 394.1 219.9 394.1 219.9L397.6 214.8C397.4 214.8 398.3 221.3 397.4 222.7Z" fill="url(#paint23_linear_1_2)"/>
<path id="Vector_38" opacity="0.5" d="M317 306.8V310.8L316.9 310.9L316.7 311.1L316.5 311.2C314.7 312.6 307.1 317.3 283.2 318.6C255 320.1 236.1 311 236.1 311L237.5 307.1C237.5 307.1 236.2 306 236.1 305.4C236 304.8 237.1 303.5 237.1 303.5C237.1 303.5 234.3 302 234.3 300.1C234.3 298.4 238.9 293.4 239.7 288.8C239.8 288.3 239.8 287.8 239.8 287.3C239.6 282.3 235.3 277.9 234.7 275C234.1 272.2 242.1 265.1 242.1 265.1C235.3 243.5 234 214.5 234 214.5L232.7 213C232.7 213 224.6 231.6 217.2 240.7C209.8 249.8 199 257.6 197.1 257.2C192.7 257.2 187.9 249.6 183.5 240.3C179.1 230.9 178.8 204.1 178.6 202.4C178.4 200.7 175.9 197.4 175.8 196C180.5 204.1 188.1 201.8 188.1 201.8C182.6 201.9 179.8 191.7 179.8 191.7V191.6V191.5L177.1 184.4C177.4 184.7 183.7 191.7 189.7 187.4C195.9 183 199.1 174.4 199.1 174.4V185.4C199.1 185.4 199.5 187.1 200 187.1C199.6 192.2 198.6 198.3 197.3 204.4C194.5 217.5 190.6 230.2 190.6 230.2C190.6 230.2 201 224.5 204.7 210.1C206.5 203.2 206.7 197.2 206.6 192.9C206.5 189.2 206 186.6 205.8 185.7C205.8 185.6 205.8 185.6 205.7 185.5V185.4C205.7 185.4 205.7 185.4 205.7 185.3L206.7 187.4L208.6 192.2C210.8 210.7 206.2 238.5 206.2 238.5C212.9 230.2 214.3 211.7 214 207.2C213.9 205.1 213.7 202.4 213.6 200.3C213.4 197.9 213.3 196.2 213.3 196.2L227 204.4L224.5 196.4L234.5 204.4C234.5 204.4 243.5 215.2 252.7 216.5C261.9 217.8 295.8 217 295.8 217C295.8 217 266.4 218.9 257.8 221.4C249.2 223.9 247.6 226.8 247.6 226.8C253.8 258.4 288.2 269 289.2 269.4C258 264.7 243.5 238.2 243.5 238.2C243.5 238.2 243 253.1 245.4 258.8C247.8 264.5 262 278.4 280.1 281.3C281.6 281.5 283.1 281.7 284.6 281.8C299.9 282.5 312.6 274.7 313.9 273.8C314 273.7 314 273.7 314 273.7C313.5 274.5 307.2 283.3 281.8 284.3C280.3 284.4 278.8 284.4 277.3 284.3C253.8 283.3 241.8 267.6 241.8 267.6C241.8 267.6 233.1 272.3 238.6 279.2C238.7 279.3 238.7 279.4 238.8 279.4C240.4 281.3 244.1 283.6 248.3 286C248.4 286.1 248.5 286.1 248.6 286.2C253.8 289.1 259.8 292 264.5 294.4C264.5 294.4 264.5 294.4 264.6 294.4C267.5 295.9 269.8 297.2 271.1 298.1C272.4 299.1 272.7 299.7 271.4 299.8C264.8 300.6 239.9 295.1 238.9 296.6C237.9 298.1 240.1 302 240.1 302C262.9 313.3 311.8 307.7 313.4 307.6C272.5 318.3 239 305 239 305L240.1 308.9C240.1 308.9 258.3 315.2 279.8 315.7C301.3 316.2 314.7 310.7 314.7 310.7L317 306.8Z" fill="url(#paint24_linear_1_2)"/>
<path id="Vector_39" opacity="0.5" d="M300.3 216.9C300.3 216.9 316.6 217.8 327.3 220.6L321.8 229C321.8 229 313.4 221.7 300.3 216.9Z" fill="url(#paint25_linear_1_2)"/>
<path id="Vector_40" opacity="0.5" d="M315.5 261.7C315.5 261.7 305.4 270.2 295.4 274.1C285.4 278 275.8 278.4 275.8 278.4C275.8 278.4 281.5 280.1 295.7 277.8C309.8 275.5 314.6 267.9 314.6 267.9L315.5 261.7Z" fill="url(#paint26_linear_1_2)"/>
<path id="Vector_41" opacity="0.5" d="M320.1 294.3C301.3 299.2 277.5 292.2 277.7 291.3C277.9 290.4 284.2 291.7 298.9 288.7C313.1 285.8 318.3 280.8 318.6 280.5C318.5 281.4 316.5 283.3 316 285.3C315.5 286.8 318.2 291.1 320.1 294.3Z" fill="url(#paint27_linear_1_2)"/>
<path id="Vector_42" opacity="0.5" d="M269 219.4C253 221 248.6 225.5 248.6 225.5C244.1 226.1 234 214.5 234 214.5L232.7 213C232.7 213 224.6 231.6 217.2 240.7C216.3 241.8 215.4 242.9 214.4 243.9L215.5 241.5C215.5 241.5 217.2 240.7 217.7 231.6C218.2 222.6 213.9 209.1 213.9 207.3C213.9 205.5 213.2 196.2 213.2 196.2L226.9 204.4L224.4 196.4L234.4 204.4C234.4 204.4 238.3 210.3 248.2 215.2C257.5 219.8 267.9 219.5 269 219.4Z" fill="url(#paint28_linear_1_2)"/>
<path id="Vector_43" opacity="0.5" d="M232.7 213L242.3 211.8C242.3 211.8 246.1 214.3 253.8 217.5L247.4 226.9C247.4 226.9 249.9 240.3 257.2 247.9C257.2 247.9 237.9 237.2 235.2 228.1L232.7 213Z" fill="url(#paint29_linear_1_2)"/>
<path id="Vector_44" opacity="0.5" d="M176.9 184.4L179.6 191.6C179.6 191.6 182.4 201.3 187.9 201.7C193.4 202.1 198.8 185.4 198.8 185.4V174.4C198.8 174.4 192.9 187 186.6 188.4C180.3 189.9 176.9 184.4 176.9 184.4Z" fill="url(#paint30_linear_1_2)"/>
<path id="Vector_45" opacity="0.5" d="M210 178.7C210 178.7 214.9 188.5 221 191.6C221 191.6 213.8 174.1 215.3 163.8C215.3 163.8 212.6 165.5 210 178.7Z" fill="url(#paint31_linear_1_2)"/>
<path id="Vector_46" opacity="0.76" d="M329.7 193.3L331.4 198.8L333.1 243.9C333.1 243.9 328.7 235.3 325.7 223.1L327.3 220.7C327.3 220.6 330 203.6 329.7 193.3Z" fill="url(#paint32_linear_1_2)"/>
<path id="Vector_47" opacity="0.5" d="M382.1 206.6C382.1 206.6 381.1 228.7 390.5 230.6L391 233C391 233 378.8 232.5 382.1 206.6Z" fill="url(#paint33_linear_1_2)"/>
<path id="Vector_48" opacity="0.3" d="M366.4 213.3C366.4 213.3 366 214.1 362.6 211.6C362.6 211.6 350.8 220 346.2 231.8C346.2 231.8 353.5 220.9 357.4 219.8C361.3 218.6 362.2 223 362.2 223C362.2 223 363.8 216.8 366.4 213.3Z" fill="url(#paint34_linear_1_2)"/>
<path id="Vector_49" opacity="0.5" d="M175.7 196C175.7 196 180.3 204.4 188.8 201.8C188.8 201.8 183.7 205.2 178.6 202.4C178.5 202.4 175.4 196.9 175.7 196Z" fill="url(#paint35_linear_1_2)"/>
<path id="Vector_50" opacity="0.5" d="M205.5 185.4C205.5 185.4 211.8 208.8 195.4 226.4C195.4 226.4 206 221 208.4 208.4C210.8 195.7 205.5 185.4 205.5 185.4Z" fill="url(#paint36_linear_1_2)"/>
<path id="Vector_51" opacity="0.5" d="M317.6 166.6C317.6 166.6 316.9 177.2 311.8 184.7C306.7 192.3 296.7 197.4 296.7 197.4C296.7 197.4 309.3 192.8 315.1 186.2C320.9 179.8 317.6 166.6 317.6 166.6Z" fill="url(#paint37_linear_1_2)"/>
<path id="Vector_52" opacity="0.5" d="M253.2 150.8C253.2 150.8 253.2 159.6 256 168.6C258.8 177.6 283.5 193.3 283.5 193.3C283.5 193.3 258.1 182.7 253.1 173.2C248.3 163.8 253.2 150.8 253.2 150.8Z" fill="url(#paint38_linear_1_2)"/>
<path id="Vector_53" d="M252.9 192.8V207.2C252.9 207.2 286 206.9 323.1 209.4L323.9 196.5C324 196.4 291.7 192.6 252.9 192.8Z" fill="url(#paint39_linear_1_2)"/>
<path id="Vector_54" opacity="0.5" d="M305.3 152.7C304.5 162 301.7 168.5 298.7 172.9C294.5 178.9 290 180.9 290 180.9C285.5 178.9 281.6 176.5 278.2 173.8C263.9 162.4 259.3 146.6 259 145.3C265 159.8 273.9 168.7 280.6 173.6C286 177.6 290 179.1 290 179.1V174.5C288.9 174.1 287.9 173.6 286.9 173.1C275.1 167.1 268.9 154.7 266 146.7C266 146.7 266 146.7 266 146.6C264.4 142.3 263.8 139.2 263.8 139.2H265.9L265.2 140.7V140.8C265.5 142.3 265.9 143.8 266.4 145.2V145.3C273 166.1 290 172.8 290 172.8C301.8 164.1 301.6 150.3 301.6 150.3V148.4L303.8 149.1L305.3 152.7Z" fill="url(#paint40_linear_1_2)"/>
<path id="Vector_55" opacity="0.3" d="M375.3 203.2C375.3 203.2 372.1 213.7 375.1 230C375.1 230 376.6 209.3 377.8 207.5C378.9 205.7 382.1 206.6 382.1 206.6C382.1 206.6 377.1 203.8 375.3 203.2Z" fill="url(#paint41_linear_1_2)"/>
<path id="Vector_56" opacity="0.5" d="M344.2 260.2C341.4 257.8 338 253.7 334.7 247C328 233.6 326.1 224.7 325.8 223.1L327.4 220.7L329.5 200.1L331.5 198.9C331.5 198.9 338.6 191.1 344 179.2C344.1 179.4 344.2 179.7 344.3 180.1C345.4 184.4 347.6 200.4 349.7 206.1C351 209.7 353.1 211.6 354.6 212.7C354.6 212.7 342.3 231 341.7 244C341 255.7 343.7 259.6 344.2 260.2Z" fill="url(#paint42_linear_1_2)"/>
<path id="Vector_57" opacity="0.5" d="M271.1 298.3C271.1 298.3 248.9 294.7 239.9 288.8C240 288.3 240 287.8 240 287.3C239.8 282.3 235.5 277.9 234.9 275C235 275.3 235.7 276.8 238.8 279.5C240.8 281.2 243.8 283.4 248.3 286.1C248.4 286.2 248.5 286.2 248.6 286.3C255 290.1 260.5 292.6 264.5 294.5C264.5 294.5 264.5 294.5 264.6 294.5C268.1 296.2 270.5 297.3 271.1 298.3Z" fill="url(#paint43_linear_1_2)"/>
<path id="Vector_58" opacity="0.5" d="M318.5 280.6C318.4 281.5 316.4 283.4 315.9 285.4C315.9 285.4 307.8 294 277.6 291.4C277.8 290.5 284.1 291.8 298.8 288.8C313.1 286 318.2 280.9 318.5 280.6Z" fill="url(#paint44_linear_1_2)"/>
<path id="Vector_59" opacity="0.5" d="M323.6 164L304.3 170.2L298.7 172.8H295H290L286.9 173.1L285.3 173.2L280.6 173.6L278.2 173.8L255.1 165.4L251 163.9L232 157C232.6 156.8 233.1 156.6 233.7 156.3C246.5 151.3 259 145.1 259 145.1L263.8 139.2H265.9C267.8 135 269.1 131.1 269.9 128L271.2 122.3C271.3 121.7 271.3 121.4 271.3 121.4L278.1 125L301 143.3C301 144.6 301 145.7 301.1 146.6L301.4 148.9C301.5 148.5 301.5 148.2 301.5 148.2L303.7 148.9L305.2 152.5C305.2 152.5 307.8 156.5 317.9 160.9C319.7 161.9 321.6 162.9 323.6 164Z" fill="#7A4AC0"/>
<g id="Group_9">
<path id="Vector_60" d="M308.9 146.4C308.9 146.4 299.9 148.4 290 143.6C280.1 138.8 271.8 124.7 271.2 121.1C270.7 117.6 275 108.3 275 101.1C275 93.9 271.5 81.5 277.4 74.8C283.3 68.1 310.6 67.1 319.5 75.7C319.5 75.7 322.2 82.6 322.2 86.5C322.2 87.4 322 88.8 321.8 90.4C321.7 91 321.6 91.6 321.5 92.3C320.7 97 319.6 102.8 320.1 105.3C320.3 106.2 320.6 107 320.9 107.8C322 110.3 323.6 112.3 323.9 114.5C324.3 117.3 320.5 137.6 308.9 146.4Z" fill="url(#paint45_linear_1_2)"/>
<path id="Vector_61" d="M275 99.1C275 99.1 272.5 93 266.4 92.9C266.4 92.9 262.8 94.3 262.2 97.1C262.2 97.1 263.5 107 265 111.7C266.5 116.3 272.1 115.7 272.1 115.7C272.1 115.7 276.9 108.2 275 99.1Z" fill="url(#paint46_linear_1_2)"/>
<path id="Vector_62" d="M298.6 119.4C298.6 119.4 300.7 119.2 301.5 119.9C302.4 120.6 305.6 123.7 309.7 124.5C313.8 125.4 316.5 121.9 317.4 121.7C318.3 121.5 319.2 122.7 319.2 122.7C319.2 122.7 318.8 121.3 316.7 120.6C316.7 120.6 315.8 123.9 309.9 122.7C304 121.6 301.5 119 301.5 119L301.2 118.5C301.3 118.6 299.6 118.9 298.6 119.4Z" fill="url(#paint47_linear_1_2)"/>
<path id="Vector_63" opacity="0.6" d="M289.9 88.8L290 88.2C290 88.2 295.9 77.9 307.5 77.6C319.2 77.3 321.8 84.6 321.8 84.6L324 81.3L319.1 71.3L284.9 70.7L276.6 77.4L275.5 93.9L279.2 115.6L288.2 120.4L290.7 118.1C289.8 110.8 284.3 104.2 284.3 104.2L288.2 101.5C288.2 101.5 298.3 106.4 304.2 104.9C304.2 104.9 308.6 92 308.4 82.5C308.5 82.6 293.4 84.8 289.9 88.8Z" fill="url(#paint48_linear_1_2)"/>
<path id="Vector_64" d="M289.4 89.6C289.4 89.6 290 85.9 296.3 84.4C303.3 82.7 309 81.3 309 81.3C309 81.3 307.8 85.4 305.4 86.9C305.4 86.9 298 86.6 294.2 87.5C290.5 88.3 289.4 89.6 289.4 89.6Z" fill="#38368E"/>
<path id="Vector_65" d="M321.8 84.6C321.8 84.6 318.2 87.3 315.8 93.9C315.8 93.9 318.1 90.9 320.3 90.9C321.8 90.9 321.5 92.4 321.5 92.4C321.5 92.4 323 88.4 321.8 84.6Z" fill="#38368E"/>
<path id="Vector_66" d="M291.7 100.1C291.7 100.1 292.1 92.2 299.8 90.2C299.8 90.2 302.5 93.8 302.8 97.8C302.8 97.8 298.8 97.1 291.7 100.1Z" fill="url(#paint49_linear_1_2)"/>
<path id="Vector_67" d="M313.7 103.2C313.7 103.2 314.3 96.9 317.9 94.6C317.9 94.6 320.4 96.4 320.1 101.7C320.1 101.7 318 100.9 313.7 103.2Z" fill="url(#paint50_linear_1_2)"/>
<path id="Vector_68" d="M291.7 100.1C291.7 100.1 294.2 103.2 301.2 103.8C301.2 103.8 302.5 101.8 302.4 97.8C302.4 97.8 296 97.2 291.7 100.1Z" fill="#FFEBED"/>
<path id="Vector_69" d="M313.7 103.2V104.1C313.7 104.1 314.8 106.3 318.6 106.7C318.6 106.7 319.8 104.8 319.9 101.6C320 101.7 317.5 101.1 313.7 103.2Z" fill="#FFEBED"/>
<path id="Vector_70" d="M299.2 97.6C299.2 97.6 297.4 99.8 297.6 103.1C297.6 103.1 299.9 103.6 301.2 103.7C301.2 103.7 302.7 101.6 302.4 97.7C302.4 97.8 300.4 97.3 299.2 97.6Z" fill="#7F9EC9"/>
<path id="Vector_71" d="M317.4 101.8C317.4 101.8 316.4 102.9 316.2 106.2C316.2 106.2 317.6 106.8 318.7 106.8C318.7 106.8 320.1 104.8 320 101.7C320 101.7 319 101.3 317.4 101.8Z" fill="#7F9EC9"/>
<path id="Vector_72" d="M298.6 103.4C298.6 103.4 298 99.2 300.4 97.5L302.4 97.8C302.4 97.8 303.1 101.2 301.2 103.8C301.2 103.8 299.2 103.5 298.6 103.4Z" fill="#38368E"/>
<path id="Vector_73" d="M318.3 101.6C318.3 101.6 317.4 103.5 317 106.4C317 106.4 317.7 106.7 318.7 106.7C318.7 106.7 320.1 105 320 101.6C320 101.7 319 101.4 318.3 101.6Z" fill="#38368E"/>
<path id="Vector_74" d="M291.7 100.1C291.7 100.1 296.3 97.4 304.3 98.9L302.8 97.8C302.8 97.8 297.2 96.1 291.7 100.1Z" fill="#131163"/>
<path id="Vector_75" d="M313.7 103.2C313.7 103.2 317.4 101.2 321.8 102.3L320 101C320 101 317.1 100.5 313.7 103.2Z" fill="#131163"/>
<path id="Vector_76" d="M296.8 100.1C296.8 100.1 298.1 99.8 299.2 101C299.2 101 297.6 101.4 296.8 100.1Z" fill="white"/>
<path id="Vector_77" d="M315.4 103.8C315.4 103.8 317.4 103.4 318.1 104.3C318.1 104.3 317 105 315.4 103.8Z" fill="white"/>
<path id="Vector_78" d="M292.2 100.6C292.2 100.6 295.8 104.2 301.6 105L301.7 102.9L301.2 103.8C301.2 103.8 295.7 103.4 292.2 100.6Z" fill="#C6659C"/>
<path id="Vector_79" d="M313.7 104.1C313.7 104.1 314.3 106.4 319 107.4L318.8 106.3L318.5 106.7C318.7 106.8 315.3 106.3 313.7 104.1Z" fill="#C6659C"/>
<path id="Vector_80" d="M304.3 113.4C304.3 113.4 306.1 113 309.3 113.4C312.5 113.8 316.1 114.7 318.1 113.4C318.1 113.4 315.5 116 313.2 116.4C310.9 116.8 307.5 114.8 307.5 114.8H306C305.9 114.8 304.8 114.2 304.3 113.4Z" fill="#CB5F7D"/>
<path id="Vector_81" d="M306.1 114.8C306.1 114.8 306.9 114.3 307.6 114.4C308.3 114.5 308.9 115.5 308.9 115.5C308.9 115.5 307.5 114.8 306.1 114.8Z" fill="#9F4A8B"/>
<path id="Vector_82" d="M318.1 113.4C318.9 112.6 314.6 104.8 312.5 104.5C310.4 104.2 308.5 113.2 308.5 113.2C308.5 113.2 311.4 113.6 314.2 114C317 114.3 318.1 113.4 318.1 113.4Z" fill="#FFBCAF"/>
<path id="Vector_83" opacity="0.6" d="M321.2 88.9C320 88.7 315.8 93.8 315.8 93.8C315.8 93.8 313.2 102 313.7 104.4C314.2 106.8 320.7 108.1 320.7 108.1L321 107.7C320.7 106.9 320.4 106.1 320.2 105.2C319.7 102.7 320.8 96.9 321.6 92.2C321.6 92.2 321.9 91.2 321.9 90.3C321.9 89.7 321.8 89 321.2 88.9Z" fill="url(#paint51_linear_1_2)"/>
<path id="Vector_84" d="M321 122.3C319.7 119.5 320.5 118.1 308.9 116.6C292.5 114.5 291.1 119.4 288.4 118.7C288.3 118.7 288.2 118.6 288.1 118.6C285.1 117.4 278 110.5 277.8 101.1C277.6 91.3 284.2 84.4 284.2 84.4C281.8 82.4 280.9 76.6 283.4 74.2C286 71.7 290.3 72.3 301 73.4C311.7 74.5 311.7 73.9 311.7 73.9C315.1 74.8 317.1 78 317.6 79C317.7 79.2 317.8 79.3 317.8 79.3L319.1 78.1C322.7 83.3 322 89 322 89C322 89 327.9 77.1 327.2 75.4C326 72.3 322.6 67.7 322.4 67.4C322.4 67.4 321.4 58.3 318.6 58.3C315.8 58.3 303.6 61 303.6 61C304.9 57.9 304.7 54.3 304.7 54.3C304.7 54.3 304.7 54.3 304.6 54.3C300.6 57.8 296.8 58.2 291.3 60.8C288.5 62.1 287.2 63.3 286.2 64.5L285.8 64.9L285.4 65.4C285 65.9 284.6 66.4 284.2 66.9C284.2 66.9 284.2 67 284.1 67C283.7 67.5 283.1 68 282.5 68.5C278.9 71.4 271 73.4 270 76.5C269.1 79.6 271.2 83.8 272.3 88.2C273.4 92.6 272.9 96.4 272.9 96.4C272.9 96.4 276.7 101.3 275.4 108.4C274.3 114.8 271.9 115.8 271.9 115.8C270.2 119.3 271 122.6 271 122.6C274.5 136.5 289 144.8 289 144.8C301.9 149.6 310.4 147.5 310.4 147.5C319.8 141.4 323 121.2 323.1 120.2C323.1 120.3 321.4 123 321 122.3ZM315.2 135.1C312.9 134.7 312.4 129 311.7 128.2C310.9 127.5 306.8 127.8 306.8 127.8C306.8 127.8 303 132.1 301.5 132.2C300 132.3 291.9 129 293.6 124.1C295.3 119.2 301.5 118.5 301.5 118.5C301.5 118.5 304.7 121.2 309.4 121.5C314.1 121.8 315.9 120.9 316.4 120.7C317 120.4 320 121.8 319.9 126.1C320 129.2 317.5 135.5 315.2 135.1Z" fill="url(#paint52_linear_1_2)"/>
<path id="Vector_85" d="M314.7 106.2C314.7 106.2 318.8 111.3 318.4 113.2C318 115.3 313.2 116.4 313.2 116.4C313.2 116.4 317 115.1 317.8 113.2C317.8 113.2 316.8 109.3 314.7 106.2Z" fill="#D2726C"/>
<path id="Vector_86" opacity="0.6" d="M322.1 88.8C322.1 88.8 322.8 83.1 319.2 77.9C322.1 72.7 322.5 67.2 322.5 67.2C323.5 69.6 324 74.3 324 74.3L327.3 75.2C327.9 76.9 322.1 88.8 322.1 88.8Z" fill="url(#paint53_linear_1_2)"/>
<path id="Vector_87" opacity="0.6" d="M317.6 78.8C317 77.8 315.1 74.6 311.7 73.7C311.7 73.7 311.7 74.4 301 73.2C290.3 72.1 285.9 71.5 283.4 74C280.8 76.5 281.8 82.2 284.2 84.2C284.2 84.2 277.7 91.1 277.8 100.9C278 110.3 285.1 117.3 288.1 118.4L288 119.4C288 119.4 288.5 140.9 293.8 142.6C299 144.3 309.9 143.4 310.9 144.4C311.9 145.4 310.8 147 310.7 147.2C310.7 147.2 302.2 149.3 289.3 144.5C289.3 144.5 274.8 136.2 271.3 122.3C271.3 122.3 270.5 119 272.2 115.5C272.2 115.5 274.6 114.5 275.7 108.1C277 101 273.2 96.1 273.2 96.1C273.2 96.1 273.7 92.3 272.6 87.9C271.5 83.5 269.3 79.3 270.3 76.2C276.4 77.2 280.3 74 280.3 74C280.3 74 281.4 72.5 286.1 71.8C290.8 71 309.6 72.9 309.6 72.9C309.6 72.9 307.7 71.3 303.7 70.3C299.9 69.3 287.1 70.5 285.7 70.6C287.2 70.3 301.7 67.8 303.4 68.3C305.2 68.8 311.5 71.7 311.5 71.7C310.9 68.8 305.3 61.8 305.3 61.8C305.3 61.8 297.3 61.9 292.1 63C287.5 64 284.9 66.1 284.4 66.5L285.6 65L286 64.5L286.4 64.1L288.2 63.8L297.3 60.1C300.4 58.5 304.3 54.4 304.8 53.9H304.9C304.9 53.9 305.1 57.5 303.8 60.6C311.5 59.6 314.1 60.1 314.1 60.1C317.5 65.4 317.6 78.8 317.6 78.8Z" fill="url(#paint54_linear_1_2)"/>
<path id="Vector_88" opacity="0.5" d="M289.2 144.6C289.2 144.6 293.9 143.5 301.1 143.8C308.2 144.1 312.3 144.1 310.6 147.3C310.5 147.3 301.6 149.4 289.2 144.6Z" fill="url(#paint55_linear_1_2)"/>
<path id="Vector_89" d="M314 60.4C314 60.4 318.3 58.7 320.1 59C320.1 59 319.4 58.1 318.7 57.9C318 57.7 303.7 60.9 303.7 60.9C303.7 60.9 312.6 59.8 314 60.4Z" fill="url(#paint56_linear_1_2)"/>
<path id="Vector_90" d="M305.2 62C305.2 62 304.9 66.7 303.3 68.4L285.6 70.7L280.4 69.8C280.4 69.8 282.4 68.9 284.6 66.4C286.9 63.8 298.4 61.3 305.2 62Z" fill="url(#paint57_linear_1_2)"/>
<path id="Vector_91" d="M322.4 67.2C322.4 67.2 323.8 71.9 323.9 74.3L327.2 75.2C327.3 75.2 326.3 71.7 322.4 67.2Z" fill="url(#paint58_linear_1_2)"/>
<path id="Vector_92" opacity="0.8" d="M274.2 107.5C274.2 107.5 273 101.5 269.9 98.6C266.9 95.6 263.4 96.6 263.4 96.6C263.4 96.6 264.3 107.7 265.3 110.4C266.3 113.1 267.8 113.8 267.8 113.8C267.8 113.8 265.7 111.9 265.4 108.3C265.1 104.6 265 99.5 265.8 98.9C266.6 98.3 269.9 100.7 269.9 100.7C269.9 100.7 268.9 102 268.3 105.2C267.7 108.5 270 110.8 270.8 110.8C271.7 110.8 270.8 107 270.9 106C271 104.7 272.9 105 274.2 107.5Z" fill="url(#paint59_linear_1_2)"/>
<path id="Vector_93" opacity="0.8" d="M271.2 100.1C271.2 100.1 267.9 102.3 268.2 106.8C268.6 111.3 271.1 111.1 271.1 110.1C271.1 109.2 270.6 106.7 270.9 105.4C271.2 104 273.4 104.6 273.4 104.6C273.4 104.6 271.9 101 271.2 100.1Z" fill="url(#paint60_linear_1_2)"/>
<path id="Vector_94" d="M323.3 120.1C323.3 120.1 319.2 139 310.6 147.4C310.5 147.3 320.3 143.5 323.3 120.1Z" fill="#34C7FF"/>
<path id="Vector_95" d="M318.7 57.9C318.7 57.9 320.9 59.6 321.3 65.5C321.7 71.4 319.2 77.9 319.2 77.9C319.2 77.9 322.5 73 322.8 67.6C323 62.3 320.4 58.6 318.7 57.9Z" fill="#34C7FF"/>
</g>
<path id="Vector_96" d="M292.2 70.2C292.2 70.2 297.2 71.9 302.8 72.4C308.4 72.9 309.5 73 309.5 73C309.5 73 307.3 70.8 302.5 70.2C297.8 69.6 292.2 70.2 292.2 70.2Z" fill="url(#paint61_linear_1_2)"/>
<path id="Vector_97" d="M316.6 120.5C316.6 120.5 319 120.5 320 123.5C320.8 125.9 321 128 321 128L321.9 124.7C321.9 124.7 320.8 120.5 319.6 119.5C318.8 118.8 317.3 118.1 316.6 118.3V120.5Z" fill="url(#paint62_linear_1_2)"/>
<path id="Vector_98" d="M310.1 117.4L310.5 121C310.5 121 313.4 121.2 315.4 120.4L315.7 118.2C315.8 118.3 312 117.3 310.1 117.4Z" fill="url(#paint63_linear_1_2)"/>
<path id="Vector_99" d="M323.6 164C323.6 164 340.8 176.6 343.1 180.9C345.3 185.2 346.2 198.8 349.3 204.7C349.3 204.7 347.2 195.1 345.8 187.6C344.3 180.1 344.7 180 343.9 178.1C343 176.2 330.1 167.2 323.6 164Z" fill="#34C7FF"/>
<path id="Vector_100" d="M320.5 234C320.5 234 312.2 269.5 312.6 271.9C313 274.3 318.4 279.2 318.6 280.5C318.6 280.5 314.5 286 314.7 287.2C314.9 288.4 321.9 296.1 321.7 298.5C321.6 299.2 317.1 306.7 317.1 306.7C317.1 306.7 322.2 299.3 322.5 298.2C322.8 297 316.2 287.2 316 286.2C315.5 283.6 319.3 281.7 319.4 280C319.5 278.3 314.3 274.1 314.3 271.3C314.2 268.6 320.5 234 320.5 234Z" fill="#34C7FF"/>
<path id="Vector_101" d="M322.2 318.7C322.2 318.7 340.1 359.3 346.3 400C346.2 400 345.2 360.3 322.2 318.7Z" fill="#34C7FF"/>
<path id="Vector_102" d="M208.4 155.8C208.4 155.8 203.8 154.8 201.8 150.8C199.9 146.7 201.1 140.9 201.1 140.9C201.1 140.9 204.7 147.9 206.5 150.3C208.4 152.6 208.9 155.3 208.4 155.8Z" fill="#FFBCAF"/>
</g>
<g id="Group_10">
<path id="Vector_103" opacity="0.6" d="M351.7 134.6L354.9 226.4C355 230 358 232.9 361.7 232.9H519.8C523.5 232.9 526.5 230 526.6 226.3L528.8 133.4C528.9 129.6 525.8 126.4 522 126.5L358.4 127.6C354.6 127.6 351.5 130.8 351.7 134.6Z" fill="#36D1F7"/>
<g id="Group_11">
<path id="Vector_104" d="M519.8 233.2H361.6C357.8 233.2 354.7 230.2 354.6 226.4L351.4 134.6C351.3 132.7 352 130.9 353.3 129.5C354.6 128.1 356.4 127.4 358.3 127.3L521.9 126.2C523.8 126.2 525.6 126.9 526.9 128.3C528.2 129.7 529 131.5 528.9 133.4L526.7 226.3C526.7 230.2 523.6 233.2 519.8 233.2ZM522 126.8L358.4 127.9C356.6 127.9 355 128.6 353.7 129.9C352.5 131.2 351.8 132.9 351.9 134.6L355.1 226.4C355.2 229.9 358.1 232.7 361.6 232.7H519.7C523.2 232.7 526.1 229.8 526.2 226.3L528.4 133.4C528.4 131.6 527.8 129.9 526.5 128.7C525.4 127.5 523.7 126.8 522 126.8Z" fill="#744CA2"/>
</g>
<path id="Vector_105" opacity="0.6" d="M351.9 139.3H528.6L528.9 134.5C529.2 130.2 525.7 126.6 521.4 126.7L357.9 128C354.5 128 351.8 130.8 351.8 134.2L351.9 139.3Z" fill="url(#paint64_linear_1_2)"/>
<path id="Vector_106" opacity="0.3" d="M360.8 146.7V199.8H414.9V146.4L360.8 146.7Z" fill="url(#paint65_linear_1_2)"/>
<path id="Vector_107" opacity="0.3" d="M490.6 150.3H467.1V173.8H490.6V150.3Z" fill="url(#paint66_linear_1_2)"/>
<path id="Vector_108" opacity="0.3" d="M518.4 150.3H494.9V173.8H518.4V150.3Z" fill="url(#paint67_linear_1_2)"/>
<path id="Vector_109" opacity="0.3" d="M462.4 150.3H438.9V173.8H462.4V150.3Z" fill="url(#paint68_linear_1_2)"/>
<path id="Vector_110" d="M518.4 187.5H458.2V193.1H518.4V187.5Z" fill="#D1D4FB"/>
<path id="Vector_111" d="M518.4 196.1H443.2V197.8H518.4V196.1Z" fill="#D1D4FB"/>
<path id="Vector_112" d="M458.3 176.8H443.9V178.5H458.3V176.8Z" fill="#D1D4FB"/>
<path id="Vector_113" d="M486.1 176.8H471.7V178.5H486.1V176.8Z" fill="#D1D4FB"/>
<path id="Vector_114" d="M513.8 176.8H499.4V178.5H513.8V176.8Z" fill="#D1D4FB"/>
<path id="Vector_115" d="M463.1 198.9H438.9V200.6H463.1V198.9Z" fill="#D1D4FB"/>
<path id="Vector_116" d="M518.4 201.7H443.2V203.4H518.4V201.7Z" fill="#D1D4FB"/>
<path id="Vector_117" d="M518.4 204.5H438.9V206.2H518.4V204.5Z" fill="#D1D4FB"/>
<path id="Vector_118" d="M518.4 207.3H438.9V209H518.4V207.3Z" fill="#D1D4FB"/>
<path id="Vector_119" d="M518.4 218.6H443.2V220.3H518.4V218.6Z" fill="#D1D4FB"/>
<path id="Vector_120" d="M518.4 221.4H438.9V223.1H518.4V221.4Z" fill="#D1D4FB"/>
<path id="Vector_121" d="M518.4 224.2H438.9V225.9H518.4V224.2Z" fill="#D1D4FB"/>
<path id="Vector_122" d="M515.2 210.1H438.9V211.8H515.2V210.1Z" fill="#D1D4FB"/>
<path id="Vector_123" d="M518.4 212.9H443.2V214.6H518.4V212.9Z" fill="#D1D4FB"/>
<path id="Vector_124" d="M503.3 215.7H438.9V217.4H503.3V215.7Z" fill="#D1D4FB"/>
<g id="Group_12">
<path id="Vector_125" d="M375.9 189.2C367.4 189.2 360.5 182.3 360.5 173.8C360.5 165.3 367.4 158.4 375.9 158.4C384.4 158.4 391.3 165.3 391.3 173.8C391.3 182.3 384.4 189.2 375.9 189.2ZM375.9 159.4C368 159.4 361.5 165.9 361.5 173.8C361.5 181.7 368 188.2 375.9 188.2C383.8 188.2 390.3 181.7 390.3 173.8C390.3 165.9 383.9 159.4 375.9 159.4Z" fill="#E0FFFF"/>
</g>
<path id="Vector_126" d="M375.9 182.2C380.539 182.2 384.3 178.439 384.3 173.8C384.3 169.161 380.539 165.4 375.9 165.4C371.261 165.4 367.5 169.161 367.5 173.8C367.5 178.439 371.261 182.2 375.9 182.2Z" fill="white"/>
<g id="Group_13">
<path id="Vector_127" d="M414.9 161.8C406.4 161.8 399.5 154.9 399.5 146.4C399.5 137.9 406.4 131 414.9 131C423.4 131 430.3 137.9 430.3 146.4C430.2 154.9 423.3 161.8 414.9 161.8ZM414.9 132C407 132 400.5 138.5 400.5 146.4C400.5 154.3 407 160.8 414.9 160.8C422.8 160.8 429.3 154.3 429.3 146.4C429.2 138.5 422.8 132 414.9 132Z" fill="#E0FFFF"/>
</g>
<path id="Vector_128" d="M414.9 154.3C419.263 154.3 422.8 150.763 422.8 146.4C422.8 142.037 419.263 138.5 414.9 138.5C410.537 138.5 407 142.037 407 146.4C407 150.763 410.537 154.3 414.9 154.3Z" fill="white"/>
<g id="Group_14">
<path id="Vector_129" d="M358.1 132.1L359.2 130.4L365.3 135.7L364.4 137L358.1 132.1Z" fill="white"/>
<path id="Vector_130" d="M365.4 132.1L364.3 130.4L358.2 135.7L359.2 137L365.4 132.1Z" fill="white"/>
</g>
<path id="Vector_131" d="M524.2 131.5H469.8V134.2H524.2V131.5Z" fill="white"/>
</g>
<g id="Group_15">
<path id="Vector_132" d="M183.3 92.1V115.7L211.6 116L212 91.4L183.3 92.1Z" fill="url(#paint69_linear_1_2)"/>
<path id="Vector_133" d="M212 91.4L213.8 94.5L212.9 116H211.6L212 91.4Z" fill="url(#paint70_linear_1_2)"/>
<path id="Vector_134" d="M188.4 100.1L191 96.3L205.1 108.2L203 111L188.4 100.1Z" fill="white"/>
<path id="Vector_135" d="M205.5 100.1L202.9 96.3L188.8 108.2L190.9 111L205.5 100.1Z" fill="white"/>
</g>
<g id="item-1">
<path id="Vector_136" opacity="0.81" d="M249.3 370.2H152.6C148.3 370.2 144.8 366.8 144.7 362.5L142.9 283.2C142.8 278.8 146.4 275.1 150.8 275.1H251.5C256 275.1 259.5 278.8 259.4 283.2L257.2 362.5C257.1 366.8 253.6 370.2 249.3 370.2Z" fill="url(#paint71_linear_1_2)"/>
<g id="Group_16">
<path id="Vector_137" d="M249.3 370.4H152.6C148.2 370.4 144.5 366.8 144.4 362.4L142.6 283.1C142.5 280.9 143.4 278.8 144.9 277.2C146.4 275.6 148.5 274.7 150.7 274.7H251.4C253.6 274.7 255.7 275.6 257.3 277.2C258.9 278.8 259.7 280.9 259.6 283.1L257.4 362.4C257.3 366.9 253.7 370.4 249.3 370.4ZM150.8 275.3C148.7 275.3 146.8 276.1 145.3 277.6C143.8 279.1 143.1 281.1 143.1 283.1L144.9 362.4C145 366.5 148.4 369.9 152.6 369.9H249.3C253.5 369.9 256.9 366.6 257 362.4L259.2 283.1C259.3 281 258.5 279 257 277.5C255.5 276 253.6 275.2 251.5 275.2H150.8V275.3Z" fill="#473DA2"/>
</g>
<g id="Group_17">
<path id="Vector_138" d="M219.7 291.3H168.9V293.5H219.7V291.3Z" fill="white"/>
<path id="Vector_139" d="M194.3 296.6H168.9V298.8H194.3V296.6Z" fill="white"/>
<path id="Vector_140" d="M194.3 301H168.9V303.2H194.3V301Z" fill="white"/>
<path id="Vector_141" d="M217.4 301H197.2V303.2H217.4V301Z" fill="white"/>
<path id="Vector_142" d="M209.9 305.4H168.9V307.6H209.9V305.4Z" fill="white"/>
<path id="Vector_143" d="M183.5 309.8H168.9V312H183.5V309.8Z" fill="white"/>
<path id="Vector_144" d="M211.7 323.1H186.5V325.3H211.7V323.1Z" fill="white"/>
<path id="Vector_145" d="M214.6 314.2H168.9V316.4H214.6V314.2Z" fill="white"/>
<path id="Vector_146" d="M204.1 318.7H168.9V320.9H204.1V318.7Z" fill="white"/>
<path id="Vector_147" d="M185.4 323.1H168.9V325.3H185.4V323.1Z" fill="white"/>
<path id="Vector_148" d="M194.3 327.5H168.9V329.7H194.3V327.5Z" fill="white"/>
<path id="Vector_149" d="M176.2 331.9H168.9V334.1H176.2V331.9Z" fill="white"/>
<path id="Vector_150" d="M205.7 331.9H179.2V334.1H205.7V331.9Z" fill="white"/>
<path id="Vector_151" d="M211.7 336.2H186.5V338.4H211.7V336.2Z" fill="white"/>
<path id="Vector_152" d="M185.4 336.2H168.9V338.4H185.4V336.2Z" fill="white"/>
<path id="Vector_153" d="M194.3 340.6H168.9V342.8H194.3V340.6Z" fill="white"/>
<path id="Vector_154" d="M176.2 345.1H168.9V347.3H176.2V345.1Z" fill="white"/>
<path id="Vector_155" d="M205.7 345.1H179.2V347.3H205.7V345.1Z" fill="white"/>
</g>
</g>
<g id="items-7">
<path id="Vector_156" d="M504.2 113.3C506.685 113.3 508.7 111.285 508.7 108.8C508.7 106.315 506.685 104.3 504.2 104.3C501.715 104.3 499.7 106.315 499.7 108.8C499.7 111.285 501.715 113.3 504.2 113.3Z" fill="url(#paint72_linear_1_2)"/>
<path id="Vector_157" d="M84.3 218.1C87.3928 218.1 89.9 215.593 89.9 212.5C89.9 209.407 87.3928 206.9 84.3 206.9C81.2072 206.9 78.7 209.407 78.7 212.5C78.7 215.593 81.2072 218.1 84.3 218.1Z" fill="url(#paint73_linear_1_2)"/>
<path id="Vector_158" d="M517.4 113.3C519.885 113.3 521.9 111.285 521.9 108.8C521.9 106.315 519.885 104.3 517.4 104.3C514.915 104.3 512.9 106.315 512.9 108.8C512.9 111.285 514.915 113.3 517.4 113.3Z" fill="url(#paint74_linear_1_2)"/>
<path id="Vector_159" d="M229.2 142.8C230.967 142.8 232.4 141.367 232.4 139.6C232.4 137.833 230.967 136.4 229.2 136.4C227.433 136.4 226 137.833 226 139.6C226 141.367 227.433 142.8 229.2 142.8Z" fill="url(#paint75_linear_1_2)"/>
<path id="Vector_160" d="M440.9 282.2C442.667 282.2 444.1 280.767 444.1 279C444.1 277.233 442.667 275.8 440.9 275.8C439.133 275.8 437.7 277.233 437.7 279C437.7 280.767 439.133 282.2 440.9 282.2Z" fill="url(#paint76_linear_1_2)"/>
<path id="Vector_161" d="M112.3 313.3C113.846 313.3 115.1 312.046 115.1 310.5C115.1 308.954 113.846 307.7 112.3 307.7C110.754 307.7 109.5 308.954 109.5 310.5C109.5 312.046 110.754 313.3 112.3 313.3Z" fill="url(#paint77_linear_1_2)"/>
</g>
<g id="item-6">
<path id="Vector_162" opacity="0.73" d="M160.5 282.8H111.7C107.8 282.8 104.6 279.7 104.4 275.8L103.3 243.7C103.2 239.6 106.5 236.2 110.6 236.2H161.5C165.6 236.2 168.9 239.6 168.8 243.7L167.8 275.8C167.7 279.6 164.4 282.8 160.5 282.8Z" fill="url(#paint78_linear_1_2)"/>
<g id="Group_18">
<path id="Vector_163" d="M160.5 283H111.7C107.6 283 104.3 279.8 104.2 275.7L103.1 243.6C103 241.5 103.8 239.6 105.2 238.1C106.6 236.6 108.6 235.8 110.6 235.8H161.5C163.6 235.8 165.5 236.6 166.9 238.1C168.3 239.6 169.1 241.5 169 243.6L168 275.7C167.9 279.8 164.6 283 160.5 283ZM110.6 236.4C108.7 236.4 106.9 237.2 105.5 238.5C104.1 239.8 103.5 241.7 103.5 243.6L104.6 275.7C104.7 279.5 107.8 282.5 111.6 282.5H160.4C164.2 282.5 167.3 279.5 167.4 275.7L168.4 243.6C168.5 241.7 167.8 239.9 166.4 238.5C165.1 237.1 163.3 236.4 161.4 236.4H110.6Z" fill="#953DA2"/>
</g>
<g id="Group_19">
<path id="Vector_164" d="M124.7 247.6L112.7 261.6L124.9 272V266.6L117.8 260.5L124.4 253L124.7 247.6Z" fill="white"/>
</g>
<g id="Group_20">
<path id="Vector_165" d="M145.9 248.3L157.9 262.2L145.6 272.6V267.2L152.7 261.1L144.8 252.8L145.9 248.3Z" fill="white"/>
</g>
<g id="Group_21">
<path id="Vector_166" d="M127.3 272L137.8 248.9H142.7L130.9 272H127.3Z" fill="white"/>
</g>
</g>
<g id="item-5">
<path id="Vector_167" opacity="0.73" d="M488.8 348.8H427.8C422.9 348.8 418.9 344.9 418.7 340L417.3 299.8C417.1 294.7 421.3 290.4 426.4 290.4H490C495.1 290.4 499.3 294.7 499.1 299.8L497.9 340C497.8 344.9 493.7 348.8 488.8 348.8Z" fill="url(#paint79_linear_1_2)"/>
<g id="Group_22">
<path id="Vector_168" d="M488.8 349.1H427.8C422.7 349.1 418.6 345.1 418.4 340.1L417 299.9C416.9 297.3 417.8 294.9 419.6 293.1C421.4 291.3 423.8 290.2 426.3 290.2H490C492.6 290.2 494.9 291.2 496.7 293C498.5 294.8 499.4 297.3 499.3 299.8L498.1 340C498 345.1 493.9 349.1 488.8 349.1ZM426.4 290.7C424 290.7 421.7 291.7 420 293.4C418.3 295.1 417.4 297.4 417.5 299.9L418.9 340.1C419.1 344.9 423 348.7 427.8 348.7H488.8C493.6 348.7 497.5 344.9 497.7 340.1L498.9 299.9C499 297.5 498.1 295.2 496.4 293.5C494.7 291.8 492.5 290.8 490 290.8H426.4V290.7Z" fill="#953DA2"/>
</g>
<path id="Vector_169" d="M485.4 296.9H429.5V330.1H485.4V296.9Z" fill="#D1D4FB"/>
<path id="Vector_170" d="M452.6 305.2V321.9L466.8 312.7L452.6 305.2Z" fill="white"/>
<path id="Vector_171" d="M485.4 336.2H429.5V339.2H485.4V336.2Z" fill="#D1D4FB"/>
<path id="Vector_172" d="M444 336.2H429.5V339.2H444V336.2Z" fill="white"/>
</g>
<g id="items-4">
<path id="Vector_173" d="M222.8 37L229.2 49.8L224.9 51.8L218.9 40L222.8 37Z" fill="#FF1D9C"/>
<path id="Vector_174" d="M78.3 336.3L84.3 342.8L86.6 340.1L81 334L78.3 336.3Z" fill="#6877FF"/>
<path id="Vector_175" d="M380.1 115.4L374.1 119L371.7 114.5L378.3 110.6L380.1 115.4Z" fill="#4F31E0"/>
<path id="Vector_176" d="M409.6 345.1L401 351.2L398.6 346.6L406.9 341.8L409.6 345.1Z" fill="#4F31E0"/>
</g>
<g id="item-3">
<path id="Vector_177" fill-rule="evenodd" clip-rule="evenodd" d="M398.2 84.3L396.8 50.6H440.9L439 84.2L398.2 84.3Z" fill="url(#paint80_linear_1_2)"/>
<path id="Vector_178" fill-rule="evenodd" clip-rule="evenodd" d="M396.8 50.6L395.5 52.6L396.8 84.3H398.2L396.8 50.6Z" fill="url(#paint81_linear_1_2)"/>
<path id="Vector_179" d="M411.4 57.4L404.5 56.6L405.5 79.7L411.4 79.1V76.7L408 76.8L407.6 59L411.4 59.1V57.4Z" fill="white"/>
<path id="Vector_180" d="M425.6 57.4L432.5 56.6L431.6 79.7L425.6 79.1V76.7L429 76.8L429.4 59L425.6 59.1V57.4Z" fill="white"/>
</g>
<g id="item-2">
<path id="Vector_181" fill-rule="evenodd" clip-rule="evenodd" d="M94.4 158L95.3 135H65.3L66.5 157.9L94.4 158Z" fill="url(#paint82_linear_1_2)"/>
<path id="Vector_182" fill-rule="evenodd" clip-rule="evenodd" d="M95.3 135L96.2 136.4L95.3 158H94.4L95.3 135Z" fill="url(#paint83_linear_1_2)"/>
<path id="Vector_183" d="M83.8 139.7C83.8 139.7 87.1 139.6 87.7 139.8C88.3 140.1 87.5 145.4 87.5 145.4L88.8 146.6L87.6 147.8C87.6 147.8 87.7 153.2 86.9 153.7C86.1 154.2 83.5 153.7 83.5 153.7V152.3C83.5 152.3 85.7 152.4 86 152.1C86.4 151.8 86.3 147.1 86.3 147.1L86.9 146.5L86.3 145.8C86.3 145.8 86.4 142.4 86.3 141.5C86.3 140.9 83.7 140.8 83.7 140.8V139.7H83.8Z" fill="white"/>
<path id="Vector_184" d="M76.2 139.7C76.2 139.7 72.9 139.6 72.3 139.8C71.7 140.1 72.5 145.4 72.5 145.4L71.2 146.6L72.4 147.8C72.4 147.8 72.3 153.2 73.1 153.7C73.9 154.2 76.5 153.7 76.5 153.7V152.3C76.5 152.3 74.3 152.4 74 152.1C73.7 151.8 73.7 147.1 73.7 147.1L73.1 146.5L73.7 145.8C73.7 145.8 73.6 142.4 73.7 141.5C73.7 140.9 76.3 140.8 76.3 140.8V139.7H76.2Z" fill="white"/>
</g>
<g id="Group_23">
<g id="Group_24">
<path id="Vector_185" d="M347.9 87.3L340.5 68L359.6 72L347.9 87.3ZM341.3 68.7L348 86.3L358.7 72.4L341.3 68.7Z" fill="#744CA2"/>
</g>
<g id="Group_25">
<path id="Vector_186" d="M407.071 351.691L406.667 351.395L400.223 360.186L400.626 360.481L407.071 351.691Z" fill="#744CA2"/>
</g>
<g id="Group_26">
<path id="Vector_187" d="M340.323 278.847L333.371 270.194L332.981 270.507L339.933 279.16L340.323 278.847Z" fill="#744CA2"/>
</g>
<g id="Group_27">
<path id="Vector_188" d="M125.819 339.424L111.978 329.383L111.685 329.788L125.525 339.829L125.819 339.424Z" fill="#744CA2"/>
</g>
<g id="Group_28">
<path id="Vector_189" d="M124.132 327.978L123.734 327.675L113.371 341.278L113.769 341.581L124.132 327.978Z" fill="#744CA2"/>
</g>
<g id="Group_29">
<path id="Vector_190" d="M103.457 191.876L94.5168 187.178L94.2843 187.621L103.225 192.318L103.457 191.876Z" fill="#744CA2"/>
</g>
<g id="Group_30">
<path id="Vector_191" d="M458.447 59.5144L458.071 59.1841L447.698 70.9685L448.074 71.2989L458.447 59.5144Z" fill="#744CA2"/>
</g>
<g id="Group_31">
<path id="Vector_192" d="M251.237 109.304L246.605 99.9924L246.157 100.215L250.789 109.526L251.237 109.304Z" fill="#744CA2"/>
</g>
<g id="Group_32">
<path id="Vector_193" d="M184.999 257.135L184.678 256.751L172.79 266.696L173.111 267.08L184.999 257.135Z" fill="#744CA2"/>
</g>
</g>
</g>
<g id="CICADA" style="mix-blend-mode:overlay">
<path d="M271.291 204.3C270.843 204.548 270.143 204.672 269.191 204.672C267.823 204.672 266.731 204.256 265.915 203.424C265.107 202.576 264.703 201.46 264.703 200.076C264.703 198.708 265.115 197.6 265.939 196.752C266.763 195.904 267.847 195.48 269.191 195.48C270.167 195.48 270.867 195.588 271.291 195.804L271.195 197.028C270.651 196.812 269.983 196.704 269.191 196.704C268.223 196.704 267.451 197.016 266.875 197.64C266.299 198.264 266.011 199.076 266.011 200.076C266.011 201.116 266.291 201.932 266.851 202.524C267.419 203.14 268.199 203.448 269.191 203.448C270.031 203.448 270.699 203.316 271.195 203.052L271.291 204.3ZM274.922 204.516H273.602V195.636H274.922V204.516ZM283.198 204.3C282.75 204.548 282.05 204.672 281.098 204.672C279.73 204.672 278.638 204.256 277.822 203.424C277.014 202.576 276.61 201.46 276.61 200.076C276.61 198.708 277.022 197.6 277.846 196.752C278.67 195.904 279.754 195.48 281.098 195.48C282.074 195.48 282.774 195.588 283.198 195.804L283.102 197.028C282.558 196.812 281.89 196.704 281.098 196.704C280.13 196.704 279.358 197.016 278.782 197.64C278.206 198.264 277.918 199.076 277.918 200.076C277.918 201.116 278.198 201.932 278.758 202.524C279.326 203.14 280.106 203.448 281.098 203.448C281.938 203.448 282.606 203.316 283.102 203.052L283.198 204.3ZM290.452 201.036L289 197.34L287.536 201.036H290.452ZM293.236 204.564H291.844L290.932 202.272H287.044L286.12 204.564H284.74L288.388 195.612H289.696L293.236 204.564ZM295.901 203.28H296.333C298.765 203.28 299.981 202.192 299.981 200.016C299.981 197.912 298.941 196.86 296.861 196.86H295.901V203.28ZM294.593 195.636H296.861C298.365 195.636 299.497 196.052 300.257 196.884C300.937 197.636 301.277 198.692 301.277 200.052C301.277 201.588 300.789 202.736 299.813 203.496C298.957 204.176 297.769 204.516 296.249 204.516H294.593V195.636ZM308.136 201.036L306.684 197.34L305.22 201.036H308.136ZM310.92 204.564H309.528L308.616 202.272H304.728L303.804 204.564H302.424L306.072 195.612H307.38L310.92 204.564Z" fill="#EEEEEE"/>
</g>
</g>
<defs>
<linearGradient id="paint0_linear_1_2" x1="280.3" y1="400" x2="280.3" y2="310.79" gradientUnits="userSpaceOnUse">
<stop stop-color="#6456C0"/>
<stop offset="1" stop-color="#5F2C95"/>
</linearGradient>
<radialGradient id="paint1_radial_1_2" cx="0" cy="0" r="1" gradientUnits="userSpaceOnUse" gradientTransform="translate(236.86 367.916) rotate(12.9927) scale(17.9242 46.3109)">
<stop stop-color="#4B474B"/>
<stop offset="1"/>
</radialGradient>
<radialGradient id="paint2_radial_1_2" cx="0" cy="0" r="1" gradientUnits="userSpaceOnUse" gradientTransform="translate(320.06 367.467) rotate(-15.6582) scale(17.9248 46.3096)">
<stop stop-color="#4B474B"/>
<stop offset="1"/>
</radialGradient>
<linearGradient id="paint3_linear_1_2" x1="251.427" y1="368.682" x2="274.825" y2="368.682" gradientUnits="userSpaceOnUse">
<stop stop-color="#9E8CEF"/>
<stop offset="1" stop-color="#CAAFEE"/>
</linearGradient>
<linearGradient id="paint4_linear_1_2" x1="306.102" y1="368.683" x2="282.703" y2="368.683" gradientUnits="userSpaceOnUse">
<stop stop-color="#9E8CEF"/>
<stop offset="1" stop-color="#CAAFEE"/>
</linearGradient>
<linearGradient id="paint5_linear_1_2" x1="277.16" y1="400" x2="277.16" y2="310.79" gradientUnits="userSpaceOnUse">
<stop stop-color="#CCCCFF"/>
<stop offset="1" stop-color="#755CBB"/>
</linearGradient>
<linearGradient id="paint6_linear_1_2" x1="287.546" y1="355.395" x2="287.546" y2="331.063" gradientUnits="userSpaceOnUse">
<stop stop-color="#CCCCFF"/>
<stop offset="1" stop-color="#755CBB"/>
</linearGradient>
<linearGradient id="paint7_linear_1_2" x1="259.363" y1="346.448" x2="259.363" y2="322.609" gradientUnits="userSpaceOnUse">
<stop stop-color="#CCCCFF"/>
<stop offset="1" stop-color="#755CBB"/>
</linearGradient>
<linearGradient id="paint8_linear_1_2" x1="283.542" y1="176.45" x2="283.542" y2="140.84" gradientUnits="userSpaceOnUse">
<stop stop-color="#D5CDF8"/>
<stop offset="1" stop-color="#F3EDFB"/>
</linearGradient>
<linearGradient id="paint9_linear_1_2" x1="265.21" y1="158.61" x2="301.874" y2="158.61" gradientUnits="userSpaceOnUse">
<stop stop-color="#CCCCFF"/>
<stop offset="1" stop-color="#755CBB"/>
</linearGradient>
<linearGradient id="paint10_linear_1_2" x1="273.058" y1="318.729" x2="273.058" y2="139.29" gradientUnits="userSpaceOnUse">
<stop stop-color="#9E8CEF"/>
<stop offset="1" stop-color="#CAAFEE"/>
</linearGradient>
<linearGradient id="paint11_linear_1_2" x1="198.59" y1="206.915" x2="242.29" y2="206.915" gradientUnits="userSpaceOnUse">
<stop stop-color="#CCCCFF"/>
<stop offset="1" stop-color="#755CBB"/>
</linearGradient>
<linearGradient id="paint12_linear_1_2" x1="197.238" y1="257.17" x2="197.238" y2="173.26" gradientUnits="userSpaceOnUse">
<stop stop-color="#9E8CEF"/>
<stop offset="1" stop-color="#DAC7F3"/>
</linearGradient>
<linearGradient id="paint13_linear_1_2" x1="341.53" y1="232.986" x2="397.835" y2="232.986" gradientUnits="userSpaceOnUse">
<stop stop-color="#A999F1"/>
<stop offset="1" stop-color="#DAC7F3"/>
</linearGradient>
<linearGradient id="paint14_linear_1_2" x1="178.923" y1="161.818" x2="178.923" y2="139.694" gradientUnits="userSpaceOnUse">
<stop offset="0.0159875" stop-color="#FFC2A9"/>
<stop offset="1" stop-color="#FF9595"/>
</linearGradient>
<linearGradient id="paint15_linear_1_2" x1="192.855" y1="161.295" x2="192.855" y2="124.671" gradientUnits="userSpaceOnUse">
<stop stop-color="#FFEADB"/>
<stop offset="0.9944" stop-color="#C27CB6"/>
</linearGradient>
<linearGradient id="paint16_linear_1_2" x1="191.667" y1="186.21" x2="191.667" y2="129.75" gradientUnits="userSpaceOnUse">
<stop offset="0.0159875" stop-color="#FFC2A9"/>
<stop offset="1" stop-color="#FF9595"/>
</linearGradient>
<linearGradient id="paint17_linear_1_2" x1="181.57" y1="177.399" x2="199.322" y2="177.399" gradientUnits="userSpaceOnUse">
<stop offset="0.0159875" stop-color="#D1A1D6"/>
<stop offset="0.9944" stop-color="#BD89C4"/>
</linearGradient>
<linearGradient id="paint18_linear_1_2" x1="398.996" y1="220.6" x2="398.996" y2="145.099" gradientUnits="userSpaceOnUse">
<stop offset="0.0159875" stop-color="#FFC2A9"/>
<stop offset="1" stop-color="#FF9595"/>
</linearGradient>
<linearGradient id="paint19_linear_1_2" x1="407.916" y1="196.41" x2="407.916" y2="158.9" gradientUnits="userSpaceOnUse">
<stop stop-color="#FFEADB"/>
<stop offset="0.9944" stop-color="#C27CB6"/>
</linearGradient>
<linearGradient id="paint20_linear_1_2" x1="415.316" y1="183.463" x2="415.316" y2="166.648" gradientUnits="userSpaceOnUse">
<stop stop-color="#FFB0B0"/>
<stop offset="0.984" stop-color="#FFC2A9"/>
</linearGradient>
<linearGradient id="paint21_linear_1_2" x1="425.069" y1="186.053" x2="425.069" y2="176.832" gradientUnits="userSpaceOnUse">
<stop stop-color="#FFB0B0"/>
<stop offset="0.984" stop-color="#FFC2A9"/>
</linearGradient>
<linearGradient id="paint22_linear_1_2" x1="385.63" y1="204.431" x2="402.78" y2="204.431" gradientUnits="userSpaceOnUse">
<stop offset="0.0159875" stop-color="#D1A1D6"/>
<stop offset="0.9944" stop-color="#BD89C4"/>
</linearGradient>
<linearGradient id="paint23_linear_1_2" x1="361.763" y1="263.621" x2="361.763" y2="179.11" gradientUnits="userSpaceOnUse">
<stop stop-color="#CCCCFF"/>
<stop offset="1" stop-color="#755CBB"/>
</linearGradient>
<linearGradient id="paint24_linear_1_2" x1="175.69" y1="246.595" x2="317.04" y2="246.595" gradientUnits="userSpaceOnUse">
<stop stop-color="#CCCCFF"/>
<stop offset="1" stop-color="#755CBB"/>
</linearGradient>
<linearGradient id="paint25_linear_1_2" x1="300.305" y1="222.941" x2="327.323" y2="222.941" gradientUnits="userSpaceOnUse">
<stop stop-color="#CCEDFF"/>
<stop offset="1" stop-color="#755CBB"/>
</linearGradient>
<linearGradient id="paint26_linear_1_2" x1="275.8" y1="270.358" x2="315.506" y2="270.358" gradientUnits="userSpaceOnUse">
<stop stop-color="#CCEDFF"/>
<stop offset="1" stop-color="#755CBB"/>
</linearGradient>
<linearGradient id="paint27_linear_1_2" x1="277.639" y1="288.312" x2="320.06" y2="288.312" gradientUnits="userSpaceOnUse">
<stop stop-color="#CCEDFF"/>
<stop offset="1" stop-color="#755CBB"/>
</linearGradient>
<linearGradient id="paint28_linear_1_2" x1="241.13" y1="243.86" x2="241.13" y2="196.25" gradientUnits="userSpaceOnUse">
<stop stop-color="#CCEDFF"/>
<stop offset="1" stop-color="#755CBB"/>
</linearGradient>
<linearGradient id="paint29_linear_1_2" x1="244.963" y1="247.862" x2="244.963" y2="211.772" gradientUnits="userSpaceOnUse">
<stop stop-color="#CCEDFF"/>
<stop offset="1" stop-color="#755CBB"/>
</linearGradient>
<linearGradient id="paint30_linear_1_2" x1="187.925" y1="201.727" x2="187.925" y2="174.46" gradientUnits="userSpaceOnUse">
<stop stop-color="#CCEDFF"/>
<stop offset="1" stop-color="#755CBB"/>
</linearGradient>
<linearGradient id="paint31_linear_1_2" x1="209.99" y1="177.715" x2="220.979" y2="177.715" gradientUnits="userSpaceOnUse">
<stop stop-color="#CCEDFF"/>
<stop offset="1" stop-color="#755CBB"/>
</linearGradient>
<linearGradient id="paint32_linear_1_2" x1="329.447" y1="243.86" x2="329.447" y2="193.32" gradientUnits="userSpaceOnUse">
<stop stop-color="#CCCCFF"/>
<stop offset="1" stop-color="#755CBB"/>
</linearGradient>
<linearGradient id="paint33_linear_1_2" x1="386.268" y1="232.99" x2="386.268" y2="206.58" gradientUnits="userSpaceOnUse">
<stop stop-color="#CCCCFF"/>
<stop offset="1" stop-color="#755CBB"/>
</linearGradient>
<linearGradient id="paint34_linear_1_2" x1="356.316" y1="231.81" x2="356.316" y2="211.62" gradientUnits="userSpaceOnUse">
<stop stop-color="#CCCCFF"/>
<stop offset="1" stop-color="#755CBB"/>
</linearGradient>
<linearGradient id="paint35_linear_1_2" x1="182.217" y1="203.468" x2="182.217" y2="195.97" gradientUnits="userSpaceOnUse">
<stop stop-color="#CCEDFF"/>
<stop offset="1" stop-color="#755CBB"/>
</linearGradient>
<linearGradient id="paint36_linear_1_2" x1="202.246" y1="226.327" x2="202.246" y2="185.35" gradientUnits="userSpaceOnUse">
<stop stop-color="#CCCCFF"/>
<stop offset="1" stop-color="#755CBB"/>
</linearGradient>
<linearGradient id="paint37_linear_1_2" x1="307.67" y1="197.484" x2="307.67" y2="166.648" gradientUnits="userSpaceOnUse">
<stop stop-color="#CCEDFF"/>
<stop offset="1" stop-color="#755CBB"/>
</linearGradient>
<linearGradient id="paint38_linear_1_2" x1="267.272" y1="193.316" x2="267.272" y2="150.756" gradientUnits="userSpaceOnUse">
<stop stop-color="#CCEDFF"/>
<stop offset="1" stop-color="#755CBB"/>
</linearGradient>
<linearGradient id="paint39_linear_1_2" x1="252.901" y1="201.1" x2="323.985" y2="201.1" gradientUnits="userSpaceOnUse">
<stop stop-color="#8642A0"/>
<stop offset="1" stop-color="#6456C0"/>
</linearGradient>
<linearGradient id="paint40_linear_1_2" x1="259.03" y1="160.08" x2="305.29" y2="160.08" gradientUnits="userSpaceOnUse">
<stop stop-color="#CCCCFF"/>
<stop offset="1" stop-color="#755CBB"/>
</linearGradient>
<linearGradient id="paint41_linear_1_2" x1="377.951" y1="229.979" x2="377.951" y2="203.207" gradientUnits="userSpaceOnUse">
<stop stop-color="#CCCCFF"/>
<stop offset="1" stop-color="#755CBB"/>
</linearGradient>
<linearGradient id="paint42_linear_1_2" x1="340.11" y1="260.18" x2="340.11" y2="179.11" gradientUnits="userSpaceOnUse">
<stop stop-color="#CCCCFF"/>
<stop offset="1" stop-color="#755CBB"/>
</linearGradient>
<linearGradient id="paint43_linear_1_2" x1="252.95" y1="298.26" x2="252.95" y2="275.02" gradientUnits="userSpaceOnUse">
<stop stop-color="#CCCCFF"/>
<stop offset="1" stop-color="#755CBB"/>
</linearGradient>
<linearGradient id="paint44_linear_1_2" x1="298.095" y1="291.876" x2="298.095" y2="280.59" gradientUnits="userSpaceOnUse">
<stop stop-color="#CCCCFF"/>
<stop offset="1" stop-color="#755CBB"/>
</linearGradient>
<linearGradient id="paint45_linear_1_2" x1="297.597" y1="146.812" x2="297.597" y2="69.6049" gradientUnits="userSpaceOnUse">
<stop offset="0.0159875" stop-color="#FFC2A9"/>
<stop offset="1" stop-color="#FF9595"/>
</linearGradient>
<linearGradient id="paint46_linear_1_2" x1="268.816" y1="115.657" x2="268.816" y2="92.8947" gradientUnits="userSpaceOnUse">
<stop offset="0.0159875" stop-color="#FFC2A9"/>
<stop offset="1" stop-color="#FF9595"/>
</linearGradient>
<linearGradient id="paint47_linear_1_2" x1="308.329" y1="124.265" x2="309.283" y2="119.296" gradientUnits="userSpaceOnUse">
<stop stop-color="#E1616A"/>
<stop offset="1" stop-color="#FF8883"/>
</linearGradient>
<linearGradient id="paint48_linear_1_2" x1="299.713" y1="120.463" x2="299.713" y2="70.7263" gradientUnits="userSpaceOnUse">
<stop stop-color="#FFEADB"/>
<stop offset="0.9944" stop-color="#C27CB6"/>
</linearGradient>
<linearGradient id="paint49_linear_1_2" x1="297.289" y1="100.095" x2="297.289" y2="90.2421" gradientUnits="userSpaceOnUse">
<stop stop-color="#CF6074"/>
<stop offset="1" stop-color="#F37270"/>
</linearGradient>
<linearGradient id="paint50_linear_1_2" x1="316.942" y1="103.221" x2="316.942" y2="94.6474" gradientUnits="userSpaceOnUse">
<stop stop-color="#CF6074"/>
<stop offset="1" stop-color="#FF817F"/>
</linearGradient>
<linearGradient id="paint51_linear_1_2" x1="317.748" y1="108.21" x2="317.748" y2="88.9167" gradientUnits="userSpaceOnUse">
<stop stop-color="#FFEADB"/>
<stop offset="0.9944" stop-color="#C27CB6"/>
</linearGradient>
<linearGradient id="paint52_linear_1_2" x1="298.634" y1="147.783" x2="298.634" y2="54.15" gradientUnits="userSpaceOnUse">
<stop stop-color="#2E33A0"/>
<stop offset="1" stop-color="#0665A5"/>
</linearGradient>
<linearGradient id="paint53_linear_1_2" x1="323.227" y1="88.82" x2="323.227" y2="67.22" gradientUnits="userSpaceOnUse">
<stop stop-color="#FFEADB"/>
<stop offset="0.9944" stop-color="#8860C7"/>
</linearGradient>
<linearGradient id="paint54_linear_1_2" x1="293.792" y1="147.783" x2="293.792" y2="54.15" gradientUnits="userSpaceOnUse">
<stop stop-color="#CCC2DB"/>
<stop offset="0.9944" stop-color="#8860C7"/>
</linearGradient>
<linearGradient id="paint55_linear_1_2" x1="300.07" y1="147.761" x2="300.07" y2="143.738" gradientUnits="userSpaceOnUse">
<stop stop-color="#776D7E"/>
<stop offset="1" stop-color="#9D68C2"/>
</linearGradient>
<linearGradient id="paint56_linear_1_2" x1="311.873" y1="60.87" x2="311.873" y2="57.8813" gradientUnits="userSpaceOnUse">
<stop stop-color="#1F77D1"/>
<stop offset="1" stop-color="#0686C9"/>
</linearGradient>
<linearGradient id="paint57_linear_1_2" x1="292.834" y1="70.71" x2="292.834" y2="61.8734" gradientUnits="userSpaceOnUse">
<stop stop-color="#1F77D1"/>
<stop offset="1" stop-color="#0686C9"/>
</linearGradient>
<linearGradient id="paint58_linear_1_2" x1="324.855" y1="75.19" x2="324.855" y2="67.22" gradientUnits="userSpaceOnUse">
<stop stop-color="#1F77D1"/>
<stop offset="1" stop-color="#0686C9"/>
</linearGradient>
<linearGradient id="paint59_linear_1_2" x1="272.13" y1="110.262" x2="261.935" y2="97.7712" gradientUnits="userSpaceOnUse">
<stop stop-color="#FFEADB"/>
<stop offset="0.9944" stop-color="#B060F4"/>
</linearGradient>
<linearGradient id="paint60_linear_1_2" x1="273.198" y1="108.653" x2="268.181" y2="102.507" gradientUnits="userSpaceOnUse">
<stop stop-color="#FFEADB"/>
<stop offset="0.9944" stop-color="#B060F4"/>
</linearGradient>
<linearGradient id="paint61_linear_1_2" x1="292.243" y1="71.5004" x2="309.51" y2="71.5004" gradientUnits="userSpaceOnUse">
<stop stop-color="#1F77D1"/>
<stop offset="1" stop-color="#0686C9"/>
</linearGradient>
<linearGradient id="paint62_linear_1_2" x1="316.597" y1="123.139" x2="321.834" y2="123.139" gradientUnits="userSpaceOnUse">
<stop stop-color="#1F77D1"/>
<stop offset="1" stop-color="#0686C9"/>
</linearGradient>
<linearGradient id="paint63_linear_1_2" x1="310.132" y1="119.244" x2="315.78" y2="119.244" gradientUnits="userSpaceOnUse">
<stop stop-color="#1F77D1"/>
<stop offset="1" stop-color="#0686C9"/>
</linearGradient>
<linearGradient id="paint64_linear_1_2" x1="351.796" y1="132.946" x2="528.854" y2="132.946" gradientUnits="userSpaceOnUse">
<stop stop-color="#9D68C2"/>
<stop offset="1" stop-color="#AEC2FF"/>
</linearGradient>
<linearGradient id="paint65_linear_1_2" x1="387.814" y1="199.82" x2="387.814" y2="146.417" gradientUnits="userSpaceOnUse">
<stop stop-color="#CCEDFF"/>
<stop offset="1" stop-color="#9D68C2"/>
</linearGradient>
<linearGradient id="paint66_linear_1_2" x1="478.873" y1="173.784" x2="478.873" y2="150.261" gradientUnits="userSpaceOnUse">
<stop stop-color="#CCEDFF"/>
<stop offset="1" stop-color="#9D68C2"/>
</linearGradient>
<linearGradient id="paint67_linear_1_2" x1="506.626" y1="173.784" x2="506.626" y2="150.261" gradientUnits="userSpaceOnUse">
<stop stop-color="#CCEDFF"/>
<stop offset="1" stop-color="#9D68C2"/>
</linearGradient>
<linearGradient id="paint68_linear_1_2" x1="450.656" y1="173.784" x2="450.656" y2="150.261" gradientUnits="userSpaceOnUse">
<stop stop-color="#CCEDFF"/>
<stop offset="1" stop-color="#9D68C2"/>
</linearGradient>
<linearGradient id="paint69_linear_1_2" x1="197.668" y1="115.987" x2="197.668" y2="91.3654" gradientUnits="userSpaceOnUse">
<stop stop-color="#D93DE3"/>
<stop offset="1" stop-color="#FF6DBA"/>
</linearGradient>
<linearGradient id="paint70_linear_1_2" x1="212.718" y1="115.987" x2="212.718" y2="91.3654" gradientUnits="userSpaceOnUse">
<stop stop-color="#A242EA"/>
<stop offset="1" stop-color="#FE117E"/>
</linearGradient>
<linearGradient id="paint71_linear_1_2" x1="193.396" y1="375.37" x2="206.711" y2="269.356" gradientUnits="userSpaceOnUse">
<stop stop-color="#067EFF"/>
<stop offset="1" stop-color="#3E37A0"/>
</linearGradient>
<linearGradient id="paint72_linear_1_2" x1="504.249" y1="113.308" x2="504.249" y2="104.371" gradientUnits="userSpaceOnUse">
<stop stop-color="#459FFF"/>
<stop offset="1" stop-color="#A96DFF"/>
</linearGradient>
<linearGradient id="paint73_linear_1_2" x1="84.2557" y1="218.038" x2="84.2557" y2="206.915" gradientUnits="userSpaceOnUse">
<stop stop-color="#459FFF"/>
<stop offset="1" stop-color="#A96DFF"/>
</linearGradient>
<linearGradient id="paint74_linear_1_2" x1="517.374" y1="113.308" x2="517.374" y2="104.371" gradientUnits="userSpaceOnUse">
<stop stop-color="#B31A8F"/>
<stop offset="1" stop-color="#FE117E"/>
</linearGradient>
<linearGradient id="paint75_linear_1_2" x1="229.203" y1="142.726" x2="229.203" y2="136.406" gradientUnits="userSpaceOnUse">
<stop stop-color="#B31A8F"/>
<stop offset="1" stop-color="#FE117E"/>
</linearGradient>
<linearGradient id="paint76_linear_1_2" x1="440.86" y1="282.163" x2="440.86" y2="275.844" gradientUnits="userSpaceOnUse">
<stop stop-color="#8642A0"/>
<stop offset="1" stop-color="#6456C0"/>
</linearGradient>
<linearGradient id="paint77_linear_1_2" x1="112.338" y1="313.333" x2="112.338" y2="307.683" gradientUnits="userSpaceOnUse">
<stop stop-color="#8642A0"/>
<stop offset="1" stop-color="#6456C0"/>
</linearGradient>
<linearGradient id="paint78_linear_1_2" x1="136.043" y1="282.771" x2="136.043" y2="236.109" gradientUnits="userSpaceOnUse">
<stop stop-color="#D906E3"/>
<stop offset="1" stop-color="#FF6DF9"/>
</linearGradient>
<linearGradient id="paint79_linear_1_2" x1="458.234" y1="348.821" x2="458.234" y2="290.447" gradientUnits="userSpaceOnUse">
<stop stop-color="#D906E3"/>
<stop offset="1" stop-color="#FF6DF9"/>
</linearGradient>
<linearGradient id="paint80_linear_1_2" x1="412.351" y1="88.0975" x2="423.683" y2="46.0142" gradientUnits="userSpaceOnUse">
<stop stop-color="#188DC1"/>
<stop offset="1" stop-color="#06BFE7"/>
</linearGradient>
<linearGradient id="paint81_linear_1_2" x1="392.873" y1="83.2426" x2="401.324" y2="51.8603" gradientUnits="userSpaceOnUse">
<stop stop-color="#1852A0"/>
<stop offset="1" stop-color="#067ED3"/>
</linearGradient>
<linearGradient id="paint82_linear_1_2" x1="84.7315" y1="160.571" x2="77.0065" y2="131.882" gradientUnits="userSpaceOnUse">
<stop stop-color="#188DC1"/>
<stop offset="1" stop-color="#06BFE7"/>
</linearGradient>
<linearGradient id="paint83_linear_1_2" x1="98.0099" y1="157.261" x2="92.2492" y2="135.867" gradientUnits="userSpaceOnUse">
<stop stop-color="#1852A0"/>
<stop offset="1" stop-color="#067ED3"/>
</linearGradient>
<clipPath id="clip0_1_2">
<rect width="600" height="400" fill="white"/>
</clipPath>
</defs>
</svg>
