<svg width="5319" height="1972" viewBox="0 0 5319 1972" fill="none" xmlns="http://www.w3.org/2000/svg">
<g id="head-group">
<g id="strips">
<path id="Vector" opacity="0.35" d="M5319 101H0V160H5319V101Z" fill="#1E1230"/>
<path id="Vector_2" opacity="0.35" d="M5319 200H0V261H5319V200Z" fill="#1E1230"/>
<path id="Vector_3" opacity="0.35" d="M5319 301H0V361H5319V301Z" fill="#1E1230"/>
<path id="Vector_4" opacity="0.35" d="M5319 402H0V460H5319V402Z" fill="#1E1230"/>
<path id="Vector_5" opacity="0.35" d="M5319 501H0V559H5319V501Z" fill="#1E1230"/>
<path id="Vector_6" opacity="0.35" d="M5319 600H0V659H5319V600Z" fill="#1E1230"/>
<path id="Vector_7" opacity="0.35" d="M5319 699H0V759H5319V699Z" fill="#1E1230"/>
<path id="Vector_8" opacity="0.35" d="M5319 799H0V860H5319V799Z" fill="#1E1230"/>
<path id="Vector_9" opacity="0.35" d="M5319 900H0V959H5319V900Z" fill="#1E1230"/>
</g>
<g id="Group">
<g id="Group_2">
<path id="KAIVALAYA" d="M3939.75 488V410.365H3956.16V444.596H3957.19L3985.12 410.365H4004.8L3975.99 445.127L4005.14 488H3985.5L3964.24 456.082L3956.16 465.938V488H3939.75ZM4026.73 488H4009.14L4035.94 410.365H4057.09L4083.85 488H4066.26L4046.82 428.106H4046.21L4026.73 488ZM4025.63 457.484H4067.17V470.297H4025.63V457.484ZM4109.61 410.365V488H4093.2V410.365H4109.61ZM4137.14 410.365L4155.91 469.349H4156.63L4175.43 410.365H4193.62L4166.86 488H4145.71L4118.91 410.365H4137.14ZM4206.03 488H4188.44L4215.24 410.365H4236.39L4263.16 488H4245.57L4226.12 428.106H4225.51L4206.03 488ZM4204.93 457.484H4246.48V470.297H4204.93V457.484ZM4272.5 488V410.365H4288.91V474.467H4322.2V488H4272.5ZM4348.43 488H4330.84L4357.64 410.365H4378.79L4405.56 488H4387.97L4368.52 428.106H4367.91L4348.43 488ZM4347.33 457.484H4388.88V470.297H4347.33V457.484ZM4402.43 410.365H4420.81L4438.52 443.8H4439.27L4456.98 410.365H4475.36L4447.05 460.555V488H4430.75V460.555L4402.43 410.365ZM4489.79 488H4472.2L4499 410.365H4520.15L4546.91 488H4529.32L4509.88 428.106H4509.27L4489.79 488ZM4488.69 457.484H4530.23V470.297H4488.69V457.484Z" fill="#59EFD6"/>
<path id="2K22" d="M3939.13 644V632.482L3966.04 607.562C3968.33 605.347 3970.25 603.354 3971.8 601.581C3973.38 599.809 3974.57 598.074 3975.38 596.376C3976.19 594.653 3976.6 592.795 3976.6 590.802C3976.6 588.586 3976.1 586.679 3975.09 585.079C3974.08 583.455 3972.7 582.212 3970.95 581.351C3969.2 580.465 3967.22 580.022 3965.01 580.022C3962.69 580.022 3960.68 580.489 3958.95 581.424C3957.23 582.36 3955.9 583.701 3954.97 585.448C3954.03 587.196 3953.56 589.276 3953.56 591.688H3938.39C3938.39 586.741 3939.51 582.446 3941.75 578.803C3943.99 575.161 3947.13 572.343 3951.16 570.349C3955.2 568.356 3959.85 567.359 3965.12 567.359C3970.53 567.359 3975.25 568.319 3979.26 570.238C3983.29 572.133 3986.43 574.767 3988.67 578.139C3990.91 581.511 3992.03 585.375 3992.03 589.731C3992.03 592.586 3991.47 595.404 3990.33 598.185C3989.23 600.966 3987.24 604.055 3984.39 607.451C3981.53 610.823 3977.51 614.872 3972.32 619.597L3961.28 630.414V630.931H3993.03V644H3939.13ZM4005.05 644V568.392H4021.04V601.729H4022.04L4049.24 568.392H4068.41L4040.35 602.246L4068.74 644H4049.61L4028.9 612.915L4021.04 622.514V644H4005.05ZM4076.29 644V632.482L4103.2 607.562C4105.49 605.347 4107.41 603.354 4108.96 601.581C4110.53 599.809 4111.73 598.074 4112.54 596.376C4113.35 594.653 4113.76 592.795 4113.76 590.802C4113.76 588.586 4113.25 586.679 4112.24 585.079C4111.24 583.455 4109.86 582.212 4108.11 581.351C4106.36 580.465 4104.38 580.022 4102.17 580.022C4099.85 580.022 4097.83 580.489 4096.11 581.424C4094.39 582.36 4093.06 583.701 4092.12 585.448C4091.19 587.196 4090.72 589.276 4090.72 591.688H4075.55C4075.55 586.741 4076.67 582.446 4078.91 578.803C4081.15 575.161 4084.29 572.343 4088.32 570.349C4092.36 568.356 4097.01 567.359 4102.28 567.359C4107.69 567.359 4112.4 568.319 4116.42 570.238C4120.45 572.133 4123.59 574.767 4125.83 578.139C4128.07 581.511 4129.19 585.375 4129.19 589.731C4129.19 592.586 4128.62 595.404 4127.49 598.185C4126.38 600.966 4124.4 604.055 4121.55 607.451C4118.69 610.823 4114.67 614.872 4109.48 619.597L4098.44 630.414V630.931H4130.19V644H4076.29ZM4141.77 644V632.482L4168.68 607.562C4170.97 605.347 4172.89 603.354 4174.44 601.581C4176.02 599.809 4177.21 598.074 4178.02 596.376C4178.84 594.653 4179.24 592.795 4179.24 590.802C4179.24 588.586 4178.74 586.679 4177.73 585.079C4176.72 583.455 4175.34 582.212 4173.59 581.351C4171.85 580.465 4169.86 580.022 4167.65 580.022C4165.34 580.022 4163.32 580.489 4161.59 581.424C4159.87 582.36 4158.54 583.701 4157.61 585.448C4156.67 587.196 4156.2 589.276 4156.2 591.688H4141.03C4141.03 586.741 4142.15 582.446 4144.39 578.803C4146.63 575.161 4149.77 572.343 4153.81 570.349C4157.84 568.356 4162.49 567.359 4167.76 567.359C4173.17 567.359 4177.89 568.319 4181.9 570.238C4185.94 572.133 4189.07 574.767 4191.31 578.139C4193.55 581.511 4194.67 585.375 4194.67 589.731C4194.67 592.586 4194.11 595.404 4192.97 598.185C4191.87 600.966 4189.89 604.055 4187.03 607.451C4184.18 610.823 4180.15 614.872 4174.96 619.597L4163.92 630.414V630.931H4195.67V644H4141.77Z" fill="#F7EEB0"/>
</g>
</g>
<g id="logo-strips">
<path id="Vector_10" d="M3850.31 900.169H3582.94" stroke="url(#paint0_linear_5_346)" stroke-width="13.2051" stroke-miterlimit="10" stroke-linecap="round"/>
<path id="Vector_11" d="M3726.96 815.916H3523.2" stroke="url(#paint1_linear_5_346)" stroke-width="13.2051" stroke-miterlimit="10" stroke-linecap="round"/>
<path id="Vector_12" d="M4645.33 193.894H4912.38" stroke="url(#paint2_linear_5_346)" stroke-width="13.2051" stroke-miterlimit="10" stroke-linecap="round"/>
<path id="Vector_13" d="M4768.69 277.744H4972.45" stroke="url(#paint3_linear_5_346)" stroke-width="13.2051" stroke-miterlimit="10" stroke-linecap="round"/>
<path id="Vector_14" opacity="0.5" d="M3850.31 900.169H3582.94" stroke="#1E1230" stroke-width="5" stroke-miterlimit="10" stroke-linecap="round"/>
<path id="Vector_15" opacity="0.5" d="M3726.96 815.916H3523.2" stroke="#1E1230" stroke-width="5" stroke-miterlimit="10" stroke-linecap="round"/>
<path id="Vector_16" opacity="0.5" d="M4645.33 193.894H4912.38" stroke="#1E1230" stroke-width="5" stroke-miterlimit="10" stroke-linecap="round"/>
<path id="Vector_17" opacity="0.5" d="M4768.69 277.744H4972.45" stroke="#1E1230" stroke-width="5" stroke-miterlimit="10" stroke-linecap="round"/>
</g>
<g id="r-top">
<path id="Vector_18" d="M4891.72 699.816L4459.01 159.628L4526.82 74.9719C4557.5 36.675 4606.91 36.675 4637.58 74.9719L4960.82 478.5C4990.53 515.588 4990.53 576.056 4960.82 613.547L4891.72 699.816Z" fill="url(#paint4_linear_5_346)"/>
<path id="Vector_19" opacity="0.5" d="M4891.72 699.816L4459.33 160.031L4491.95 118.913L4891.72 699.816Z" fill="#1E1230"/>
</g>
<g id="r-bot">
<path id="Vector_20" d="M4641.78 1011.83L4960.82 613.547C4990.53 576.459 4990.53 515.991 4960.82 478.5L4891.72 392.231L4459.01 932.419L4522.62 1011.83C4555.89 1052.95 4608.84 1052.95 4641.78 1011.83Z" fill="url(#paint5_linear_5_346)"/>
<path id="Vector_21" opacity="0.5" d="M4891.72 699.816L4768.69 546.225L4459.33 932.419L4522.95 1011.83C4555.89 1052.95 4608.84 1052.95 4641.78 1011.83L4891.72 699.816Z" fill="#1E1230"/>
<path id="Vector_22" opacity="0.5" d="M4891.72 699.816L4768.69 546.225L4459.33 932.419L4891.72 699.816Z" fill="#1E1230"/>
<path id="Vector_23" opacity="0.5" d="M4891.72 699.816L4742.85 577.266L4768.69 546.225L4891.72 699.816Z" fill="#1E1230"/>
<path id="Vector_24" d="M4912.39 600.647C4936.46 600.647 4955.98 576.281 4955.98 546.225C4955.98 516.169 4936.46 491.803 4912.39 491.803C4888.31 491.803 4868.79 516.169 4868.79 546.225C4868.79 576.281 4888.31 600.647 4912.39 600.647Z" fill="#1E1230"/>
<path id="Vector_25" d="M4912.39 507.122C4934.34 507.122 4952.43 527.278 4955.33 553.884C4955.66 551.466 4955.66 549.047 4955.66 546.225C4955.66 516.394 4936.28 491.803 4912.06 491.803C4888.17 491.803 4868.47 515.991 4868.47 546.225C4868.47 548.644 4868.79 551.466 4868.79 553.884C4872.34 527.278 4890.43 507.122 4912.39 507.122Z" fill="#1E1230"/>
</g>
<g id="l-bot">
<path id="Vector_26" opacity="0.5" d="M3603.93 699.816L3726.96 546.225L4036.31 932.419L3972.7 1011.83C3939.76 1052.95 3886.8 1052.95 3853.86 1011.83L3603.93 699.816Z" fill="#1E1230"/>
<path id="Vector_27" opacity="0.5" d="M3603.93 699.816L3726.96 546.225L4036.31 932.419L3603.93 699.816Z" fill="#1E1230"/>
<path id="Vector_28" d="M3853.86 1011.83L3534.82 613.547C3505.11 576.459 3505.11 515.991 3534.82 478.5L3603.93 392.231L4036.64 932.419L3973.02 1011.83C3939.76 1052.95 3886.48 1052.95 3853.86 1011.83Z" fill="url(#paint6_linear_5_346)"/>
<path id="Vector_29" opacity="0.5" d="M3603.93 699.816L3752.47 577.266L3726.96 546.225L3603.93 699.816Z" fill="#1E1230"/>
</g>
<g id="l-top">
<path id="vector" d="M3603.93 699.816L4036.64 159.628L3968.82 74.9719C3938.15 36.675 3888.74 36.675 3858.06 74.9719L3534.5 478.5C3504.79 515.588 3504.79 576.056 3534.5 613.547L3603.93 699.816Z" fill="url(#paint7_linear_5_346)"/>
<path id="Vector_30" opacity="0.5" d="M3603.93 699.816L4036.31 160.031L4003.37 118.913L3603.93 699.816Z" fill="#1E1230"/>
<path id="Vector_31" d="M3578.42 600.647C3602.49 600.647 3622.01 576.281 3622.01 546.225C3622.01 516.169 3602.49 491.803 3578.42 491.803C3554.34 491.803 3534.82 516.169 3534.82 546.225C3534.82 576.281 3554.34 600.647 3578.42 600.647Z" fill="#1E1230"/>
<path id="Vector_32" d="M3578.42 491.803C3554.52 491.803 3534.82 515.991 3534.82 546.225C3534.82 548.644 3535.15 551.466 3535.15 553.884C3538.05 527.681 3556.14 507.122 3578.09 507.122C3600.05 507.122 3618.14 527.278 3621.04 553.884C3621.36 551.466 3621.36 549.047 3621.36 546.225C3622.01 515.991 3602.31 491.803 3578.42 491.803Z" fill="#1E1230"/>
</g>
<g id="Group_3">
<path id="&#60;/&#62;" d="M2025.48 1093.08L2017.77 1095.72L2025.48 1098.37V1102.7L2012.5 1097.99V1093.46L2025.48 1088.75V1093.08ZM2034.26 1083.21H2039.35L2030.95 1107.17H2025.86L2034.26 1083.21ZM2052.46 1093.46V1097.99L2039.48 1102.7V1098.37L2047.19 1095.72L2039.48 1093.08V1088.75L2052.46 1093.46Z" fill="#323247"/>
</g>
<g id="Group_4">
<path id="Vector_33" d="M2121.07 213.982H2038.85V240.771H2121.07V213.982Z" fill="#47547C"/>
<path id="Vector_34" d="M2290.36 166.072H2038.85V192.861H2290.36V166.072Z" fill="#64648E"/>
<g id="Group_5">
<g id="Group_6">
<path id="Vector_35" d="M2184.39 246.438V256.742" stroke="#FD783D" stroke-miterlimit="10"/>
<path id="Vector_36" d="M2184.39 273.742V335.047" stroke="#FD783D" stroke-miterlimit="10" stroke-dasharray="3.38 3.38"/>
<path id="Vector_37" d="M2184.39 343.29V353.593H2193.18" stroke="#FD783D" stroke-miterlimit="10"/>
<path id="Vector_38" d="M2209.9 353.593H2469.32" stroke="#FD783D" stroke-miterlimit="10" stroke-dasharray="3.81 3.81"/>
<path id="Vector_39" d="M2477.68 353.593H2486.47V343.29" stroke="#FD783D" stroke-miterlimit="10"/>
<path id="Vector_40" d="M2486.47 322.683V291.258" stroke="#FD783D" stroke-miterlimit="10" stroke-dasharray="4.06 4.06"/>
<path id="Vector_41" d="M2486.47 280.955V270.651" stroke="#FD783D" stroke-miterlimit="10"/>
</g>
</g>
<path id="CSS" d="M2060.58 50.8228C2056.77 50.8228 2053.34 50.0343 2050.29 48.4572C2047.24 46.8458 2044.84 44.6173 2043.09 41.7717C2041.38 38.8918 2040.52 35.6348 2040.52 32.0007C2040.52 28.3665 2041.38 25.1266 2043.09 22.281C2044.84 19.4011 2047.24 17.1726 2050.29 15.5955C2053.34 13.9842 2056.77 13.1785 2060.58 13.1785C2064.08 13.1785 2067.2 13.7956 2069.94 15.0298C2072.68 16.2641 2074.94 18.0469 2076.73 20.3782L2069.06 27.218C2066.84 24.4066 2064.21 23.001 2061.2 23.001C2058.66 23.001 2056.62 23.8238 2055.08 25.4695C2053.53 27.0808 2052.76 29.2579 2052.76 32.0007C2052.76 34.7434 2053.53 36.9376 2055.08 38.5833C2056.62 40.1946 2058.66 41.0003 2061.2 41.0003C2064.21 41.0003 2066.84 39.5947 2069.06 36.7833L2076.73 43.6231C2074.94 45.9544 2072.68 47.7372 2069.94 48.9715C2067.2 50.2057 2064.08 50.8228 2060.58 50.8228ZM2093.15 50.8228C2090.17 50.8228 2087.25 50.4971 2084.41 49.8457C2081.6 49.16 2079.28 48.2515 2077.47 47.1201L2081.37 38.2747C2083.09 39.269 2085.01 40.0746 2087.13 40.6918C2089.26 41.2746 2091.3 41.566 2093.25 41.566C2094.93 41.566 2096.13 41.4117 2096.85 41.1032C2097.57 40.7603 2097.93 40.2632 2097.93 39.6118C2097.93 38.8575 2097.45 38.2919 2096.49 37.9147C2095.57 37.5376 2094.03 37.1262 2091.87 36.6805C2089.09 36.0976 2086.77 35.4805 2084.92 34.8291C2083.07 34.1434 2081.46 33.0463 2080.09 31.5378C2078.72 29.995 2078.03 27.9208 2078.03 25.3152C2078.03 23.0524 2078.67 20.9953 2079.93 19.144C2081.2 17.2926 2083.09 15.8355 2085.59 14.7727C2088.13 13.7099 2091.2 13.1785 2094.8 13.1785C2097.27 13.1785 2099.68 13.4528 2102.05 14.0013C2104.45 14.5156 2106.56 15.287 2108.37 16.3155L2104.72 25.1095C2101.19 23.3267 2097.85 22.4353 2094.69 22.4353C2091.57 22.4353 2090.01 23.1895 2090.01 24.6981C2090.01 25.418 2090.48 25.9666 2091.4 26.3437C2092.33 26.6866 2093.85 27.0637 2095.98 27.4751C2098.72 27.9894 2101.04 28.5893 2102.92 29.275C2104.81 29.9264 2106.44 31.0064 2107.81 32.5149C2109.21 34.0234 2109.92 36.0805 2109.92 38.6861C2109.92 40.9489 2109.28 43.006 2108.01 44.8573C2106.74 46.6744 2104.84 48.1315 2102.3 49.2286C2099.8 50.2914 2096.75 50.8228 2093.15 50.8228ZM2126.95 50.8228C2123.97 50.8228 2121.05 50.4971 2118.21 49.8457C2115.4 49.16 2113.08 48.2515 2111.26 47.1201L2115.17 38.2747C2116.89 39.269 2118.81 40.0746 2120.93 40.6918C2123.06 41.2746 2125.1 41.566 2127.05 41.566C2128.73 41.566 2129.93 41.4117 2130.65 41.1032C2131.37 40.7603 2131.73 40.2632 2131.73 39.6118C2131.73 38.8575 2131.25 38.2919 2130.29 37.9147C2129.37 37.5376 2127.82 37.1262 2125.66 36.6805C2122.89 36.0976 2120.57 35.4805 2118.72 34.8291C2116.87 34.1434 2115.26 33.0463 2113.89 31.5378C2112.52 29.995 2111.83 27.9208 2111.83 25.3152C2111.83 23.0524 2112.46 20.9953 2113.73 19.144C2115 17.2926 2116.89 15.8355 2119.39 14.7727C2121.93 13.7099 2125 13.1785 2128.6 13.1785C2131.06 13.1785 2133.48 13.4528 2135.85 14.0013C2138.25 14.5156 2140.36 15.287 2142.17 16.3155L2138.52 25.1095C2134.99 23.3267 2131.65 22.4353 2128.49 22.4353C2125.37 22.4353 2123.81 23.1895 2123.81 24.6981C2123.81 25.418 2124.28 25.9666 2125.2 26.3437C2126.13 26.6866 2127.65 27.0637 2129.78 27.4751C2132.52 27.9894 2134.84 28.5893 2136.72 29.275C2138.61 29.9264 2140.24 31.0064 2141.61 32.5149C2143.01 34.0234 2143.72 36.0805 2143.72 38.6861C2143.72 40.9489 2143.08 43.006 2141.81 44.8573C2140.54 46.6744 2138.64 48.1315 2136.1 49.2286C2133.6 50.2914 2130.55 50.8228 2126.95 50.8228Z" fill="white"/>
<g id="css-circle">
<g id="Group_7">
<path id="Vector_42" d="M2553.31 160.92C2552.43 157.314 2551.55 153.708 2550.23 150.617C2546.71 140.828 2541.43 132.586 2535.28 125.888C2529.56 119.191 2522.97 114.04 2515.93 109.918H2515.49C2505.38 104.766 2494.39 102.191 2482.95 102.706C2475.04 103.221 2467.56 105.282 2460.09 108.888C2459.65 108.888 2459.21 109.403 2458.77 109.403C2445.14 116.615 2434.59 127.949 2427.55 141.859C2418.76 158.859 2415.24 179.466 2418.76 199.558C2419.63 205.225 2421.39 210.892 2423.59 216.558C2438.98 257.257 2480.31 275.803 2515.05 257.772C2536.16 246.438 2550.67 224.286 2554.63 199.558C2556.82 186.679 2556.38 173.799 2553.31 160.92ZM2506.26 235.105C2482.07 247.984 2453.49 235.105 2442.5 206.77C2441.62 204.194 2440.74 202.134 2440.3 199.558C2436.34 184.618 2438.54 169.163 2444.7 156.284C2444.7 156.284 2444.7 156.284 2444.7 155.768C2449.54 145.465 2457.01 137.222 2466.68 132.071C2468.44 131.04 2470.2 130.525 2472.4 129.495H2472.84C2482.51 126.404 2492.63 126.404 2501.42 130.01C2509.34 133.101 2516.37 138.253 2522.09 145.98C2525.17 150.101 2528.24 155.253 2530.44 160.92C2531.76 164.526 2532.64 167.617 2533.52 171.223C2535.28 181.012 2534.84 190.8 2532.64 199.558C2528.68 214.498 2519.45 227.892 2506.26 235.105Z" fill="#64648E"/>
</g>
<path id="Vector_43" d="M2554.63 199.558H2532.64C2534.84 190.285 2535.28 180.496 2533.52 171.223C2532.64 167.617 2531.76 164.011 2530.44 160.92C2528.24 155.253 2525.6 150.617 2522.09 145.98C2516.37 138.768 2509.34 133.101 2501.42 130.01C2492.19 126.404 2482.51 125.888 2472.84 129.495H2472.4C2470.64 130.01 2468.88 131.04 2466.68 132.071C2457.01 137.222 2449.53 145.465 2444.7 155.768C2444.7 155.768 2444.7 155.768 2444.7 156.283C2438.54 169.163 2436.78 184.618 2440.3 199.558H2418.32C2414.8 179.466 2418.32 158.859 2427.11 141.859C2434.15 127.949 2444.7 116.615 2458.33 109.403C2458.77 109.403 2459.21 108.888 2459.65 108.888C2467.12 105.282 2475.04 103.221 2482.51 102.706C2493.95 102.191 2504.94 104.766 2515.05 109.918H2515.49C2522.53 113.524 2529.12 119.191 2534.84 125.888C2540.99 132.586 2545.83 141.344 2549.79 150.617C2551.11 154.223 2551.99 157.314 2552.87 160.92C2556.38 173.799 2556.82 186.679 2554.63 199.558Z" fill="#B83D5D"/>
</g>
<path id="Vector_44" d="M2290.36 213.982H2137.78V240.772H2290.36V213.982Z" fill="#64648E"/>
</g>
<g id="Group_8">
<path id="{ }" d="M1056.68 38.2246C1056.68 39.2634 1056.51 40.0557 1056.18 40.6015C1055.85 41.1473 1055.3 41.5347 1054.54 41.7636C1055.3 41.9925 1055.85 42.3798 1056.18 42.9256C1056.51 43.4714 1056.68 44.2638 1056.68 45.3026V47.8115C1056.68 48.3926 1056.84 48.8415 1057.16 49.1585C1057.47 49.4754 1057.94 49.6338 1058.56 49.6338H1058.82V54.1236H1056.87C1054.84 54.1236 1053.31 53.6394 1052.27 52.671C1051.23 51.7027 1050.71 50.3117 1050.71 48.4982V45.1705C1050.71 44.7832 1050.61 44.4926 1050.4 44.299C1050.2 44.1053 1049.93 44.0085 1049.58 44.0085H1048.71V39.5187H1049.58C1049.93 39.5187 1050.2 39.4219 1050.4 39.2282C1050.61 39.0345 1050.71 38.744 1050.71 38.3566V35.029C1050.71 33.2154 1051.23 31.8245 1052.27 30.8561C1053.31 29.8877 1054.84 29.4036 1056.87 29.4036H1058.82V33.8933H1058.56C1057.94 33.8933 1057.47 34.0518 1057.16 34.3687C1056.84 34.6856 1056.68 35.1346 1056.68 35.7156V38.2246ZM1077.4 39.5187V44.0085H1076.52C1076.17 44.0085 1075.89 44.1053 1075.68 44.299C1075.48 44.4926 1075.39 44.7832 1075.39 45.1705V48.4982C1075.39 50.3117 1074.87 51.7027 1073.83 52.671C1072.79 53.6394 1071.26 54.1236 1069.23 54.1236H1067.28V49.6338H1067.54C1068.16 49.6338 1068.63 49.4754 1068.94 49.1585C1069.26 48.8415 1069.42 48.3926 1069.42 47.8115V45.3026C1069.42 44.2638 1069.59 43.4714 1069.92 42.9256C1070.26 42.3798 1070.8 41.9925 1071.56 41.7636C1070.8 41.5347 1070.26 41.1473 1069.92 40.6015C1069.59 40.0557 1069.42 39.2634 1069.42 38.2246V35.7156C1069.42 35.1346 1069.26 34.6856 1068.94 34.3687C1068.63 34.0518 1068.16 33.8933 1067.54 33.8933H1067.28V29.4036H1069.23C1071.26 29.4036 1072.79 29.8877 1073.83 30.8561C1074.87 31.8245 1075.39 33.2154 1075.39 35.029V38.3566C1075.39 38.744 1075.48 39.0345 1075.68 39.2282C1075.89 39.4219 1076.17 39.5187 1076.52 39.5187H1077.4Z" fill="#323247"/>
<g id="stack-2">
<path id="Vector_45" d="M1112.99 260.836H1047V302.327H1112.99V260.836Z" fill="white"/>
<path id="Vector_46" d="M1112.99 333.658H1047V375.149H1112.99V333.658Z" fill="white"/>
<path id="Vector_47" d="M1112.99 406.056H1047V447.547H1112.99V406.056Z" fill="#EBA154"/>
<path id="Vector_48" d="M1112.99 478.454H1047V519.945H1112.99V478.454Z" fill="#EBA154"/>
<path id="Vector_49" d="M1112.99 550.852H1047V592.344H1112.99V550.852Z" fill="#EBA154"/>
<path id="Vector_50" d="M1112.99 623.674H1047V665.165H1112.99V623.674Z" fill="#EBA154"/>
<path id="Vector_51" d="M1112.99 696.072H1047V737.563H1112.99V696.072Z" fill="#EBA154"/>
</g>
</g>
<g id="items">
<g id="Group_9">
<path id="Vector_52" d="M2013.27 1333.48C2010.32 1403.8 1947.08 1457.56 1899.6 1460.78C1836.95 1465.08 1792.23 1403.37 1785.92 1333.48C1780.6 1272.84 1800.3 1273.7 1814.88 1248.55C1832.61 1218.01 1865.91 1201.02 1899.4 1201.02C1962.25 1201.02 2017.21 1238.87 2013.27 1333.48Z" fill="#B83D5D"/>
<path id="Vector_53" d="M1943.73 1454.12H1855.66V1574.32H1943.73V1454.12Z" fill="#E3B5AA"/>
<g id="Group_10">
<g id="Group_11">
<path id="Vector_54" d="M1998.5 1384.02C2014.26 1358 2034.15 1356.92 2042.43 1387.67C2050.7 1418.42 2023.32 1443.8 2000.86 1434.33C1978.4 1425.09 1998.5 1384.02 1998.5 1384.02Z" fill="#E3B5AA"/>
<path id="Vector_55" d="M2017.02 1384.66C2027.46 1382.51 2032.97 1416.7 2009.92 1417.99L2014.65 1405.95L2010.12 1396.06L2017.02 1384.66Z" fill="#D78F97"/>
<path id="Vector_56" d="M2006.38 1422.72C2019.77 1407.02 2010.12 1396.27 2010.12 1396.27C2010.12 1396.27 2022.92 1367.67 2028.05 1389.61" stroke="#C87E84" stroke-width="0.5" stroke-miterlimit="10"/>
</g>
</g>
<g id="Group_12">
<g id="Group_13">
<path id="Vector_57" d="M1799.91 1384.02C1784.15 1358 1764.25 1356.92 1755.98 1387.67C1747.7 1418.42 1775.09 1443.79 1797.55 1434.33C1820.01 1425.09 1799.91 1384.02 1799.91 1384.02Z" fill="#E3B5AA"/>
<path id="Vector_58" d="M1781.39 1384.66C1770.95 1382.51 1765.43 1416.7 1788.48 1417.99L1783.76 1405.95L1788.29 1396.06L1781.39 1384.66Z" fill="#D78F97"/>
<path id="Vector_59" d="M1792.03 1422.72C1778.63 1407.02 1788.29 1396.27 1788.29 1396.27C1788.29 1396.27 1775.48 1367.67 1770.36 1389.61" stroke="#C87E84" stroke-width="0.5" stroke-miterlimit="10"/>
</g>
</g>
<path id="Vector_60" d="M1943.53 1456.91V1501.64C1911.81 1548.52 1855.47 1533.25 1855.47 1533.25L1856.45 1456.91H1943.53Z" fill="#C87E84"/>
<path id="Vector_61" d="M1899.6 1508.09C1846.99 1508.09 1804.44 1461.64 1804.44 1404.23V1328.32C1804.44 1289.62 1833.2 1258.22 1868.67 1258.22H1930.53C1965.99 1258.22 1994.75 1289.62 1994.75 1328.32V1404.23C1994.75 1461.64 1952.2 1508.09 1899.6 1508.09Z" fill="#E3B5AA"/>
<path id="Vector_62" d="M1914.18 1417.78C1914.18 1426.59 1907.67 1433.69 1899.6 1433.69C1891.52 1433.69 1885.02 1426.59 1885.02 1417.78" stroke="#B83D5D" stroke-miterlimit="10"/>
<path id="Vector_63" d="M1814.49 1262.95C1814.49 1262.95 1797.74 1232.85 1818.63 1206.18C1818.63 1206.18 1833.8 1236.5 1814.49 1262.95Z" fill="#B83D5D"/>
<path id="Vector_64" d="M1822.96 1255.64C1822.96 1255.64 1799.71 1280.16 1771.34 1263.81C1771.34 1263.81 1794.98 1241.23 1822.96 1255.64Z" fill="#B83D5D"/>
<path id="Vector_65" d="M1850.54 1421.22C1871.65 1421.22 1888.76 1402.54 1888.76 1379.5C1888.76 1356.46 1871.65 1337.78 1850.54 1337.78C1829.43 1337.78 1812.32 1356.46 1812.32 1379.5C1812.32 1402.54 1829.43 1421.22 1850.54 1421.22Z" stroke="white" stroke-width="4" stroke-miterlimit="10"/>
<g id="eyes">
<path id="Vector_66" d="M1854.28 1396.06C1858.42 1396.06 1861.77 1389.13 1861.77 1380.58C1861.77 1372.03 1858.42 1365.09 1854.28 1365.09C1850.15 1365.09 1846.8 1372.03 1846.8 1380.58C1846.8 1389.13 1850.15 1396.06 1854.28 1396.06Z" fill="#36364F"/>
<path id="Vector_67" d="M1944.91 1396.06C1949.04 1396.06 1952.39 1389.13 1952.39 1380.58C1952.39 1372.03 1949.04 1365.09 1944.91 1365.09C1940.77 1365.09 1937.42 1372.03 1937.42 1380.58C1937.42 1389.13 1940.77 1396.06 1944.91 1396.06Z" fill="#36364F"/>
</g>
<path id="Vector_68" d="M1948.65 1421.22C1969.76 1421.22 1986.87 1402.54 1986.87 1379.5C1986.87 1356.46 1969.76 1337.78 1948.65 1337.78C1927.54 1337.78 1910.43 1356.46 1910.43 1379.5C1910.43 1402.54 1927.54 1421.22 1948.65 1421.22Z" stroke="white" stroke-width="4" stroke-miterlimit="10"/>
<path id="Vector_69" d="M1816.26 1287.9C1816.26 1287.9 1876.74 1253.06 1916.93 1278.22C1957.12 1303.38 1961.65 1355.42 2001.25 1342.08C2001.25 1342.08 2031.4 1327.68 1998.3 1277.14C1965.2 1226.61 1942.54 1216.94 1899.4 1227.9C1856.25 1238.87 1828.08 1247.47 1816.26 1287.9Z" fill="#B83D5D"/>
<path id="Vector_70" d="M1813.9 1287.47C1813.9 1287.47 1833.8 1258.65 1861.77 1250.91C1889.75 1243.17 1920.68 1280.8 1920.68 1280.8C1920.68 1280.8 1849.16 1269.62 1813.9 1287.47Z" fill="#9A304F"/>
<path id="Vector_71" d="M1804.64 1323.81C1804.64 1323.81 1811.34 1377.35 1804.64 1410.04C1804.64 1410.04 1794.79 1326.82 1804.64 1323.81Z" fill="#B83D5D"/>
<path id="Vector_72" d="M1994.16 1323.81C1994.16 1323.81 1987.46 1377.35 1994.16 1410.04C1994.16 1410.04 2003.82 1326.82 1994.16 1323.81Z" fill="#B83D5D"/>
<path id="Vector_73" d="M1871.42 1319.51C1860.98 1314.13 1842.66 1308.11 1825.52 1321.44C1822.57 1323.59 1823.75 1328.54 1827.29 1329.18C1832.81 1330.26 1840.69 1331.33 1849.56 1331.12C1856.45 1331.12 1864.73 1329.18 1870.83 1327.46C1874.18 1326.6 1874.77 1321.23 1871.42 1319.51Z" fill="#B83D5D"/>
<path id="Vector_74" d="M1971.7 1319.51C1961.26 1314.13 1942.94 1308.11 1925.8 1321.44C1922.84 1323.59 1924.03 1328.54 1927.57 1329.18C1933.09 1330.26 1940.97 1331.33 1949.83 1331.12C1956.73 1331.12 1965 1329.18 1971.11 1327.46C1974.46 1326.6 1975.05 1321.23 1971.7 1319.51Z" fill="#B83D5D"/>
<g id="Group_14">
<g id="Group_15">
<path id="Vector_75" d="M1931.71 1455.41C1930.72 1457.34 1929.54 1459.28 1927.97 1461.43C1922.84 1468.09 1914.18 1474.54 1899.4 1474.76H1898.22C1884.43 1474.54 1875.76 1468.74 1870.64 1462.5C1868.67 1460.14 1867.09 1457.56 1866.11 1455.41C1863.54 1450.25 1862.95 1446.16 1862.95 1446.16L1934.86 1446.38C1934.86 1446.16 1934.27 1450.25 1931.71 1455.41Z" fill="#C33E5D"/>
</g>
<path id="Vector_76" d="M1931.71 1455.41C1930.73 1457.34 1929.54 1459.28 1927.97 1461.43C1911.42 1453.47 1891.72 1451.97 1870.64 1462.5C1868.67 1460.14 1867.09 1457.56 1866.11 1455.41C1863.54 1450.25 1862.95 1446.16 1862.95 1446.16L1934.86 1446.38C1934.86 1446.16 1934.27 1450.25 1931.71 1455.41Z" fill="#36364F"/>
</g>
<path id="Vector_77" d="M2204.96 1873.22L1560.74 1873.86C1560.74 1873.86 1572.76 1846.34 1590.1 1810C1591.28 1807.2 1592.66 1804.62 1594.04 1801.82C1617.68 1752.58 1649.39 1690.44 1674.22 1656.89C1702.78 1618.19 1770.36 1590.45 1816.06 1575.4C1842.86 1566.58 1862.17 1562.06 1862.17 1562.06H1936.24C1936.24 1562.06 1953.58 1566.15 1978.2 1574.1C2024.11 1588.94 2092.47 1619.26 2124.19 1656.89C2131.08 1665.28 2137.78 1675.17 2143.89 1686.35C2183.09 1757.31 2204.96 1873.22 2204.96 1873.22Z" fill="#EBA154"/>
<path id="Vector_78" opacity="0.5" d="M2204.96 1873.21L1560.74 1873.86C1560.74 1873.86 1572.76 1846.34 1590.1 1810C1911.61 1913.21 2080.85 1744.2 2119.66 1698.39C2125.96 1691.08 2134.63 1686.57 2143.69 1686.35H2143.89C2183.09 1757.31 2204.96 1873.21 2204.96 1873.21Z" fill="#D9751F"/>
<path id="Vector_79" d="M1889.55 1386.6H1909.64" stroke="white" stroke-width="4" stroke-miterlimit="10"/>
<path id="Vector_80" d="M1978.2 1574.1C1898.41 1669.79 1816.26 1575.4 1816.26 1575.4C1843.06 1566.58 1862.36 1562.06 1862.36 1562.06H1936.24C1936.24 1562.06 1953.77 1566.15 1978.2 1574.1Z" fill="#E3B5AA"/>
<g id="Group_16">
<path id="Vector_81" d="M1723.47 1765.05V1874.07" stroke="#DC831E" stroke-width="3" stroke-miterlimit="10"/>
<path id="Vector_82" d="M1723.47 1834.51L1696.68 1797.09" stroke="#DC831E" stroke-width="3" stroke-miterlimit="10"/>
</g>
<g id="Group_17">
<path id="Vector_83" d="M2073.75 1765.05V1874.07" stroke="#DC831E" stroke-width="3" stroke-miterlimit="10"/>
<path id="Vector_84" d="M2073.75 1834.51L2097.79 1801.39" stroke="#DC831E" stroke-width="3" stroke-miterlimit="10"/>
</g>
<path id="Vector_85" d="M1812.52 1617.11C1812.52 1617.11 1911.42 1690.87 1978.4 1613.46" stroke="#DC831E" stroke-width="3" stroke-miterlimit="10"/>
<path id="x" d="M2003.31 1716.12L1998.07 1708.79L1992.66 1716.12H1985.11L1994.3 1704.09L1985.42 1692.24H1993.19L1998.25 1699.21L2003.44 1692.24H2010.81L2001.93 1703.91L2011.17 1716.12H2003.31Z" fill="white"/>
<path id="Vector_86" d="M1813.9 1242.74C1836.16 1140.81 2058.58 1152.21 2017.02 1350.47C2004.6 1409.82 1913.98 1215.43 1835.77 1263.17C1829.86 1266.82 1822.57 1265.75 1817.84 1260.8C1813.31 1256.07 1812.52 1249.19 1813.9 1242.74Z" fill="#B83D5D"/>
</g>
<g id="Group_18">
<g id="Group_19">
<g id="Group_20">
<g id="Group_21">
<path id="Vector_87" d="M1401.83 1653.83V1663.79C1389.95 1665.96 1386.88 1681.2 1386.88 1699.86V1706.08C1386.88 1724.74 1389.74 1739.98 1401.83 1742.15V1752.11H1173.68C1164.26 1752.11 1156.68 1740.6 1156.68 1726.29V1679.65C1156.68 1665.34 1164.26 1653.83 1173.68 1653.83H1401.83Z" fill="#4B7195"/>
<path id="Vector_88" d="M1398.35 1731.89C1399.78 1736.87 1397.12 1742.15 1393.64 1742.15L1175.73 1742.46V1663.78L1393.64 1664.1C1394.86 1664.1 1396.09 1664.72 1396.91 1665.96C1398.35 1667.83 1399.17 1671.25 1398.35 1674.36C1396.5 1680.89 1396.5 1689.91 1396.5 1700.17V1706.39C1396.5 1716.34 1396.5 1725.36 1398.35 1731.89Z" fill="white"/>
<path id="Vector_89" opacity="0.4" d="M1396.91 1665.96C1392.82 1666.27 1200.1 1681.51 1186.79 1709.81C1183.1 1717.59 1179.21 1721.94 1175.53 1722.56V1663.78L1393.43 1664.1C1395.07 1664.1 1396.09 1664.72 1396.91 1665.96Z" fill="#A3D5E6"/>
</g>
<path id="Vector_90" d="M1186.99 1752.11H1167.74C1161.6 1752.11 1156.89 1744.64 1156.89 1735.62V1670.63C1156.89 1661.3 1161.8 1654.14 1167.74 1654.14H1186.99V1752.11Z" fill="#4B7195"/>
<path id="Vector_91" opacity="0.4" d="M1398.35 1731.89C1399.78 1736.87 1397.12 1742.15 1393.64 1742.15H1350.01C1384.62 1736.24 1382.37 1693.02 1382.37 1693.02C1382.78 1690.84 1355.13 1665.65 1355.54 1663.78H1393.43C1394.66 1663.78 1395.89 1664.41 1396.71 1665.65C1398.14 1667.52 1398.96 1670.94 1398.14 1674.05C1396.3 1680.58 1396.3 1689.6 1396.3 1699.86V1706.08C1396.5 1716.34 1396.5 1725.36 1398.35 1731.89Z" fill="#A3D5E6"/>
</g>
<g id="Group_22">
<path id="Vector_92" opacity="0.4" d="M1396.71 1697.37H1187.4V1704.52H1396.71V1697.37Z" fill="#A3D5E6"/>
<path id="Vector_93" opacity="0.4" d="M1396.71 1681.2H1187.4V1688.35H1396.71V1681.2Z" fill="#A3D5E6"/>
<path id="Vector_94" opacity="0.4" d="M1396.71 1717.59H1187.4V1724.74H1396.71V1717.59Z" fill="#A3D5E6"/>
</g>
<path id="Vector_95" d="M1329.12 1727.85L1318.07 1710.74L1307.01 1727.85V1681.2H1329.12V1727.85Z" fill="#C33E5D"/>
</g>
<g id="Group_23">
<g id="Group_24">
<g id="Group_25">
<path id="Vector_96" d="M1426.2 1751.79V1761.75C1414.32 1763.92 1411.25 1779.16 1411.25 1797.82V1804.04C1411.25 1822.7 1414.12 1837.94 1426.2 1840.11V1850.07H1198.26C1188.84 1850.07 1181.26 1838.56 1181.26 1824.25V1777.61C1181.26 1763.3 1188.84 1751.79 1198.26 1751.79H1426.2Z" fill="#C33E5D"/>
<path id="Vector_97" d="M1422.72 1829.85C1424.15 1834.83 1421.49 1840.11 1418.01 1840.11L1200.1 1840.43V1761.75L1418.01 1762.06C1419.24 1762.06 1420.47 1762.68 1421.28 1763.92C1422.72 1765.79 1423.54 1769.21 1422.72 1772.32C1420.87 1778.85 1420.87 1787.87 1420.87 1798.13V1804.35C1421.08 1814.3 1420.87 1823.32 1422.72 1829.85Z" fill="white"/>
<path id="Vector_98" opacity="0.4" d="M1421.28 1763.61C1417.19 1763.92 1224.47 1779.16 1211.16 1807.46C1207.47 1815.24 1203.58 1819.59 1199.9 1820.21V1761.75L1417.8 1762.06C1419.44 1761.75 1420.46 1762.68 1421.28 1763.61Z" fill="#A3D5E6"/>
</g>
<path id="Vector_99" d="M1211.37 1850.07H1192.11C1185.97 1850.07 1181.26 1842.6 1181.26 1833.58V1768.59C1181.26 1759.26 1186.18 1752.1 1192.11 1752.1H1211.37V1850.07Z" fill="#C33E5D"/>
<path id="Vector_100" opacity="0.4" d="M1422.72 1829.85C1424.15 1834.83 1421.49 1840.11 1418.01 1840.11H1374.39C1409 1834.21 1406.74 1790.98 1406.74 1790.98C1407.15 1788.8 1379.51 1763.61 1379.91 1761.75H1417.8C1419.03 1761.75 1420.26 1762.37 1421.08 1763.61C1422.51 1765.48 1423.33 1768.9 1422.51 1772.01C1420.67 1778.54 1420.67 1787.56 1420.67 1797.82V1804.04C1421.08 1814.3 1420.87 1823.32 1422.72 1829.85Z" fill="#A3D5E6"/>
</g>
<g id="Group_26">
<path id="Vector_101" opacity="0.4" d="M1421.08 1795.33H1211.77V1802.48H1421.08V1795.33Z" fill="#A3D5E6"/>
<path id="Vector_102" opacity="0.4" d="M1421.08 1779.16H1211.77V1786.31H1421.08V1779.16Z" fill="#A3D5E6"/>
<path id="Vector_103" opacity="0.4" d="M1421.08 1815.55H1211.77V1822.7H1421.08V1815.55Z" fill="#A3D5E6"/>
</g>
<path id="Vector_104" d="M1398.14 1831.72L1386.26 1813.99L1374.59 1831.72V1782.89H1398.14V1831.72Z" fill="#C33E5D"/>
</g>
</g>
<g id="Group_27">
<g id="html">
<path id="Vector_105" d="M2417.13 593.548H2030V1127.05H2417.13V593.548Z" fill="#49496B"/>
<g id="html-strips">
<path id="Vector_106" d="M2364.57 706.842H2074.01V728.422H2364.57V706.842Z" fill="white"/>
<path id="Vector_107" d="M2266.29 754.797H2074.01V776.377H2266.29V754.797Z" fill="white"/>
<path id="Vector_108" d="M2364.57 754.797H2294.92V776.377H2364.57V754.797Z" fill="#EBA154"/>
<path id="Vector_109" d="M2364.57 802.752H2184.68V824.332H2364.57V802.752Z" fill="#EBA154"/>
<path id="Vector_110" d="M2158.19 802.752H2074.01V824.332H2158.19V802.752Z" fill="white"/>
<path id="Vector_111" d="M2227.84 850.707H2074.01V872.287H2227.84V850.707Z" fill="white"/>
<path id="Vector_112" d="M2364.57 850.707H2251.34V872.287H2364.57V850.707Z" fill="#EBA154"/>
<path id="Vector_113" d="M2365 898.663H2158.61V920.243H2365V898.663Z" fill="#EBA154"/>
<path id="Vector_114" d="M2136.4 898.663H2074.01V920.243H2136.4V898.663Z" fill="white"/>
<path id="Vector_115" d="M2198.78 946.618H2074.01V968.198H2198.78V946.618Z" fill="white"/>
<path id="Vector_116" d="M2364.57 946.618H2219.29V968.198H2364.57V946.618Z" fill="#EBA154"/>
</g>
<g id="Group_28">
<g id="Group_29">
<path id="Vector_117" d="M2356.02 1074.3V1080.29L2324.41 1088.69V1082.69L2346.62 1077L2324.41 1071.9V1065.91L2356.02 1074.3Z" fill="#EBA154"/>
</g>
<g id="Group_30">
<path id="Vector_118" d="M2265.87 1065.91V1071.6L2243.65 1077.3L2265.87 1082.99V1088.98L2234.25 1080.59V1074.6L2265.87 1065.91Z" fill="#EBA154"/>
</g>
<g id="Group_31">
<path id="Vector_119" d="M2303.47 1049.42H2313.3L2289.79 1096.78H2279.97L2303.47 1049.42Z" fill="#EBA154"/>
</g>
</g>
<g id="Group_32">
<g id="Group_33">
<path id="Vector_120" d="M2210.32 657.987V666.08L2168.44 677.17V669.377L2197.5 661.884L2168.44 654.391V646.898L2210.32 657.987Z" fill="#EBA154"/>
</g>
<g id="Group_34">
<path id="Vector_121" d="M2133.4 646.898V654.391L2104.35 661.884L2133.4 669.377V677.17L2091.53 666.08V657.987L2133.4 646.898Z" fill="#EBA154"/>
</g>
</g>
</g>
<path id="HTML" d="M2068.74 467.101V501H2057.31V488.506H2046.76V501H2035.33V467.101H2046.76V479.111H2057.31V467.101H2068.74ZM2081.61 475.963H2071.68V467.101H2102.97V475.963H2093.04V501H2081.61V475.963ZM2136.2 501L2136.1 485.552L2128.74 497.949H2123.71L2116.35 486.085V501H2105.93V467.101H2115.33L2126.37 485.164L2137.12 467.101H2146.52L2146.61 501H2136.2ZM2152.14 467.101H2163.57V492.138H2178.87V501H2152.14V467.101Z" fill="white"/>
</g>
<g id="Group_35">
<g id="web-circle">
<g id="Group_36">
<path id="Vector_122" d="M1112.57 1108.75C1103.2 1099.73 1092.35 1092.21 1081.01 1086.7C1081.01 1086.7 1080.52 1086.7 1080.52 1086.19C1064.25 1078.67 1046.01 1075.17 1027.77 1076.17C1015.45 1076.67 1002.63 1079.68 990.796 1084.69C989.81 1085.19 989.317 1085.19 988.331 1085.69C966.64 1095.72 949.385 1111.76 938.046 1130.81C919.805 1161.89 916.354 1200.99 931.637 1236.09C956.78 1293.74 1023.33 1319.3 1079.54 1293.74C1131.3 1270.17 1156.93 1211.52 1141.65 1157.88C1140.17 1152.87 1138.69 1148.36 1136.23 1143.34C1130.81 1130.31 1122.43 1118.78 1112.57 1108.75ZM1065.73 1262.66C1026.78 1280.2 980.443 1262.66 963.189 1222.55C952.836 1198.99 954.808 1172.92 966.64 1151.87C966.64 1151.87 966.64 1151.36 967.133 1151.36C975.021 1137.33 987.345 1125.3 1003.12 1118.28C1006.08 1116.77 1009.04 1115.77 1012 1114.77C1012.49 1114.77 1012.49 1114.77 1012.98 1114.27C1028.76 1109.76 1044.53 1110.26 1059.32 1115.27C1072.14 1119.78 1083.48 1127.3 1092.35 1137.33C1097.78 1143.34 1102.21 1150.36 1105.66 1157.88C1107.64 1162.89 1109.11 1167.41 1110.59 1172.42C1117.99 1209.01 1100.24 1247.11 1065.73 1262.66Z" fill="#64648E"/>
</g>
<path id="Vector_123" d="M1081.01 1086.7C1092.85 1092.21 1103.2 1099.73 1112.57 1108.75C1122.43 1118.28 1130.31 1130.31 1136.23 1143.85C1138.2 1148.86 1140.17 1153.37 1141.65 1158.38L1109.61 1172.92C1108.62 1167.91 1107.14 1162.89 1104.68 1158.38C1101.23 1150.86 1096.79 1143.84 1091.37 1137.83C1082.49 1127.8 1070.66 1119.78 1058.34 1115.77L1080.03 1087.2" fill="#EBA154"/>
<path id="Vector_124" d="M1058.83 1115.27C1044.04 1110.26 1027.77 1109.76 1012.49 1114.27C1012 1114.27 1012 1114.27 1011.5 1114.77L990.796 1085.19C1003.12 1080.18 1015.45 1077.17 1027.77 1076.67C1046.01 1075.67 1064.25 1079.18 1080.52 1086.7" fill="#B83D5D"/>
</g>
<g id="Group_37">
<g id="Group_38">
<path id="Vector_125" d="M1025 1310.05V1314.52" stroke="#FD783D" stroke-miterlimit="10"/>
<path id="Vector_126" d="M1025 1323V1387.1" stroke="#FD783D" stroke-miterlimit="10" stroke-dasharray="3.83 3.83"/>
<path id="Vector_127" d="M1025 1391.57V1396.03H1031.89" stroke="#FD783D" stroke-miterlimit="10"/>
<path id="Vector_128" d="M1046.02 1396.03H1237.65" stroke="#FD783D" stroke-miterlimit="10" stroke-dasharray="4.12 4.12"/>
<path id="Vector_129" d="M1244.55 1396.03H1251.44V1391.57" stroke="#FD783D" stroke-miterlimit="10"/>
<path id="Vector_130" d="M1251.44 1382.86V1317.64" stroke="#FD783D" stroke-miterlimit="10" stroke-dasharray="3.89 3.89"/>
<path id="Vector_131" d="M1251.44 1313.18V1308.71" stroke="#FD783D" stroke-miterlimit="10"/>
</g>
</g>
<g id="web">
<path id="Vector_132" d="M1686.16 791.014H1189.63V1304.47H1686.16V791.014Z" fill="#49496B"/>
<path id="Vector_133" d="M1686.16 766H1189.63V831.214H1686.16V766Z" fill="#64648E"/>
<g id="Group_39">
<g id="Group_40">
<path id="Vector_134" d="M1628.99 1269.18V1273.42L1611.22 1279.23V1275.21L1623.84 1271.19L1611.22 1267.17V1263.15L1628.99 1269.18Z" fill="#EBA154"/>
</g>
<g id="Group_41">
<path id="Vector_135" d="M1578 1263.37V1267.39L1565.38 1271.41L1578 1275.43V1279.45L1560.23 1273.64V1269.4L1578 1263.37Z" fill="#EBA154"/>
</g>
<path id="/" d="M1591.92 1248.22H1594.09L1588.94 1262.93H1586.77L1591.92 1248.22Z" fill="#EBA154"/>
</g>
<g id="Group_42">
<g id="Group_43">
<path id="Vector_136" d="M1307.32 872.755V878.115L1285.18 885.485V880.348L1300.89 875.435L1285.18 870.522V865.385L1307.32 872.755Z" fill="#EBA154"/>
</g>
<g id="Group_44">
<path id="Vector_137" d="M1266.38 865.385V870.522L1250.67 875.435L1266.38 880.348V885.485L1244.23 878.115V872.755L1266.38 865.385Z" fill="#EBA154"/>
</g>
</g>
<path id="WEB DEVELOPING" d="M1235.63 784.784L1232.46 794.475H1230.05L1227.92 787.913L1225.72 794.475H1223.33L1220.14 784.784H1222.47L1224.65 791.595L1226.94 784.784H1229.02L1231.23 791.65L1233.49 784.784H1235.63ZM1244.39 792.675V794.475H1236.88V784.784H1244.21V786.584H1239.11V788.688H1243.61V790.432H1239.11V792.675H1244.39ZM1253.29 789.435C1253.84 789.611 1254.28 789.906 1254.59 790.321C1254.9 790.728 1255.06 791.231 1255.06 791.83C1255.06 792.68 1254.73 793.335 1254.06 793.796C1253.41 794.248 1252.45 794.475 1251.18 794.475H1246.17V784.784H1250.91C1252.09 784.784 1252.99 785.01 1253.62 785.462C1254.26 785.915 1254.58 786.528 1254.58 787.304C1254.58 787.774 1254.46 788.194 1254.23 788.563C1254.01 788.932 1253.69 789.223 1253.29 789.435ZM1248.4 786.473V788.757H1250.63C1251.18 788.757 1251.6 788.66 1251.89 788.466C1252.18 788.273 1252.32 787.986 1252.32 787.608C1252.32 787.23 1252.18 786.948 1251.89 786.764C1251.6 786.57 1251.18 786.473 1250.63 786.473H1248.4ZM1251.02 792.786C1251.61 792.786 1252.05 792.689 1252.35 792.495C1252.65 792.301 1252.8 792.001 1252.8 791.595C1252.8 790.792 1252.21 790.391 1251.02 790.391H1248.4V792.786H1251.02ZM1260.68 784.784H1265.08C1266.13 784.784 1267.06 784.987 1267.86 785.393C1268.68 785.79 1269.3 786.353 1269.75 787.082C1270.2 787.811 1270.42 788.66 1270.42 789.629C1270.42 790.598 1270.2 791.447 1269.75 792.177C1269.3 792.906 1268.68 793.473 1267.86 793.879C1267.06 794.276 1266.13 794.475 1265.08 794.475H1260.68V784.784ZM1264.97 792.633C1265.94 792.633 1266.71 792.366 1267.28 791.83C1267.86 791.286 1268.15 790.552 1268.15 789.629C1268.15 788.706 1267.86 787.977 1267.28 787.442C1266.71 786.897 1265.94 786.625 1264.97 786.625H1262.92V792.633H1264.97ZM1279.62 792.675V794.475H1272.12V784.784H1279.44V786.584H1274.35V788.688H1278.84V790.432H1274.35V792.675H1279.62ZM1290.59 784.784L1286.39 794.475H1284.18L1280 784.784H1282.42L1285.37 791.706L1288.36 784.784H1290.59ZM1298.9 792.675V794.475H1291.39V784.784H1298.72V786.584H1293.62V788.688H1298.12V790.432H1293.62V792.675H1298.9ZM1300.68 784.784H1302.93V792.647H1307.78V794.475H1300.68V784.784ZM1313.57 794.641C1312.56 794.641 1311.65 794.424 1310.84 793.99C1310.04 793.556 1309.41 792.961 1308.94 792.204C1308.49 791.438 1308.27 790.58 1308.27 789.629C1308.27 788.679 1308.49 787.825 1308.94 787.068C1309.41 786.302 1310.04 785.702 1310.84 785.268C1311.65 784.835 1312.56 784.618 1313.57 784.618C1314.57 784.618 1315.48 784.835 1316.28 785.268C1317.08 785.702 1317.72 786.302 1318.18 787.068C1318.64 787.825 1318.87 788.679 1318.87 789.629C1318.87 790.58 1318.64 791.438 1318.18 792.204C1317.72 792.961 1317.08 793.556 1316.28 793.99C1315.48 794.424 1314.57 794.641 1313.57 794.641ZM1313.57 792.73C1314.14 792.73 1314.66 792.601 1315.12 792.343C1315.58 792.075 1315.94 791.706 1316.2 791.235C1316.47 790.764 1316.6 790.229 1316.6 789.629C1316.6 789.029 1316.47 788.494 1316.2 788.023C1315.94 787.553 1315.58 787.188 1315.12 786.93C1314.66 786.662 1314.14 786.528 1313.57 786.528C1313 786.528 1312.48 786.662 1312.02 786.93C1311.56 787.188 1311.19 787.553 1310.92 788.023C1310.67 788.494 1310.54 789.029 1310.54 789.629C1310.54 790.229 1310.67 790.764 1310.92 791.235C1311.19 791.706 1311.56 792.075 1312.02 792.343C1312.48 792.601 1313 792.73 1313.57 792.73ZM1324.75 784.784C1325.61 784.784 1326.35 784.927 1326.98 785.213C1327.62 785.499 1328.11 785.905 1328.45 786.431C1328.79 786.957 1328.96 787.58 1328.96 788.3C1328.96 789.011 1328.79 789.634 1328.45 790.169C1328.11 790.695 1327.62 791.101 1326.98 791.387C1326.35 791.664 1325.61 791.803 1324.75 791.803H1322.8V794.475H1320.56V784.784H1324.75ZM1324.63 789.975C1325.3 789.975 1325.81 789.832 1326.16 789.546C1326.51 789.251 1326.69 788.836 1326.69 788.3C1326.69 787.756 1326.51 787.34 1326.16 787.054C1325.81 786.759 1325.3 786.611 1324.63 786.611H1322.8V789.975H1324.63ZM1330.56 784.784H1332.8V794.475H1330.56V784.784ZM1343.99 784.784V794.475H1342.15L1337.32 788.591V794.475H1335.1V784.784H1336.96L1341.78 790.668V784.784H1343.99ZM1352.83 789.477H1354.88V793.409C1354.35 793.805 1353.75 794.11 1353.05 794.322C1352.36 794.535 1351.66 794.641 1350.96 794.641C1349.96 794.641 1349.05 794.428 1348.25 794.004C1347.45 793.57 1346.81 792.975 1346.35 792.218C1345.9 791.452 1345.67 790.589 1345.67 789.629C1345.67 788.669 1345.9 787.811 1346.35 787.054C1346.81 786.288 1347.45 785.693 1348.26 785.268C1349.08 784.835 1349.99 784.618 1351 784.618C1351.85 784.618 1352.62 784.761 1353.32 785.047C1354.01 785.333 1354.59 785.748 1355.06 786.293L1353.62 787.622C1352.93 786.893 1352.09 786.528 1351.11 786.528C1350.5 786.528 1349.95 786.657 1349.47 786.916C1348.99 787.174 1348.61 787.539 1348.35 788.01C1348.08 788.48 1347.94 789.02 1347.94 789.629C1347.94 790.229 1348.08 790.764 1348.35 791.235C1348.61 791.706 1348.98 792.075 1349.45 792.343C1349.93 792.601 1350.48 792.73 1351.09 792.73C1351.73 792.73 1352.31 792.592 1352.83 792.315V789.477Z" fill="white"/>
<g id="Group_45">
<g id="web-strips">
<path id="Vector_138" d="M1421.67 916.752H1275.65V939.98H1421.67V916.752Z" fill="#54B3CD"/>
<path id="Vector_139" d="M1514.9 916.752H1442.02V939.98H1514.9V916.752Z" fill="#EBA154"/>
<path id="Vector_140" d="M1632.34 916.752H1531.9V939.98H1632.34V916.752Z" fill="white"/>
<path id="Vector_141" d="M1343.9 958.07H1275.65V981.297H1343.9V958.07Z" fill="#54B3CD"/>
<path id="Vector_142" d="M1478.59 958.07H1362.18V981.297H1478.59V958.07Z" fill="#EBA154"/>
<path id="Vector_143" d="M1632.59 958.07H1497.64V981.297H1632.59V958.07Z" fill="white"/>
<path id="Vector_144" d="M1365.27 999.387H1275.65V1022.61H1365.27V999.387Z" fill="#54B3CD"/>
<path id="Vector_145" d="M1548.64 999.387H1379.95V1022.61H1548.64V999.387Z" fill="#EBA154"/>
<path id="Vector_146" d="M1632.6 999.387H1566.67V1022.61H1632.6V999.387Z" fill="white"/>
<path id="Vector_147" d="M1388.71 1040.93H1275.65V1064.15H1388.71V1040.93Z" fill="#54B3CD"/>
<path id="Vector_148" d="M1515.16 1040.93H1405.45V1064.15H1515.16V1040.93Z" fill="#EBA154"/>
<path id="Vector_149" d="M1632.34 1040.93H1531.9V1064.15H1632.34V1040.93Z" fill="white"/>
<path id="Vector_150" d="M1325.35 1082.25H1275.65V1105.47H1325.35V1082.25Z" fill="#54B3CD"/>
<path id="Vector_151" d="M1440.21 1082.25H1341.83V1105.47H1440.21V1082.25Z" fill="#EBA154"/>
<path id="Vector_152" d="M1632.59 1082.25H1455.41V1105.47H1632.59V1082.25Z" fill="white"/>
<path id="Vector_153" d="M1417.55 1123.56H1275.65V1146.79H1417.55V1123.56Z" fill="#54B3CD"/>
<path id="Vector_154" d="M1478.59 1123.56H1435.06V1146.79H1478.59V1123.56Z" fill="#EBA154"/>
<path id="Vector_155" d="M1632.59 1123.56H1497.64V1146.79H1632.59V1123.56Z" fill="white"/>
<path id="Vector_156" d="M1460.3 1165.1H1275.65V1188.33H1460.3V1165.1Z" fill="#54B3CD"/>
<path id="Vector_157" d="M1551.21 1165.1H1475.75V1188.33H1551.21V1165.1Z" fill="#EBA154"/>
<path id="Vector_158" d="M1632.6 1165.1H1566.67V1188.33H1632.6V1165.1Z" fill="white"/>
<path id="Vector_159" d="M1332.31 1206.42H1275.65V1229.65H1332.31V1206.42Z" fill="#54B3CD"/>
<path id="Vector_160" d="M1417.29 1206.42H1348.53V1229.65H1417.29V1206.42Z" fill="#EBA154"/>
<path id="Vector_161" d="M1632.6 1206.42H1435.06V1229.65H1632.6V1206.42Z" fill="white"/>
</g>
<path id="Vector_162" d="M1657.32 916.752H1651.91V1229.65H1657.32V916.752Z" fill="white"/>
<path id="Vector_163" d="M1229.55 939.756C1236.94 939.756 1242.94 934.556 1242.94 928.142C1242.94 921.729 1236.94 916.529 1229.55 916.529C1222.15 916.529 1216.16 921.729 1216.16 928.142C1216.16 934.556 1222.15 939.756 1229.55 939.756Z" fill="white"/>
<path id="Vector_164" d="M1229.55 981.297C1236.94 981.297 1242.94 976.097 1242.94 969.683C1242.94 963.269 1236.94 958.07 1229.55 958.07C1222.15 958.07 1216.16 963.269 1216.16 969.683C1216.16 976.097 1222.15 981.297 1229.55 981.297Z" fill="white"/>
<path id="Vector_165" d="M1229.55 1022.61C1236.94 1022.61 1242.94 1017.41 1242.94 1011C1242.94 1004.59 1236.94 999.387 1229.55 999.387C1222.15 999.387 1216.16 1004.59 1216.16 1011C1216.16 1017.41 1222.15 1022.61 1229.55 1022.61Z" fill="white"/>
<path id="Vector_166" d="M1229.55 1063.93C1236.94 1063.93 1242.94 1058.73 1242.94 1052.32C1242.94 1045.9 1236.94 1040.7 1229.55 1040.7C1222.15 1040.7 1216.16 1045.9 1216.16 1052.32C1216.16 1058.73 1222.15 1063.93 1229.55 1063.93Z" fill="white"/>
<path id="Vector_167" d="M1229.55 1105.47C1236.94 1105.47 1242.94 1100.27 1242.94 1093.86C1242.94 1087.44 1236.94 1082.24 1229.55 1082.24C1222.15 1082.24 1216.16 1087.44 1216.16 1093.86C1216.16 1100.27 1222.15 1105.47 1229.55 1105.47Z" fill="white"/>
<path id="Vector_168" d="M1229.55 1146.79C1236.94 1146.79 1242.94 1141.59 1242.94 1135.18C1242.94 1128.76 1236.94 1123.56 1229.55 1123.56C1222.15 1123.56 1216.16 1128.76 1216.16 1135.18C1216.16 1141.59 1222.15 1146.79 1229.55 1146.79Z" fill="white"/>
<path id="Vector_169" d="M1229.55 1188.11C1236.94 1188.11 1242.94 1182.91 1242.94 1176.49C1242.94 1170.08 1236.94 1164.88 1229.55 1164.88C1222.15 1164.88 1216.16 1170.08 1216.16 1176.49C1216.16 1182.91 1222.15 1188.11 1229.55 1188.11Z" fill="white"/>
<path id="Vector_170" d="M1229.55 1229.65C1236.94 1229.65 1242.94 1224.45 1242.94 1218.03C1242.94 1211.62 1236.94 1206.42 1229.55 1206.42C1222.15 1206.42 1216.16 1211.62 1216.16 1218.03C1216.16 1224.45 1222.15 1229.65 1229.55 1229.65Z" fill="white"/>
</g>
<path id="Vector_171" d="M1650.62 814.017C1658.16 814.017 1664.27 808.718 1664.27 802.181C1664.27 795.643 1658.16 790.344 1650.62 790.344C1643.08 790.344 1636.97 795.643 1636.97 802.181C1636.97 808.718 1643.08 814.017 1650.62 814.017Z" fill="#B83D5D"/>
</g>
<path id="Vector_172" d="M1616.88 813.794C1624.42 813.794 1630.53 808.494 1630.53 801.957C1630.53 795.42 1624.42 790.12 1616.88 790.12C1609.35 790.12 1603.24 795.42 1603.24 801.957C1603.24 808.494 1609.35 813.794 1616.88 813.794Z" fill="white"/>
</g>
<g id="Group_46">
<path id="Vector_173" d="M3014.85 1179.26C3014.85 1178.88 3014.85 1178.88 3014.85 1178.5C3014.85 1178.12 3014.85 1178.12 3014.85 1177.74C3019.16 1175.85 3023.9 1173.96 3028.21 1171.31C3032.95 1168.66 3037.69 1165.25 3042 1161.46L3041.14 1158.06C3040.28 1154.27 3038.55 1150.86 3037.26 1147.08C3036.4 1145.19 3035.54 1143.67 3034.67 1141.78C3033.81 1139.89 3032.52 1138.37 3031.66 1136.86L3029.5 1133.83C3023.47 1133.83 3017.44 1134.59 3011.83 1135.34C3006.66 1136.1 3001.92 1137.61 2997.61 1139.13L2996.32 1137.99C2998.04 1133.83 2999.34 1129.66 3000.63 1125.5C3001.49 1120.58 3002.35 1115.28 3002.35 1109.98L2998.9 1108.09C2997.18 1106.95 2995.03 1106.19 2993.3 1105.44C2991.15 1104.68 2989.42 1103.54 2987.27 1103.16C2982.96 1102.03 2979.08 1100.51 2974.77 1099.76L2970.89 1099C2966.58 1102.79 2962.7 1106.95 2959.69 1111.11C2956.67 1114.9 2954.52 1118.69 2952.36 1122.85C2951.93 1122.85 2951.93 1122.85 2951.5 1122.85C2951.07 1122.85 2951.07 1122.85 2950.64 1122.85C2948.48 1119.06 2946.33 1114.9 2943.31 1111.11C2940.3 1106.95 2936.42 1102.79 2932.11 1099L2928.23 1099.76C2923.92 1100.51 2920.04 1102.03 2915.73 1103.16C2913.58 1103.92 2911.85 1104.68 2909.7 1105.44C2907.54 1106.19 2905.82 1107.33 2904.1 1108.09L2900.65 1109.98C2900.65 1115.28 2901.51 1120.58 2902.37 1125.5C2903.23 1130.04 2904.96 1134.21 2906.68 1137.99C2906.25 1138.37 2905.82 1138.75 2905.39 1139.13C2900.65 1137.61 2895.91 1136.48 2891.17 1135.34C2885.56 1134.59 2879.53 1133.83 2873.5 1133.83L2871.34 1136.86C2870.05 1138.37 2869.19 1140.26 2868.33 1141.78C2867.46 1143.67 2866.6 1145.19 2865.74 1147.08C2864.02 1150.86 2862.72 1154.27 2861.86 1158.06L2861 1161.46C2865.31 1165.25 2870.05 1168.66 2874.79 1171.31C2879.1 1173.96 2883.41 1175.85 2888.15 1177.74C2888.15 1178.12 2888.15 1178.12 2888.15 1178.5C2888.15 1178.88 2888.15 1178.88 2888.15 1179.26C2883.84 1181.15 2879.1 1183.04 2874.79 1185.69C2870.05 1188.34 2865.31 1191.75 2861 1195.54L2861.86 1198.94C2862.72 1202.73 2864.45 1206.14 2865.74 1209.92C2866.6 1211.81 2867.46 1213.33 2868.33 1215.22C2869.19 1217.11 2870.48 1218.63 2871.34 1220.14L2873.5 1223.17C2879.53 1223.17 2885.56 1222.41 2891.17 1221.66C2896.34 1220.9 2901.08 1219.39 2905.39 1217.87C2905.82 1218.25 2906.25 1218.63 2906.68 1219.01C2904.96 1223.17 2903.66 1227.34 2902.37 1231.5C2901.51 1236.42 2900.65 1241.72 2900.65 1247.02L2904.1 1248.91C2905.82 1250.05 2907.97 1250.81 2909.7 1251.56C2911.85 1252.32 2913.58 1253.46 2915.73 1253.84C2920.04 1255.35 2923.92 1256.49 2928.23 1257.24L2932.11 1258C2936.42 1254.21 2940.3 1250.05 2943.31 1245.89C2946.33 1242.1 2948.48 1238.31 2950.64 1234.15C2951.07 1234.15 2951.07 1234.15 2951.5 1234.15C2951.93 1234.15 2951.93 1234.15 2952.36 1234.15C2954.52 1237.94 2956.67 1242.1 2959.69 1245.89C2962.7 1250.05 2966.58 1254.21 2970.89 1258L2974.77 1257.24C2979.08 1256.49 2982.96 1254.97 2987.27 1253.84C2989.42 1253.08 2991.15 1252.32 2993.3 1251.56C2995.46 1250.81 2997.18 1249.67 2998.9 1248.91L3002.35 1247.02C3002.35 1241.72 3001.49 1236.42 3000.63 1231.5C2999.77 1226.96 2998.04 1222.79 2996.32 1219.01C2996.75 1218.63 2997.18 1218.25 2997.61 1217.87C3002.35 1219.39 3007.09 1220.52 3011.83 1221.66C3017.44 1222.41 3023.47 1223.17 3029.5 1223.17L3031.66 1220.14C3032.95 1218.63 3033.81 1216.74 3034.67 1215.22C3035.54 1213.33 3036.83 1211.81 3037.26 1209.92C3038.55 1206.14 3040.28 1202.73 3041.14 1198.94L3042 1195.54C3037.69 1191.75 3032.95 1188.34 3028.21 1185.69C3023.47 1183.04 3019.16 1181.15 3014.85 1179.26ZM2951.07 1205C2934.26 1205 2920.47 1192.89 2920.47 1178.12C2920.47 1163.36 2934.26 1151.24 2951.07 1151.24C2967.88 1151.24 2981.67 1163.36 2981.67 1178.12C2981.67 1193.26 2967.88 1205 2951.07 1205Z" fill="#323247"/>
<g id="Group_47">
<g id="Group_48">
<path id="Vector_174" d="M2811.01 1285.58H2766.6V1463.41H2811.01V1285.58Z" fill="#B83D5D"/>
<path id="Vector_175" d="M2748.93 1363.91H2701.18V1463.41H2748.93V1363.91Z" fill="#64648E"/>
<path id="Vector_176" d="M2682.55 1395.66H2634.8V1463.41H2682.55V1395.66Z" fill="#FD783D"/>
</g>
<g id="Group_49">
<g id="Group_50">
<path id="Vector_177" d="M2626.68 1435.04H2617.13" stroke="#FD783D" stroke-miterlimit="10"/>
<path id="Vector_178" d="M2592.78 1435.04H2556.49" stroke="#FD783D" stroke-miterlimit="10" stroke-dasharray="5.07 5.07"/>
<path id="Vector_179" d="M2544.55 1435.04H2535V1443.51" stroke="#FD783D" stroke-miterlimit="10"/>
<path id="Vector_180" d="M2535 1459.17V1578.14" stroke="#FD783D" stroke-miterlimit="10" stroke-dasharray="3.74 3.74"/>
<path id="Vector_181" d="M2535 1585.76V1594.23H2544.55" stroke="#FD783D" stroke-miterlimit="10"/>
<path id="Vector_182" d="M2560.79 1594.23H2617.13" stroke="#FD783D" stroke-miterlimit="10" stroke-dasharray="3.4 3.4"/>
<path id="Vector_183" d="M2625.25 1594.23H2634.8" stroke="#FD783D" stroke-miterlimit="10"/>
</g>
</g>
<g id="Group_51">
<path id="Vector_184" d="M2776.15 1586.61H2650.08V1606.51H2776.15V1586.61Z" fill="white"/>
<path id="Vector_185" d="M2737.47 1623.44H2650.08V1643.34H2737.47V1623.44Z" fill="white"/>
<path id="Vector_186" d="M2760.39 1660.28H2650.08V1680.18H2760.39V1660.28Z" fill="white"/>
<path id="Vector_187" d="M2809.1 1660.28H2783.31V1680.18H2809.1V1660.28Z" fill="#EBA154"/>
<path id="Vector_188" d="M2928 1660.28H2832.97V1680.18H2928V1660.28Z" fill="#EBA154"/>
<path id="Vector_189" d="M2927.52 1623.44H2765.16V1643.34H2927.52V1623.44Z" fill="#EBA154"/>
<path id="Vector_190" d="M2927.52 1586.61H2801.46V1606.51H2927.52V1586.61Z" fill="#EBA154"/>
</g>
</g>
<g id="stack-1">
<path id="Vector_191" d="M3256.2 1287H3162V1330.64H3256.2V1287Z" fill="#B83D5D"/>
<path id="Vector_192" d="M3256.2 1363.23H3162V1406.87H3256.2V1363.23Z" fill="#B83D5D"/>
<path id="Vector_193" d="M3256.2 1439.99H3162V1483.63H3256.2V1439.99Z" fill="#B83D5D"/>
<path id="Vector_194" d="M3256.2 1516.23H3162V1559.86H3256.2V1516.23Z" fill="#B83D5D"/>
<path id="Vector_195" d="M3256.2 1592.46H3162V1636.1H3256.2V1592.46Z" fill="white"/>
<path id="Vector_196" d="M3256.2 1668.69H3162V1712.33H3256.2V1668.69Z" fill="white"/>
<path id="Vector_197" d="M3256.2 1744.93H3162V1788.56H3256.2V1744.93Z" fill="white"/>
</g>
</g>
<g id="Group_52">
<g id="leaf">
<g id="Group_53">
<path id="Vector_198" d="M2383.4 1731.35C2363.16 1732.95 2346.04 1727.84 2332.04 1718.89C2274.76 1682.45 2262.93 1580.18 2262 1572.5C2262.62 1574.74 2268.23 1587.53 2327.68 1628.44C2332.66 1631.95 2337.02 1635.47 2341.37 1638.99C2341.37 1638.99 2341.37 1638.99 2341.69 1639.3C2393.05 1682.77 2383.4 1731.35 2383.4 1731.35Z" fill="#0C8068"/>
<path id="Vector_199" d="M2262 1571.87C2262 1571.87 2315.54 1706.42 2374.68 1720.49" stroke="#0A6D53" stroke-miterlimit="10"/>
<path id="Vector_200" opacity="0.5" d="M2383.4 1731.35C2363.16 1732.95 2346.04 1727.84 2332.04 1718.89C2343.55 1691.08 2341.37 1638.67 2341.37 1638.67C2341.37 1638.67 2341.37 1638.67 2341.69 1638.99C2393.05 1682.77 2383.4 1731.35 2383.4 1731.35Z" fill="#0A6D53"/>
</g>
<g id="Group_54">
<path id="Vector_201" d="M2534.99 1579.86C2534.67 1581.13 2534.05 1586.25 2532.5 1593.6C2524.09 1632.27 2493.59 1736.79 2411.72 1726.24C2411.72 1726.24 2410.48 1717.29 2412.97 1703.87C2417.01 1684.05 2430.09 1654.97 2469.62 1630.36C2528.45 1593.92 2534.36 1582.09 2534.99 1579.86Z" fill="#0C8068"/>
<path id="Vector_202" d="M2532.49 1588.17C2532.49 1588.17 2490.47 1700.03 2417.64 1722.72" stroke="#0A6D53" stroke-miterlimit="10"/>
<path id="Vector_203" opacity="0.5" d="M2532.5 1593.6C2524.09 1632.27 2493.59 1736.79 2411.72 1726.24C2411.72 1726.24 2410.48 1717.29 2412.97 1703.87C2481.14 1707.7 2532.5 1593.6 2532.5 1593.6Z" fill="#0A6D53"/>
</g>
<g id="Group_55">
<path id="Vector_204" d="M2407.36 1730.08C2405.18 1733.59 2375.3 1720.81 2361.92 1684.05C2353.83 1662 2351.65 1630.99 2365.03 1589.76C2400.2 1481.41 2385.57 1460.96 2385.26 1460.32C2385.89 1460.64 2416.39 1476.3 2436.31 1514.02C2457.79 1555.88 2466.19 1624.6 2407.36 1730.08Z" fill="#159A7A"/>
<path id="Vector_205" d="M2385.26 1460C2385.26 1460 2431.02 1519.45 2413.59 1632.27C2396.16 1745.1 2407.36 1730.08 2407.36 1730.08" stroke="#0C8068" stroke-miterlimit="10"/>
<path id="Vector_206" opacity="0.5" d="M2407.36 1730.08C2405.18 1733.59 2375.3 1720.81 2361.92 1684.05C2437.25 1706.1 2436.31 1514.02 2436.31 1514.02C2457.79 1555.89 2466.19 1624.6 2407.36 1730.08Z" fill="#0C8068"/>
</g>
</g>
<path id="Vector_207" d="M2465.26 1728.48V1815.09C2465.26 1840.34 2445.34 1861.12 2420.44 1861.12H2380.91C2364.72 1861.12 2350.71 1852.17 2342.62 1839.06C2338.57 1832.03 2336.08 1824.04 2336.08 1815.09V1728.48H2465.26Z" fill="#EBA154"/>
<path id="Vector_208" d="M2469.93 1717.29H2331.41C2329.55 1717.29 2327.99 1718.89 2327.99 1720.81V1725.28C2327.99 1727.2 2329.55 1728.8 2331.41 1728.8H2469.93C2471.8 1728.8 2473.35 1727.2 2473.35 1725.28V1720.81C2473.35 1718.57 2471.8 1717.29 2469.93 1717.29Z" fill="#EBA154"/>
<path id="Vector_209" d="M2465.26 1728.48V1815.09C2465.26 1840.34 2445.34 1861.12 2420.44 1861.12H2380.91C2364.72 1861.12 2350.71 1852.17 2342.62 1839.06C2437.25 1869.43 2457.79 1798.15 2454.05 1769.71C2450.32 1741.26 2416.39 1728.48 2416.39 1728.48H2465.26V1728.48Z" fill="#DC831E"/>
</g>
</g>
<g id="head-laptop">
<g id="Group_56">
<path id="Vector_210" d="M1967.04 1855.13H1966.87C1966.34 1855.13 1965.98 1855.13 1965.45 1855.13H1578.36C1573.24 1855.13 1568.64 1851.6 1565.64 1846.31C1563.34 1842.28 1562.1 1837.24 1562.1 1831.95V1831.69L1501.83 1588.77C1497.23 1570.13 1506.96 1550.72 1520.74 1550.72H1772.09C1780.57 1550.72 1788.17 1558.28 1791 1569.62L1856.04 1831.19C1856.04 1831.44 1856.22 1831.69 1856.22 1831.69H1966.16C1975.88 1831.95 1976.94 1853.62 1967.04 1855.13Z" fill="#80ABBD"/>
<path id="Vector_211" d="M1662.3 1758.63C1677.53 1751.16 1684.73 1723.77 1678.38 1697.45C1672.03 1671.13 1654.54 1655.85 1639.31 1663.32C1624.08 1670.78 1616.88 1698.17 1623.23 1724.49C1629.57 1750.81 1647.07 1766.1 1662.3 1758.63Z" fill="white"/>
<path id="Vector_212" d="M1965.81 1831.95H1855.87C1855.87 1831.95 1855.87 1831.69 1855.69 1831.44L1790.65 1569.88C1787.82 1558.54 1780.22 1550.98 1771.73 1550.98H1763.25C1763.25 1550.98 1781.98 1552.74 1786.76 1576.68C1791.53 1600.62 1855.69 1854.63 1855.69 1854.63L1860.46 1855.13H1965.45C1965.98 1855.13 1966.51 1855.13 1966.87 1855.13C1976.94 1853.87 1975.88 1831.95 1965.81 1831.95Z" fill="#4B7195"/>
</g>
<path id="Vector_213" opacity="0.4" d="M1967.04 1855.13H1966.87C1966.34 1855.13 1965.98 1855.13 1965.45 1855.13H1578.36C1573.24 1855.13 1568.64 1851.6 1565.64 1846.31C1794.36 1874.28 1771.91 1550.72 1771.91 1550.72C1780.39 1550.72 1787.99 1558.28 1790.82 1569.62L1855.87 1831.19C1855.87 1831.44 1856.04 1831.69 1856.04 1831.69H1964.22C1965.28 1839.76 1966.34 1847.32 1967.04 1855.13Z" fill="#5A93A0"/>
</g>
<g id="Group_57">
<path id="Vector_214" d="M3317 1908.07V1917.81C3317 1947.87 3298.65 1972 3275.8 1972H1170.2C1150.89 1972 1134.79 1954.64 1130.29 1931.78C1129.32 1927.55 1129 1922.89 1129 1918.23V1908.49C1129 1878.43 1147.35 1854.3 1170.2 1854.3H3275.47C3298.33 1854.3 3317 1878.43 3317 1908.07Z" fill="#47547C"/>
<path id="Vector_215" opacity="0.5" d="M3317 1908.07V1917.81C3317 1947.87 3298.65 1972 3275.8 1972H1170.2C1150.89 1972 1134.79 1954.64 1130.29 1931.78C1129.32 1922.89 1129 1918.23 1129 1918.23C2309.75 1972.42 3275.47 1854.3 3275.47 1854.3C3298.33 1854.3 3317 1878.43 3317 1908.07Z" fill="#2B2B3F"/>
</g>
<g id="head-box-2">
<path id="Vector_216" d="M2776.36 677H2650V705.255H2776.36V677Z" fill="white"/>
<path id="Vector_217" d="M2844.16 729.474H2650V757.729H2844.16V729.474Z" fill="white"/>
<path id="Vector_218" d="M2716.19 782.452H2650V810.707H2716.19V782.452Z" fill="white"/>
<path id="Vector_219" d="M2809.26 782.452H2743.07V810.707H2809.26V782.452Z" fill="#EBA154"/>
<path id="Vector_220" d="M2928 782.452H2832.93V810.707H2928V782.452Z" fill="#EBA154"/>
<path id="Vector_221" d="M2928 729.474H2870.23V757.728H2928V729.474Z" fill="#EBA154"/>
<path id="Vector_222" d="M2928 677H2801.64V705.255H2928V677Z" fill="#EBA154"/>
</g>
<g id="head-box-1">
<path id="Vector_223" d="M1577.2 119.602C1577.2 119.322 1577.2 119.041 1577.2 119.041C1577.2 118.761 1577.2 118.48 1577.2 118.48C1580.85 116.796 1584.5 115.112 1588.14 112.867C1592.09 110.341 1596.04 107.534 1599.69 104.447L1598.78 101.641C1597.86 98.2727 1596.65 95.1855 1595.43 92.0983C1594.83 90.695 1593.92 89.0111 1593 87.6078C1592.4 85.9239 1591.48 84.5206 1590.27 83.1173L1588.75 80.5914C1583.89 80.5914 1578.72 81.1527 1574.17 81.9947C1569.91 82.8367 1565.96 83.9593 1562.32 85.3626L1561.4 84.5206C1562.92 81.1527 1564.14 77.5042 1564.75 73.575C1565.66 69.3652 1566.27 64.5941 1566.27 60.1036L1563.53 58.7003C1562.01 57.8583 1560.49 57.0164 1558.67 56.1744C1557.15 55.3324 1555.33 54.7711 1553.81 53.9292C1550.47 52.8066 1547.12 51.4033 1543.48 50.842L1540.44 50C1536.79 53.3679 1533.76 57.0164 1531.32 60.6649C1528.89 64.0328 1527.07 67.4006 1525.25 70.7685C1524.94 70.7685 1524.64 70.7685 1524.64 70.7685C1524.34 70.7685 1524.03 70.7685 1524.03 70.7685C1522.51 67.4006 1520.39 64.0328 1517.96 60.6649C1515.22 57.0164 1512.18 53.3679 1508.84 50L1505.8 50.842C1502.16 51.4033 1498.81 52.8066 1495.47 53.9292C1493.95 54.4905 1492.13 55.3324 1490.61 56.1744C1489.09 56.7357 1487.27 57.5777 1485.75 58.7003L1483.01 60.1036C1483.01 64.5941 1483.62 69.3652 1484.53 73.575C1485.44 77.5042 1486.66 81.1527 1488.18 84.5206C1487.88 84.8012 1487.57 85.0819 1487.27 85.3626C1483.62 83.9593 1479.37 82.8367 1475.42 81.9947C1470.86 81.1527 1465.7 80.5914 1460.83 80.5914L1459.01 83.1173C1458.1 84.5206 1457.19 85.9239 1456.28 87.6078C1455.67 89.0111 1454.76 90.695 1454.15 92.0983C1452.93 95.1855 1451.41 98.2727 1450.81 101.641L1449.9 104.447C1453.54 107.815 1457.49 110.622 1461.44 112.867C1465.09 115.112 1468.73 116.796 1472.38 118.48C1472.38 118.761 1472.38 118.761 1472.38 119.041C1472.38 119.322 1472.38 119.602 1472.38 119.602C1468.73 121.006 1465.09 122.97 1461.44 125.216C1457.49 127.741 1453.54 130.548 1449.9 133.635L1450.81 136.442C1451.41 139.81 1452.93 142.897 1454.15 145.984C1454.76 147.387 1455.67 149.071 1456.28 150.475C1456.88 151.878 1457.8 153.562 1459.01 154.965L1460.83 157.491C1465.7 157.491 1470.86 156.93 1475.42 156.088C1479.67 155.246 1483.62 154.123 1487.27 152.72C1487.57 153 1487.88 153.281 1488.18 153.562C1486.66 156.93 1485.44 160.578 1484.53 164.507C1483.62 168.717 1483.01 173.488 1483.01 177.979L1485.75 179.663C1487.27 180.505 1488.79 181.347 1490.61 181.908C1492.13 182.75 1493.95 183.311 1495.47 184.153C1498.81 185.276 1502.16 186.679 1505.8 187.24L1508.84 188.082C1512.18 184.715 1515.52 181.066 1517.96 177.417C1520.39 174.05 1522.21 170.682 1524.03 167.314C1524.34 167.314 1524.64 167.314 1524.64 167.314C1524.94 167.314 1525.25 167.314 1525.25 167.314C1527.07 170.682 1528.89 174.05 1531.32 177.417C1534.06 181.066 1537.1 184.715 1540.44 188.082L1543.48 187.24C1547.12 186.679 1550.47 185.276 1553.81 184.153C1555.63 183.592 1557.15 182.75 1558.67 181.908C1560.19 181.347 1562.01 180.505 1563.53 179.663L1566.27 177.979C1566.27 173.488 1565.66 168.717 1564.75 164.507C1563.84 160.578 1562.62 156.93 1561.4 153.562C1561.71 153.281 1562.01 153 1562.32 152.72C1565.96 154.123 1569.91 155.246 1574.17 156.088C1578.72 156.93 1583.89 157.491 1588.75 157.491L1590.27 154.965C1591.18 153.562 1592.09 152.159 1593 150.475C1593.92 149.071 1594.52 147.387 1595.43 145.984C1596.65 142.897 1598.17 139.81 1598.78 136.442L1599.69 133.635C1596.04 130.548 1592.09 127.461 1588.14 125.216C1584.5 122.97 1580.85 121.286 1577.2 119.602ZM1524.94 142.055C1510.97 142.055 1499.73 131.671 1499.73 118.761C1499.73 105.85 1510.97 95.4661 1524.94 95.4661C1538.92 95.4661 1550.16 105.85 1550.16 118.761C1549.86 131.671 1538.92 142.055 1524.94 142.055Z" fill="#EBA154"/>
<path id="Vector_224" d="M1452.93 154.684H1284V308.764H1330.79" stroke="#FD783D" stroke-miterlimit="10" stroke-dasharray="4 4"/>
<path id="Vector_225" d="M1427.72 390.996H1334.74V406.432H1427.72V390.996Z" fill="white"/>
<path id="Vector_226" d="M1477.85 419.342H1334.74V434.778H1477.85V419.342Z" fill="white"/>
<path id="Vector_227" d="M1383.36 447.969H1334.74V463.405H1383.36V447.969Z" fill="white"/>
<path id="Vector_228" d="M1452.02 447.969H1403.41V463.405H1452.02V447.969Z" fill="#EBA154"/>
<path id="Vector_229" d="M1539.53 447.969H1469.65V463.405H1539.53V447.969Z" fill="#EBA154"/>
<path id="Vector_230" d="M1539.53 419.342H1496.99V434.778H1539.53V419.342Z" fill="#EBA154"/>
<path id="Vector_231" d="M1539.53 390.996H1446.55V406.432H1539.53V390.996Z" fill="#EBA154"/>
<path id="Vector_232" d="M1573.56 291.644H1570.52V462.844H1573.56V291.644Z" fill="white"/>
</g>
</g>
<defs>
<linearGradient id="paint0_linear_5_346" x1="-nan" y1="-nan" x2="-nan" y2="-nan" gradientUnits="userSpaceOnUse">
<stop stop-color="#F5BE3D"/>
<stop offset="1" stop-color="#DB1A6D"/>
</linearGradient>
<linearGradient id="paint1_linear_5_346" x1="-nan" y1="-nan" x2="-nan" y2="-nan" gradientUnits="userSpaceOnUse">
<stop stop-color="#F5BE3D"/>
<stop offset="1" stop-color="#DB1A6D"/>
</linearGradient>
<linearGradient id="paint2_linear_5_346" x1="-nan" y1="-nan" x2="-nan" y2="-nan" gradientUnits="userSpaceOnUse">
<stop stop-color="#F5BE3D"/>
<stop offset="1" stop-color="#DB1A6D"/>
</linearGradient>
<linearGradient id="paint3_linear_5_346" x1="-nan" y1="-nan" x2="-nan" y2="-nan" gradientUnits="userSpaceOnUse">
<stop stop-color="#F5BE3D"/>
<stop offset="1" stop-color="#DB1A6D"/>
</linearGradient>
<linearGradient id="paint4_linear_5_346" x1="4459.2" y1="373.211" x2="4983.33" y2="373.211" gradientUnits="userSpaceOnUse">
<stop stop-color="#FA667E"/>
<stop offset="1" stop-color="#7C1D7C"/>
</linearGradient>
<linearGradient id="paint5_linear_5_346" x1="4970.84" y1="458.328" x2="4213.46" y2="1038.98" gradientUnits="userSpaceOnUse">
<stop stop-color="#FA667E"/>
<stop offset="1" stop-color="#7C1D7C"/>
</linearGradient>
<linearGradient id="paint6_linear_5_346" x1="3524.76" y1="458.328" x2="4282.15" y2="1038.98" gradientUnits="userSpaceOnUse">
<stop stop-color="#FA667E"/>
<stop offset="1" stop-color="#7C1D7C"/>
</linearGradient>
<linearGradient id="paint7_linear_5_346" x1="4036.41" y1="373.211" x2="3512.28" y2="373.211" gradientUnits="userSpaceOnUse">
<stop stop-color="#FA667E"/>
<stop offset="1" stop-color="#7C1D7C"/>
</linearGradient>
</defs>
</svg>
