<svg width="3994" height="3602" viewBox="0 0 3994 3602" fill="none" xmlns="http://www.w3.org/2000/svg">
<g id="head-group-mob">
<g id="BACKGROUND">
<path id="Vector" d="M3994 0H2.96875V3602H3994V0Z" fill="#2B2B3F"/>
</g>
<g id="strips">
<path id="Vector_2" opacity="0.35" d="M3994 588H0V647H3994V588Z" fill="#1E1230"/>
<path id="Vector_3" opacity="0.35" d="M3994 687H0V748H3994V687Z" fill="#1E1230"/>
<path id="Vector_4" opacity="0.35" d="M3994 788H0V848H3994V788Z" fill="#1E1230"/>
<path id="Vector_5" opacity="0.35" d="M3994 889H0V947H3994V889Z" fill="#1E1230"/>
<path id="Vector_6" opacity="0.35" d="M3994 988H0V1046H3994V988Z" fill="#1E1230"/>
<path id="Vector_7" opacity="0.35" d="M3994 1087H0V1146H3994V1087Z" fill="#1E1230"/>
<path id="Vector_8" opacity="0.35" d="M3994 1186H0V1246H3994V1186Z" fill="#1E1230"/>
<path id="Vector_9" opacity="0.35" d="M3994 1286H0V1347H3994V1286Z" fill="#1E1230"/>
<path id="Vector_10" opacity="0.35" d="M3994 1387H0V1446H3994V1387Z" fill="#1E1230"/>
</g>
<g id="logo">
<g id="Group">
<g id="logo-text">
<path id="KAIVALAYA" d="M1640.21 942.363V864.728H1656.63V898.959H1657.65L1685.59 864.728H1705.26L1676.45 899.489L1705.6 942.363H1685.97L1664.7 910.445L1656.63 920.301V942.363H1640.21ZM1727.19 942.363H1709.6L1736.4 864.728H1757.56L1784.32 942.363H1766.73L1747.28 882.469H1746.68L1727.19 942.363ZM1726.09 911.847H1767.64V924.66H1726.09V911.847ZM1810.08 864.728V942.363H1793.66V864.728H1810.08ZM1837.61 864.728L1856.37 923.712H1857.09L1875.89 864.728H1894.09L1867.33 942.363H1846.17L1819.37 864.728H1837.61ZM1906.5 942.363H1888.91L1915.71 864.728H1936.86L1963.62 942.363H1946.03L1926.59 882.469H1925.98L1906.5 942.363ZM1905.4 911.847H1946.94V924.66H1905.4V911.847ZM1972.97 942.363V864.728H1989.38V928.83H2022.66V942.363H1972.97ZM2048.9 942.363H2031.31L2058.11 864.728H2079.26L2106.02 942.363H2088.43L2068.99 882.469H2068.38L2048.9 942.363ZM2047.8 911.847H2089.34V924.66H2047.8V911.847ZM2102.89 864.728H2121.28L2138.98 898.163H2139.74L2157.44 864.728H2175.83L2147.51 914.918V942.363H2131.21V914.918L2102.89 864.728ZM2190.25 942.363H2172.66L2199.46 864.728H2220.62L2247.38 942.363H2229.79L2210.34 882.469H2209.74L2190.25 942.363ZM2189.15 911.847H2230.7V924.66H2189.15V911.847Z" fill="#59EFD6"/>
<path id="2K22" d="M1639.59 1116.37V1104.85L1666.51 1079.93C1668.8 1077.72 1670.72 1075.73 1672.27 1073.95C1673.84 1072.18 1675.04 1070.45 1675.85 1068.75C1676.66 1067.03 1677.07 1065.17 1677.07 1063.17C1677.07 1060.96 1676.56 1059.05 1675.55 1057.45C1674.54 1055.83 1673.16 1054.58 1671.42 1053.72C1669.67 1052.84 1667.69 1052.39 1665.47 1052.39C1663.16 1052.39 1661.14 1052.86 1659.42 1053.8C1657.7 1054.73 1656.37 1056.07 1655.43 1057.82C1654.5 1059.57 1654.03 1061.65 1654.03 1064.06H1638.86C1638.86 1059.11 1639.98 1054.82 1642.22 1051.18C1644.46 1047.53 1647.59 1044.71 1651.63 1042.72C1655.67 1040.73 1660.32 1039.73 1665.58 1039.73C1671 1039.73 1675.71 1040.69 1679.72 1042.61C1683.76 1044.51 1686.9 1047.14 1689.14 1050.51C1691.38 1053.88 1692.5 1057.75 1692.5 1062.1C1692.5 1064.96 1691.93 1067.78 1690.8 1070.56C1689.69 1073.34 1687.71 1076.43 1684.86 1079.82C1682 1083.2 1677.98 1087.24 1672.78 1091.97L1661.74 1102.79V1103.3H1693.49V1116.37H1639.59ZM1705.52 1116.37V1040.76H1721.51V1074.1H1722.5L1749.71 1040.76H1768.87L1740.81 1074.62L1769.2 1116.37H1750.08L1729.37 1085.29L1721.51 1094.89V1116.37H1705.52ZM1776.75 1116.37V1104.85L1803.67 1079.93C1805.95 1077.72 1807.87 1075.73 1809.43 1073.95C1811 1072.18 1812.19 1070.45 1813.01 1068.75C1813.82 1067.03 1814.22 1065.17 1814.22 1063.17C1814.22 1060.96 1813.72 1059.05 1812.71 1057.45C1811.7 1055.83 1810.32 1054.58 1808.58 1053.72C1806.83 1052.84 1804.85 1052.39 1802.63 1052.39C1800.32 1052.39 1798.3 1052.86 1796.58 1053.8C1794.85 1054.73 1793.53 1056.07 1792.59 1057.82C1791.66 1059.57 1791.19 1061.65 1791.19 1064.06H1776.01C1776.01 1059.11 1777.13 1054.82 1779.37 1051.18C1781.61 1047.53 1784.75 1044.71 1788.79 1042.72C1792.82 1040.73 1797.48 1039.73 1802.74 1039.73C1808.16 1039.73 1812.87 1040.69 1816.88 1042.61C1820.92 1044.51 1824.06 1047.14 1826.3 1050.51C1828.54 1053.88 1829.66 1057.75 1829.66 1062.1C1829.66 1064.96 1829.09 1067.78 1827.96 1070.56C1826.85 1073.34 1824.87 1076.43 1822.01 1079.82C1819.16 1083.2 1815.14 1087.24 1809.94 1091.97L1798.9 1102.79V1103.3H1830.65V1116.37H1776.75ZM1842.24 1116.37V1104.85L1869.15 1079.93C1871.44 1077.72 1873.36 1075.73 1874.91 1073.95C1876.48 1072.18 1877.68 1070.45 1878.49 1068.75C1879.3 1067.03 1879.71 1065.17 1879.71 1063.17C1879.71 1060.96 1879.2 1059.05 1878.19 1057.45C1877.18 1055.83 1875.81 1054.58 1874.06 1053.72C1872.31 1052.84 1870.33 1052.39 1868.12 1052.39C1865.8 1052.39 1863.78 1052.86 1862.06 1053.8C1860.34 1054.73 1859.01 1056.07 1858.07 1057.82C1857.14 1059.57 1856.67 1061.65 1856.67 1064.06H1841.5C1841.5 1059.11 1842.62 1054.82 1844.86 1051.18C1847.1 1047.53 1850.23 1044.71 1854.27 1042.72C1858.31 1040.73 1862.96 1039.73 1868.23 1039.73C1873.64 1039.73 1878.35 1040.69 1882.37 1042.61C1886.4 1044.51 1889.54 1047.14 1891.78 1050.51C1894.02 1053.88 1895.14 1057.75 1895.14 1062.1C1895.14 1064.96 1894.57 1067.78 1893.44 1070.56C1892.33 1073.34 1890.35 1076.43 1887.5 1079.82C1884.64 1083.2 1880.62 1087.24 1875.42 1091.97L1864.39 1102.79V1103.3H1896.14V1116.37H1842.24Z" fill="#F7EEB0"/>
</g>
</g>
<g id="logo-strips">
<path id="Vector_11" d="M1551.23 1413.25H1285.33" stroke="url(#paint0_linear_5_346)" stroke-width="13.2051" stroke-miterlimit="10" stroke-linecap="round"/>
<path id="Vector_12" d="M1428.56 1319.4H1225.92" stroke="url(#paint1_linear_5_346)" stroke-width="13.2051" stroke-miterlimit="10" stroke-linecap="round"/>
<path id="Vector_13" d="M2341.88 626.473H2607.46" stroke="url(#paint2_linear_5_346)" stroke-width="13.2051" stroke-miterlimit="10" stroke-linecap="round"/>
<path id="Vector_14" d="M2464.55 719.881H2667.19" stroke="url(#paint3_linear_5_346)" stroke-width="13.2051" stroke-miterlimit="10" stroke-linecap="round"/>
<path id="Vector_15" opacity="0.5" d="M1551.23 1413.25H1285.33" stroke="#1E1230" stroke-width="5" stroke-miterlimit="10" stroke-linecap="round"/>
<path id="Vector_16" opacity="0.5" d="M1428.56 1319.4H1225.92" stroke="#1E1230" stroke-width="5" stroke-miterlimit="10" stroke-linecap="round"/>
<path id="Vector_17" opacity="0.5" d="M2341.88 626.473H2607.46" stroke="#1E1230" stroke-width="5" stroke-miterlimit="10" stroke-linecap="round"/>
<path id="Vector_18" opacity="0.5" d="M2464.55 719.881H2667.19" stroke="#1E1230" stroke-width="5" stroke-miterlimit="10" stroke-linecap="round"/>
</g>
<g id="r-top">
<path id="Vector_19" d="M2586.91 1190.06L2156.58 588.302L2224.02 493.997C2254.53 451.334 2303.66 451.334 2334.17 493.997L2655.63 943.52C2685.18 984.835 2685.18 1052.2 2655.63 1093.96L2586.91 1190.06Z" fill="url(#paint4_linear_5_346)"/>
<path id="Vector_20" opacity="0.5" d="M2586.91 1190.06L2156.9 588.751L2189.34 542.946L2586.91 1190.06Z" fill="#1E1230"/>
</g>
<g id="r-bot">
<path id="Vector_21" d="M2338.35 1537.65L2655.63 1093.96C2685.18 1052.65 2685.18 985.284 2655.63 943.52L2586.91 847.418L2156.58 1449.18L2219.84 1537.65C2252.92 1583.45 2305.59 1583.45 2338.35 1537.65Z" fill="url(#paint5_linear_5_346)"/>
<path id="Vector_22" opacity="0.5" d="M2586.91 1190.06L2464.55 1018.96L2156.9 1449.18L2220.17 1537.65C2252.92 1583.45 2305.59 1583.45 2338.35 1537.65L2586.91 1190.06Z" fill="#1E1230"/>
<path id="Vector_23" opacity="0.5" d="M2586.91 1190.06L2464.55 1018.96L2156.9 1449.18L2586.91 1190.06Z" fill="#1E1230"/>
<path id="Vector_24" opacity="0.5" d="M2586.91 1190.06L2438.86 1053.54L2464.55 1018.96L2586.91 1190.06Z" fill="#1E1230"/>
<path id="Vector_25" d="M2607.46 1079.59C2631.4 1079.59 2650.81 1052.45 2650.81 1018.96C2650.81 985.482 2631.4 958.339 2607.46 958.339C2583.52 958.339 2564.11 985.482 2564.11 1018.96C2564.11 1052.45 2583.52 1079.59 2607.46 1079.59Z" fill="#1E1230"/>
<path id="Vector_26" d="M2607.46 975.404C2629.3 975.404 2647.28 997.858 2650.17 1027.5C2650.49 1024.8 2650.49 1022.11 2650.49 1018.96C2650.49 985.733 2631.22 958.339 2607.14 958.339C2583.37 958.339 2563.78 985.284 2563.78 1018.96C2563.78 1021.66 2564.11 1024.8 2564.11 1027.5C2567.64 997.858 2585.62 975.404 2607.46 975.404Z" fill="#1E1230"/>
</g>
<g id="l-bot">
<path id="Vector_27" opacity="0.5" d="M1306.2 1190.06L1428.56 1018.96L1736.21 1449.18L1672.95 1537.65C1640.19 1583.45 1587.52 1583.45 1554.77 1537.65L1306.2 1190.06Z" fill="#1E1230"/>
<path id="Vector_28" opacity="0.5" d="M1306.2 1190.06L1428.56 1018.96L1736.21 1449.18L1306.2 1190.06Z" fill="#1E1230"/>
<path id="Vector_29" d="M1554.77 1537.65L1237.48 1093.96C1207.94 1052.65 1207.94 985.284 1237.48 943.52L1306.2 847.418L1736.53 1449.18L1673.27 1537.65C1640.19 1583.45 1587.2 1583.45 1554.77 1537.65Z" fill="url(#paint6_linear_5_346)"/>
<path id="Vector_30" opacity="0.5" d="M1306.2 1190.06L1453.93 1053.54L1428.56 1018.96L1306.2 1190.06Z" fill="#1E1230"/>
</g>
<g id="l-top">
<path id="vector" d="M1306.2 1190.06L1736.53 588.302L1669.09 493.997C1638.58 451.334 1589.45 451.334 1558.94 493.997L1237.16 943.52C1207.61 984.835 1207.61 1052.2 1237.16 1093.96L1306.2 1190.06Z" fill="url(#paint7_linear_5_346)"/>
<path id="Vector_31" opacity="0.5" d="M1306.2 1190.06L1736.21 588.751L1703.45 542.946L1306.2 1190.06Z" fill="#1E1230"/>
<path id="Vector_32" d="M1280.83 1079.59C1304.78 1079.59 1324.19 1052.45 1324.19 1018.96C1324.19 985.482 1304.78 958.34 1280.83 958.34C1256.89 958.34 1237.48 985.482 1237.48 1018.96C1237.48 1052.45 1256.89 1079.59 1280.83 1079.59Z" fill="#1E1230"/>
<path id="Vector_33" d="M1280.83 958.34C1257.07 958.34 1237.48 985.284 1237.48 1018.96C1237.48 1021.66 1237.8 1024.8 1237.8 1027.5C1240.69 998.307 1258.68 975.404 1280.51 975.404C1302.35 975.404 1320.33 997.858 1323.22 1027.5C1323.55 1024.8 1323.55 1022.11 1323.55 1018.96C1324.19 985.284 1304.6 958.34 1280.83 958.34Z" fill="#1E1230"/>
</g>
</g>
<g id="motion-ani">
<g id="Group_2">
<path id="&#60;/&#62;" d="M1911.67 2800.46L1903.96 2803.11L1911.67 2805.75V2810.08L1898.69 2805.37V2800.84L1911.67 2796.14V2800.46ZM1920.45 2790.59H1925.54L1917.14 2814.55H1912.05L1920.45 2790.59ZM1938.65 2800.84V2805.37L1925.67 2810.08V2805.75L1933.38 2803.11L1925.67 2800.46V2796.14L1938.65 2800.84Z" fill="#323247"/>
</g>
<g id="Group_3">
<path id="Vector_34" d="M1998.09 1996.43H1922.72V2020.89H1998.09V1996.43Z" fill="#47547C"/>
<path id="Vector_35" d="M2153.27 1952.67H1922.72V1977.14H2153.27V1952.67Z" fill="#64648E"/>
<g id="Group_4">
<g id="Group_5">
<path id="Vector_36" d="M2056.13 2026.07V2035.48" stroke="#FD783D" stroke-miterlimit="10"/>
<path id="Vector_37" d="M2056.13 2051V2106.99" stroke="#FD783D" stroke-miterlimit="10" stroke-dasharray="3.38 3.38"/>
<path id="Vector_38" d="M2056.13 2114.52V2123.93H2064.19" stroke="#FD783D" stroke-miterlimit="10"/>
<path id="Vector_39" d="M2079.51 2123.93H2317.31" stroke="#FD783D" stroke-miterlimit="10" stroke-dasharray="3.81 3.81"/>
<path id="Vector_40" d="M2324.96 2123.93H2333.03V2114.52" stroke="#FD783D" stroke-miterlimit="10"/>
<path id="Vector_41" d="M2333.03 2095.7V2067" stroke="#FD783D" stroke-miterlimit="10" stroke-dasharray="4.06 4.06"/>
<path id="Vector_42" d="M2333.03 2057.59V2048.18" stroke="#FD783D" stroke-miterlimit="10"/>
</g>
</g>
<path id="CSS" d="M1944.44 1851.82C1940.64 1851.82 1937.21 1851.03 1934.16 1849.46C1931.1 1847.85 1928.7 1845.62 1926.96 1842.77C1925.24 1839.89 1924.38 1836.63 1924.38 1833C1924.38 1829.37 1925.24 1826.13 1926.96 1823.28C1928.7 1820.4 1931.1 1818.17 1934.16 1816.6C1937.21 1814.98 1940.64 1814.18 1944.44 1814.18C1947.94 1814.18 1951.06 1814.8 1953.8 1816.03C1956.54 1817.26 1958.81 1819.05 1960.59 1821.38L1952.93 1828.22C1950.7 1825.41 1948.07 1824 1945.06 1824C1942.52 1824 1940.48 1824.82 1938.94 1826.47C1937.4 1828.08 1936.62 1830.26 1936.62 1833C1936.62 1835.74 1937.4 1837.94 1938.94 1839.58C1940.48 1841.19 1942.52 1842 1945.06 1842C1948.07 1842 1950.7 1840.59 1952.93 1837.78L1960.59 1844.62C1958.81 1846.95 1956.54 1848.74 1953.8 1849.97C1951.06 1851.21 1947.94 1851.82 1944.44 1851.82ZM1977.01 1851.82C1974.03 1851.82 1971.12 1851.5 1968.27 1850.85C1965.46 1850.16 1963.14 1849.25 1961.33 1848.12L1965.24 1839.27C1966.95 1840.27 1968.87 1841.07 1971 1841.69C1973.12 1842.27 1975.16 1842.57 1977.12 1842.57C1978.8 1842.57 1980 1842.41 1980.72 1842.1C1981.44 1841.76 1981.8 1841.26 1981.8 1840.61C1981.8 1839.86 1981.32 1839.29 1980.36 1838.91C1979.43 1838.54 1977.89 1838.13 1975.73 1837.68C1972.95 1837.1 1970.64 1836.48 1968.78 1835.83C1966.93 1835.14 1965.32 1834.05 1963.95 1832.54C1962.58 1831 1961.89 1828.92 1961.89 1826.32C1961.89 1824.05 1962.53 1822 1963.8 1820.14C1965.06 1818.29 1966.95 1816.84 1969.45 1815.77C1971.99 1814.71 1975.06 1814.18 1978.66 1814.18C1981.13 1814.18 1983.54 1814.45 1985.91 1815C1988.31 1815.52 1990.42 1816.29 1992.24 1817.32L1988.58 1826.11C1985.05 1824.33 1981.71 1823.44 1978.56 1823.44C1975.44 1823.44 1973.88 1824.19 1973.88 1825.7C1973.88 1826.42 1974.34 1826.97 1975.26 1827.34C1976.19 1827.69 1977.72 1828.06 1979.84 1828.48C1982.58 1828.99 1984.9 1829.59 1986.78 1830.28C1988.67 1830.93 1990.3 1832.01 1991.67 1833.51C1993.08 1835.02 1993.78 1837.08 1993.78 1839.69C1993.78 1841.95 1993.14 1844.01 1991.88 1845.86C1990.61 1847.67 1988.7 1849.13 1986.17 1850.23C1983.66 1851.29 1980.61 1851.82 1977.01 1851.82ZM2010.81 1851.82C2007.83 1851.82 2004.92 1851.5 2002.07 1850.85C1999.26 1850.16 1996.94 1849.25 1995.13 1848.12L1999.04 1839.27C2000.75 1840.27 2002.67 1841.07 2004.8 1841.69C2006.92 1842.27 2008.96 1842.57 2010.91 1842.57C2012.59 1842.57 2013.79 1842.41 2014.51 1842.1C2015.23 1841.76 2015.59 1841.26 2015.59 1840.61C2015.59 1839.86 2015.11 1839.29 2014.15 1838.91C2013.23 1838.54 2011.69 1838.13 2009.53 1837.68C2006.75 1837.1 2004.44 1836.48 2002.58 1835.83C2000.73 1835.14 1999.12 1834.05 1997.75 1832.54C1996.38 1831 1995.69 1828.92 1995.69 1826.32C1995.69 1824.05 1996.33 1822 1997.6 1820.14C1998.86 1818.29 2000.75 1816.84 2003.25 1815.77C2005.79 1814.71 2008.86 1814.18 2012.46 1814.18C2014.93 1814.18 2017.34 1814.45 2019.71 1815C2022.11 1815.52 2024.22 1816.29 2026.03 1817.32L2022.38 1826.11C2018.85 1824.33 2015.51 1823.44 2012.35 1823.44C2009.23 1823.44 2007.67 1824.19 2007.67 1825.7C2007.67 1826.42 2008.14 1826.97 2009.06 1827.34C2009.99 1827.69 2011.51 1828.06 2013.64 1828.48C2016.38 1828.99 2018.7 1829.59 2020.58 1830.28C2022.47 1830.93 2024.1 1832.01 2025.47 1833.51C2026.87 1835.02 2027.58 1837.08 2027.58 1839.69C2027.58 1841.95 2026.94 1844.01 2025.67 1845.86C2024.41 1847.67 2022.5 1849.13 2019.97 1850.23C2017.46 1851.29 2014.41 1851.82 2010.81 1851.82Z" fill="white"/>
<g id="css-circle">
<g id="Group_6">
<path id="Vector_43" d="M2411.37 1946.76C2410.45 1943.54 2409.53 1940.32 2408.16 1937.56C2404.5 1928.83 2399 1921.47 2392.58 1915.49C2386.63 1909.51 2379.76 1904.91 2372.43 1901.24H2371.97C2361.43 1896.64 2349.98 1894.34 2338.07 1894.8C2329.82 1895.26 2322.03 1897.1 2314.24 1900.32C2313.79 1900.32 2313.33 1900.78 2312.87 1900.78C2298.67 1907.21 2287.67 1917.33 2280.34 1929.75C2271.18 1944.92 2267.52 1963.31 2271.18 1981.25C2272.1 1986.31 2273.93 1991.36 2276.22 1996.42C2292.25 2032.75 2335.32 2049.3 2371.51 2033.21C2393.5 2023.09 2408.62 2003.32 2412.74 1981.25C2415.03 1969.75 2414.57 1958.26 2411.37 1946.76ZM2362.35 2012.98C2337.15 2024.47 2307.37 2012.98 2295.92 1987.69C2295 1985.39 2294.09 1983.55 2293.63 1981.25C2289.51 1967.91 2291.8 1954.12 2298.21 1942.62C2298.21 1942.62 2298.21 1942.62 2298.21 1942.16C2303.25 1932.96 2311.04 1925.61 2321.12 1921.01C2322.95 1920.09 2324.78 1919.63 2327.07 1918.71H2327.53C2337.61 1915.95 2348.15 1915.95 2357.31 1919.17C2365.55 1921.93 2372.88 1926.53 2378.84 1933.42C2382.05 1937.1 2385.25 1941.7 2387.54 1946.76C2388.92 1949.98 2389.84 1952.74 2390.75 1955.96C2392.58 1964.69 2392.13 1973.43 2389.84 1981.25C2385.71 1994.58 2376.09 2006.54 2362.35 2012.98Z" fill="#64648E"/>
</g>
<path id="Vector_44" d="M2412.74 1981.25H2389.83C2392.13 1972.97 2392.58 1964.23 2390.75 1955.96C2389.83 1952.74 2388.92 1949.52 2387.54 1946.76C2385.25 1941.7 2382.5 1937.56 2378.84 1933.42C2372.88 1926.99 2365.55 1921.93 2357.31 1919.17C2347.69 1915.95 2337.61 1915.49 2327.53 1918.71H2327.07C2325.24 1919.17 2323.41 1920.09 2321.12 1921.01C2311.04 1925.61 2303.25 1932.96 2298.21 1942.16C2298.21 1942.16 2298.21 1942.16 2298.21 1942.62C2291.8 1954.12 2289.96 1967.91 2293.63 1981.25H2270.72C2267.06 1963.31 2270.72 1944.92 2279.88 1929.75C2287.21 1917.33 2298.21 1907.21 2312.41 1900.78C2312.87 1900.78 2313.33 1900.32 2313.79 1900.32C2321.57 1897.1 2329.82 1895.26 2337.61 1894.8C2349.52 1894.34 2360.97 1896.64 2371.51 1901.24H2371.97C2379.3 1904.46 2386.17 1909.51 2392.13 1915.49C2398.54 1921.47 2403.58 1929.29 2407.7 1937.56C2409.08 1940.78 2409.99 1943.54 2410.91 1946.76C2414.57 1958.26 2415.03 1969.75 2412.74 1981.25Z" fill="#B83D5D"/>
</g>
<path id="Vector_45" d="M2153.27 1996.43H2013.41V2020.89H2153.27V1996.43Z" fill="#64648E"/>
</g>
<g id="Group_7">
<path id="{ }" d="M1023.22 1837.14C1023.22 1838.18 1023.05 1838.97 1022.71 1839.52C1022.38 1840.07 1021.83 1840.45 1021.08 1840.68C1021.83 1840.91 1022.38 1841.3 1022.71 1841.84C1023.05 1842.39 1023.22 1843.18 1023.22 1844.22V1846.73C1023.22 1847.31 1023.37 1847.76 1023.69 1848.08C1024.01 1848.39 1024.48 1848.55 1025.09 1848.55H1025.36V1853.04H1023.4C1021.38 1853.04 1019.84 1852.56 1018.81 1851.59C1017.77 1850.62 1017.25 1849.23 1017.25 1847.42V1844.09C1017.25 1843.7 1017.14 1843.41 1016.93 1843.22C1016.74 1843.02 1016.46 1842.93 1016.11 1842.93H1015.24V1838.44H1016.11C1016.46 1838.44 1016.74 1838.34 1016.93 1838.15C1017.14 1837.95 1017.25 1837.66 1017.25 1837.28V1833.95C1017.25 1832.13 1017.77 1830.74 1018.81 1829.77C1019.84 1828.81 1021.38 1828.32 1023.4 1828.32H1025.36V1832.81H1025.09C1024.48 1832.81 1024.01 1832.97 1023.69 1833.29C1023.37 1833.6 1023.22 1834.05 1023.22 1834.63V1837.14ZM1043.93 1838.44V1842.93H1043.06C1042.71 1842.93 1042.42 1843.02 1042.21 1843.22C1042.02 1843.41 1041.92 1843.7 1041.92 1844.09V1847.42C1041.92 1849.23 1041.4 1850.62 1040.36 1851.59C1039.33 1852.56 1037.79 1853.04 1035.77 1853.04H1033.81V1848.55H1034.08C1034.69 1848.55 1035.16 1848.39 1035.48 1848.08C1035.8 1847.76 1035.95 1847.31 1035.95 1846.73V1844.22C1035.95 1843.18 1036.12 1842.39 1036.46 1841.84C1036.79 1841.3 1037.34 1840.91 1038.09 1840.68C1037.34 1840.45 1036.79 1840.07 1036.46 1839.52C1036.12 1838.97 1035.95 1838.18 1035.95 1837.14V1834.63C1035.95 1834.05 1035.8 1833.6 1035.48 1833.29C1035.16 1832.97 1034.69 1832.81 1034.08 1832.81H1033.81V1828.32H1035.77C1037.79 1828.32 1039.33 1828.81 1040.36 1829.77C1041.4 1830.74 1041.92 1832.13 1041.92 1833.95V1837.28C1041.92 1837.66 1042.02 1837.95 1042.21 1838.15C1042.42 1838.34 1042.71 1838.44 1043.06 1838.44H1043.93Z" fill="#323247"/>
<g id="stack-2">
<path id="Vector_46" d="M1074.07 2039.22H1013.58V2077.11H1074.07V2039.22Z" fill="white"/>
<path id="Vector_47" d="M1074.07 2105.72H1013.58V2143.62H1074.07V2105.72Z" fill="white"/>
<path id="Vector_48" d="M1074.07 2171.84H1013.58V2209.74H1074.07V2171.84Z" fill="#EBA154"/>
<path id="Vector_49" d="M1074.07 2237.97H1013.58V2275.86H1074.07V2237.97Z" fill="#EBA154"/>
<path id="Vector_50" d="M1074.07 2304.09H1013.58V2341.98H1074.07V2304.09Z" fill="#EBA154"/>
<path id="Vector_51" d="M1074.07 2370.59H1013.58V2408.49H1074.07V2370.59Z" fill="#EBA154"/>
<path id="Vector_52" d="M1074.07 2436.71H1013.58V2474.61H1074.07V2436.71Z" fill="#EBA154"/>
</g>
</g>
<g id="items">
<g id="Group_8">
<path id="Vector_53" d="M1899.28 3018.85C1896.57 3083.07 1838.6 3132.17 1795.08 3135.11C1737.66 3139.04 1696.67 3082.68 1690.89 3018.85C1686.01 2963.47 1704.07 2964.26 1717.43 2941.28C1733.69 2913.39 1764.2 2897.88 1794.9 2897.88C1852.51 2897.88 1902.89 2932.44 1899.28 3018.85Z" fill="#B83D5D"/>
<path id="Vector_54" d="M1835.54 3129.02H1754.81V3238.8H1835.54V3129.02Z" fill="#E3B5AA"/>
<g id="Group_9">
<g id="Group_10">
<path id="Vector_55" d="M1885.74 3065C1900.18 3041.24 1918.42 3040.26 1926.01 3068.34C1933.59 3096.42 1908.49 3119.6 1887.9 3110.96C1867.32 3102.51 1885.74 3065 1885.74 3065Z" fill="#E3B5AA"/>
<path id="Vector_56" d="M1902.71 3065.59C1912.28 3063.63 1917.34 3094.85 1896.21 3096.03L1900.55 3085.03L1896.39 3076L1902.71 3065.59Z" fill="#D78F97"/>
<path id="Vector_57" d="M1892.96 3100.35C1905.24 3086.02 1896.39 3076.2 1896.39 3076.2C1896.39 3076.2 1908.13 3050.08 1912.82 3070.11" stroke="#C87E84" stroke-width="0.5" stroke-miterlimit="10"/>
</g>
</g>
<g id="Group_11">
<g id="Group_12">
<path id="Vector_58" d="M1703.71 3065C1689.26 3041.24 1671.02 3040.26 1663.44 3068.34C1655.86 3096.42 1680.96 3119.6 1701.54 3110.96C1722.13 3102.51 1703.71 3065 1703.71 3065Z" fill="#E3B5AA"/>
<path id="Vector_59" d="M1686.74 3065.59C1677.16 3063.63 1672.11 3094.85 1693.24 3096.03L1688.9 3085.03L1693.06 3076L1686.74 3065.59Z" fill="#D78F97"/>
<path id="Vector_60" d="M1696.49 3100.35C1684.21 3086.02 1693.06 3076.2 1693.06 3076.2C1693.06 3076.2 1681.32 3050.08 1676.62 3070.11" stroke="#C87E84" stroke-width="0.5" stroke-miterlimit="10"/>
</g>
</g>
<path id="Vector_61" d="M1835.35 3131.58V3172.43C1806.28 3215.24 1754.63 3201.29 1754.63 3201.29L1755.54 3131.58H1835.35Z" fill="#C87E84"/>
<path id="Vector_62" d="M1795.08 3178.32C1746.87 3178.32 1707.86 3135.9 1707.86 3083.46V3014.14C1707.86 2978.79 1734.23 2950.12 1766.73 2950.12H1823.44C1855.94 2950.12 1882.31 2978.79 1882.31 3014.14V3083.46C1882.31 3135.9 1843.3 3178.32 1795.08 3178.32Z" fill="#E3B5AA"/>
<path id="Vector_63" d="M1808.45 3095.84C1808.45 3103.89 1802.49 3110.37 1795.08 3110.37C1787.68 3110.37 1781.72 3103.89 1781.72 3095.84" stroke="#B83D5D" stroke-miterlimit="10"/>
<path id="Vector_64" d="M1717.07 2954.44C1717.07 2954.44 1701.72 2926.94 1720.87 2902.59C1720.87 2902.59 1734.77 2930.28 1717.07 2954.44Z" fill="#B83D5D"/>
<path id="Vector_65" d="M1724.84 2947.76C1724.84 2947.76 1703.53 2970.15 1677.53 2955.22C1677.53 2955.22 1699.2 2934.6 1724.84 2947.76Z" fill="#B83D5D"/>
<path id="Vector_66" d="M1750.12 3098.98C1769.47 3098.98 1785.15 3081.92 1785.15 3060.88C1785.15 3039.84 1769.47 3022.78 1750.12 3022.78C1730.77 3022.78 1715.09 3039.84 1715.09 3060.88C1715.09 3081.92 1730.77 3098.98 1750.12 3098.98Z" stroke="white" stroke-width="4" stroke-miterlimit="10"/>
<g id="eyes">
<path id="Vector_67" d="M1753.55 3076C1757.34 3076 1760.41 3069.67 1760.41 3061.86C1760.41 3054.05 1757.34 3047.72 1753.55 3047.72C1749.76 3047.72 1746.69 3054.05 1746.69 3061.86C1746.69 3069.67 1749.76 3076 1753.55 3076Z" fill="#36364F"/>
<path id="Vector_68" d="M1836.62 3076C1840.41 3076 1843.48 3069.67 1843.48 3061.86C1843.48 3054.05 1840.41 3047.72 1836.62 3047.72C1832.83 3047.72 1829.76 3054.05 1829.76 3061.86C1829.76 3069.67 1832.83 3076 1836.62 3076Z" fill="#36364F"/>
</g>
<path id="Vector_69" d="M1840.05 3098.98C1859.4 3098.98 1875.08 3081.92 1875.08 3060.88C1875.08 3039.84 1859.4 3022.78 1840.05 3022.78C1820.7 3022.78 1805.02 3039.84 1805.02 3060.88C1805.02 3081.92 1820.7 3098.98 1840.05 3098.98Z" stroke="white" stroke-width="4" stroke-miterlimit="10"/>
<path id="Vector_70" d="M1718.7 2977.22C1718.7 2977.22 1774.14 2945.4 1810.98 2968.38C1847.81 2991.36 1851.97 3038.88 1888.27 3026.71C1888.27 3026.71 1915.89 3013.55 1885.56 2967.4C1855.22 2921.25 1834.45 2912.41 1794.9 2922.43C1755.36 2932.44 1729.53 2940.3 1718.7 2977.22Z" fill="#B83D5D"/>
<path id="Vector_71" d="M1716.53 2976.83C1716.53 2976.83 1734.77 2950.51 1760.41 2943.44C1786.06 2936.37 1814.41 2970.74 1814.41 2970.74C1814.41 2970.74 1748.86 2960.53 1716.53 2976.83Z" fill="#9A304F"/>
<path id="Vector_72" d="M1708.04 3010.01C1708.04 3010.01 1714.18 3058.91 1708.04 3088.77C1708.04 3088.77 1699.01 3012.76 1708.04 3010.01Z" fill="#B83D5D"/>
<path id="Vector_73" d="M1881.76 3010.01C1881.76 3010.01 1875.63 3058.91 1881.76 3088.77C1881.76 3088.77 1890.61 3012.76 1881.76 3010.01Z" fill="#B83D5D"/>
<path id="Vector_74" d="M1769.26 3006.09C1759.69 3001.18 1742.9 2995.68 1727.19 3007.85C1724.48 3009.82 1725.56 3014.34 1728.81 3014.92C1733.87 3015.91 1741.09 3016.89 1749.22 3016.69C1755.54 3016.69 1763.12 3014.92 1768.72 3013.35C1771.79 3012.57 1772.33 3007.66 1769.26 3006.09Z" fill="#B83D5D"/>
<path id="Vector_75" d="M1861.18 3006.09C1851.61 3001.18 1834.81 2995.68 1819.1 3007.85C1816.39 3009.82 1817.48 3014.34 1820.73 3014.92C1825.78 3015.91 1833.01 3016.89 1841.13 3016.69C1847.45 3016.69 1855.04 3014.92 1860.64 3013.35C1863.71 3012.57 1864.25 3007.66 1861.18 3006.09Z" fill="#B83D5D"/>
<g id="Group_13">
<g id="Group_14">
<path id="Vector_76" d="M1824.52 3130.2C1823.62 3131.97 1822.53 3133.74 1821.09 3135.7C1816.39 3141.79 1808.45 3147.68 1794.9 3147.88H1793.82C1781.18 3147.68 1773.23 3142.38 1768.54 3136.68C1766.73 3134.52 1765.29 3132.17 1764.39 3130.2C1762.04 3125.49 1761.5 3121.76 1761.5 3121.76L1827.41 3121.95C1827.41 3121.76 1826.87 3125.49 1824.52 3130.2Z" fill="#C33E5D"/>
</g>
<path id="Vector_77" d="M1824.52 3130.2C1823.62 3131.97 1822.53 3133.74 1821.09 3135.7C1805.92 3128.44 1787.86 3127.06 1768.54 3136.68C1766.73 3134.52 1765.29 3132.17 1764.39 3130.2C1762.04 3125.49 1761.5 3121.76 1761.5 3121.76L1827.41 3121.96C1827.41 3121.76 1826.87 3125.49 1824.52 3130.2Z" fill="#36364F"/>
</g>
<path id="Vector_78" d="M2074.99 3511.78L1484.48 3512.37C1484.48 3512.37 1495.5 3487.23 1511.39 3454.04C1512.47 3451.49 1513.74 3449.13 1515 3446.58C1536.67 3401.61 1565.74 3344.85 1588.5 3314.22C1614.68 3278.87 1676.62 3253.53 1718.52 3239.79C1743.08 3231.73 1760.77 3227.61 1760.77 3227.61H1828.67C1828.67 3227.61 1844.56 3231.34 1867.14 3238.61C1909.21 3252.16 1971.88 3279.85 2000.95 3314.22C2007.27 3321.88 2013.41 3330.91 2019.01 3341.12C2054.94 3405.93 2074.99 3511.78 2074.99 3511.78Z" fill="#EBA154"/>
<path id="Vector_79" opacity="0.5" d="M2074.99 3511.78L1484.48 3512.37C1484.48 3512.37 1495.5 3487.23 1511.39 3454.04C1806.1 3548.31 1961.22 3393.95 1996.8 3352.12C2002.57 3345.44 2010.52 3341.32 2018.83 3341.12H2019.01C2054.94 3405.93 2074.99 3511.78 2074.99 3511.78Z" fill="#D9751F"/>
<path id="Vector_80" d="M1785.87 3067.36H1804.29" stroke="white" stroke-width="4" stroke-miterlimit="10"/>
<path id="Vector_81" d="M1867.14 3238.61C1794 3326 1718.7 3239.79 1718.7 3239.79C1743.26 3231.73 1760.95 3227.61 1760.95 3227.61H1828.67C1828.67 3227.61 1844.75 3231.34 1867.14 3238.61Z" fill="#E3B5AA"/>
<g id="Group_15">
<path id="Vector_82" d="M1633.64 3413V3512.57" stroke="#DC831E" stroke-width="3" stroke-miterlimit="10"/>
<path id="Vector_83" d="M1633.64 3476.43L1609.08 3442.26" stroke="#DC831E" stroke-width="3" stroke-miterlimit="10"/>
</g>
<g id="Group_16">
<path id="Vector_84" d="M1954.72 3413V3512.57" stroke="#DC831E" stroke-width="3" stroke-miterlimit="10"/>
<path id="Vector_85" d="M1954.72 3476.43L1976.75 3446.19" stroke="#DC831E" stroke-width="3" stroke-miterlimit="10"/>
</g>
<path id="Vector_86" d="M1715.27 3277.89C1715.27 3277.89 1805.92 3345.25 1867.32 3274.55" stroke="#DC831E" stroke-width="3" stroke-miterlimit="10"/>
<path id="x" d="M1891.68 3372.03L1886.45 3364.71L1881.03 3372.03H1873.48L1882.67 3360.01L1873.8 3348.15H1881.56L1886.62 3355.12L1891.82 3348.15H1899.18L1890.31 3359.83L1899.54 3372.03H1891.68Z" fill="white"/>
<path id="Vector_87" d="M1716.53 2935.98C1736.94 2842.89 1940.82 2853.3 1902.71 3034.37C1891.34 3088.57 1808.27 2911.04 1736.58 2954.63C1731.16 2957.97 1724.48 2956.99 1720.14 2952.47C1715.99 2948.15 1715.27 2941.87 1716.53 2935.98Z" fill="#B83D5D"/>
</g>
<g id="Group_17">
<g id="Group_18">
<g id="Group_19">
<g id="Group_20">
<path id="Vector_88" d="M1338.82 3311.42V3320.51C1327.93 3322.5 1325.12 3336.42 1325.12 3353.46V3359.14C1325.12 3376.18 1327.74 3390.1 1338.82 3392.08V3401.17H1129.7C1121.06 3401.17 1114.12 3390.66 1114.12 3377.6V3335C1114.12 3321.93 1121.06 3311.42 1129.7 3311.42H1338.82Z" fill="#4B7195"/>
<path id="Vector_89" d="M1335.63 3382.71C1336.94 3387.26 1334.5 3392.08 1331.31 3392.08L1131.57 3392.37V3320.51L1331.31 3320.8C1332.44 3320.8 1333.56 3321.36 1334.31 3322.5C1335.63 3324.2 1336.38 3327.33 1335.63 3330.17C1333.94 3336.13 1333.94 3344.37 1333.94 3353.74V3359.42C1333.94 3368.51 1333.94 3376.75 1335.63 3382.71Z" fill="white"/>
<path id="Vector_90" opacity="0.4" d="M1334.31 3322.5C1330.56 3322.78 1153.91 3336.7 1141.71 3362.55C1138.33 3369.65 1134.77 3373.62 1131.39 3374.19V3320.51L1331.12 3320.8C1332.63 3320.8 1333.56 3321.36 1334.31 3322.5Z" fill="#A3D5E6"/>
</g>
<path id="Vector_91" d="M1141.9 3401.17H1124.25C1118.62 3401.17 1114.3 3394.36 1114.3 3386.12V3326.76C1114.3 3318.24 1118.81 3311.71 1124.25 3311.71H1141.9V3401.17Z" fill="#4B7195"/>
<path id="Vector_92" opacity="0.4" d="M1335.63 3382.71C1336.94 3387.26 1334.5 3392.08 1331.31 3392.08H1291.33C1323.05 3386.69 1320.99 3347.21 1320.99 3347.21C1321.36 3345.22 1296.02 3322.22 1296.39 3320.51H1331.12C1332.25 3320.51 1333.38 3321.08 1334.13 3322.22C1335.44 3323.92 1336.19 3327.04 1335.44 3329.88C1333.75 3335.85 1333.75 3344.08 1333.75 3353.46V3359.14C1333.94 3368.51 1333.94 3376.75 1335.63 3382.71Z" fill="#A3D5E6"/>
</g>
<g id="Group_21">
<path id="Vector_93" opacity="0.4" d="M1334.13 3351.19H1142.27V3357.72H1334.13V3351.19Z" fill="#A3D5E6"/>
<path id="Vector_94" opacity="0.4" d="M1334.13 3336.42H1142.27V3342.95H1334.13V3336.42Z" fill="#A3D5E6"/>
<path id="Vector_95" opacity="0.4" d="M1334.13 3369.65H1142.27V3376.18H1334.13V3369.65Z" fill="#A3D5E6"/>
</g>
<path id="Vector_96" d="M1272.18 3379.02L1262.04 3363.4L1251.9 3379.02V3336.42H1272.18V3379.02Z" fill="#C33E5D"/>
</g>
<g id="Group_22">
<g id="Group_23">
<g id="Group_24">
<path id="Vector_97" d="M1361.16 3400.89V3409.98C1350.27 3411.97 1347.46 3425.88 1347.46 3442.92V3448.61C1347.46 3465.65 1350.08 3479.56 1361.16 3481.55V3490.64H1152.22C1143.59 3490.64 1136.64 3480.13 1136.64 3467.07V3424.46C1136.64 3411.4 1143.59 3400.89 1152.22 3400.89H1361.16Z" fill="#C33E5D"/>
<path id="Vector_98" d="M1357.97 3472.18C1359.28 3476.72 1356.84 3481.55 1353.65 3481.55L1153.91 3481.84V3409.98L1353.65 3410.26C1354.78 3410.26 1355.9 3410.83 1356.65 3411.97C1357.97 3413.67 1358.72 3416.8 1357.97 3419.64C1356.28 3425.6 1356.28 3433.84 1356.28 3443.21V3448.89C1356.47 3457.98 1356.28 3466.21 1357.97 3472.18Z" fill="white"/>
<path id="Vector_99" opacity="0.4" d="M1356.65 3411.68C1352.9 3411.97 1176.25 3425.88 1164.05 3451.73C1160.67 3458.83 1157.11 3462.81 1153.73 3463.37V3409.98L1353.46 3410.26C1354.96 3409.98 1355.9 3410.83 1356.65 3411.68Z" fill="#A3D5E6"/>
</g>
<path id="Vector_100" d="M1164.24 3490.64H1146.59C1140.96 3490.64 1136.64 3483.82 1136.64 3475.59V3416.23C1136.64 3407.71 1141.15 3401.17 1146.59 3401.17H1164.24V3490.64Z" fill="#C33E5D"/>
<path id="Vector_101" opacity="0.4" d="M1357.97 3472.18C1359.28 3476.72 1356.84 3481.55 1353.65 3481.55H1313.67C1345.39 3476.15 1343.33 3436.68 1343.33 3436.68C1343.7 3434.69 1318.36 3411.68 1318.73 3409.98H1353.46C1354.59 3409.98 1355.72 3410.55 1356.47 3411.68C1357.78 3413.39 1358.53 3416.51 1357.78 3419.35C1356.09 3425.32 1356.09 3433.55 1356.09 3442.92V3448.61C1356.47 3457.98 1356.28 3466.21 1357.97 3472.18Z" fill="#A3D5E6"/>
</g>
<g id="Group_25">
<path id="Vector_102" opacity="0.4" d="M1356.47 3440.65H1164.61V3447.18H1356.47V3440.65Z" fill="#A3D5E6"/>
<path id="Vector_103" opacity="0.4" d="M1356.47 3425.88H1164.61V3432.42H1356.47V3425.88Z" fill="#A3D5E6"/>
<path id="Vector_104" opacity="0.4" d="M1356.47 3459.11H1164.61V3465.65H1356.47V3459.11Z" fill="#A3D5E6"/>
</g>
<path id="Vector_105" d="M1335.44 3473.88L1324.55 3457.69L1313.85 3473.88V3429.29H1335.44V3473.88Z" fill="#C33E5D"/>
</g>
</g>
<g id="Group_26">
<g id="html">
<path id="Vector_106" d="M2269.46 2343.08H1914.61V2830.32H2269.46V2343.08Z" fill="#49496B"/>
<g id="html-strips">
<path id="Vector_107" d="M2221.29 2446.55H1954.96V2466.26H2221.29V2446.55Z" fill="white"/>
<path id="Vector_108" d="M2131.21 2490.35H1954.96V2510.05H2131.21V2490.35Z" fill="white"/>
<path id="Vector_109" d="M2221.29 2490.35H2157.45V2510.05H2221.29V2490.35Z" fill="#EBA154"/>
<path id="Vector_110" d="M2221.29 2534.14H2056.4V2553.85H2221.29V2534.14Z" fill="#EBA154"/>
<path id="Vector_111" d="M2032.11 2534.14H1954.96V2553.85H2032.11V2534.14Z" fill="white"/>
<path id="Vector_112" d="M2095.96 2577.94H1954.96V2597.65H2095.96V2577.94Z" fill="white"/>
<path id="Vector_113" d="M2221.29 2577.94H2117.5V2597.65H2221.29V2577.94Z" fill="#EBA154"/>
<path id="Vector_114" d="M2221.68 2621.74H2032.51V2641.44H2221.68V2621.74Z" fill="#EBA154"/>
<path id="Vector_115" d="M2012.14 2621.74H1954.96V2641.44H2012.14V2621.74Z" fill="white"/>
<path id="Vector_116" d="M2069.32 2665.53H1954.96V2685.24H2069.32V2665.53Z" fill="white"/>
<path id="Vector_117" d="M2221.29 2665.53H2088.12V2685.24H2221.29V2665.53Z" fill="#EBA154"/>
</g>
<g id="Group_27">
<g id="Group_28">
<path id="Vector_118" d="M2213.46 2782.14V2787.62L2184.47 2795.28V2789.81L2204.84 2784.61L2184.47 2779.95V2774.48L2213.46 2782.14Z" fill="#EBA154"/>
</g>
<g id="Group_29">
<path id="Vector_119" d="M2130.81 2774.48V2779.68L2110.45 2784.88L2130.81 2790.08V2795.55L2101.83 2787.89V2782.42L2130.81 2774.48Z" fill="#EBA154"/>
</g>
<g id="Group_30">
<path id="Vector_120" d="M2165.28 2759.42H2174.29L2152.75 2802.67H2143.74L2165.28 2759.42Z" fill="#EBA154"/>
</g>
</g>
<g id="Group_31">
<g id="Group_32">
<path id="Vector_121" d="M2079.9 2401.93V2409.32L2041.51 2419.45V2412.33L2068.15 2405.49L2041.51 2398.65V2391.8L2079.9 2401.93Z" fill="#EBA154"/>
</g>
<g id="Group_33">
<path id="Vector_122" d="M2009.4 2391.8V2398.65L1982.76 2405.49L2009.4 2412.33V2419.45L1971.01 2409.32V2401.93L2009.4 2391.8Z" fill="#EBA154"/>
</g>
</g>
</g>
<path id="HTML" d="M1953.14 2228.73V2262.63H1941.71V2250.14H1931.16V2262.63H1919.73V2228.73H1931.16V2240.74H1941.71V2228.73H1953.14ZM1966.01 2237.6H1956.08V2228.73H1987.37V2237.6H1977.44V2262.63H1966.01V2237.6ZM2020.6 2262.63L2020.51 2247.18L2013.14 2259.58H2008.11L2000.75 2247.72V2262.63H1990.34V2228.73H1999.73L2010.77 2246.8L2021.52 2228.73H2030.92L2031.01 2262.63H2020.6ZM2036.54 2228.73H2047.97V2253.77H2063.27V2262.63H2036.54V2228.73Z" fill="white"/>
</g>
<g id="Group_34">
<g id="web-circle">
<g id="Group_35">
<path id="Vector_123" d="M1073.68 2813.61C1065.09 2805.37 1055.15 2798.5 1044.76 2793.46C1044.76 2793.46 1044.3 2793.46 1044.3 2793.01C1029.39 2786.14 1012.67 2782.93 995.952 2783.85C984.654 2784.31 972.905 2787.05 962.06 2791.63C961.156 2792.09 960.704 2792.09 959.801 2792.55C939.918 2801.7 924.102 2816.36 913.708 2833.75C896.988 2862.14 893.825 2897.85 907.834 2929.9C930.88 2982.55 991.885 3005.9 1043.4 2982.55C1090.85 2961.03 1114.35 2907.47 1100.34 2858.48C1098.98 2853.9 1097.63 2849.78 1095.37 2845.2C1090.4 2833.3 1082.71 2822.77 1073.68 2813.61ZM1030.75 2954.17C995.048 2970.19 952.57 2954.17 936.754 2917.54C927.265 2896.02 929.072 2872.21 939.918 2852.98C939.918 2852.98 939.918 2852.52 940.37 2852.52C947.6 2839.71 958.897 2828.72 973.357 2822.31C976.069 2820.93 978.78 2820.02 981.491 2819.1C981.943 2819.1 981.943 2819.1 982.395 2818.64C996.855 2814.52 1011.32 2814.98 1024.87 2819.56C1036.62 2823.68 1047.01 2830.55 1055.15 2839.71C1060.12 2845.2 1064.19 2851.61 1067.35 2858.48C1069.16 2863.06 1070.51 2867.18 1071.87 2871.75C1078.65 2905.18 1062.38 2939.97 1030.75 2954.17Z" fill="#64648E"/>
</g>
<path id="Vector_124" d="M1044.76 2793.46C1055.6 2798.5 1065.09 2805.37 1073.68 2813.61C1082.71 2822.31 1089.94 2833.3 1095.37 2845.66C1097.17 2850.24 1098.98 2854.36 1100.34 2858.93L1070.96 2872.21C1070.06 2867.63 1068.71 2863.06 1066.45 2858.93C1063.28 2852.07 1059.22 2845.66 1054.24 2840.16C1046.11 2831.01 1035.27 2823.68 1023.97 2820.02L1043.85 2793.92" fill="#EBA154"/>
<path id="Vector_125" d="M1024.42 2819.56C1010.86 2814.98 995.952 2814.52 981.943 2818.64C981.491 2818.64 981.491 2818.64 981.039 2819.1L962.06 2792.09C973.357 2787.51 984.654 2784.76 995.952 2784.31C1012.67 2783.39 1029.39 2786.6 1044.3 2793.46" fill="#B83D5D"/>
</g>
<g id="Group_36">
<g id="Group_37">
<path id="Vector_126" d="M993.412 2997.45V3001.53" stroke="#FD783D" stroke-miterlimit="10"/>
<path id="Vector_127" d="M993.412 3009.28V3067.82" stroke="#FD783D" stroke-miterlimit="10" stroke-dasharray="3.83 3.83"/>
<path id="Vector_128" d="M993.412 3071.9V3075.98H999.73" stroke="#FD783D" stroke-miterlimit="10"/>
<path id="Vector_129" d="M1012.68 3075.98H1188.33" stroke="#FD783D" stroke-miterlimit="10" stroke-dasharray="4.12 4.12"/>
<path id="Vector_130" d="M1194.65 3075.98H1200.97V3071.9" stroke="#FD783D" stroke-miterlimit="10"/>
<path id="Vector_131" d="M1200.97 3063.94V3004.38" stroke="#FD783D" stroke-miterlimit="10" stroke-dasharray="3.89 3.89"/>
<path id="Vector_132" d="M1200.97 3000.3V2996.23" stroke="#FD783D" stroke-miterlimit="10"/>
</g>
</g>
<g id="web">
<path id="Vector_133" d="M1599.45 2523.42H1144.32V2992.35H1599.45V2523.42Z" fill="#49496B"/>
<path id="Vector_134" d="M1599.45 2500.58H1144.32V2560.14H1599.45V2500.58Z" fill="#64648E"/>
<g id="Group_38">
<g id="Group_39">
<path id="Vector_135" d="M1547.04 2960.12V2964L1530.75 2969.3V2965.63L1542.32 2961.96L1530.75 2958.29V2954.62L1547.04 2960.12Z" fill="#EBA154"/>
</g>
<g id="Group_40">
<path id="Vector_136" d="M1500.3 2954.82V2958.49L1488.73 2962.16L1500.3 2965.83V2969.51L1484.01 2964.2V2960.33L1500.3 2954.82Z" fill="#EBA154"/>
</g>
<path id="/" d="M1513.45 2941.15H1515.62L1510.47 2955.85H1508.3L1513.45 2941.15Z" fill="#EBA154"/>
</g>
<g id="Group_41">
<g id="Group_42">
<path id="Vector_137" d="M1252.2 2598.07V2602.97L1231.9 2609.7V2605.01L1246.29 2600.52L1231.9 2596.04V2591.34L1252.2 2598.07Z" fill="#EBA154"/>
</g>
<g id="Group_43">
<path id="Vector_138" d="M1214.66 2591.34V2596.04L1200.26 2600.52L1214.66 2605.01V2609.7L1194.36 2602.97V2598.07L1214.66 2591.34Z" fill="#EBA154"/>
</g>
</g>
<path id="WEB DEVELOPING" d="M1187.8 2518.02L1184.63 2527.71H1182.22L1180.09 2521.15L1177.89 2527.71H1175.49L1172.31 2518.02H1174.63L1176.82 2524.83L1179.11 2518.02H1181.18L1183.4 2524.89L1185.65 2518.02H1187.8ZM1196.55 2525.91V2527.71H1189.05V2518.02H1196.37V2519.82H1191.28V2521.92H1195.78V2523.67H1191.28V2525.91H1196.55ZM1205.45 2522.67C1206.01 2522.85 1206.44 2523.14 1206.76 2523.56C1207.07 2523.96 1207.23 2524.47 1207.23 2525.07C1207.23 2525.91 1206.89 2526.57 1206.23 2527.03C1205.57 2527.48 1204.62 2527.71 1203.35 2527.71H1198.34V2518.02H1203.07C1204.26 2518.02 1205.16 2518.25 1205.79 2518.7C1206.42 2519.15 1206.74 2519.76 1206.74 2520.54C1206.74 2521.01 1206.63 2521.43 1206.4 2521.8C1206.17 2522.17 1205.86 2522.46 1205.45 2522.67ZM1200.57 2519.71V2521.99H1202.8C1203.35 2521.99 1203.77 2521.9 1204.06 2521.7C1204.34 2521.51 1204.49 2521.22 1204.49 2520.84C1204.49 2520.47 1204.34 2520.18 1204.06 2520C1203.77 2519.81 1203.35 2519.71 1202.8 2519.71H1200.57ZM1203.18 2526.02C1203.78 2526.02 1204.22 2525.92 1204.51 2525.73C1204.82 2525.54 1204.97 2525.24 1204.97 2524.83C1204.97 2524.03 1204.38 2523.63 1203.18 2523.63H1200.57V2526.02H1203.18ZM1212.85 2518.02H1217.25C1218.3 2518.02 1219.23 2518.22 1220.03 2518.63C1220.84 2519.03 1221.47 2519.59 1221.91 2520.32C1222.37 2521.05 1222.59 2521.9 1222.59 2522.86C1222.59 2523.83 1222.37 2524.68 1221.91 2525.41C1221.47 2526.14 1220.84 2526.71 1220.03 2527.11C1219.23 2527.51 1218.3 2527.71 1217.25 2527.71H1212.85V2518.02ZM1217.14 2525.87C1218.11 2525.87 1218.88 2525.6 1219.45 2525.07C1220.03 2524.52 1220.32 2523.79 1220.32 2522.86C1220.32 2521.94 1220.03 2521.21 1219.45 2520.68C1218.88 2520.13 1218.11 2519.86 1217.14 2519.86H1215.09V2525.87H1217.14ZM1231.79 2525.91V2527.71H1224.28V2518.02H1231.61V2519.82H1226.51V2521.92H1231.01V2523.67H1226.51V2525.91H1231.79ZM1242.75 2518.02L1238.56 2527.71H1236.34L1232.16 2518.02H1234.58L1237.53 2524.94L1240.52 2518.02H1242.75ZM1251.06 2525.91V2527.71H1243.56V2518.02H1250.88V2519.82H1245.79V2521.92H1250.29V2523.67H1245.79V2525.91H1251.06ZM1252.85 2518.02H1255.09V2525.88H1259.95V2527.71H1252.85V2518.02ZM1265.73 2527.88C1264.73 2527.88 1263.82 2527.66 1263.01 2527.23C1262.2 2526.79 1261.57 2526.2 1261.11 2525.44C1260.66 2524.67 1260.43 2523.82 1260.43 2522.86C1260.43 2521.91 1260.66 2521.06 1261.11 2520.3C1261.57 2519.54 1262.2 2518.94 1263.01 2518.5C1263.82 2518.07 1264.73 2517.85 1265.73 2517.85C1266.74 2517.85 1267.65 2518.07 1268.45 2518.5C1269.25 2518.94 1269.88 2519.54 1270.34 2520.3C1270.81 2521.06 1271.04 2521.91 1271.04 2522.86C1271.04 2523.82 1270.81 2524.67 1270.34 2525.44C1269.88 2526.2 1269.25 2526.79 1268.45 2527.23C1267.65 2527.66 1266.74 2527.88 1265.73 2527.88ZM1265.73 2525.97C1266.31 2525.97 1266.82 2525.84 1267.29 2525.58C1267.75 2525.31 1268.11 2524.94 1268.37 2524.47C1268.63 2524 1268.77 2523.46 1268.77 2522.86C1268.77 2522.26 1268.63 2521.73 1268.37 2521.26C1268.11 2520.79 1267.75 2520.42 1267.29 2520.17C1266.82 2519.9 1266.31 2519.76 1265.73 2519.76C1265.16 2519.76 1264.65 2519.9 1264.18 2520.17C1263.72 2520.42 1263.36 2520.79 1263.09 2521.26C1262.83 2521.73 1262.7 2522.26 1262.7 2522.86C1262.7 2523.46 1262.83 2524 1263.09 2524.47C1263.36 2524.94 1263.72 2525.31 1264.18 2525.58C1264.65 2525.84 1265.16 2525.97 1265.73 2525.97ZM1276.92 2518.02C1277.78 2518.02 1278.52 2518.16 1279.15 2518.45C1279.78 2518.73 1280.27 2519.14 1280.61 2519.67C1280.96 2520.19 1281.13 2520.82 1281.13 2521.54C1281.13 2522.25 1280.96 2522.87 1280.61 2523.4C1280.27 2523.93 1279.78 2524.34 1279.15 2524.62C1278.52 2524.9 1277.78 2525.04 1276.92 2525.04H1274.97V2527.71H1272.72V2518.02H1276.92ZM1276.79 2523.21C1277.47 2523.21 1277.98 2523.07 1278.33 2522.78C1278.68 2522.49 1278.86 2522.07 1278.86 2521.54C1278.86 2520.99 1278.68 2520.58 1278.33 2520.29C1277.98 2519.99 1277.47 2519.85 1276.79 2519.85H1274.97V2523.21H1276.79ZM1282.73 2518.02H1284.97V2527.71H1282.73V2518.02ZM1296.16 2518.02V2527.71H1294.32L1289.48 2521.83V2527.71H1287.27V2518.02H1289.12L1293.94 2523.9V2518.02H1296.16ZM1305 2522.71H1307.05V2526.64C1306.52 2527.04 1305.91 2527.35 1305.22 2527.56C1304.53 2527.77 1303.83 2527.88 1303.13 2527.88C1302.12 2527.88 1301.22 2527.66 1300.42 2527.24C1299.61 2526.81 1298.98 2526.21 1298.52 2525.45C1298.07 2524.69 1297.84 2523.82 1297.84 2522.86C1297.84 2521.9 1298.07 2521.05 1298.52 2520.29C1298.98 2519.52 1299.62 2518.93 1300.43 2518.5C1301.24 2518.07 1302.16 2517.85 1303.17 2517.85C1304.02 2517.85 1304.79 2518 1305.48 2518.28C1306.17 2518.57 1306.76 2518.98 1307.23 2519.53L1305.79 2520.86C1305.09 2520.13 1304.26 2519.76 1303.28 2519.76C1302.66 2519.76 1302.11 2519.89 1301.63 2520.15C1301.15 2520.41 1300.78 2520.77 1300.51 2521.24C1300.24 2521.72 1300.11 2522.26 1300.11 2522.86C1300.11 2523.46 1300.24 2524 1300.51 2524.47C1300.78 2524.94 1301.15 2525.31 1301.62 2525.58C1302.1 2525.84 1302.64 2525.97 1303.25 2525.97C1303.9 2525.97 1304.48 2525.83 1305 2525.55V2522.71Z" fill="white"/>
<g id="Group_44">
<g id="web-strips">
<path id="Vector_139" d="M1357.01 2638.26H1223.16V2659.47H1357.01V2638.26Z" fill="#54B3CD"/>
<path id="Vector_140" d="M1442.46 2638.26H1375.66V2659.47H1442.46V2638.26Z" fill="#EBA154"/>
<path id="Vector_141" d="M1550.11 2638.26H1458.04V2659.47H1550.11V2638.26Z" fill="white"/>
<path id="Vector_142" d="M1285.72 2675.99H1223.16V2697.2H1285.72V2675.99Z" fill="#54B3CD"/>
<path id="Vector_143" d="M1409.18 2675.99H1302.48V2697.2H1409.18V2675.99Z" fill="#EBA154"/>
<path id="Vector_144" d="M1550.34 2675.99H1426.65V2697.2H1550.34V2675.99Z" fill="white"/>
<path id="Vector_145" d="M1305.31 2713.73H1223.16V2734.94H1305.31V2713.73Z" fill="#54B3CD"/>
<path id="Vector_146" d="M1473.39 2713.73H1318.77V2734.94H1473.39V2713.73Z" fill="#EBA154"/>
<path id="Vector_147" d="M1550.35 2713.73H1489.91V2734.94H1550.35V2713.73Z" fill="white"/>
<path id="Vector_148" d="M1326.79 2751.66H1223.16V2772.88H1326.79V2751.66Z" fill="#54B3CD"/>
<path id="Vector_149" d="M1442.7 2751.66H1342.14V2772.88H1442.7V2751.66Z" fill="#EBA154"/>
<path id="Vector_150" d="M1550.11 2751.66H1458.04V2772.88H1550.11V2751.66Z" fill="white"/>
<path id="Vector_151" d="M1268.72 2789.4H1223.16V2810.61H1268.72V2789.4Z" fill="#54B3CD"/>
<path id="Vector_152" d="M1374.01 2789.4H1283.83V2810.61H1374.01V2789.4Z" fill="#EBA154"/>
<path id="Vector_153" d="M1550.35 2789.4H1387.93V2810.61H1550.35V2789.4Z" fill="white"/>
<path id="Vector_154" d="M1353.23 2827.13H1223.16V2848.35H1353.23V2827.13Z" fill="#54B3CD"/>
<path id="Vector_155" d="M1409.18 2827.13H1369.28V2848.35H1409.18V2827.13Z" fill="#EBA154"/>
<path id="Vector_156" d="M1550.34 2827.13H1426.65V2848.35H1550.34V2827.13Z" fill="white"/>
<path id="Vector_157" d="M1392.42 2865.07H1223.16V2886.28H1392.42V2865.07Z" fill="#54B3CD"/>
<path id="Vector_158" d="M1475.75 2865.07H1406.58V2886.28H1475.75V2865.07Z" fill="#EBA154"/>
<path id="Vector_159" d="M1550.35 2865.07H1489.91V2886.28H1550.35V2865.07Z" fill="white"/>
<path id="Vector_160" d="M1275.1 2902.81H1223.16V2924.02H1275.1V2902.81Z" fill="#54B3CD"/>
<path id="Vector_161" d="M1353 2902.81H1289.97V2924.02H1353V2902.81Z" fill="#EBA154"/>
<path id="Vector_162" d="M1550.35 2902.81H1369.28V2924.02H1550.35V2902.81Z" fill="white"/>
</g>
<path id="Vector_163" d="M1573.01 2638.26H1568.05V2924.02H1573.01V2638.26Z" fill="white"/>
<path id="Vector_164" d="M1180.91 2659.27C1187.68 2659.27 1193.18 2654.52 1193.18 2648.66C1193.18 2642.8 1187.68 2638.05 1180.91 2638.05C1174.13 2638.05 1168.63 2642.8 1168.63 2648.66C1168.63 2654.52 1174.13 2659.27 1180.91 2659.27Z" fill="white"/>
<path id="Vector_165" d="M1180.91 2697.2C1187.68 2697.2 1193.18 2692.46 1193.18 2686.6C1193.18 2680.74 1187.68 2675.99 1180.91 2675.99C1174.13 2675.99 1168.63 2680.74 1168.63 2686.6C1168.63 2692.46 1174.13 2697.2 1180.91 2697.2Z" fill="white"/>
<path id="Vector_166" d="M1180.91 2734.94C1187.68 2734.94 1193.18 2730.19 1193.18 2724.33C1193.18 2718.47 1187.68 2713.73 1180.91 2713.73C1174.13 2713.73 1168.63 2718.47 1168.63 2724.33C1168.63 2730.19 1174.13 2734.94 1180.91 2734.94Z" fill="white"/>
<path id="Vector_167" d="M1180.91 2772.67C1187.68 2772.67 1193.18 2767.93 1193.18 2762.07C1193.18 2756.21 1187.68 2751.46 1180.91 2751.46C1174.13 2751.46 1168.63 2756.21 1168.63 2762.07C1168.63 2767.93 1174.13 2772.67 1180.91 2772.67Z" fill="white"/>
<path id="Vector_168" d="M1180.91 2810.61C1187.68 2810.61 1193.18 2805.86 1193.18 2800.01C1193.18 2794.15 1187.68 2789.4 1180.91 2789.4C1174.13 2789.4 1168.63 2794.15 1168.63 2800.01C1168.63 2805.86 1174.13 2810.61 1180.91 2810.61Z" fill="white"/>
<path id="Vector_169" d="M1180.91 2848.35C1187.68 2848.35 1193.18 2843.6 1193.18 2837.74C1193.18 2831.88 1187.68 2827.13 1180.91 2827.13C1174.13 2827.13 1168.63 2831.88 1168.63 2837.74C1168.63 2843.6 1174.13 2848.35 1180.91 2848.35Z" fill="white"/>
<path id="Vector_170" d="M1180.91 2886.08C1187.68 2886.08 1193.18 2881.33 1193.18 2875.47C1193.18 2869.62 1187.68 2864.87 1180.91 2864.87C1174.13 2864.87 1168.63 2869.62 1168.63 2875.47C1168.63 2881.33 1174.13 2886.08 1180.91 2886.08Z" fill="white"/>
<path id="Vector_171" d="M1180.91 2924.02C1187.68 2924.02 1193.18 2919.27 1193.18 2913.41C1193.18 2907.56 1187.68 2902.81 1180.91 2902.81C1174.13 2902.81 1168.63 2907.56 1168.63 2913.41C1168.63 2919.27 1174.13 2924.02 1180.91 2924.02Z" fill="white"/>
</g>
<path id="Vector_172" d="M1566.87 2544.43C1573.78 2544.43 1579.38 2539.59 1579.38 2533.62C1579.38 2527.65 1573.78 2522.81 1566.87 2522.81C1559.96 2522.81 1554.36 2527.65 1554.36 2533.62C1554.36 2539.59 1559.96 2544.43 1566.87 2544.43Z" fill="#B83D5D"/>
</g>
<path id="Vector_173" d="M1535.95 2544.23C1542.86 2544.23 1548.46 2539.39 1548.46 2533.42C1548.46 2527.45 1542.86 2522.61 1535.95 2522.61C1529.04 2522.61 1523.43 2527.45 1523.43 2533.42C1523.43 2539.39 1529.04 2544.23 1535.95 2544.23Z" fill="white"/>
</g>
<g id="Group_45">
<path id="Vector_174" d="M2817.35 2878C2817.35 2877.65 2817.35 2877.65 2817.35 2877.31C2817.35 2876.96 2817.35 2876.96 2817.35 2876.62C2821.3 2874.89 2825.64 2873.16 2829.59 2870.74C2833.94 2868.32 2838.28 2865.21 2842.23 2861.75L2841.44 2858.64C2840.65 2855.18 2839.07 2852.07 2837.89 2848.61C2837.1 2846.88 2836.31 2845.5 2835.52 2843.77C2834.73 2842.04 2833.54 2840.66 2832.75 2839.28L2830.78 2836.51C2825.25 2836.51 2819.72 2837.2 2814.58 2837.89C2809.84 2838.58 2805.5 2839.97 2801.55 2841.35L2800.36 2840.31C2801.94 2836.51 2803.13 2832.71 2804.31 2828.9C2805.1 2824.41 2805.89 2819.57 2805.89 2814.73L2802.73 2813C2801.15 2811.96 2799.18 2811.27 2797.6 2810.58C2795.62 2809.89 2794.04 2808.85 2792.07 2808.5C2788.12 2807.47 2784.56 2806.08 2780.61 2805.39L2777.06 2804.7C2773.11 2808.16 2769.55 2811.96 2766.79 2815.77C2764.02 2819.22 2762.05 2822.68 2760.07 2826.48C2759.68 2826.48 2759.68 2826.48 2759.28 2826.48C2758.89 2826.48 2758.89 2826.48 2758.49 2826.48C2756.52 2823.03 2754.54 2819.22 2751.78 2815.77C2749.01 2811.96 2745.45 2808.16 2741.5 2804.7L2737.95 2805.39C2734 2806.08 2730.44 2807.47 2726.49 2808.5C2724.52 2809.2 2722.94 2809.89 2720.96 2810.58C2718.99 2811.27 2717.41 2812.31 2715.83 2813L2712.67 2814.73C2712.67 2819.57 2713.46 2824.41 2714.25 2828.9C2715.04 2833.05 2716.62 2836.86 2718.2 2840.31C2717.8 2840.66 2717.41 2841 2717.01 2841.35C2712.67 2839.97 2708.32 2838.93 2703.98 2837.89C2698.84 2837.2 2693.31 2836.51 2687.78 2836.51L2685.81 2839.28C2684.62 2840.66 2683.83 2842.39 2683.04 2843.77C2682.25 2845.5 2681.46 2846.88 2680.67 2848.61C2679.09 2852.07 2677.91 2855.18 2677.12 2858.64L2676.33 2861.75C2680.28 2865.21 2684.62 2868.32 2688.97 2870.74C2692.92 2873.16 2696.87 2874.89 2701.21 2876.62C2701.21 2876.96 2701.21 2876.96 2701.21 2877.31C2701.21 2877.65 2701.21 2877.65 2701.21 2878C2697.26 2879.73 2692.92 2881.46 2688.97 2883.88C2684.62 2886.3 2680.28 2889.41 2676.33 2892.87L2677.12 2895.98C2677.91 2899.44 2679.49 2902.55 2680.67 2906C2681.46 2907.73 2682.25 2909.12 2683.04 2910.84C2683.83 2912.57 2685.02 2913.96 2685.81 2915.34L2687.78 2918.11C2693.31 2918.11 2698.84 2917.41 2703.98 2916.72C2708.72 2916.03 2713.06 2914.65 2717.01 2913.26C2717.41 2913.61 2717.8 2913.96 2718.2 2914.3C2716.62 2918.11 2715.43 2921.91 2714.25 2925.71C2713.46 2930.21 2712.67 2935.05 2712.67 2939.89L2715.83 2941.62C2717.41 2942.65 2719.38 2943.34 2720.96 2944.04C2722.94 2944.73 2724.52 2945.76 2726.49 2946.11C2730.44 2947.49 2734 2948.53 2737.95 2949.22L2741.5 2949.91C2745.45 2946.46 2749.01 2942.65 2751.78 2938.85C2754.54 2935.39 2756.52 2931.94 2758.49 2928.13C2758.89 2928.13 2758.89 2928.13 2759.28 2928.13C2759.68 2928.13 2759.68 2928.13 2760.07 2928.13C2762.05 2931.59 2764.02 2935.39 2766.79 2938.85C2769.55 2942.65 2773.11 2946.46 2777.06 2949.91L2780.61 2949.22C2784.56 2948.53 2788.12 2947.15 2792.07 2946.11C2794.04 2945.42 2795.62 2944.73 2797.6 2944.04C2799.57 2943.34 2801.15 2942.31 2802.73 2941.62L2805.89 2939.89C2805.89 2935.05 2805.1 2930.21 2804.31 2925.71C2803.52 2921.56 2801.94 2917.76 2800.36 2914.3C2800.76 2913.96 2801.15 2913.61 2801.55 2913.26C2805.89 2914.65 2810.24 2915.68 2814.58 2916.72C2819.72 2917.41 2825.25 2918.11 2830.78 2918.11L2832.75 2915.34C2833.94 2913.96 2834.73 2912.23 2835.52 2910.84C2836.31 2909.12 2837.49 2907.73 2837.89 2906C2839.07 2902.55 2840.65 2899.44 2841.44 2895.98L2842.23 2892.87C2838.28 2889.41 2833.94 2886.3 2829.59 2883.88C2825.25 2881.46 2821.3 2879.73 2817.35 2878ZM2758.89 2901.51C2743.48 2901.51 2730.84 2890.45 2730.84 2876.96C2730.84 2863.48 2743.48 2852.41 2758.89 2852.41C2774.29 2852.41 2786.93 2863.48 2786.93 2876.96C2786.93 2890.79 2774.29 2901.51 2758.89 2901.51Z" fill="#323247"/>
<g id="Group_46">
<g id="Group_47">
<path id="Vector_175" d="M2630.5 2975.11H2589.8V3137.51H2630.5V2975.11Z" fill="#B83D5D"/>
<path id="Vector_176" d="M2573.6 3046.64H2529.83V3137.51H2573.6V3046.64Z" fill="#64648E"/>
<path id="Vector_177" d="M2512.76 3075.64H2468.99V3137.51H2512.76V3075.64Z" fill="#FD783D"/>
</g>
<g id="Group_48">
<g id="Group_49">
<path id="Vector_178" d="M2461.55 3111.6H2452.79" stroke="#FD783D" stroke-miterlimit="10"/>
<path id="Vector_179" d="M2430.47 3111.6H2397.2" stroke="#FD783D" stroke-miterlimit="10" stroke-dasharray="5.07 5.07"/>
<path id="Vector_180" d="M2386.26 3111.6H2377.51V3119.33" stroke="#FD783D" stroke-miterlimit="10"/>
<path id="Vector_181" d="M2377.51 3133.64V3242.29" stroke="#FD783D" stroke-miterlimit="10" stroke-dasharray="3.74 3.74"/>
<path id="Vector_182" d="M2377.51 3249.25V3256.99H2386.26" stroke="#FD783D" stroke-miterlimit="10"/>
<path id="Vector_183" d="M2401.14 3256.99H2452.79" stroke="#FD783D" stroke-miterlimit="10" stroke-dasharray="3.4 3.4"/>
<path id="Vector_184" d="M2460.23 3256.99H2468.99" stroke="#FD783D" stroke-miterlimit="10"/>
</g>
</g>
<g id="Group_50">
<path id="Vector_185" d="M2598.55 3250.03H2483V3268.2H2598.55V3250.03Z" fill="white"/>
<path id="Vector_186" d="M2563.1 3283.67H2483V3301.84H2563.1V3283.67Z" fill="white"/>
<path id="Vector_187" d="M2584.11 3317.31H2483V3335.48H2584.11V3317.31Z" fill="white"/>
<path id="Vector_188" d="M2628.75 3317.31H2605.12V3335.48H2628.75V3317.31Z" fill="#EBA154"/>
<path id="Vector_189" d="M2737.74 3317.31H2650.64V3335.48H2737.74V3317.31Z" fill="#EBA154"/>
<path id="Vector_190" d="M2737.3 3283.67H2588.48V3301.84H2737.3V3283.67Z" fill="#EBA154"/>
<path id="Vector_191" d="M2737.3 3250.03H2621.75V3268.2H2737.3V3250.03Z" fill="#EBA154"/>
</g>
</g>
<g id="stack-1">
<path id="Vector_192" d="M3038.57 2976.4H2952.23V3016.25H3038.57V2976.4Z" fill="#B83D5D"/>
<path id="Vector_193" d="M3038.57 3046.02H2952.23V3085.88H3038.57V3046.02Z" fill="#B83D5D"/>
<path id="Vector_194" d="M3038.57 3116.12H2952.23V3155.98H3038.57V3116.12Z" fill="#B83D5D"/>
<path id="Vector_195" d="M3038.57 3185.75H2952.23V3225.6H3038.57V3185.75Z" fill="#B83D5D"/>
<path id="Vector_196" d="M3038.57 3255.37H2952.23V3295.22H3038.57V3255.37Z" fill="white"/>
<path id="Vector_197" d="M3038.57 3324.99H2952.23V3364.85H3038.57V3324.99Z" fill="white"/>
<path id="Vector_198" d="M3038.57 3394.62H2952.23V3434.47H3038.57V3394.62Z" fill="white"/>
</g>
</g>
<g id="Group_51">
<g id="leaf">
<g id="Group_52">
<path id="Vector_199" d="M2238.54 3382.22C2220 3383.68 2204.31 3379.01 2191.47 3370.84C2138.97 3337.56 2128.13 3244.15 2127.27 3237.15C2127.84 3239.19 2132.98 3250.87 2187.47 3288.23C2192.04 3291.44 2196.03 3294.65 2200.03 3297.86C2200.03 3297.86 2200.03 3297.86 2200.31 3298.15C2247.39 3337.85 2238.54 3382.22 2238.54 3382.22Z" fill="#0C8068"/>
<path id="Vector_200" d="M2127.27 3236.56C2127.27 3236.56 2176.35 3359.45 2230.56 3372.3" stroke="#0A6D53" stroke-miterlimit="10"/>
<path id="Vector_201" opacity="0.5" d="M2238.55 3382.22C2220 3383.68 2204.31 3379.01 2191.47 3370.84C2202.02 3345.44 2200.03 3297.57 2200.03 3297.57C2200.03 3297.57 2200.03 3297.57 2200.31 3297.86C2247.39 3337.85 2238.55 3382.22 2238.55 3382.22Z" fill="#0A6D53"/>
</g>
<g id="Group_53">
<path id="Vector_202" d="M2377.49 3243.86C2377.21 3245.03 2376.64 3249.7 2375.21 3256.41C2367.51 3291.73 2339.55 3387.18 2264.51 3377.55C2264.51 3377.55 2263.37 3369.38 2265.65 3357.12C2269.36 3339.02 2281.34 3312.46 2317.58 3289.98C2371.5 3256.7 2376.92 3245.9 2377.49 3243.86Z" fill="#0C8068"/>
<path id="Vector_203" d="M2375.21 3251.45C2375.21 3251.45 2336.69 3353.62 2269.93 3374.34" stroke="#0A6D53" stroke-miterlimit="10"/>
<path id="Vector_204" opacity="0.5" d="M2375.21 3256.41C2367.51 3291.73 2339.55 3387.18 2264.51 3377.55C2264.51 3377.55 2263.37 3369.38 2265.65 3357.12C2328.13 3360.62 2375.21 3256.41 2375.21 3256.41Z" fill="#0A6D53"/>
</g>
<g id="Group_54">
<path id="Vector_205" d="M2260.51 3381.05C2258.52 3384.27 2231.13 3372.59 2218.86 3339.02C2211.44 3318.88 2209.44 3290.56 2221.71 3252.91C2253.95 3153.95 2240.54 3135.27 2240.26 3134.69C2240.83 3134.98 2268.79 3149.28 2287.05 3183.73C2306.74 3221.97 2314.44 3284.73 2260.51 3381.05Z" fill="#159A7A"/>
<path id="Vector_206" d="M2240.26 3134.4C2240.26 3134.4 2282.2 3188.69 2266.22 3291.73C2250.24 3394.77 2260.51 3381.05 2260.51 3381.05" stroke="#0C8068" stroke-miterlimit="10"/>
<path id="Vector_207" opacity="0.5" d="M2260.51 3381.05C2258.52 3384.26 2231.13 3372.59 2218.86 3339.02C2287.9 3359.16 2287.05 3183.73 2287.05 3183.73C2306.74 3221.97 2314.44 3284.73 2260.51 3381.05Z" fill="#0C8068"/>
</g>
</g>
<path id="Vector_208" d="M2313.58 3379.59V3458.7C2313.58 3481.76 2295.32 3500.73 2272.5 3500.73H2236.26C2221.43 3500.73 2208.59 3492.56 2201.17 3480.59C2197.46 3474.17 2195.18 3466.87 2195.18 3458.7V3379.59H2313.58Z" fill="#EBA154"/>
<path id="Vector_209" d="M2317.86 3369.38H2190.9C2189.18 3369.38 2187.76 3370.84 2187.76 3372.59V3376.68C2187.76 3378.43 2189.18 3379.89 2190.9 3379.89H2317.86C2319.57 3379.89 2321 3378.43 2321 3376.68V3372.59C2321 3370.55 2319.57 3369.38 2317.86 3369.38Z" fill="#EBA154"/>
<path id="Vector_210" d="M2313.58 3379.59V3458.7C2313.58 3481.76 2295.32 3500.73 2272.5 3500.73H2236.26C2221.43 3500.73 2208.59 3492.56 2201.17 3480.59C2287.91 3508.32 2306.74 3443.23 2303.31 3417.25C2299.89 3391.27 2268.79 3379.59 2268.79 3379.59H2313.58V3379.59Z" fill="#DC831E"/>
</g>
</g>
<g id="head-laptop">
<g id="Group_55">
<path id="Vector_211" d="M1856.91 3495.26H1856.75C1856.26 3495.26 1855.94 3495.26 1855.45 3495.26H1500.64C1495.94 3495.26 1491.73 3492.04 1488.97 3487.21C1486.86 3483.53 1485.73 3478.92 1485.73 3474.09V3473.86L1430.48 3252.01C1426.27 3234.98 1435.18 3217.25 1447.82 3217.25H1678.21C1685.98 3217.25 1692.95 3224.16 1695.54 3234.51L1755.16 3473.4C1755.16 3473.63 1755.33 3473.86 1755.33 3473.86H1856.1C1865.01 3474.09 1865.98 3493.88 1856.91 3495.26Z" fill="#80ABBD"/>
<path id="Vector_212" d="M1577.57 3407.13C1591.53 3400.31 1598.13 3375.3 1592.31 3351.26C1586.49 3327.22 1570.46 3313.26 1556.5 3320.08C1542.54 3326.9 1535.94 3351.92 1541.76 3375.96C1547.58 3399.99 1563.61 3413.95 1577.57 3407.13Z" fill="white"/>
<path id="Vector_213" d="M1855.77 3474.09H1755C1755 3474.09 1755 3473.86 1754.84 3473.63L1695.22 3234.74C1692.63 3224.39 1685.66 3217.48 1677.88 3217.48H1670.1C1670.1 3217.48 1687.28 3219.09 1691.65 3240.96C1696.03 3262.82 1754.84 3494.8 1754.84 3494.8L1759.21 3495.26H1855.45C1855.94 3495.26 1856.42 3495.26 1856.75 3495.26C1865.98 3494.11 1865.01 3474.09 1855.77 3474.09Z" fill="#4B7195"/>
</g>
<path id="Vector_214" opacity="0.4" d="M1856.91 3495.26H1856.75C1856.26 3495.26 1855.94 3495.26 1855.45 3495.26H1500.64C1495.94 3495.26 1491.73 3492.04 1488.97 3487.21C1698.62 3512.75 1678.04 3217.25 1678.04 3217.25C1685.82 3217.25 1692.79 3224.16 1695.38 3234.51L1755 3473.4C1755 3473.63 1755.16 3473.86 1755.16 3473.86H1854.32C1855.29 3481.22 1856.26 3488.13 1856.91 3495.26Z" fill="#5A93A0"/>
</g>
<g id="Group_56">
<path id="Vector_215" d="M3094.31 3543.61V3552.51C3094.31 3579.96 3077.49 3602 3056.54 3602H1126.51C1108.8 3602 1094.05 3586.15 1089.92 3565.27C1089.04 3561.4 1088.74 3557.15 1088.74 3552.89V3544C1088.74 3516.55 1105.56 3494.51 1126.51 3494.51H3056.24C3077.19 3494.51 3094.31 3516.55 3094.31 3543.61Z" fill="#47547C"/>
<path id="Vector_216" opacity="0.5" d="M3094.31 3543.61V3552.51C3094.31 3579.96 3077.49 3602 3056.54 3602H1126.51C1108.8 3602 1094.05 3586.15 1089.92 3565.27C1089.04 3557.15 1088.74 3552.89 1088.74 3552.89C2171.04 3602.39 3056.24 3494.51 3056.24 3494.51C3077.19 3494.51 3094.31 3516.55 3094.31 3543.61Z" fill="#2B2B3F"/>
</g>
<g id="head-box-2">
<path id="Vector_217" d="M2598.75 2419.29H2482.92V2445.1H2598.75V2419.29Z" fill="white"/>
<path id="Vector_218" d="M2660.89 2467.22H2482.92V2493.02H2660.89V2467.22Z" fill="white"/>
<path id="Vector_219" d="M2543.59 2515.6H2482.92V2541.41H2543.59V2515.6Z" fill="white"/>
<path id="Vector_220" d="M2628.9 2515.6H2568.23V2541.41H2628.9V2515.6Z" fill="#EBA154"/>
<path id="Vector_221" d="M2737.74 2515.6H2650.59V2541.41H2737.74V2515.6Z" fill="#EBA154"/>
<path id="Vector_222" d="M2737.74 2467.22H2684.79V2493.02H2737.74V2467.22Z" fill="#EBA154"/>
<path id="Vector_223" d="M2737.74 2419.29H2621.91V2445.1H2737.74V2419.29Z" fill="#EBA154"/>
</g>
<g id="head-box-1">
<path id="Vector_224" d="M1499.57 1910.23C1499.57 1909.97 1499.57 1909.72 1499.57 1909.72C1499.57 1909.46 1499.57 1909.21 1499.57 1909.21C1502.92 1907.67 1506.26 1906.13 1509.6 1904.08C1513.22 1901.77 1516.84 1899.21 1520.18 1896.39L1519.35 1893.83C1518.51 1890.75 1517.4 1887.93 1516.28 1885.11C1515.73 1883.83 1514.89 1882.29 1514.06 1881.01C1513.5 1879.47 1512.66 1878.19 1511.55 1876.91L1510.16 1874.6C1505.7 1874.6 1500.97 1875.12 1496.79 1875.88C1492.89 1876.65 1489.27 1877.68 1485.93 1878.96L1485.09 1878.19C1486.48 1875.12 1487.6 1871.78 1488.15 1868.2C1488.99 1864.35 1489.55 1859.99 1489.55 1855.89L1487.04 1854.61C1485.65 1853.84 1484.26 1853.07 1482.58 1852.3C1481.19 1851.53 1479.52 1851.02 1478.13 1850.25C1475.06 1849.23 1472 1847.95 1468.66 1847.43L1465.87 1846.66C1462.53 1849.74 1459.75 1853.07 1457.52 1856.4C1455.29 1859.48 1453.62 1862.56 1451.95 1865.63C1451.67 1865.63 1451.39 1865.63 1451.39 1865.63C1451.11 1865.63 1450.83 1865.63 1450.83 1865.63C1449.44 1862.56 1447.49 1859.48 1445.26 1856.4C1442.76 1853.07 1439.97 1849.74 1436.91 1846.66L1434.12 1847.43C1430.78 1847.95 1427.72 1849.23 1424.66 1850.25C1423.26 1850.77 1421.59 1851.53 1420.2 1852.3C1418.81 1852.82 1417.14 1853.58 1415.74 1854.61L1413.24 1855.89C1413.24 1859.99 1413.79 1864.35 1414.63 1868.2C1415.46 1871.78 1416.58 1875.12 1417.97 1878.19C1417.69 1878.45 1417.41 1878.7 1417.14 1878.96C1413.79 1877.68 1409.89 1876.65 1406.27 1875.88C1402.1 1875.12 1397.36 1874.6 1392.91 1874.6L1391.23 1876.91C1390.4 1878.19 1389.56 1879.47 1388.73 1881.01C1388.17 1882.29 1387.34 1883.83 1386.78 1885.11C1385.66 1887.93 1384.27 1890.75 1383.72 1893.83L1382.88 1896.39C1386.22 1899.47 1389.84 1902.03 1393.46 1904.08C1396.8 1906.13 1400.15 1907.67 1403.49 1909.21C1403.49 1909.46 1403.49 1909.46 1403.49 1909.72C1403.49 1909.97 1403.49 1910.23 1403.49 1910.23C1400.15 1911.51 1396.8 1913.31 1393.46 1915.36C1389.84 1917.66 1386.22 1920.23 1382.88 1923.05L1383.72 1925.61C1384.27 1928.69 1385.66 1931.51 1386.78 1934.33C1387.34 1935.61 1388.17 1937.14 1388.73 1938.43C1389.29 1939.71 1390.12 1941.25 1391.23 1942.53L1392.91 1944.83C1397.36 1944.83 1402.1 1944.32 1406.27 1943.55C1410.17 1942.78 1413.79 1941.76 1417.14 1940.48C1417.41 1940.73 1417.69 1940.99 1417.97 1941.25C1416.58 1944.32 1415.46 1947.65 1414.63 1951.24C1413.79 1955.09 1413.24 1959.44 1413.24 1963.55L1415.74 1965.08C1417.14 1965.85 1418.53 1966.62 1420.2 1967.13C1421.59 1967.9 1423.26 1968.42 1424.66 1969.18C1427.72 1970.21 1430.78 1971.49 1434.12 1972L1436.91 1972.77C1439.97 1969.7 1443.04 1966.37 1445.26 1963.03C1447.49 1959.96 1449.16 1956.88 1450.83 1953.81C1451.11 1953.81 1451.39 1953.81 1451.39 1953.81C1451.67 1953.81 1451.95 1953.81 1451.95 1953.81C1453.62 1956.88 1455.29 1959.96 1457.52 1963.03C1460.03 1966.37 1462.81 1969.7 1465.87 1972.77L1468.66 1972C1472 1971.49 1475.06 1970.21 1478.13 1969.18C1479.8 1968.67 1481.19 1967.9 1482.58 1967.13C1483.98 1966.62 1485.65 1965.85 1487.04 1965.08L1489.55 1963.55C1489.55 1959.44 1488.99 1955.09 1488.15 1951.24C1487.32 1947.65 1486.2 1944.32 1485.09 1941.25C1485.37 1940.99 1485.65 1940.73 1485.93 1940.48C1489.27 1941.76 1492.89 1942.78 1496.79 1943.55C1500.97 1944.32 1505.7 1944.83 1510.16 1944.83L1511.55 1942.53C1512.38 1941.25 1513.22 1939.96 1514.06 1938.43C1514.89 1937.14 1515.45 1935.61 1516.28 1934.33C1517.4 1931.51 1518.79 1928.69 1519.35 1925.61L1520.18 1923.05C1516.84 1920.23 1513.22 1917.41 1509.6 1915.36C1506.26 1913.31 1502.92 1911.77 1499.57 1910.23ZM1451.67 1930.74C1438.86 1930.74 1428.55 1921.25 1428.55 1909.46C1428.55 1897.67 1438.86 1888.19 1451.67 1888.19C1464.48 1888.19 1474.79 1897.67 1474.79 1909.46C1474.51 1921.25 1464.48 1930.74 1451.67 1930.74Z" fill="#EBA154"/>
<path id="Vector_225" d="M1385.66 1942.27H1230.82V2082.99H1273.71" stroke="#FD783D" stroke-miterlimit="10" stroke-dasharray="4 4"/>
<path id="Vector_226" d="M1362.55 2158.09H1277.33V2172.19H1362.55V2158.09Z" fill="white"/>
<path id="Vector_227" d="M1408.5 2183.98H1277.33V2198.08H1408.5V2183.98Z" fill="white"/>
<path id="Vector_228" d="M1321.89 2210.12H1277.33V2224.22H1321.89V2210.12Z" fill="white"/>
<path id="Vector_229" d="M1384.83 2210.12H1340.27V2224.22H1384.83V2210.12Z" fill="#EBA154"/>
<path id="Vector_230" d="M1465.04 2210.12H1400.98V2224.22H1465.04V2210.12Z" fill="#EBA154"/>
<path id="Vector_231" d="M1465.04 2183.98H1426.05V2198.08H1465.04V2183.98Z" fill="#EBA154"/>
<path id="Vector_232" d="M1465.04 2158.09H1379.82V2172.19H1465.04V2158.09Z" fill="#EBA154"/>
<path id="Vector_233" d="M1496.23 2067.35H1493.45V2223.71H1496.23V2067.35Z" fill="white"/>
</g>
</g>
</g>
<defs>
<linearGradient id="paint0_linear_5_346" x1="-nan" y1="-nan" x2="-nan" y2="-nan" gradientUnits="userSpaceOnUse">
<stop stop-color="#F5BE3D"/>
<stop offset="1" stop-color="#DB1A6D"/>
</linearGradient>
<linearGradient id="paint1_linear_5_346" x1="-nan" y1="-nan" x2="-nan" y2="-nan" gradientUnits="userSpaceOnUse">
<stop stop-color="#F5BE3D"/>
<stop offset="1" stop-color="#DB1A6D"/>
</linearGradient>
<linearGradient id="paint2_linear_5_346" x1="-nan" y1="-nan" x2="-nan" y2="-nan" gradientUnits="userSpaceOnUse">
<stop stop-color="#F5BE3D"/>
<stop offset="1" stop-color="#DB1A6D"/>
</linearGradient>
<linearGradient id="paint3_linear_5_346" x1="-nan" y1="-nan" x2="-nan" y2="-nan" gradientUnits="userSpaceOnUse">
<stop stop-color="#F5BE3D"/>
<stop offset="1" stop-color="#DB1A6D"/>
</linearGradient>
<linearGradient id="paint4_linear_5_346" x1="2156.77" y1="826.231" x2="2678.01" y2="826.231" gradientUnits="userSpaceOnUse">
<stop stop-color="#FA667E"/>
<stop offset="1" stop-color="#7C1D7C"/>
</linearGradient>
<linearGradient id="paint5_linear_5_346" x1="2665.6" y1="921.049" x2="1851.18" y2="1478.45" gradientUnits="userSpaceOnUse">
<stop stop-color="#FA667E"/>
<stop offset="1" stop-color="#7C1D7C"/>
</linearGradient>
<linearGradient id="paint6_linear_5_346" x1="1227.48" y1="921.049" x2="2041.9" y2="1478.46" gradientUnits="userSpaceOnUse">
<stop stop-color="#FA667E"/>
<stop offset="1" stop-color="#7C1D7C"/>
</linearGradient>
<linearGradient id="paint7_linear_5_346" x1="1736.31" y1="826.231" x2="1215.06" y2="826.231" gradientUnits="userSpaceOnUse">
<stop stop-color="#FA667E"/>
<stop offset="1" stop-color="#7C1D7C"/>
</linearGradient>
</defs>
</svg>
