<svg width="406" height="260" viewBox="0 0 406 260" fill="none" xmlns="http://www.w3.org/2000/svg">
<g id="visible">
<path id="Vector" d="M203 65C267.114 65 324.293 88.075 352.205 124.583C324.293 161.092 267.114 184.167 203 184.167C138.886 184.167 81.7075 161.092 53.795 124.583C81.7075 88.075 138.886 65 203 65ZM203 43.3333C118.417 43.3333 46.1825 77.025 16.9167 124.583C46.1825 172.142 118.417 205.833 203 205.833C287.583 205.833 359.818 172.142 389.083 124.583C359.818 77.025 287.583 43.3333 203 43.3333ZM203 97.5C226.345 97.5 245.292 109.633 245.292 124.583C245.292 139.533 226.345 151.667 203 151.667C179.655 151.667 160.708 139.533 160.708 124.583C160.708 109.633 179.655 97.5 203 97.5ZM203 75.8333C161.047 75.8333 126.875 97.7167 126.875 124.583C126.875 151.45 161.047 173.333 203 173.333C244.953 173.333 279.125 151.45 279.125 124.583C279.125 97.7167 244.953 75.8333 203 75.8333Z" fill="black"/>
</g>
</svg>
