<svg width="220" height="220" viewBox="0 0 220 220" fill="none" xmlns="http://www.w3.org/2000/svg">
<g id="blind">
<g id="Group">
<g id="Group_2" opacity="0.3">
<path id="Vector" opacity="0.3" d="M2.1192 212.256C38.1961 221.592 180.942 221.592 217.029 212.256C220.369 211.39 219.553 207.524 216.037 207.524H3.11124C-0.40511 207.524 -1.22035 211.4 2.1192 212.256Z" fill="#000072"/>
</g>
<g id="Group_3">
<path id="Vector_2" d="M12.2164 207.012C16.2729 206.215 20.3295 206.009 24.3861 205.92C28.4427 205.812 32.4992 205.871 36.5558 205.93C40.6124 205.979 44.6689 205.989 48.7255 205.979H60.8952H109.574H158.253H182.592H188.672C190.696 205.979 192.729 205.91 194.752 205.881C198.809 205.861 202.865 205.91 206.922 207.012C207.207 207.091 207.374 207.386 207.295 207.671C207.246 207.858 207.099 207.996 206.922 208.045C202.865 209.157 198.809 209.196 194.752 209.176C192.729 209.147 190.696 209.068 188.672 209.078H182.592H158.253H109.574H60.8952H48.7255C44.6689 209.068 40.6124 209.078 36.5558 209.127C32.4992 209.186 28.4427 209.245 24.3861 209.137C20.3295 209.049 16.2729 208.842 12.2164 208.045C11.9315 207.986 11.7449 207.711 11.8038 207.425C11.8431 207.209 12.0101 207.051 12.2164 207.012Z" fill="#000072"/>
</g>
<g id="Group_4">
<g id="Group_5">
<g id="Group_6">
<path id="Vector_3" d="M159.745 196.505L160.384 196.426C178.26 194.301 190.489 177.321 186.874 159.662L180.156 126.881C177.091 111.927 163.949 101.184 148.705 101.184H109.632H110.742H71.6697C56.4257 101.184 43.2836 111.918 40.2191 126.881L33.5007 159.662C29.8862 177.321 42.1148 194.301 59.9912 196.426L60.6296 196.505H159.745Z" fill="#4D5A6A"/>
</g>
<g id="Group_7">
<path id="Vector_4" d="M159.755 196.751H60.6395L59.9716 196.673C51.387 195.649 43.5587 191.035 38.5003 184.011C33.4419 176.987 31.5364 168.093 33.2749 159.613L39.9933 126.832C43.0676 111.829 56.3964 100.939 71.6895 100.939H148.725C164.018 100.939 177.347 111.829 180.411 126.832L187.13 159.613C188.868 168.093 186.963 176.987 181.904 184.011C176.846 191.035 169.018 195.649 160.433 196.673L159.755 196.751ZM71.6699 101.44C56.6124 101.44 43.49 112.164 40.4648 126.941L33.7464 159.721C32.0373 168.073 33.9134 176.819 38.8932 183.736C43.8731 190.652 51.5737 195.187 60.0306 196.2L60.669 196.279H159.736L160.364 196.2C168.811 195.197 176.522 190.652 181.492 183.736C186.472 176.819 188.348 168.073 186.639 159.721L179.92 126.941C176.895 112.164 163.773 101.44 148.715 101.44H71.6699Z" fill="#000072"/>
</g>
</g>
<g id="Group_8" opacity="0.3">
<path id="Vector_5" opacity="0.3" d="M160.384 196.436L159.746 196.515H60.6399L60.0015 196.436C48.5684 195.079 39.4436 187.631 35.2888 177.823C39.8267 181.906 45.6316 184.69 52.1928 185.477L52.8313 185.555H151.937L152.576 185.477C170.452 183.352 182.681 166.371 179.066 148.712L172.358 115.932C171.906 113.728 171.238 111.622 170.374 109.625C175.245 114.072 178.762 120.034 180.166 126.891L186.875 159.662C190.489 177.321 178.251 194.301 160.384 196.436Z" fill="#000072"/>
</g>
<g id="Group_9" opacity="0.55">
<path id="Vector_6" opacity="0.55" d="M164.549 105.375C160.885 103.929 156.917 103.142 152.791 103.142H75.756C60.5119 103.142 47.3698 113.876 44.3053 128.839L37.5869 161.62C34.8269 175.088 41.2899 188.163 52.4381 194.548C38.8343 189.245 30.4167 174.694 33.5009 159.662L40.2193 126.881C43.2838 111.928 56.4259 101.184 71.6699 101.184H148.705C154.422 101.194 159.844 102.699 164.549 105.375Z" fill="white"/>
</g>
<g id="Group_10">
<path id="Vector_7" d="M159.746 198.109H60.6397C60.5807 198.109 60.512 198.109 60.453 198.099L59.8146 198.02C50.8568 196.958 42.6847 192.137 37.4003 184.808C32.116 177.478 30.1319 168.191 31.949 159.337L38.6674 126.557C41.8694 110.924 55.758 99.5808 71.6798 99.5808H148.715C164.647 99.5808 178.526 110.924 181.728 126.557L188.446 159.337C190.263 168.191 188.269 177.478 182.995 184.808C177.72 192.137 169.548 196.958 160.581 198.02L159.942 198.099C159.873 198.099 159.805 198.109 159.746 198.109ZM60.7281 194.911H159.647L160.197 194.843C168.271 193.879 175.638 189.54 180.392 182.939C185.146 176.337 186.943 167.965 185.303 159.986L178.585 127.206C175.687 113.059 163.115 102.788 148.696 102.788H71.6602C57.2412 102.788 44.6688 113.059 41.7712 127.206L35.0528 159.986C33.4224 167.965 35.21 176.327 39.9639 182.939C44.7277 189.54 52.0845 193.888 60.1584 194.843L60.7281 194.911Z" fill="#000072"/>
</g>
<g id="Group_11">
<g id="Group_12">
<path id="Vector_8" d="M167.092 76.9829C166.994 77.3567 166.896 77.7305 166.798 78.1044C166.719 78.3897 166.641 78.6652 166.562 78.9406C166.533 79.0488 166.503 79.1472 166.464 79.2554C166.395 79.4817 166.326 79.7178 166.258 79.9343C166.169 80.2294 166.071 80.5147 165.973 80.8C165.933 80.9279 165.884 81.0558 165.845 81.1837C165.708 81.5969 165.56 82.0101 165.413 82.4135C165.256 82.866 165.079 83.3087 164.902 83.7416C164.735 84.1843 164.549 84.6172 164.362 85.0599C164.185 85.4928 163.989 85.9256 163.792 86.3585C163.606 86.7717 163.419 87.1849 163.213 87.5981C163.183 87.6473 163.164 87.7063 163.134 87.7555C162.957 88.1392 162.761 88.5229 162.564 88.8967C162.555 88.9066 162.555 88.9164 162.545 88.9262C162.329 89.3493 162.113 89.7625 161.887 90.1757C161.622 90.6676 161.346 91.1496 161.062 91.6317C160.865 91.9662 160.669 92.3007 160.472 92.6254C160.462 92.6352 160.453 92.645 160.453 92.6549C160.207 93.0582 159.962 93.4616 159.706 93.8649C159.284 94.5339 158.842 95.1931 158.39 95.8522C158.194 96.1375 157.987 96.4228 157.791 96.7081C157.624 96.9443 157.447 97.1804 157.27 97.4263C157.005 97.7805 156.74 98.1347 156.475 98.4888C156.209 98.8332 155.954 99.1578 155.689 99.4923C155.542 99.6792 155.394 99.8662 155.237 100.043C155.139 100.161 155.041 100.279 154.952 100.397C154.775 100.614 154.599 100.82 154.412 101.037C153.921 101.617 153.42 102.188 152.909 102.749C152.664 103.024 152.408 103.3 152.153 103.575C151.966 103.772 151.78 103.978 151.593 104.175C151.328 104.451 151.063 104.726 150.797 104.992C150.414 105.385 150.021 105.769 149.629 106.153C149.304 106.458 148.99 106.763 148.666 107.068C148.617 107.117 148.568 107.166 148.519 107.205C148.185 107.52 147.851 107.825 147.517 108.13C146.898 108.691 146.26 109.232 145.611 109.773C145.454 109.911 145.287 110.039 145.13 110.176C144.806 110.442 144.472 110.708 144.138 110.973C142.979 111.898 141.79 112.784 140.573 113.649C140.553 113.669 140.523 113.679 140.504 113.698C135.769 117.034 130.623 119.523 125.27 121.146C123.413 121.707 121.537 122.179 119.641 122.543C111.243 124.146 102.541 123.723 94.3001 121.293C88.7604 119.66 83.427 117.112 78.5355 113.659C78.1525 113.384 77.7694 113.108 77.3863 112.833C77.347 112.803 77.3077 112.774 77.2685 112.744C76.8854 112.459 76.5121 112.183 76.1389 111.898C75.746 111.603 75.3629 111.298 74.9701 110.983H74.9602C74.5772 110.678 74.1941 110.363 73.8209 110.058C73.4378 109.744 73.0646 109.419 72.6913 109.104C72.3181 108.779 71.9546 108.465 71.5912 108.14C71.2278 107.805 70.8644 107.481 70.501 107.146C70.1474 106.812 69.7938 106.477 69.4402 106.143C69.0866 105.808 68.7428 105.464 68.399 105.12C68.0552 104.775 67.7213 104.431 67.3775 104.077C67.0435 103.723 66.7096 103.359 66.3756 102.995C66.0515 102.64 65.7372 102.286 65.4229 101.932C65.1773 101.657 64.9318 101.371 64.696 101.086C63.9987 100.26 63.3209 99.4136 62.653 98.5577C62.3878 98.2035 62.1128 97.8494 61.8574 97.4952C61.8181 97.4558 61.7887 97.4066 61.7592 97.3574C61.5824 97.1213 61.4056 96.8754 61.2288 96.6294C60.8359 96.0785 60.4528 95.5177 60.0796 94.957C59.8733 94.652 59.6671 94.3372 59.4706 94.0224C59.1661 93.5501 58.8715 93.0681 58.5768 92.586C58.3706 92.2417 58.1643 91.8973 57.9678 91.553C57.6928 91.0709 57.4178 90.5692 57.1428 90.0773C56.9463 89.7034 56.7499 89.3296 56.5534 88.9558C56.357 88.5721 56.1606 88.1884 55.9838 87.8047C55.9543 87.7555 55.9248 87.6965 55.9052 87.6473C55.5025 86.8209 55.1194 85.9847 54.7658 85.1386C54.7462 85.0992 54.7265 85.0697 54.7167 85.0304C54.5399 84.6172 54.3729 84.1941 54.2059 83.7809C54.0291 83.3481 53.8622 82.9054 53.6952 82.4528C53.5282 82.0101 53.3711 81.5576 53.2237 81.1148C53.1157 80.7803 52.9978 80.4458 52.8898 80.1113C52.8014 79.8457 52.7228 79.5801 52.6442 79.3145C52.6049 79.1964 52.5656 79.0783 52.5362 78.9603C52.4576 78.6947 52.379 78.4389 52.3102 78.1831C52.2022 77.7994 52.104 77.4157 52.0058 77.0222C48.018 48.8559 73.595 17.6201 99.1425 4.22063C105.645 0.806828 113.414 0.806828 119.916 4.22063C120.496 4.51577 121.066 4.84042 121.635 5.17492L121.645 5.18476C146.643 19.509 170.982 49.4462 167.092 76.9829Z" fill="#4D5A6A"/>
</g>
<g id="Group_13">
<g id="Group_14" opacity="0.4">
<path id="Vector_9" opacity="0.4" d="M119.396 122.474C120.123 122.287 120.84 122.09 121.557 121.864C126.9 120.241 132.057 117.752 136.791 114.417C136.811 114.397 136.84 114.387 136.86 114.367C138.078 113.511 139.266 112.616 140.425 111.691C140.759 111.426 141.093 111.16 141.417 110.895C141.584 110.757 141.741 110.619 141.898 110.491C142.547 109.95 143.175 109.409 143.804 108.848C144.148 108.543 144.482 108.238 144.806 107.923C144.855 107.884 144.904 107.835 144.953 107.786C145.277 107.491 145.601 107.186 145.916 106.871C146.309 106.487 146.701 106.094 147.085 105.71C147.36 105.444 147.615 105.169 147.88 104.893C148.067 104.697 148.253 104.49 148.44 104.293C148.695 104.018 148.951 103.752 149.196 103.467C149.707 102.906 150.208 102.326 150.699 101.755C150.876 101.539 151.053 101.332 151.239 101.116C151.338 100.997 151.436 100.879 151.524 100.761C151.672 100.584 151.819 100.397 151.976 100.21C152.241 99.8759 152.506 99.5414 152.762 99.2069C153.027 98.8528 153.292 98.4986 153.557 98.1444C153.734 97.9083 153.901 97.6722 154.078 97.4262C154.284 97.1409 154.481 96.8655 154.677 96.5703C155.129 95.9112 155.571 95.252 155.993 94.5831C156.249 94.1797 156.494 93.7862 156.74 93.373C156.74 93.3631 156.75 93.3533 156.759 93.3435C156.956 93.009 157.152 92.6843 157.349 92.3498C157.634 91.8678 157.899 91.3857 158.174 90.8938C158.4 90.4806 158.616 90.0674 158.832 89.6444C158.842 89.6345 158.842 89.6247 158.852 89.6148C159.048 89.241 159.244 88.8573 159.421 88.4736C159.451 88.4244 159.47 88.3654 159.5 88.3162C159.696 87.903 159.893 87.4898 160.079 87.0766C160.276 86.6536 160.472 86.2109 160.649 85.778C160.836 85.3451 161.012 84.9024 161.189 84.4597C161.366 84.0268 161.533 83.5841 161.7 83.1316C161.857 82.7282 161.995 82.315 162.132 81.9018C162.171 81.7838 162.221 81.6559 162.26 81.5181C162.358 81.2328 162.456 80.9377 162.545 80.6524C162.613 80.4261 162.692 80.1998 162.751 79.9735C162.79 79.8653 162.82 79.767 162.849 79.6587C162.928 79.3833 163.006 79.1078 163.085 78.8225C163.183 78.4585 163.291 78.0748 163.38 77.701C167.23 50.5086 143.529 20.9551 118.885 6.39478C136.221 22.1848 149.334 44.3106 146.397 65.0689C146.299 65.4428 146.201 65.8166 146.102 66.1904C146.024 66.4758 145.945 66.7512 145.867 67.0267C145.837 67.1349 145.808 67.2333 145.768 67.3415C145.7 67.5678 145.631 67.8039 145.562 68.0203C145.474 68.3155 145.375 68.6008 145.277 68.8861C145.238 69.014 145.189 69.1419 145.15 69.2697C145.012 69.6829 144.865 70.0961 144.717 70.4995C144.56 70.9521 144.383 71.3948 144.207 71.8276C144.04 72.2704 143.853 72.7032 143.666 73.1459C143.49 73.5788 143.293 74.0117 143.097 74.4446C142.91 74.8578 142.724 75.271 142.517 75.6842C142.488 75.7334 142.468 75.7924 142.439 75.8416C142.262 76.2253 142.065 76.6089 141.869 76.9828C141.859 76.9926 141.859 77.0025 141.849 77.0123C141.633 77.4353 141.417 77.8485 141.191 78.2617C140.926 78.7536 140.651 79.2357 140.366 79.7178C140.17 80.0522 139.973 80.3867 139.777 80.7114C139.767 80.7212 139.757 80.7311 139.757 80.7409C139.512 81.1443 139.266 81.5477 139.011 81.951C138.588 82.62 138.146 83.2791 137.695 83.9383C137.498 84.2236 137.292 84.5089 137.095 84.7942C136.928 85.0303 136.752 85.2664 136.575 85.5124C136.31 85.8666 136.044 86.2207 135.779 86.5749C135.514 86.9192 135.259 87.2439 134.993 87.5784C134.846 87.7653 134.699 87.9522 134.542 88.1293C134.443 88.2473 134.345 88.3654 134.257 88.4835C134.08 88.6999 133.903 88.9065 133.717 89.1229C133.225 89.7034 132.725 90.274 132.214 90.8347C131.968 91.1102 131.713 91.3857 131.457 91.6612C131.271 91.8579 131.084 92.0645 130.898 92.2613C130.632 92.5367 130.367 92.8122 130.102 93.0778C129.719 93.4713 129.326 93.855 128.933 94.2387C128.609 94.5437 128.295 94.8487 127.971 95.1537C127.922 95.2029 127.872 95.252 127.823 95.2914C127.489 95.6062 127.155 95.9112 126.821 96.2162C126.203 96.7769 125.564 97.318 124.916 97.8591C124.759 97.9969 124.592 98.1247 124.435 98.2625C124.11 98.5281 123.777 98.7937 123.443 99.0594C122.284 99.9841 121.095 100.87 119.877 101.735C119.857 101.755 119.828 101.765 119.808 101.785C115.074 105.12 109.927 107.609 104.574 109.232C102.718 109.793 100.842 110.265 98.9461 110.629C99.0345 110.609 99.1229 110.59 99.2211 110.57C98.0719 110.865 96.9129 111.131 95.7539 111.357C88.8096 112.685 81.6492 112.616 74.7148 111.18C74.6362 111.121 74.5576 111.052 74.4692 110.993C74.8523 111.298 75.2354 111.593 75.6184 111.888C75.9917 112.173 76.3649 112.449 76.748 112.734C76.7873 112.764 76.8266 112.783 76.8659 112.823C77.2489 113.098 77.632 113.374 78.015 113.649C82.9065 117.102 88.2399 119.65 93.7796 121.284C102.02 123.714 110.723 124.137 119.121 122.533C120.113 122.346 121.095 122.12 122.077 121.884C121.193 122.09 120.299 122.297 119.396 122.474Z" fill="#000072"/>
</g>
</g>
<g id="Group_15" opacity="0.55">
<path id="Vector_10" opacity="0.55" d="M130.819 11.4418C128.855 10.1039 126.871 8.86426 124.877 7.72305L124.867 7.71321C124.287 7.37872 123.718 7.06391 123.148 6.75893C116.646 3.34512 108.876 3.34512 102.374 6.75893C76.8266 20.1584 51.2496 51.3942 55.2374 79.5605C55.3356 79.954 55.4437 80.3377 55.5419 80.7214C55.6106 80.987 55.6892 81.2428 55.7678 81.4986C55.7973 81.6166 55.8366 81.7347 55.8759 81.8528C55.9544 82.1184 56.033 82.384 56.1214 82.6496C56.2294 82.9841 56.3375 83.3186 56.4554 83.6531C56.6027 84.1057 56.7598 84.5484 56.9268 84.9911C57.084 85.4436 57.2608 85.8864 57.4376 86.3192C57.6045 86.7423 57.7715 87.1555 57.9483 87.5687C57.9582 87.608 57.9778 87.6375 57.9974 87.6769C58.351 88.523 58.7243 89.3592 59.1368 90.1856C59.1565 90.2348 59.1859 90.2938 59.2154 90.343C59.3922 90.7267 59.5886 91.1104 59.7851 91.4941C59.9815 91.8679 60.178 92.2417 60.3744 92.6156C60.6494 93.1075 60.9146 93.6092 61.1995 94.0913C61.4057 94.4356 61.612 94.78 61.8084 95.1243C62.1031 95.6064 62.3978 96.0884 62.7023 96.5607C62.8987 96.8755 63.105 97.1903 63.3112 97.4953C63.6845 98.056 64.0675 98.6168 64.4604 99.1677C64.6274 99.4137 64.8042 99.6596 64.9908 99.8957C65.0203 99.9351 65.0596 99.9843 65.0891 100.033C65.3444 100.388 65.6194 100.742 65.8846 101.096C66.5427 101.952 67.2303 102.798 67.9277 103.624C68.1634 103.91 68.409 104.185 68.6545 104.47C68.9688 104.834 69.2831 105.189 69.6073 105.533C69.9412 105.897 70.2752 106.251 70.6091 106.615C70.9431 106.969 71.2869 107.314 71.6306 107.658C71.9744 108.002 72.3182 108.347 72.6718 108.681C73.0254 109.025 73.379 109.36 73.7326 109.685C74.0862 110.019 74.4496 110.344 74.8228 110.678C75.1863 111.003 75.5497 111.328 75.9229 111.642C76.2962 111.957 76.6694 112.282 77.0525 112.597C77.4355 112.902 77.8088 113.216 78.1919 113.521H78.2017C78.5946 113.826 78.9776 114.131 79.3705 114.436C79.7143 114.702 80.0679 114.958 80.4215 115.223C79.9795 114.938 79.5473 114.633 79.1053 114.328C78.7223 114.053 78.3392 113.777 77.9561 113.502C77.9168 113.472 77.8775 113.443 77.8383 113.413C77.4552 113.128 77.0819 112.852 76.7087 112.567C76.3158 112.272 75.9327 111.967 75.5399 111.652H75.53C75.147 111.347 74.7639 111.032 74.3907 110.727C74.0076 110.413 73.6344 110.088 73.2611 109.773C72.8879 109.448 72.5244 109.134 72.161 108.809C71.7976 108.475 71.4342 108.15 71.0708 107.815C70.7172 107.481 70.3636 107.146 70.01 106.812C69.6564 106.477 69.3126 106.133 68.9688 105.789C68.625 105.444 68.2911 105.1 67.9473 104.746C67.6134 104.392 67.2794 104.028 66.9454 103.664C66.6213 103.31 66.307 102.955 65.9927 102.601C65.7471 102.326 65.5016 102.04 65.2659 101.755C64.5685 100.929 63.8907 100.083 63.2228 99.2268C62.9576 98.8726 62.6826 98.5184 62.4272 98.1642C62.388 98.1249 62.3585 98.0757 62.329 98.0265C62.1522 97.7904 61.9754 97.5445 61.7986 97.2985C61.4057 96.7476 61.0227 96.1868 60.6494 95.626C60.4432 95.3211 60.2369 95.0062 60.0404 94.6914C59.736 94.2192 59.4413 93.7371 59.1466 93.2551C58.9404 92.9107 58.7341 92.5664 58.5377 92.2221C58.2626 91.74 57.9876 91.2383 57.7126 90.7464C57.5162 90.3725 57.3197 89.9987 57.1233 89.6248C56.9268 89.2411 56.7304 88.8574 56.5536 88.4738C56.5241 88.4246 56.4946 88.3656 56.475 88.3164C56.0723 87.49 55.6892 86.6537 55.3356 85.8077C55.316 85.7683 55.2963 85.7388 55.2865 85.6994C55.1097 85.2862 54.9427 84.8632 54.7758 84.45C54.599 84.0171 54.432 83.5744 54.265 83.1219C54.098 82.6792 53.9409 82.2266 53.7935 81.7839C53.6855 81.4494 53.5676 81.1149 53.4596 80.7804C53.3712 80.5148 53.2926 80.2492 53.214 79.9835C53.1747 79.8655 53.1355 79.7474 53.106 79.6294C53.0274 79.3637 52.9488 79.108 52.8801 78.8522C52.772 78.4685 52.6738 78.0848 52.5756 77.6913C48.5878 49.5249 74.1648 18.2793 99.7123 4.8897C106.215 1.47589 113.984 1.47589 120.486 4.8897C121.066 5.18484 121.635 5.50949 122.205 5.84398L122.215 5.85382C125.103 7.50661 127.99 9.38568 130.819 11.4418Z" fill="white"/>
</g>
<g id="Group_16">
<path id="Vector_11" d="M109.564 125.071C98.3667 125.071 87.1694 121.697 77.6222 114.948C77.2293 114.672 76.8462 114.387 76.4533 114.112C76.4337 114.102 76.414 114.082 76.3944 114.062C76.3649 114.043 76.3453 114.023 76.3158 114.003C75.9131 113.698 75.5399 113.423 75.1765 113.147C74.8032 112.862 74.43 112.567 74.0567 112.272C74.0273 112.252 73.9978 112.232 73.9683 112.203C73.5951 111.898 73.2218 111.603 72.8584 111.298C72.4262 110.944 72.0432 110.619 71.6699 110.294C71.2869 109.97 70.9136 109.635 70.5404 109.301L70.4913 109.252C70.1278 108.927 69.7743 108.612 69.4305 108.278C69.0769 107.943 68.7135 107.599 68.35 107.254C67.9964 106.92 67.633 106.566 67.2892 106.202C66.9258 105.838 66.5919 105.493 66.2579 105.139C65.9141 104.775 65.5703 104.411 65.2364 104.047C64.9024 103.673 64.5783 103.309 64.2542 102.945C64.0086 102.67 63.7631 102.385 63.5175 102.089C62.7907 101.224 62.0835 100.358 61.4254 99.502L61.2486 99.2659C61.0423 98.9905 60.836 98.715 60.6298 98.4395C60.5905 98.3903 60.561 98.351 60.5217 98.3018C60.3253 98.0362 60.1387 97.7804 59.9521 97.5147C59.5199 96.9146 59.1368 96.3538 58.7832 95.8029C58.5769 95.4881 58.351 95.1634 58.1546 94.829C57.8501 94.3567 57.5456 93.8648 57.2411 93.3729L57.0545 93.0581C56.9072 92.8122 56.7598 92.5662 56.6223 92.3202C56.3473 91.8382 56.0821 91.3561 55.8267 90.8839L55.7874 90.8052C55.5714 90.4018 55.3749 90.028 55.1785 89.6443C54.982 89.2705 54.7954 88.8868 54.6088 88.5031C54.5695 88.4244 54.5204 88.3457 54.4909 88.2571C54.0587 87.3619 53.6953 86.5552 53.3712 85.7779C53.3417 85.7189 53.3024 85.6402 53.273 85.5517C53.0962 85.1385 52.9292 84.7253 52.772 84.3121C52.5952 83.8694 52.4184 83.407 52.2515 82.9348C52.0845 82.492 51.9175 82.0296 51.7702 81.5673C51.6621 81.2328 51.5443 80.8884 51.4362 80.5441C51.3478 80.2686 51.2692 79.9932 51.1808 79.7177C51.1415 79.5996 51.1023 79.4619 51.063 79.3242C50.9942 79.0881 50.9058 78.8126 50.8371 78.5273C50.729 78.1535 50.6308 77.7599 50.5228 77.3664C50.5031 77.3074 50.4933 77.2484 50.4835 77.1893C48.0672 60.1301 56.0919 44.3499 63.2523 34.1085C72.2986 21.1715 85.1263 9.73967 98.4649 2.74482C105.429 -0.914938 113.748 -0.914938 120.722 2.74482C134.061 9.73967 146.888 21.1715 155.935 34.1085C163.095 44.3499 171.11 60.1301 168.703 77.1893C168.694 77.2484 168.684 77.3074 168.664 77.3664C168.566 77.7501 168.458 78.1338 168.36 78.5076L168.085 79.4619C168.065 79.5406 168.035 79.6292 168.006 79.7079C167.957 79.8751 167.908 80.0424 167.849 80.2096L167.79 80.3867C167.702 80.672 167.613 80.9475 167.515 81.2229L167.495 81.282C167.446 81.4197 167.407 81.5574 167.358 81.6853C167.22 82.0985 167.063 82.5314 166.906 82.9643C166.749 83.3971 166.572 83.8595 166.385 84.3219C166.218 84.7548 166.032 85.2172 165.835 85.6697C165.649 86.1124 165.452 86.565 165.246 87.0077C165.059 87.4209 164.863 87.8439 164.657 88.267L164.568 88.4539C164.391 88.8179 164.195 89.2213 163.989 89.6148C163.763 90.0673 163.537 90.4904 163.311 90.9134C163.036 91.425 162.751 91.9267 162.456 92.4186C162.27 92.7433 162.064 93.0876 161.867 93.4221C161.867 93.4221 161.867 93.432 161.857 93.432C161.857 93.4418 161.848 93.4516 161.848 93.4516C161.592 93.8648 161.337 94.278 161.072 94.6912C160.6 95.4291 160.158 96.0882 159.726 96.7277C159.529 97.0228 159.313 97.3081 159.107 97.6033C158.93 97.8492 158.763 98.0854 158.577 98.3313C158.312 98.6953 158.036 99.0593 157.771 99.4135C157.496 99.7677 157.231 100.112 156.956 100.446C156.799 100.643 156.642 100.84 156.494 101.027L155.65 102.04C155.149 102.631 154.628 103.221 154.117 103.791C153.882 104.057 153.626 104.332 153.361 104.608L152.772 105.228C152.477 105.533 152.212 105.808 151.927 106.084C151.554 106.458 151.151 106.861 150.748 107.254C150.424 107.569 150.1 107.874 149.776 108.179C149.717 108.238 149.648 108.297 149.589 108.346C149.255 108.661 148.922 108.966 148.578 109.271C147.92 109.861 147.262 110.422 146.643 110.944L146.161 111.347C145.818 111.632 145.474 111.908 145.14 112.173C143.961 113.108 142.743 114.023 141.506 114.899C141.496 114.908 141.466 114.928 141.447 114.938L141.437 114.948C131.9 121.706 120.732 125.071 109.564 125.071ZM78.3785 111.544C78.7419 111.809 79.1152 112.075 79.4786 112.331C97.4532 125.032 121.616 125.051 139.61 112.38C139.64 112.36 139.659 112.341 139.679 112.331C140.867 111.495 142.036 110.609 143.166 109.714C143.49 109.448 143.814 109.193 144.138 108.927L144.61 108.533C145.209 108.032 145.837 107.491 146.476 106.92C146.8 106.625 147.124 106.339 147.438 106.034C147.468 106.005 147.497 105.985 147.527 105.956L147.556 105.926C147.576 105.907 147.586 105.897 147.605 105.877C147.92 105.592 148.234 105.297 148.538 104.992C148.921 104.618 149.305 104.234 149.688 103.86C149.963 103.585 150.208 103.329 150.464 103.073L151.023 102.473C151.279 102.198 151.515 101.952 151.74 101.686C152.251 101.125 152.742 100.555 153.224 99.9939L154.029 99.0298C154.176 98.8429 154.324 98.6658 154.471 98.4887C154.726 98.164 154.982 97.8394 155.237 97.5049C155.493 97.1704 155.758 96.8162 156.013 96.4719C156.18 96.2358 156.347 96.0095 156.514 95.7734C156.71 95.4979 156.907 95.2225 157.103 94.947C157.526 94.337 157.938 93.7074 158.39 93.0089C158.636 92.6252 158.881 92.2317 159.117 91.8382C159.117 91.8284 159.127 91.8283 159.127 91.8185C159.323 91.4938 159.51 91.1692 159.696 90.8445C159.981 90.3625 160.246 89.8903 160.502 89.418C160.718 89.0147 160.924 88.6211 161.14 88.2079C161.14 88.1981 161.16 88.1686 161.17 88.1587C161.356 87.7947 161.543 87.4406 161.71 87.0766L161.808 86.8798C161.985 86.506 162.172 86.1124 162.348 85.7091C162.545 85.286 162.732 84.863 162.908 84.4498C163.095 84.0268 163.262 83.6037 163.429 83.1807C163.606 82.738 163.773 82.315 163.92 81.8919C164.077 81.4787 164.215 81.0852 164.342 80.6917L164.49 80.249C164.578 79.9932 164.657 79.7374 164.745 79.4717L164.804 79.2848C164.853 79.1373 164.902 78.9897 164.942 78.8323C164.951 78.8028 164.961 78.7634 164.971 78.7339C164.991 78.6847 165 78.6454 165.01 78.606L165.275 77.6812C165.364 77.3566 165.452 77.0221 165.541 76.6876C167.279 64.2031 162.938 49.751 153.312 35.9777C144.551 23.4441 132.135 12.3763 119.239 5.61752C113.198 2.44967 105.989 2.44967 99.948 5.61752C87.0515 12.3763 74.6264 23.4441 65.8748 35.9777C56.2491 49.751 51.9077 64.2031 53.6462 76.6876C53.7346 77.0418 53.8328 77.3861 53.9212 77.7304C53.99 77.996 54.0587 78.2322 54.1373 78.4683C54.1766 78.606 54.2061 78.7142 54.2355 78.8126C54.3239 79.0881 54.3927 79.3537 54.4811 79.6095C54.5891 79.9342 54.6972 80.2686 54.8052 80.5835C54.9526 81.0163 55.0999 81.4492 55.2669 81.8722C55.424 82.3248 55.591 82.7478 55.758 83.161C55.925 83.5841 56.0919 83.9874 56.2589 84.3908C56.2589 84.4006 56.2687 84.4105 56.2687 84.4105C56.2884 84.44 56.2982 84.4695 56.308 84.499C56.6223 85.2565 56.9858 86.0436 57.4081 86.929C57.4179 86.9487 57.4277 86.9683 57.4376 86.9979C57.4572 87.0372 57.4769 87.0667 57.4965 87.1061C57.6733 87.4701 57.8501 87.8341 58.0367 88.1981C58.2332 88.572 58.4198 88.9458 58.6162 89.3098L58.6457 89.3688C58.9011 89.8312 59.1565 90.2936 59.4118 90.7462C59.5395 90.9724 59.6869 91.2086 59.8244 91.4447L60.011 91.7595C60.286 92.2219 60.5807 92.6842 60.8753 93.1466C61.0718 93.4615 61.2682 93.7566 61.4647 94.0518C61.8084 94.5732 62.1719 95.1044 62.5942 95.6947C62.7612 95.9407 62.9282 96.1669 63.0952 96.3834C63.105 96.3932 63.1344 96.4424 63.1443 96.4522L63.1246 96.4326C63.1639 96.4719 63.1934 96.5113 63.2228 96.5605C63.4193 96.8261 63.6157 97.0917 63.822 97.3573L63.9988 97.5836C64.6176 98.3805 65.2855 99.2167 65.9829 100.043C66.2186 100.319 66.4543 100.594 66.6901 100.86C67.0044 101.224 67.3089 101.568 67.6232 101.912C67.9473 102.257 68.2813 102.611 68.6152 102.975C68.9295 103.309 69.2537 103.634 69.5876 103.968C69.9412 104.323 70.2752 104.657 70.6091 104.982C70.9627 105.326 71.3065 105.651 71.6503 105.975C71.9941 106.3 72.328 106.595 72.6718 106.91L72.7209 106.959C73.0745 107.274 73.4281 107.589 73.7915 107.904C74.1549 108.219 74.5184 108.533 74.8916 108.838C75.2649 109.143 75.5988 109.419 75.9426 109.694C75.9622 109.714 75.9917 109.734 76.0113 109.753C76.3944 110.058 76.7775 110.353 77.1605 110.649C77.5043 110.914 77.8677 111.18 78.2312 111.455C78.2606 111.455 78.3196 111.495 78.3785 111.544ZM147.556 105.926L147.546 105.936C147.546 105.936 147.556 105.936 147.556 105.926Z" fill="#000072"/>
</g>
<g id="Group_17">
<g id="Group_18">
<g id="Group_19">
<g id="Group_20">
<path id="Vector_12" d="M154.324 85.0696C154.226 85.3647 154.117 85.6697 154.009 85.9845C151.043 93.5795 145.238 97.6328 141.722 93.0482L143.824 82.7281L145.248 75.7136C150.739 71.9555 158.056 73.6378 154.324 85.0696Z" fill="#FDBD91"/>
</g>
<g id="Group_21">
<path id="Vector_13" d="M145.238 95.1734C143.843 95.1734 142.586 94.4847 141.565 93.1664L141.516 93.0975L145.071 75.6055L145.13 75.5661C148.126 73.5198 151.495 73.1656 153.518 74.6807C154.834 75.6743 156.71 78.3405 154.491 85.1385C154.392 85.4435 154.284 85.7485 154.176 86.0633C152.192 91.1397 148.931 94.7011 145.857 95.1438C145.661 95.1537 145.454 95.1734 145.238 95.1734ZM141.928 92.9991C142.999 94.3568 144.335 94.9569 145.818 94.7503C148.754 94.3273 151.907 90.8643 153.832 85.9157C153.941 85.6108 154.049 85.3058 154.147 85.0106C155.738 80.1408 155.433 76.5794 153.302 74.9758C151.426 73.569 148.263 73.9133 145.425 75.8318L141.928 92.9991Z" fill="#000072"/>
</g>
</g>
<g id="Group_22" opacity="0.3">
<path id="Vector_14" opacity="0.3" d="M154.324 85.0697C154.226 85.3648 154.118 85.6698 154.009 85.9846C151.043 93.5796 145.238 97.6329 141.722 93.0483L143.824 82.7282C144.315 82.6889 144.61 82.6692 144.61 82.6692C146.741 89.3492 149.845 89.9494 153.901 84.4499C153.901 84.4499 154.059 84.6762 154.324 85.0697Z" fill="#000072"/>
</g>
<g id="Group_23">
<path id="Vector_15" d="M145.248 96.2653C143.519 96.2653 141.928 95.4192 140.71 93.8353C140.484 93.5402 140.396 93.1565 140.474 92.7925L144.001 75.4578C144.069 75.1332 144.256 74.838 144.531 74.6511C147.949 72.3097 151.858 71.985 154.255 73.8444C155.866 75.0938 158.125 78.3797 155.217 86.4174C153.057 91.9661 149.54 95.7045 146.034 96.2063C145.769 96.2456 145.503 96.2653 145.248 96.2653ZM143.107 92.6941C143.863 93.4812 144.708 93.8058 145.67 93.6681C148.185 93.3041 151.063 90.0378 152.821 85.5222C154.53 80.7999 154.481 77.2779 152.683 75.8809C151.279 74.7889 148.745 75.0545 146.397 76.5007L143.107 92.6941Z" fill="#000072"/>
</g>
<g id="Group_24">
<g id="Group_25">
<path id="Vector_16" d="M64.824 85.0696C64.9222 85.3647 65.0303 85.6697 65.1383 85.9845C68.1046 93.5795 73.9095 97.6328 77.4259 93.0482L75.3239 82.7281L73.8997 75.7136C68.4091 71.9555 61.0916 73.6378 64.824 85.0696Z" fill="#FDBD91"/>
</g>
<g id="Group_26">
<path id="Vector_17" d="M73.9094 95.2422C73.7032 95.2422 73.4871 95.2225 73.271 95.193C70.1672 94.7503 66.8866 91.1692 64.8927 86.0731C64.7749 85.7485 64.6668 85.4435 64.5686 85.1385C62.339 78.301 64.2445 75.5956 65.5704 74.5921C67.6134 73.0574 71.0217 73.4115 74.0469 75.4775L74.1353 75.5366L77.7106 93.0975L77.632 93.1958C76.6007 94.5535 75.3238 95.2422 73.9094 95.2422ZM65.0695 84.9811C65.1677 85.2762 65.2758 85.5812 65.3838 85.8862C67.2991 90.8052 70.4226 94.2485 73.3397 94.6617C74.8032 94.8683 76.0801 94.2977 77.1409 92.9696L73.6639 75.8612C70.8547 73.9723 67.7411 73.6378 65.8946 75.025C63.7828 76.6187 63.498 80.1506 65.0695 84.9811Z" fill="#000072"/>
</g>
</g>
<g id="Group_27" opacity="0.55">
<path id="Vector_18" opacity="0.55" d="M72.6817 94.8584C69.9708 93.9534 67.1715 90.6675 65.3937 86.1125C65.2856 85.7977 65.1776 85.4927 65.0794 85.1976C61.3568 73.7757 68.6645 72.0835 74.155 75.8416L74.1845 75.9695C69.2243 74.0905 64.215 76.6975 67.4367 86.5552C67.5349 86.8503 67.643 87.1553 67.751 87.4701C69.0082 90.7068 70.786 93.304 72.6817 94.8584Z" fill="white"/>
</g>
<g id="Group_28">
<path id="Vector_19" d="M73.8995 96.2653C73.6441 96.2653 73.3789 96.2456 73.1235 96.2063C69.617 95.7045 66.1006 91.9661 63.9496 86.4469C61.0324 78.3797 63.2915 75.084 64.9023 73.8444C67.2989 71.985 71.2082 72.3097 74.6263 74.6511C74.9013 74.838 75.0978 75.1233 75.1567 75.4578L78.6829 92.7925C78.7615 93.1565 78.6731 93.5402 78.4472 93.8353C77.2194 95.4192 75.6282 96.2653 73.8995 96.2653ZM68.6937 75.202C67.8195 75.202 67.0534 75.4185 66.4739 75.871C64.6764 77.268 64.6371 80.7901 66.3462 85.5418C68.0945 90.028 70.9725 93.3041 73.4869 93.6582C74.4495 93.796 75.2942 93.4811 76.0505 92.6843L72.7601 76.4908C71.3752 75.6448 69.9313 75.202 68.6937 75.202Z" fill="#000072"/>
</g>
<g id="Group_29">
<g id="Group_30">
<path id="Vector_20" d="M144.472 82.9839V88.9162C144.472 99.1183 139.6 108.799 131.202 114.574C131.084 114.653 130.966 114.731 130.848 114.81C118.04 123.408 101.274 123.408 88.4657 114.81C88.3478 114.731 88.23 114.643 88.1121 114.564C79.7141 108.789 74.8325 99.1085 74.8325 88.9064V82.974C74.8325 82.974 74.8522 82.5904 74.9013 81.9115C75.2156 76.5006 76.6496 52.2006 76.8755 51.5808C84.4975 31.039 160.718 36.0761 144.472 82.9839Z" fill="#FDBD91"/>
</g>
<g id="Group_31">
<path id="Vector_21" d="M109.652 121.569C102.227 121.569 94.8011 119.395 88.3185 115.046C88.2104 114.967 88.1024 114.899 87.9943 114.82C79.5767 109.035 74.5674 99.3545 74.5674 88.9163V82.984C74.5674 82.9643 74.587 82.5904 74.6361 81.9018C75.1567 72.9688 76.3943 52.122 76.63 51.4923C78.6338 46.1011 85.4111 42.097 95.2431 40.5229C104.731 39.0079 115.781 40.031 124.798 43.2776C133.805 46.5143 153.774 56.8738 144.747 83.0233V88.9065C144.747 99.3446 139.738 109.015 131.359 114.79L131.222 114.879C131.153 114.928 131.074 114.977 131.006 115.026C124.513 119.395 117.088 121.569 109.652 121.569ZM104.23 40.3754C101.186 40.3754 98.1799 40.6016 95.3217 41.0542C85.6861 42.5988 79.0561 46.4749 77.1212 51.6793C76.9345 52.3581 75.9523 68.404 75.1567 81.9313C75.1174 82.6199 75.088 82.9938 75.088 82.9938V88.9065C75.088 99.1774 80.0089 108.681 88.2497 114.348C88.397 114.446 88.5051 114.515 88.6033 114.594C101.382 123.172 117.903 123.172 130.691 114.584C130.76 114.535 130.839 114.485 130.907 114.436L131.045 114.348C139.286 108.681 144.207 99.1675 144.207 88.9065L144.217 82.8856C153.125 57.1591 133.471 46.957 124.611 43.7695C118.394 41.5461 111.194 40.3754 104.23 40.3754Z" fill="#000072"/>
</g>
</g>
<g id="Group_32" opacity="0.3">
<path id="Vector_22" opacity="0.3" d="M144.472 82.984V88.9164C144.472 99.1184 139.6 108.799 131.202 114.574C131.084 114.653 130.966 114.731 130.848 114.81C118.04 123.409 101.274 123.409 88.4658 114.81C88.3479 114.731 88.2301 114.643 88.1122 114.564C87.847 114.377 87.5818 114.19 87.3264 114.003C99.3782 119.877 113.827 119.001 125.161 111.386C125.279 111.308 125.397 111.229 125.515 111.15C133.913 105.375 138.785 95.6948 138.785 85.4927L139.296 78.0158C144.806 62.0979 139.168 52.5451 129.68 45.6388C142.576 52.0139 151.013 64.1147 144.472 82.984Z" fill="#000072"/>
</g>
<g id="Group_33" opacity="0.3">
<path id="Vector_23" opacity="0.3" d="M144.472 82.9839V85.3942C140.641 79.7472 139.905 64.3211 139.905 64.3211C136.555 67.9612 117.756 72.162 104.565 65.1376C103.857 64.7638 103.072 65.5115 103.425 66.2395C103.582 66.5642 103.651 66.6724 103.651 66.6724C101.913 67.7447 93.7405 66.7019 89.3107 64.1145C88.0731 63.3963 86.5016 64.1735 86.2855 65.5902C85.2935 71.9358 82.1307 76.3629 75.3829 82.974C75.2159 82.6199 75.0489 82.2657 74.9016 81.9115C75.2159 76.5006 76.65 52.2006 76.8759 51.5808C84.4979 31.039 160.718 36.0761 144.472 82.9839Z" fill="#000072"/>
</g>
<g id="Group_34" opacity="0.55">
<path id="Vector_24" opacity="0.55" d="M124.101 118.42C112.52 123.172 99.113 121.982 88.456 114.83C88.3381 114.751 88.2202 114.662 88.1024 114.584C79.7044 108.809 74.8228 99.128 74.8228 88.926V82.9936C74.8228 82.9936 76.6006 52.2989 76.8658 51.6004C78.4668 47.2815 83.093 44.094 89.2614 42.1854C84.6253 44.1235 81.217 46.9274 79.891 50.5084C79.6258 51.2069 77.848 81.9016 77.848 81.9016V87.8339C77.848 98.0458 82.7198 107.717 91.1276 113.501C91.2455 113.58 91.383 113.639 91.491 113.738C99.8104 121.273 113.267 121.834 124.101 118.42Z" fill="white"/>
</g>
<g id="Group_35">
<path id="Vector_25" d="M109.652 122.592C102.03 122.592 94.3985 120.359 87.7489 115.892C87.6212 115.814 87.5033 115.725 87.3756 115.646C78.7124 109.694 73.5361 99.6989 73.5361 88.9262V82.9938C73.5361 82.9643 73.5361 82.9447 73.5361 82.9151C75.3336 52.0433 75.5791 51.3645 75.6577 51.1481C80.3527 38.5062 106.784 35.7319 125.132 42.3332C133.874 45.4814 140.494 50.4594 144.266 56.7558C148.715 64.154 149.206 73.0574 145.739 83.2103V88.9262C145.739 99.6989 140.573 109.694 131.909 115.646L131.546 115.892C124.906 120.359 117.284 122.592 109.652 122.592ZM76.1096 83.0234V88.9163C76.1096 98.8429 80.8635 108.042 88.8293 113.521C88.9472 113.6 89.0552 113.679 89.1731 113.757C101.618 122.11 117.687 122.11 130.132 113.757L130.475 113.521C138.441 108.042 143.195 98.8429 143.195 88.9163V82.984C143.195 82.8365 143.215 82.6987 143.264 82.561C151.878 57.6904 132.852 47.8228 124.278 44.7435C105.684 38.0536 82.0225 41.7626 78.1133 51.945C77.8775 53.5978 76.7971 71.3161 76.1096 83.0234ZM78.0838 52.0138C78.0838 52.0237 78.074 52.0335 78.074 52.0335C78.074 52.0237 78.0838 52.0237 78.0838 52.0138Z" fill="#000072"/>
</g>
<g id="Group_36">
<g id="Group_37">
<path id="Vector_26" d="M144.079 39.0078C153.695 51.3152 152.497 72.7326 144.403 83.948C138.205 80.5243 137.793 64.3309 137.793 64.3309C123.128 68.3252 108.287 65.8853 94.8304 54.2764C94.5456 58.8413 98.3566 63.0716 98.3566 63.0716C96.6279 63.0224 95.076 62.7667 93.6812 62.3436C88.8094 60.8876 85.9119 57.3557 84.1439 52.9089C82.4348 68.3153 82.3268 71.739 74.8324 82.9839C67.3577 66.9282 65.9728 47.134 78.447 41.2115C61.0617 35.2201 67.4756 23.0898 82.4348 33.8625C75.0976 23.3063 84.36 19.2333 86.2851 30.8619C97.0994 11.0776 144.619 18.0232 151.063 40.4933L144.108 38.9979C144.079 39.0078 144.079 39.0078 144.079 39.0078Z" fill="#AC3D50"/>
</g>
<g id="Group_38">
<path id="Vector_27" d="M144.472 84.3022L144.266 84.1841C138.431 80.9572 137.626 67.0954 137.537 64.6752C121.959 68.8269 107.678 65.5115 95.0761 54.8372C95.1154 59.0282 98.5139 62.8454 98.5531 62.8847L98.9755 63.3471L98.3567 63.3274C96.6575 63.2782 95.0663 63.0323 93.6126 62.5896C89.3988 61.3303 86.3441 58.497 84.3011 53.9419L84.2029 54.788C82.6805 68.5908 82.2777 72.2899 75.0584 83.1216L74.7932 83.5151L74.5968 83.0822C67.0632 66.9183 65.8157 47.5275 77.7693 41.241C70.7465 38.693 67.9864 35.2496 67.7605 32.8393C67.6427 31.5801 68.1829 30.5372 69.283 29.9076C71.3456 28.727 75.579 28.9336 81.4723 32.8492C79.007 28.8057 79.0757 25.874 79.9695 24.536C80.4901 23.749 81.3152 23.4145 82.209 23.6014C83.7118 23.926 85.5584 25.8051 86.4227 30.0847C92.375 20.1876 106.725 17.9937 118.345 19.2923C132.194 20.8369 147.762 27.9597 151.328 40.4048L151.446 40.8278L144.737 39.3915C154.068 52.0334 152.448 73.2442 144.629 84.0759L144.472 84.3022ZM138.048 63.9767L138.058 64.3211C138.058 64.4785 138.53 80.0423 144.325 83.5938C152.035 72.6834 153.489 51.4726 143.873 39.1652L143.539 38.7323L144.187 38.752L150.67 40.1391C146.937 28.1958 131.782 21.3386 118.266 19.8334C106.578 18.5348 92.0901 20.7779 86.5111 30.9898L86.1379 31.6686L86.0102 30.9111C85.2637 26.3757 83.4269 24.4376 82.0813 24.1425C81.3937 23.9949 80.8044 24.2409 80.4017 24.8508C79.5177 26.179 79.5766 29.2976 82.651 33.7149L83.535 34.9939L82.2777 34.0887C76.0014 29.5632 71.493 29.2681 69.5383 30.3896C68.6347 30.9111 68.1829 31.767 68.2811 32.8098C68.4874 35.0135 71.2965 38.4765 78.5257 40.9655L79.1445 41.182L78.5551 41.4574C66.4149 47.2225 67.515 66.3477 74.8718 82.4428C81.767 72.0341 82.1795 68.276 83.6725 54.7487L83.9966 51.8366L84.3895 52.8204C86.3638 57.7591 89.4283 60.7991 93.7599 62.0977C94.9975 62.4715 96.3431 62.6978 97.7674 62.7863C96.7851 61.5468 94.3296 58.0444 94.5653 54.2666L94.5948 53.7353L94.9975 54.0895C107.649 64.9999 122.018 68.3645 137.724 64.085L138.048 63.9767Z" fill="#000072"/>
</g>
</g>
<g id="Group_39" opacity="0.3">
<path id="Vector_28" opacity="0.3" d="M82.3566 50.2331C82.9951 51.4628 83.5746 52.85 83.9576 54.5028C82.4057 68.5811 82.0521 72.1424 74.823 82.9938C73.9783 81.1738 73.2122 79.3144 72.5344 77.4255C78.467 68.2072 79.1644 63.0029 80.5297 50.5774C80.6476 49.6133 81.9146 49.3772 82.3566 50.2331Z" fill="#000072"/>
</g>
<g id="Group_40" opacity="0.55">
<path id="Vector_29" opacity="0.55" d="M79.6063 32.0427C70.1966 28.0485 66.7883 34.9548 75.9524 40.2575C62.7219 34.4727 67.4464 25.0675 79.6063 32.0427Z" fill="white"/>
</g>
<g id="Group_41" opacity="0.55">
<path id="Vector_30" opacity="0.55" d="M78.1426 41.369C78.1524 41.369 78.1622 41.3789 78.172 41.3789C79.3605 41.9003 79.6061 43.4645 78.614 44.2909C70.0982 51.3645 70.4224 67.2726 76.0406 81.1442C75.6674 81.7345 75.2647 82.3543 74.8325 82.9938C67.407 67.066 65.9926 47.4588 78.1426 41.369Z" fill="white"/>
</g>
<g id="Group_42" opacity="0.55">
<path id="Vector_31" opacity="0.55" d="M81.8457 33.6953L81.8162 33.6756C76.8462 26.0216 81.3644 21.6044 84.3896 25.1362C82.7198 25.3822 81.7376 27.9597 83.5842 32.0524C84.0655 33.1444 82.8868 34.2659 81.8457 33.6953Z" fill="white"/>
</g>
<g id="Group_43" opacity="0.55">
<path id="Vector_32" opacity="0.55" d="M141.614 28.9435C133.422 25.1559 122.461 22.6275 112.511 22.5783C110.979 25.5297 105.802 25.3821 103.632 23.2866C98.0329 24.2901 93.2986 26.4151 90.3323 29.9568C89.4875 30.9701 87.8276 30.9013 87.1695 29.7601C87.1302 29.701 87.1008 29.6322 87.0713 29.5633C96.3434 17.7183 127.617 16.7443 141.614 28.9435Z" fill="white"/>
</g>
<g id="Group_44">
<path id="Vector_33" d="M144.394 85.2368C144.187 85.2368 143.971 85.1876 143.775 85.0794C138.117 81.9509 136.86 70.4207 136.575 65.9739C121.979 69.5156 108.523 66.6134 96.5104 57.3262C97.3748 60.0514 99.2705 62.1961 99.2999 62.2256C99.6437 62.6093 99.7223 63.1602 99.5062 63.6226C99.2999 64.0751 98.8383 64.3703 98.3472 64.3703C98.3374 64.3703 98.3177 64.3703 98.3079 64.3703C92.4244 64.1932 87.9455 61.8124 84.9399 57.277C83.5844 69.3877 82.8183 73.3229 75.8936 83.7119C75.6383 84.0956 75.1963 84.312 74.7346 84.2825C74.273 84.2431 73.8703 83.9677 73.6738 83.5446C66.3268 67.7742 64.9026 48.954 75.5008 41.4673C69.4405 38.8307 66.9751 35.4464 66.7394 32.9672C66.5822 31.3144 67.3189 29.8879 68.7627 29.0615C70.7075 27.9498 74.273 27.8613 79.0564 30.3011C78.0054 27.4284 78.2804 25.264 79.1055 24.0146C79.8618 22.8832 81.0896 22.3716 82.4058 22.6471C84.2916 23.0505 85.8534 24.8902 86.8159 27.7334C93.5932 19.0169 107.256 17.0788 118.434 18.3184C132.617 19.8924 148.578 27.2611 152.281 40.1588C152.409 40.5917 152.291 41.0639 151.986 41.3886C151.682 41.7231 151.22 41.8608 150.778 41.7723L146.967 40.9557C150.434 46.6618 152.261 53.9714 152.163 61.9206C152.045 70.6469 149.599 78.9601 145.435 84.7252C145.189 85.0499 144.796 85.2368 144.394 85.2368ZM137.793 63.0421C138.068 63.0421 138.333 63.1307 138.559 63.2979C138.874 63.534 139.07 63.898 139.08 64.2916C139.178 68.2858 140.298 78.6453 144.089 82.1378C151.073 71.2963 152.183 51.4431 143.077 39.7948C142.744 39.3718 142.714 38.7815 142.999 38.3191C143.284 37.8567 143.824 37.6305 144.354 37.7485L149.089 38.7618C144.649 28.2941 130.692 22.2437 118.168 20.8566C103.887 19.2628 91.8154 23.444 87.4151 31.4915C87.1499 31.9736 86.6097 32.2294 86.0793 32.1408C85.539 32.0523 85.1167 31.6292 85.0283 31.0881C84.3113 26.7692 82.6611 25.3132 81.8852 25.146C81.6986 25.1066 81.4727 25.1066 81.2664 25.4214C80.736 26.2183 80.5297 28.8549 83.5058 33.1345C83.8594 33.646 83.8005 34.3445 83.3487 34.7872C82.9067 35.23 82.2093 35.2792 81.6986 34.9151C76.1883 30.9504 71.8862 30.2322 70.0593 31.2751C69.4896 31.5997 69.2538 32.0719 69.3128 32.7114C69.5092 34.7676 72.5443 37.8174 78.8796 40.0014C79.3707 40.1687 79.7145 40.6212 79.7439 41.1426C79.7734 41.6641 79.4886 42.1461 79.0171 42.3724C72.3085 45.5599 70.6682 52.8106 70.462 58.3395C70.2262 64.8917 71.896 72.7916 75.0686 80.3079C80.844 71.2864 81.2566 67.5676 82.6808 54.6306L82.8871 52.7712C82.9558 52.1908 83.4076 51.7185 83.9871 51.6398C84.5666 51.5611 85.1363 51.8858 85.3524 52.4367C87.4151 57.6115 90.8037 60.5925 95.6657 61.4976C94.5656 59.6775 93.387 57.0212 93.5638 54.1879C93.5932 53.7058 93.8977 53.2729 94.3495 53.086C94.8014 52.8991 95.3121 52.9778 95.6854 53.2926C108.061 63.9768 122.127 67.2627 137.479 63.0815C137.567 63.0618 137.675 63.0421 137.793 63.0421Z" fill="#000072"/>
</g>
<g id="Group_45">
<path id="Vector_34" d="M137.783 65.6097C137.214 65.6097 136.703 65.2359 136.546 64.6555C136.359 63.9668 136.772 63.2683 137.449 63.0814C139.04 62.6485 140.651 62.1369 142.233 61.5466C142.901 61.3007 143.637 61.6352 143.883 62.3042C144.128 62.9731 143.785 63.711 143.126 63.9569C141.467 64.5669 139.787 65.108 138.117 65.5606C138.009 65.5999 137.901 65.6097 137.783 65.6097Z" fill="#000072"/>
</g>
<g id="Group_46" opacity="0.3">
<path id="Vector_35" opacity="0.3" d="M144.394 83.9482C138.196 80.5246 137.783 64.3311 137.783 64.3311C123.119 68.3254 108.277 65.8856 94.8208 54.2767C94.536 58.8415 98.347 63.0719 98.347 63.0719C96.6183 63.0227 95.0664 62.7669 93.6716 62.3439C86.6585 50.7645 89.6445 48.0295 99.7319 51.5909C127.735 60.6419 148.116 62.0586 144.069 38.9982C153.695 51.3154 152.497 72.723 144.394 83.9482Z" fill="#000072"/>
</g>
<g id="Group_47" opacity="0.2">
<path id="Vector_36" opacity="0.2" d="M137.282 49.7118C137.282 51.6598 133.481 53.2339 128.786 53.2339C124.091 53.2339 120.29 51.6598 120.29 49.7118C120.29 47.7639 124.091 47.7147 128.786 47.7147C133.481 47.7147 137.282 47.7639 137.282 49.7118Z" fill="#FEFEFE"/>
</g>
<g id="mouth">
<path id="Vector_37" d="M114.151 106.733C114.151 106.733 112.314 107.913 107.521 107.913C106.48 107.982 103.504 107.825 99.7417 104.382C99.7417 104.382 101.48 109.399 107.403 109.399C107.403 109.389 110.772 109.704 114.151 106.733Z" fill="#000072"/>
</g>
<g id="Group_48">
<path id="Vector_38" d="M86.9336 84.4497C87.3363 83.1412 88.2989 82.0492 89.4874 81.3113C90.6759 80.5735 92.1099 80.1898 93.5243 80.2095C94.9485 80.2193 96.3531 80.6227 97.5318 81.3605C98.7104 82.0984 99.673 83.1609 100.125 84.4497C98.8381 84.0069 97.738 83.6528 96.6478 83.4265C95.5673 83.1904 94.536 83.0822 93.4948 83.0625C92.4537 83.0526 91.4223 83.1412 90.3517 83.3675C89.2909 83.5937 88.2105 83.9479 86.9336 84.4497Z" fill="#000072"/>
</g>
<g id="Group_49">
<path id="Vector_39" d="M132.882 84.4497C131.615 83.9578 130.524 83.5937 129.454 83.3675C128.383 83.1412 127.352 83.0526 126.311 83.0625C125.27 83.0723 124.238 83.1904 123.158 83.4265C122.077 83.6528 120.977 84.0069 119.681 84.4497C120.132 83.151 121.095 82.0984 122.274 81.3605C123.452 80.6227 124.867 80.2193 126.281 80.2095C127.696 80.1898 129.13 80.5735 130.318 81.3113C131.516 82.0492 132.479 83.1412 132.882 84.4497Z" fill="#000072"/>
</g>
<g id="Group_50">
<path id="Vector_40" d="M94.8208 98.0951C97.2565 98.0951 99.231 95.4876 99.231 92.271C99.231 89.0544 97.2565 86.4469 94.8208 86.4469C92.3851 86.4469 90.4106 89.0544 90.4106 92.271C90.4106 95.4876 92.3851 98.0951 94.8208 98.0951Z" fill="#000072"/>
</g>
<g id="Group_51">
<g id="Group_52">
<path id="Vector_41" d="M95.9503 92.8809C96.6881 92.8809 97.2861 92.0044 97.2861 90.9231C97.2861 89.8419 96.6881 88.9653 95.9503 88.9653C95.2126 88.9653 94.6145 89.8419 94.6145 90.9231C94.6145 92.0044 95.2126 92.8809 95.9503 92.8809Z" fill="white"/>
</g>
<g id="Group_53">
<path id="Vector_42" d="M95.9504 93.1369C95.0566 93.1369 94.3494 92.1629 94.3494 90.9135C94.3494 89.664 95.0467 88.6901 95.9504 88.6901C96.8442 88.6901 97.5514 89.664 97.5514 90.9135C97.5514 92.1629 96.8442 93.1369 95.9504 93.1369ZM95.9504 89.2312C95.3709 89.2312 94.8896 90.0084 94.8896 90.9233C94.8896 91.8383 95.3807 92.6155 95.9504 92.6155C96.5201 92.6155 97.0112 91.8383 97.0112 90.9233C97.0112 90.0084 96.5299 89.2312 95.9504 89.2312Z" fill="#000072"/>
</g>
</g>
<g id="Group_54">
<path id="Vector_43" d="M125.299 98.0951C127.735 98.0951 129.709 95.4876 129.709 92.271C129.709 89.0544 127.735 86.4469 125.299 86.4469C122.864 86.4469 120.889 89.0544 120.889 92.271C120.889 95.4876 122.864 98.0951 125.299 98.0951Z" fill="#000072"/>
</g>
<g id="Group_55">
<g id="Group_56">
<path id="Vector_44" d="M124.17 92.8809C124.908 92.8809 125.506 92.0044 125.506 90.9231C125.506 89.8419 124.908 88.9653 124.17 88.9653C123.432 88.9653 122.834 89.8419 122.834 90.9231C122.834 92.0044 123.432 92.8809 124.17 92.8809Z" fill="white"/>
</g>
<g id="Group_57">
<path id="Vector_45" d="M124.17 93.1369C123.276 93.1369 122.569 92.1629 122.569 90.9135C122.569 89.664 123.266 88.6901 124.17 88.6901C125.063 88.6901 125.771 89.664 125.771 90.9135C125.771 92.1629 125.063 93.1369 124.17 93.1369ZM124.17 89.2312C123.59 89.2312 123.109 90.0084 123.109 90.9233C123.109 91.8383 123.6 92.6155 124.17 92.6155C124.739 92.6155 125.23 91.8383 125.23 90.9233C125.23 90.0084 124.749 89.2312 124.17 89.2312Z" fill="#000072"/>
</g>
</g>
</g>
</g>
</g>
<mask id="mask0_2_713" style="mask-type:alpha" maskUnits="userSpaceOnUse" x="24" y="67" width="173" height="133">
<g id="SVGID_1_">
<g id="Group_58">
<path id="Vector_46" d="M162.005 199.053H59.618L24.543 67.499L110.639 68.2516L153.688 68.6279L196.736 69.0042L162.005 199.053Z" fill="url(#paint0_linear_2_713)"/>
</g>
</g>
</mask>
<g mask="url(#mask0_2_713)">
<g id="Group_59">
<g id="Group_60">
<g id="Group_61">
<path id="Vector_47" d="M174.017 195.876C173.33 199.26 171.503 202.172 168.988 204.238C166.464 206.304 163.252 207.514 159.805 207.514H61.838C54.933 207.514 48.9906 202.644 47.6155 195.866H174.017V195.876Z" fill="#C6D3E3"/>
</g>
<g id="Group_62">
<path id="Vector_48" d="M159.795 207.789H61.8284C54.8252 207.789 48.7354 202.802 47.3505 195.925L47.2817 195.6H174.342L174.273 195.915C173.595 199.25 171.778 202.27 169.146 204.435C166.513 206.609 163.193 207.789 159.795 207.789ZM47.93 196.141C49.3935 202.595 55.1788 207.258 61.8186 207.258H159.785C163.066 207.258 166.268 206.117 168.802 204.041C171.257 202.034 172.976 199.24 173.674 196.151H47.93V196.141Z" fill="#000072"/>
</g>
</g>
<g id="Group_63">
<path id="Vector_49" d="M159.794 209.127H61.8279C54.1961 209.127 47.5563 203.687 46.0436 196.2C45.9454 195.728 46.0731 195.246 46.3678 194.872C46.6723 194.498 47.1241 194.282 47.6054 194.282H174.017C174.498 194.282 174.95 194.498 175.255 194.872C175.559 195.246 175.677 195.728 175.579 196.2C174.066 203.687 167.426 209.127 159.794 209.127ZM49.7172 197.479C51.5637 202.467 56.3766 205.92 61.8279 205.92H159.794C165.236 205.92 170.049 202.467 171.905 197.479H49.7172Z" fill="#000072"/>
</g>
<g id="Group_64" opacity="0.3">
<path id="Vector_50" opacity="0.3" d="M174.017 195.876C173.33 199.26 171.503 202.172 168.988 204.238C166.464 206.304 163.252 207.514 159.805 207.514H99.2017C109.161 207.042 117.992 204.287 125.584 199.044C125.584 199.044 126.105 197.765 127.264 195.876H174.017V195.876Z" fill="#000072"/>
</g>
<g id="Group_65">
<g id="Group_66">
<path id="Vector_51" d="M173.978 134.348L168.861 192.757C168.546 196.318 165.57 199.053 161.995 199.053H59.6182C56.0528 199.053 53.0668 196.318 52.7525 192.757L47.645 134.348C47.1441 128.613 51.6524 123.674 57.3984 123.674H164.205C166.081 123.674 167.829 124.205 169.322 125.11C172.387 126.989 174.312 130.492 173.978 134.348Z" fill="#C6D3E3"/>
</g>
<g id="Group_67">
<path id="Vector_52" d="M162.005 199.319H59.6183C55.8859 199.319 52.8214 196.505 52.4874 192.777L47.3799 134.368C47.1343 131.564 48.0772 128.76 49.9827 126.675C51.8882 124.599 54.5893 123.399 57.3985 123.399H164.205C166.061 123.399 167.879 123.91 169.46 124.874C172.741 126.891 174.567 130.531 174.234 134.358L169.116 192.767C168.802 196.505 165.737 199.319 162.005 199.319ZM57.4083 123.94C54.7465 123.94 52.1829 125.071 50.3854 127.039C48.588 129.006 47.6843 131.663 47.9201 134.319L53.0276 192.727C53.3321 196.18 56.1707 198.778 59.6281 198.778H162.005C165.462 198.778 168.301 196.171 168.605 192.727L173.723 134.319C174.047 130.689 172.308 127.245 169.205 125.337C167.712 124.422 165.993 123.94 164.235 123.94H57.4083V123.94Z" fill="#000072"/>
</g>
</g>
<g id="Group_68" opacity="0.75">
<path id="Vector_53" opacity="0.75" d="M172.348 128.003C171.1 127.413 169.705 127.088 168.222 127.088H61.4059C55.6599 127.088 51.1417 132.027 51.6524 137.762L56.76 196.171C56.8386 197.086 57.0939 197.932 57.4868 198.709C54.9232 197.883 52.9981 195.571 52.7525 192.747L47.645 134.339C47.1441 128.603 51.6525 123.664 57.3984 123.664H164.205C167.623 123.674 170.589 125.406 172.348 128.003Z" fill="white"/>
</g>
<g id="Group_69">
<path id="Vector_54" d="M162.005 200.647H59.6182C55.1884 200.647 51.5542 197.312 51.1613 192.885L46.0439 134.476C45.7689 131.299 46.8395 128.121 48.9906 125.77C51.1416 123.418 54.2062 122.071 57.3885 122.071H164.195C167.377 122.071 170.442 123.418 172.593 125.77C174.744 128.121 175.825 131.299 175.54 134.476L170.422 192.885C170.069 197.312 166.435 200.647 162.005 200.647ZM57.4082 125.278C55.0803 125.278 52.9293 126.222 51.3577 127.944C49.7862 129.666 49.0299 131.889 49.2361 134.211L54.3535 192.619C54.5991 195.374 56.8582 197.46 59.628 197.46H162.005C164.765 197.46 167.034 195.384 167.279 192.619L172.397 134.211C172.603 131.889 171.847 129.666 170.275 127.944C168.703 126.222 166.552 125.278 164.225 125.278H57.4082V125.278Z" fill="#000072"/>
</g>
<g id="Group_70" opacity="0.3">
<path id="Vector_55" opacity="0.3" d="M173.978 134.349L168.861 192.757C168.546 196.318 165.57 199.053 161.995 199.053H69.6467C126.478 194.577 161.631 171.576 169.312 125.111H169.332C172.387 126.99 174.312 130.492 173.978 134.349Z" fill="#000072"/>
</g>
<g id="Group_71" opacity="0.3">
<path id="Vector_56" opacity="0.3" d="M73.4182 172.697L67.0044 173.297C65.3444 173.455 63.8711 172.225 63.714 170.562L61.5138 146.98C61.3566 145.318 62.5844 143.842 64.2444 143.685L70.6582 143.085C72.3181 142.927 73.7915 144.157 73.9486 145.82L76.1488 169.401C76.2961 171.064 75.0782 172.54 73.4182 172.697Z" fill="white"/>
</g>
<g id="Group_72">
<g id="Group_73">
<path id="Vector_57" fill-rule="evenodd" clip-rule="evenodd" d="M119.671 174.271L118.502 175.216L118.365 178.197C118.325 178.993 117.608 179.623 116.774 179.603H116.764C115.919 179.584 115.261 178.915 115.281 178.118L115.32 176.859C115.33 176.613 115.123 176.406 114.868 176.396C114.613 176.386 114.397 176.583 114.387 176.829L114.348 178.088C114.328 178.885 113.621 179.515 112.786 179.495C111.941 179.476 111.273 178.807 111.283 178.01L111.293 176.957C111.293 176.593 110.998 176.298 110.615 176.288C110.242 176.278 109.928 176.563 109.928 176.918L109.918 177.97C109.918 178.767 109.23 179.397 108.385 179.377C107.551 179.357 106.863 178.698 106.853 177.892L106.843 176.632C106.843 176.386 106.627 176.18 106.372 176.18C106.116 176.17 105.91 176.367 105.91 176.613L105.93 177.872C105.94 178.669 105.272 179.298 104.437 179.279H104.427C103.592 179.259 102.895 178.6 102.875 177.793L102.787 174.822L101.647 173.829C98.6811 171.251 96.8345 167.522 96.6086 163.558C96.1568 155.362 102.512 148.328 110.851 148.456C119.239 148.584 125.564 155.894 124.946 164.148C124.68 168.152 122.726 171.822 119.671 174.271Z" fill="white"/>
</g>
<g id="Group_74">
<path id="Vector_58" d="M110.645 148.456C110.723 148.456 110.802 148.456 110.87 148.456C119.259 148.584 125.584 155.894 124.965 164.148C124.671 168.152 122.716 171.821 119.661 174.271L118.493 175.216L118.355 178.197C118.316 178.984 117.628 179.603 116.803 179.603C116.793 179.603 116.774 179.603 116.764 179.603H116.754C115.909 179.584 115.251 178.915 115.271 178.118L115.31 176.859C115.32 176.613 115.114 176.406 114.858 176.396H114.848C114.593 176.396 114.387 176.593 114.377 176.829L114.338 178.088C114.318 178.875 113.64 179.495 112.815 179.495C112.805 179.495 112.786 179.495 112.776 179.495C111.931 179.475 111.263 178.807 111.273 178.01L111.283 176.957C111.283 176.603 110.988 176.298 110.605 176.288C110.595 176.288 110.595 176.288 110.586 176.288C110.212 176.288 109.918 176.573 109.918 176.918L109.908 177.97C109.908 178.757 109.24 179.377 108.425 179.377C108.415 179.377 108.395 179.377 108.385 179.377C107.551 179.357 106.863 178.698 106.853 177.892L106.843 176.632C106.843 176.386 106.627 176.18 106.372 176.18H106.362C106.107 176.18 105.91 176.377 105.92 176.613L105.94 177.872C105.95 178.659 105.301 179.279 104.486 179.279C104.476 179.279 104.457 179.279 104.447 179.279H104.437C103.602 179.259 102.905 178.6 102.885 177.793L102.797 174.822L101.657 173.828C98.6909 171.251 96.8444 167.522 96.6184 163.558C96.1863 155.441 102.423 148.456 110.645 148.456ZM110.645 145.869C106.058 145.869 101.795 147.699 98.6517 151.034C95.4693 154.398 93.7897 159.022 94.0549 163.705C94.3102 168.339 96.4711 172.736 99.9777 175.786L100.262 176.032L100.312 177.862C100.371 180.046 102.158 181.797 104.378 181.856C104.417 181.856 104.457 181.856 104.496 181.856C105.154 181.856 105.792 181.699 106.362 181.414C106.942 181.738 107.619 181.935 108.336 181.955C108.376 181.955 108.405 181.955 108.444 181.955C109.211 181.955 109.928 181.748 110.537 181.384C111.165 181.797 111.912 182.053 112.717 182.073C112.756 182.073 112.796 182.073 112.825 182.073C113.513 182.073 114.151 181.915 114.721 181.63C115.31 181.974 115.988 182.161 116.685 182.181C116.725 182.181 116.764 182.181 116.803 182.181C119.023 182.181 120.83 180.479 120.938 178.305L121.027 176.495L121.292 176.278C124.926 173.366 127.205 169.008 127.558 164.335C127.912 159.593 126.282 154.861 123.08 151.358C119.917 147.886 115.595 145.938 110.92 145.859C110.831 145.869 110.743 145.869 110.645 145.869Z" fill="#000072"/>
</g>
<g id="Group_75">
<g id="Group_76">
<path id="Vector_59" fill-rule="evenodd" clip-rule="evenodd" d="M105.233 160.173C103.013 160.163 101.304 161.974 101.422 164.197C101.53 166.371 103.357 168.122 105.498 168.132C107.649 168.152 109.368 166.42 109.328 164.246C109.289 162.023 107.452 160.193 105.233 160.173Z" fill="#000072"/>
</g>
<g id="Group_77">
<path id="Vector_60" fill-rule="evenodd" clip-rule="evenodd" d="M116.302 160.065C114.063 160.055 112.245 161.875 112.236 164.108C112.226 166.292 113.974 168.044 116.135 168.063C118.306 168.083 120.123 166.351 120.211 164.158C120.29 161.924 118.542 160.075 116.302 160.065Z" fill="#000072"/>
</g>
</g>
</g>
</g>
</g>
</g>
</g>
<g id="mask">
<path id="Vector_61" opacity="0.5" d="M148.661 85.3586C148.58 85.4527 148.607 85.6093 148.526 85.7034C148.078 87.6304 153.382 86.4139 154.322 86.2555C156.296 85.9226 159.008 85.3848 161.372 84.5031C163.404 82.7921 165.194 80.7998 166.314 78.8401C166.704 78.2913 167.581 76.6139 167.598 75.5647C165.956 77.2906 163.227 78.8777 161.573 79.9615C157.835 82.4432 153.322 83.7677 149.05 85.3735C148.956 85.3894 148.768 85.4211 148.661 85.3586Z" fill="#000072"/>
<path id="Vector_62" d="M166.474 74.6275C162.957 74.9791 159.774 75.5962 156.562 77.1842C153.633 78.7247 151.184 80.828 148.843 82.9937C147.349 84.453 145.519 86.2106 144.574 88.0603L144.561 87.982C146.423 84.6898 147.761 81.1638 148.227 77.6238C148.338 76.5588 148.72 69.6523 145.859 70.4567C144.758 70.8034 143.922 72.1518 143.369 72.8889C142.359 74.3472 141.884 76.1177 141.678 77.7623C141.418 79.6576 141.64 81.5519 142.051 83.4146C142.078 83.5711 142.117 83.8059 142.238 83.9466C141.903 83.6811 141.474 83.4314 141.059 83.26C136.89 81.4676 131.966 80.9294 127.312 80.2654C122.362 79.5708 117.331 78.9702 112.204 78.9492C107.091 79.0065 101.91 79.2362 96.7692 79.7007C91.91 80.1176 87.8406 81.2063 83.4069 83.0004C81.2305 83.8504 79.1612 84.7628 77.1052 85.7534C75.8422 86.2884 74.8067 87.0265 74.3204 88.1549C73.7533 89.3775 74.8368 90.6437 75.4783 91.582C75.9862 92.3013 76.4941 93.0206 77.002 93.7399C77.0152 93.8181 77.0152 93.8181 77.0284 93.8964C77.7771 94.8971 77.2348 96.8399 77.0437 97.9991C76.8525 99.1583 76.259 100.224 76.1618 101.368C76.1603 101.931 76.2526 102.479 76.6682 102.651C76.6006 102.823 76.533 102.995 76.8018 102.87C81.9345 100.636 87.2637 100.139 92.9144 99.8306C98.2831 99.5692 103.733 99.2137 109.087 99.4378C120.009 100.011 130.687 101.43 141.42 102.598C141.715 102.629 142.051 102.331 142.012 102.096C142.152 100.06 142.104 98.0558 142.338 96.004C142.692 94.0929 143.825 92.2115 144.367 90.2686C144.435 90.0962 144.502 89.9239 144.476 89.7673C144.904 90.017 145.75 89.8744 146.233 89.8734C147.965 89.8229 149.777 89.6783 151.455 89.3148C157.551 88.2063 163.591 83.3242 166.382 78.6677C166.934 77.9306 168.944 74.3719 166.474 74.6275Z" fill="#000072"/>
<g id="Group_78">
<path id="Vector_63" d="M142.479 93.4046C141.223 96.2728 141.39 98.9815 141.301 101.894C135.813 101.451 130.474 100.742 125.148 100.11C119.634 99.5108 114.147 99.0677 108.592 98.797C102.942 98.5422 97.3049 98.9294 91.6674 99.3166C86.7818 99.577 82.1369 100.119 77.7429 102.148C77.8104 101.975 77.7709 101.74 77.5021 101.866C76.6958 102.244 77.1573 100.395 77.1985 100.066C77.4293 99.1417 77.754 98.2015 77.8776 97.2147C77.9732 96.6352 78.1363 95.8832 78.1115 95.1629C78.4595 95.5067 78.7266 95.9446 79.0746 96.2884C79.3022 96.4915 79.8001 96.0051 79.6665 95.7861C78.6638 94.4258 77.648 92.9872 76.6453 91.6269C76.2578 91.0483 75.8571 90.3914 75.4695 89.8128C74.6416 88.3425 76.2426 86.9456 77.6803 86.3007C81.2681 84.6492 85.0571 83.0443 88.9253 81.9091C93.0622 80.648 97.8803 80.56 102.176 80.2381C106.766 79.947 111.383 79.8124 115.959 80.0068C120.44 80.217 124.8 80.8502 129.16 81.4834C133.13 82.1018 137.464 82.5785 140.948 84.3253C144.928 86.1494 143.87 90.1916 142.479 93.4046Z" fill="#66625B"/>
<path id="Vector_64" d="M144.443 86.7139C144.43 86.6356 144.404 86.479 144.296 86.4166C144.934 83.8942 144.875 81.2479 144.748 78.774C144.708 78.5392 144.278 78.8533 144.304 79.0098C144.34 80.3721 144.296 81.8285 144.144 83.2224C144.075 83.9586 143.912 84.7106 143.843 85.4467C143.723 85.306 143.696 85.1494 143.576 85.0087C143.163 83.7099 142.845 82.3951 142.621 81.0645C142.174 77.8396 142.707 74.1273 145.439 71.4128C146.678 70.1575 147.469 74.8537 147.549 75.3233C147.638 76.9987 147.432 78.6433 147.038 80.3197C146.455 82.5914 145.348 84.6294 144.443 86.7139Z" fill="#66625B"/>
<path id="Vector_65" d="M166.142 77.8229C164.412 81.8978 159.679 85.3524 155.392 87.4437C153.161 88.5443 150.623 88.9722 148.033 89.0871C147.08 89.1673 146.127 89.2475 145.228 89.0771C145.134 89.0929 146.936 87.7426 147.716 87.2086C150.082 85.7632 152.77 84.505 155.537 83.7165C155.819 83.6689 156.021 83.1518 155.645 83.2152C153.51 83.7362 151.602 84.4604 149.734 85.4194C148.847 85.8909 147.396 86.4576 146.455 87.1798C146.011 87.4156 145.487 87.7455 145.057 88.0596C145.947 86.4605 147.615 84.8912 148.854 83.636C150.334 82.0984 152.029 80.6857 153.844 79.4136C155.821 77.9533 158.052 76.8527 160.537 76.1117C162.014 75.7015 163.531 75.5262 164.967 75.4451C165.343 75.3817 165.733 75.3965 166.108 75.3331C167.357 75.2836 166.222 77.7288 166.142 77.8229Z" fill="#66625B"/>
<path id="Vector_66" d="M106.565 84.4883C102.834 84.7151 98.9013 84.8952 95.2079 85.9205C99.5692 85.99 103.906 85.3393 108.227 85.174C111.113 85.0898 114.053 84.7551 116.993 84.4203C116.309 84.3747 115.53 84.345 114.846 84.2994C112.135 84.2735 109.344 84.3418 106.565 84.4883Z" fill="#66625B"/>
<path id="Vector_67" d="M105.565 91.741C102.424 92.0292 99.2957 92.3956 96.3014 92.9811C94.8916 93.2188 93.3746 93.3941 91.9648 93.6318C93.8841 93.5497 95.7638 93.2327 97.576 93.0881C100.623 92.8158 103.563 92.481 106.623 92.2869C110.06 92.0294 113.483 91.6937 116.947 91.029C117.511 90.9339 118.075 90.8388 118.625 90.6655C117.095 90.7625 115.578 90.9378 114.048 91.0349C111.202 91.3538 108.33 91.5162 105.565 91.741Z" fill="#66625B"/>
<path id="Vector_68" d="M75.7362 90.2505C79.3732 85.4515 95.1907 82.3817 98.561 81.7329C105.033 80.561 111.61 80.0154 118.173 79.9552C117.394 79.9254 116.603 79.8174 115.825 79.7876C111.249 79.5933 106.632 79.7279 102.042 80.019C97.7331 80.2626 92.9282 80.4288 88.7913 81.6899C84.9231 82.8252 81.2281 84.4142 77.5463 86.0815C76.1086 86.7265 74.5076 88.1234 75.3355 89.5937C75.4823 89.8909 75.6159 90.1098 75.7362 90.2505Z" fill="#66625B"/>
</g>
<path id="Vector_69" d="M141.453 90.76C136.989 88.9368 131.851 88.2738 126.941 87.814C121.722 87.2451 116.663 87.0517 111.389 87.2972C106.302 87.5111 101.147 87.8973 96.0458 88.5966C91.2261 89.2483 86.5517 90.761 81.7585 91.5693C81.5705 91.601 81.3413 91.9616 81.6233 91.9141C86.1478 91.2316 90.4595 89.8606 95.0911 89.2405C100.112 88.6354 105.159 88.1867 110.246 87.9729C120.594 87.4353 131.569 88.3214 140.981 91.4029C141.29 91.5119 141.855 90.8531 141.453 90.76Z" fill="#000072"/>
<path id="Vector_70" d="M139.15 93.7243C127.669 96.1433 115.914 95.7912 104.387 95.6422C104.199 95.6739 103.97 96.0345 104.158 96.0028C115.792 96.2143 127.385 96.7546 138.96 94.3198C139.35 94.3346 139.714 93.6292 139.15 93.7243Z" fill="#000072"/>
<path id="Vector_71" opacity="0.5" d="M161.668 79.9456C157.93 82.4273 153.417 83.7518 149.145 85.3576C148.607 85.6093 148.045 85.1406 148.342 84.6076C149.892 82.3339 152.139 80.184 154.627 78.3156C152.529 79.6352 150.686 81.3144 148.937 82.9779C147.443 84.4372 145.613 86.1947 144.668 88.0444L144.655 87.9661C146.516 84.6739 147.855 81.1479 148.321 77.608C148.445 76.6212 148.758 70.4508 146.423 70.3616C146.867 74.7139 147.444 79.2853 145.352 83.5018C145.123 83.8625 144.666 84.02 144.332 83.7544C142.752 82.4109 142.732 79.9994 142.603 78.0893C142.512 76.9777 142.515 75.8502 142.613 74.7069C142.194 75.6629 142.084 76.728 141.866 77.7306C141.606 79.6259 141.828 81.5202 142.239 83.3828C142.266 83.5394 142.305 83.7742 142.426 83.9149C142.091 83.6493 141.662 83.3997 141.247 83.2282C138.432 82.0125 135.226 81.3456 132.06 80.9135C128.746 80.748 125.391 80.9113 122.33 81.1054C119.552 81.2519 116.774 81.3985 114.142 81.8422C115.296 81.8086 116.544 81.7591 117.631 81.8978C119.979 82.0654 122.34 82.3111 124.634 82.7293C128.417 83.3794 133.541 83.9641 136.582 85.9467C137.131 86.3371 136.767 87.0425 136.069 86.9186C128.799 85.6492 121.27 85.7114 113.768 85.9301C105.984 86.1963 98.2521 86.7756 90.4778 88.2476C87.3895 88.8489 83.978 89.8266 80.8105 89.9583C79.5623 90.0078 77.5491 90.1058 76.7064 89.121C75.9841 88.2768 76.1884 87.1959 76.7012 86.224C75.8141 86.6956 75.0606 87.3861 74.6287 88.2639C74.0616 89.4865 75.145 90.7527 75.7865 91.6909C76.2945 92.4102 76.8024 93.1295 77.3103 93.8488C77.3235 93.9271 77.3235 93.9271 77.3367 94.0054C78.0854 95.0061 77.5431 96.9489 77.352 98.1081C77.1608 99.2672 76.5673 100.333 76.4701 101.477C76.4685 102.04 76.5609 102.588 76.9765 102.76C76.9089 102.932 76.8413 103.104 77.11 102.979C82.2428 100.745 87.572 100.248 93.2227 99.9395C98.5914 99.6781 104.041 99.3227 109.395 99.5468C120.317 100.12 130.996 101.539 141.728 102.707C142.023 102.738 142.36 102.44 142.32 102.205C142.46 100.169 142.412 98.1648 142.646 96.113C143 94.2018 144.133 92.3204 144.675 90.3776C144.743 90.2052 144.81 90.0328 144.784 89.8763C145.213 90.126 146.059 89.9833 146.542 89.9824C148.273 89.9319 150.085 89.7873 151.764 89.4238C157.86 88.3153 163.899 83.4331 166.69 78.7767C167.081 78.2278 167.958 76.5505 167.974 75.5013C166.05 77.2747 163.321 78.8618 161.668 79.9456ZM128.3 91.2875C126.404 92.6537 123.707 92.7061 121.331 92.9458C116.766 93.3935 112.122 93.9353 107.464 94.3988C103.101 94.893 98.7509 95.4655 94.4292 95.6308C90.8726 95.7476 86.7109 96.2884 83.3042 95.5749C82.9019 95.4818 82.7155 94.9497 83.065 94.7298C84.8539 93.3012 87.4047 92.9516 89.6208 92.3364C90.5474 92.0996 91.4741 91.8629 92.4007 91.6261C98.1634 89.6884 104.378 89.2844 110.457 89.2252C113.732 89.1559 117.046 89.3215 120.28 89.5812C122.735 89.8111 125.621 89.727 127.967 90.4583C128.463 90.5356 128.637 90.9893 128.3 91.2875Z" fill="#000072"/>
<path id="Vector_72" opacity="0.5" d="M133.14 88.459C124.933 86.2206 115.767 86.3174 107.11 86.5698C101.916 86.7212 97.11 87.4512 92.0876 88.6201C97.4712 87.8732 102.934 87.596 108.436 87.5536C116.649 87.5371 124.833 88.4914 133.14 88.459Z" fill="#000072"/>
<path id="Vector_73" opacity="0.5" d="M151.237 81.1412C152.233 80.1683 153.323 79.1795 154.533 78.3315C153.31 79.1013 152.207 80.0117 151.104 80.9222C151.305 80.9688 151.318 81.047 151.237 81.1412Z" fill="#000072"/>
<path id="Vector_74" opacity="0.5" d="M150.225 87.7514C146.426 88.1505 146.822 85.9105 148.103 83.7626C146.771 85.0337 145.465 86.4613 144.655 87.9662L144.642 87.8879C146.504 84.5957 147.842 81.0697 148.308 77.5298C148.432 76.543 148.745 70.3726 146.41 70.2834C146.854 74.6358 147.431 79.2071 145.339 83.4236C145.11 83.7843 144.653 83.9418 144.319 83.6762C142.739 82.3327 142.719 79.9213 142.59 78.0111C142.499 76.8995 142.502 75.772 142.6 74.6287C142.181 75.5847 142.071 76.6498 141.853 77.6524C141.593 79.5477 141.815 81.442 142.226 83.3046C142.253 83.4612 142.292 83.696 142.413 83.8367C142.078 83.5712 141.649 83.3215 141.234 83.1501C140.188 82.6824 139.062 82.3088 137.949 82.0136C140.037 84.0764 141.519 86.5632 141.15 88.9598C140.766 91.8419 137.315 92.5848 134.509 93.1386C130.4 93.9924 126.236 95.097 122.141 96.0291C127.374 96.1125 132.581 96.0394 137.871 95.3084C138.623 95.1816 138.875 96.105 138.137 96.3101C128.694 99.3513 119.1 98.6347 109.573 98.3094C104.514 98.116 99.3879 98.095 94.2203 98.403C91.16 98.5971 88.2069 98.8536 85.239 99.5955C83.1037 100.117 80.9816 100.716 78.7936 100.924C78.3237 101.003 77.7614 100.535 78.1785 100.142C79.2419 98.9969 80.3317 98.0082 81.7431 97.2067C80.2029 96.098 78.5688 95.0052 77.0286 93.8965L77.0418 93.9747C77.7905 94.9754 77.2482 96.9183 77.057 98.0774C76.8659 99.2366 76.2724 100.303 76.1752 101.446C76.1736 102.01 76.266 102.558 76.6815 102.729C76.614 102.901 76.5464 103.074 76.8151 102.948C81.9479 100.714 87.277 100.218 92.9277 99.9089C98.2965 99.6475 103.746 99.292 109.1 99.5161C120.022 100.089 130.701 101.508 141.433 102.677C141.728 102.707 142.065 102.409 142.025 102.174C142.165 100.138 142.117 98.1342 142.351 96.0823C142.705 94.1712 143.838 92.2898 144.38 90.347C144.448 90.1746 144.515 90.0022 144.489 89.8457C144.918 90.0953 145.764 89.9527 146.247 89.9517C147.978 89.9013 149.79 89.7567 151.469 89.3931C154.006 88.9652 156.425 87.8329 158.697 86.4033C155.743 87.2235 152.601 87.5117 150.225 87.7514Z" fill="#000072"/>
</g>
</g>
<defs>
<linearGradient id="paint0_linear_2_713" x1="110.641" y1="68.1023" x2="109.727" y2="199.399" gradientUnits="userSpaceOnUse">
<stop/>
<stop offset="1" stop-color="white"/>
</linearGradient>
</defs>
</svg>
